<?xml version="1.0" standalone="no"?>
<!DOCTYPE svg PUBLIC "-//W3C//DTD SVG 1.1//EN" "http://www.w3.org/Graphics/SVG/1.1/DTD/svg11.dtd" >
<svg xmlns="http://www.w3.org/2000/svg" xmlns:xlink="http://www.w3.org/1999/xlink" version="1.1">
<metadata>
Created by FontForge 20170731 at Sun Nov 24 11:54:17 2019
 By Aleksey,,,
</metadata>
<defs>
<font id="TextStyle-2019" horiz-adv-x="465" >
  <font-face 
    font-family="TextStyle 2019"
    font-weight="400"
    font-stretch="normal"
    units-per-em="1024"
    panose-1="2 0 6 3 0 0 0 0 0 0"
    ascent="812"
    descent="-212"
    x-height="418"
    cap-height="583"
    bbox="-38 -212 506 702.2"
    underline-thickness="0"
    underline-position="50"
    unicode-range="U+000D-2033"
  />
<missing-glyph horiz-adv-x="374" 
d="M34 0v682h272v-682h-272zM68 34h204v614h-204v-614z" />
    <glyph glyph-name=".notdef" horiz-adv-x="374" 
d="M34 0v682h272v-682h-272zM68 34h204v614h-204v-614z" />
    <glyph glyph-name=".null" horiz-adv-x="0" 
 />
    <glyph glyph-name="nonmarkingreturn" unicode="&#xd;" horiz-adv-x="332" 
 />
    <glyph glyph-name="space" unicode=" " horiz-adv-x="332" 
 />
    <glyph glyph-name="space" unicode="&#xa0;" horiz-adv-x="332" 
 />
    <glyph glyph-name="exclam" unicode="!" horiz-adv-x="502" 
d="M185 329q1 20 3 40q-2 -19 -2 -15q1 4 2 15l2 24t3 24q3 28 9 55q5 28 12 55q2 10 5 22t13 17q4 1 7 0q3 -2 5 -1q6 3 10 7q5 4 13 -2q7 -5 6 -12q-1 -8 -3 -15v-6q-1 -3 -1 -6q0 -2 1 -4v-5v-26q-1 -14 -2 -27q-1 -11 -1 -21q1 -11 0 -21q-2 -15 -1 -31q0 -16 1 -31
q1 -26 2 -53q1 -26 5 -52q2 -16 4 -33l4 -32q1 -10 3 -19q1 -10 1 -20q-2 -9 -9 -13q-8 -5 -16 0q-2 1 -3 3q-2 1 -3 3l-1 1l-1 1q-1 -1 -2 -3q-2 -2 -3 -2q-3 -2 -6 -1h-5q-2 -1 -3 -3q-2 -3 -4 -4q-6 -4 -13 -1q-7 2 -10 9q-16 40 -19 90q-3 49 -3 93v0zM200 47q2 11 7 20
t13 16q13 13 35 18t39 -1q9 -4 14 -13q6 -9 8 -18q1 -5 1 -11q-1 -6 -1 -11q0 -2 -1 -4q-1 -1 -2 -3q-3 -8 -6 -17q3 8 2 7q0 -2 -2 -7q-5 -8 -15 -16q-10 -7 -20 -9q-4 0 -10 1q-5 1 -9 3h-1l-1 1q-2 0 -5 -3q-3 -4 -4 -5q-2 -2 -6 -4t-7 -3q-9 -1 -17 3t-9 13q0 3 2 5
q1 2 1 5q-1 2 -1 3l-2 4q-2 6 -2 13q-1 6 -1 13v0zM231 54q1 -3 3 -6q2 -4 4 -5q1 0 1 3v5q-1 3 -3 4q-2 0 -5 -1v0zM258 74q2 -6 5 -11q2 -5 3 -11q1 -4 1 -8t-1 -8q-1 -1 -2 -4t0 -4q3 -5 8 0q6 4 8 7q5 7 8 16q2 8 -1 17q-1 2 -3 5q-2 2 -5 3q-6 1 -11 0l-10 -2v0z" />
    <glyph glyph-name="quotedbl" unicode="&#x22;" horiz-adv-x="475" 
d="M116 470q2 7 1 14v15q0 12 1 24q1 13 3 25v7q0 4 1 8q3 10 13 14t19 -4q7 -8 9 -19q2 -12 3 -22v-12q0 5 0 4v-4v-4t1 -2t1 1v2q1 3 2 7l-1 -3q1 1 1 3q2 8 5 15q2 7 6 14q2 3 5 7q3 3 7 5q6 2 12 -1q7 -2 8 -9q1 -10 -1 -20q-2 -9 -3 -19q-2 -20 -5 -39l-6 -40
q0 -6 -2 -12t-3 -12q-1 -11 -5 -26t-11 -24q-3 -3 -7 -4h-8q-4 -1 -7 -2q-3 -2 -8 -1q-5 2 -9 8q-3 6 -5 11q-9 22 -13 46q-4 25 -4 49v0zM270 430q2 8 2 18v19q2 13 4 27t4 27q1 9 3 18q1 9 6 16q6 6 14 5t12 -9q2 -5 3 -11v-12q1 -1 1 -4q0 -4 1 -4t1 1v1q1 4 3 8
q-2 -4 -1 -3q0 1 1 3q2 7 8 14t15 4q12 -6 11 -20q0 -14 -1 -25q0 -25 -2 -51l-6 -50q0 -9 -1 -20q-1 -12 -3 -19q-4 -7 -12 -8t-13 7q-1 1 -1 3q-1 3 -1 4v2q1 0 0 1v0l-1 -1q-2 -1 -4 -1q-3 -1 -5 0q-3 0 -5 1l2 -1q-1 0 -2 1l-2 2t-2 1q-1 -1 -2 -3t-2 -3q-4 -2 -8 -3
q-4 0 -7 2q-4 2 -6 6q-1 5 -2 9q-3 11 -3 24q0 12 1 24v0zM324 426v0v0z" />
    <glyph glyph-name="numbersign" unicode="#" horiz-adv-x="472" 
d="M5 160l2 6q0 3 3 6q1 0 3 2q3 1 3 2h-1l-1 1q-1 1 -2 3q-2 2 -2 3q-2 6 1 11t9 7q13 5 31 6q19 1 34 2q3 0 11 1q7 0 9 1q1 2 1 5q0 2 1 4q2 11 3 23q-1 -11 -1 -9q0 3 1 9q2 13 4 27l6 26l4 16q3 8 3 16q0 2 -2 2t-4 -1l-20 -2q9 1 7 1q-2 -1 -7 -1q-12 -2 -23 -4
q-11 -1 -22 -4q-5 -1 -9 -3t-8 -3q-6 -1 -10 2q-5 3 -6 9q-1 8 5 12q5 5 12 7q2 1 5 1q4 1 5 2q1 0 0 1v1q-2 5 -3 5q-1 1 -5 3q-6 6 -7 12t4 13q5 4 13 7t14 5q15 3 30 7t30 6q4 0 12 1q7 0 11 2q2 2 3 6v7q1 7 3 13l4 14q5 20 12 38q6 19 14 37q3 7 7 15q3 9 8 13q3 2 6 2
q3 -1 6 0q3 3 5 8q3 6 11 5q10 -1 12 -6q3 -6 4 -14q1 -11 0 -24q-2 -12 -5 -23q-2 -8 -2 -17q1 8 0 6v-6q-2 -11 -5 -23t-6 -23q-2 -7 -4 -15q2 7 1 6q0 -2 -1 -6q-1 -1 -2 -3v-2h9q7 1 10 1q7 1 19 1q12 1 20 0q4 -1 9 -1q5 -1 9 0q2 1 4 5q1 4 2 6q8 19 17 39
q-8 -18 -7 -15q2 4 7 15q7 16 16 31l18 30q5 10 11 19t14 15l6 4q3 1 6 1q2 0 3 -1h3q1 1 3 7q2 5 3 7l4 10q-2 -5 -2 -4t2 4q4 11 14 24q10 12 23 2q2 -3 3 -6q0 -4 -1 -7q-1 -4 -3 -7q-3 -2 -5 -5q-3 -4 -5 -9q-2 -4 -3 -9q-7 -15 -12 -31q-6 -16 -12 -31l-12 -30t-10 -31
q-2 -8 -5 -16t-5 -17q0 -2 -2 -6q-1 -5 0 -6q2 -2 7 -3q5 0 8 -1l16 -6q7 -3 15 -7q3 -1 7 -2l6 -4q5 -6 6 -13q0 -6 -7 -11q-3 -2 -5 -2q-3 0 -5 -1q-1 0 0 0h1q3 -1 5 -2l-2 1q1 0 2 -1q6 -1 11 -2q-5 1 -4 1t4 -1q10 -2 20 -7q11 -5 9 -17q-4 -10 -13 -9q-10 0 -18 2
q-29 3 -59 6q28 -3 22 -2q-5 1 -22 2q-3 1 -12 2q-9 2 -11 2q-1 -1 -2 -4q0 -3 -1 -4q-2 -11 -4 -21q2 10 1 8q0 -2 -1 -8l-4 -16q-3 -8 -4 -16q-3 -18 -7 -36q3 17 3 13q-1 -3 -3 -13l-4 -16q2 7 1 6q0 -2 -1 -6q0 -2 -1 -5q-1 -2 -1 -3q1 -2 4 -2h5q13 -1 27 -3
q-13 2 -10 2q2 -1 10 -2q13 -1 26 -3l26 -4q6 0 13 -2t12 -6q3 -3 4 -6q1 -4 0 -8q0 -2 -1 -4q-1 -1 -1 -3q1 -3 3 -5t2 -5q-1 -13 -11 -13q-10 -1 -19 1q-19 2 -37 3q-19 2 -37 2h-10q-5 1 -10 1h-3h-3q-1 -1 -2 -5t-1 -6l-2 -14q-1 -8 -2 -15l-2 -14q-1 -8 -2 -15v-8v-8
q-2 -4 -5 -5q-3 -2 -5 -5q-1 -6 0 -12q0 -7 -2 -12q-2 -3 -6 -6q-3 -2 -4 -4q-2 -8 -1 -18q0 -11 -11 -13q-13 -1 -15 8q-1 9 -1 19q-3 23 -3 48q-1 24 -1 48q0 7 1 14q0 7 1 14v5q0 3 -1 4h-12q-9 -1 -13 -2h-6q-4 1 -7 0q-11 -1 -23 -2q-11 0 -23 -2q-10 -1 -21 -2
q10 1 8 1t-8 -1h-3q-1 0 -2 -1t-2 -5q0 -3 -1 -5q-2 -8 -2 -17q0 -8 -1 -16q-1 -15 -1 -31q1 -15 0 -31q-1 -6 -4 -12q-4 -5 -11 -6q-7 1 -9 4t-5 6q-3 2 -7 3q-4 0 -7 6q-2 5 -1 10l2 10q1 7 2 13q2 6 3 12t1 13q-1 7 -1 13v10t1 9q0 2 1 5q0 3 -1 4h-3l-2 -2q-4 0 -8 -1
q-3 0 -7 -1q-3 1 -7 3t-5 5q-1 1 -1 4q0 4 -1 4q0 1 -1 0h-1q-5 -1 -10 -1q5 0 4 0h-4q-11 -2 -26 -3t-20 13v0zM160 215q3 -3 10 -2q6 1 11 1h28q13 -1 27 -1q4 0 10 -1q7 0 10 1q1 1 1 5v6q2 15 3 30q-1 -14 -1 -11q1 3 1 11q2 16 5 33q3 16 6 33q1 7 3 14q-2 -7 -1 -6
q0 2 1 6q0 1 1 2v3h-6h-7q-12 1 -24 1q-13 -1 -25 -2h-8t-7 -1q-1 -1 -1 -4q-1 -3 -1 -4q-2 -5 -3 -11q-1 -5 -3 -10q-6 -16 -11 -34q-4 -17 -11 -34q-2 -6 -3 -12q-2 -7 -5 -13v0zM191 415v0v0zM326 416q2 0 0 0h1h-1v0zM327 419q3 0 0 0h1h-1v0zM328 422q2 1 2 2
q1 1 -2 -2v0zM331 429v0v0zM332 432v0v0z" />
    <glyph glyph-name="ampersand" unicode="&#x26;" horiz-adv-x="486" 
d="M37 116q3 14 2 27q-1 14 1 27q2 22 12 42q9 20 19 40q7 15 20 26q13 12 26 23q4 3 11 7q8 4 10 8q0 2 -1 3q-2 1 -3 2q-4 3 -8 7q-4 3 -8 7q-7 9 -16 17q-8 8 -16 17q-3 4 -6 9t-5 10q0 1 -1 4q0 2 -1 3q-2 3 -5 5q-4 1 -5 5q-3 9 2 16q6 6 9 14q2 10 5 20q4 10 9 19l6 8
q4 4 7 9q2 4 4 9t4 9q9 18 27 33t37 18q5 1 11 2q5 1 10 1q2 0 4 -1h5q6 1 12 4q5 2 12 2q3 0 7 -2q3 -2 5 -6q1 -4 2 -7q0 -4 6 -4q8 0 16 1q7 2 15 1q11 -1 20 -6t17 -13q8 -10 10 -27q2 -16 1 -29q-1 -4 -1 -8q-1 -5 -1 -9q1 -5 3 -10q3 -5 3 -10l2 -16q0 -7 -1 -15
q-2 -12 -12 -25t-18 -21q-3 -3 -6 -5q-3 -1 -6 -3l-6 -8q-2 -3 -6 -7t-9 -8q-5 -5 -10 -9q-5 -5 -12 -9q-6 -5 -13 -8l-6 -3q-3 -2 -4 -4q0 -2 2 -5q3 -4 4 -5q3 -7 7 -14t9 -13q16 -21 31 -42t31 -41q7 -8 13 -17q-6 8 -5 7q2 -2 5 -7q2 -2 4 -5q1 -3 3 -4q2 0 3 3q2 3 3 4
q6 10 13 20q-6 -10 -5 -8t5 8q8 13 15 27q-7 -13 -5 -11q1 3 5 11q6 12 14 23q7 11 13 22q4 8 11 12q8 4 15 -2q3 -4 4 -7v-8q1 -4 4 -7t2 -10l-2 -6q-2 -2 -3 -5q-3 -7 -6 -15q-2 -7 -5 -14q-2 -5 -5 -10q-3 -4 -5 -9q-4 -10 -6 -21q-2 -10 -6 -20q-5 -10 -10 -21q5 10 4 8
l-4 -8q0 -1 -2 -2q-1 -2 -1 -3q0 -2 2 -3t3 -2q3 -2 6 -5q4 -3 7 -5q19 -13 38 -25q-18 12 -14 9q3 -2 14 -9q4 -3 9 -6q4 -3 6 -8q5 -14 -6 -17t-21 0l-10 4q-6 2 -11 5q-3 1 -5 3q-3 1 -5 2q-1 1 -2 1h-1q0 -1 1 -1q2 -1 3 -2q4 -4 9 -7q-4 3 -3 3l3 -3q10 -7 21 -12
q-10 5 -8 4l8 -4q7 -3 12 -7q6 -3 6 -11q-1 -11 -9 -12q-9 -2 -17 3q-16 9 -31 19t-30 22l-14 12q7 -5 5 -4q-1 1 -5 4q-1 2 -2 3q-2 1 -3 0q-2 0 -2 -1l-2 -2t-3 -1q-2 -1 -3 -3q-1 -3 -1 -6t-3 -7q-7 -7 -20 -13t-22 -9l-22 -6q-12 -3 -23 -4q-14 -2 -29 -1l-28 2
q-22 3 -42 7t-41 13q-13 5 -26 15q-12 9 -18 22q-6 14 -7 28v28v0zM86 137q1 -9 5 -17q5 -8 9 -16t11 -18q8 -10 15 -15q12 -9 33 -13q20 -4 35 -2q7 1 23 6q15 4 22 8q4 1 8 4q3 2 7 4q7 3 16 10q10 6 15 12q1 2 -4 7q-4 5 -6 7q-9 10 -17 22q-7 11 -15 22q-5 8 -10 17
q-5 8 -9 16q-2 4 -4 6q-3 3 -5 6q-5 6 -10 13q-4 8 -9 14q-2 5 -5 10q-3 4 -6 9l-2 4q-2 3 -3 4q-2 1 -4 -2l-3 -3q-10 -6 -19 -14q8 7 7 5q-2 -1 -7 -5q-9 -8 -17 -16l-16 -18l-10 -12q-6 -7 -9 -14l-6 -14q-3 -8 -6 -15q-1 -3 -1 -6q-1 -3 -3 -6v0zM166 454v-26
q1 -13 1 -26v-9q0 -6 2 -9q1 -1 2 -1t2 -1q8 -7 14 -17q-6 9 -5 7t5 -7q2 -3 5 -8l4 -8q1 -1 2 -4q1 -2 2 -2t3 1q1 2 2 3q11 10 19 21q-8 -10 -6 -8q1 2 6 8q9 11 18 23t16 25q6 12 9 26t5 27v5v4q0 3 -5 11q-5 7 -8 9q-11 5 -30 4t-30 -5q-3 -2 -6 -6q-3 -3 -5 -6
q-6 -7 -12 -15l-10 -16v0zM286 520q2 -2 4 -5t4 -4q1 -1 0 1t-2 3q-1 2 -2 3l-4 2v0z" />
    <glyph glyph-name="quotesingle" unicode="'" horiz-adv-x="470" 
d="M189 468q2 6 1 12q0 7 1 13q1 16 3 35q1 19 7 33q4 10 14 17q9 7 19 -2q4 -5 6 -14q1 -10 2 -17v-8q0 -6 1 -7t1 0l1 1l2 4l2 4q3 5 7 9t10 4q7 0 11 -6q4 -5 4 -12q1 -15 -1 -31t-2 -32q0 -6 -1 -13t-1 -14q-2 -15 -2 -30t-2 -30q0 -8 -1 -16q-1 -9 -11 -11q-8 -1 -12 4
q-4 6 -4 13q0 16 2 33q2 16 2 32q0 10 1 19q-1 -9 -1 -7t1 7v3v3q-1 0 -1 -2t-1 -3q-3 -11 -5 -21q2 10 2 8q-1 -2 -2 -8q-3 -15 -4 -29q-1 -15 -4 -29q-1 -6 -3 -11q-3 -6 -9 -7q-10 -2 -14 5t-4 15q1 2 1 5q1 3 0 4l-3 1l-2 1l-4 2q-2 2 -3 4q-5 14 -5 34q1 20 1 35v0z
" />
    <glyph glyph-name="parenleft" unicode="(" horiz-adv-x="483" 
d="M127 188q1 18 3 37q-2 -18 -2 -14q1 3 2 14q0 2 1 5t1 6q0 6 -1 13l-2 14q-1 14 -1 30q1 16 4 30q10 44 35 80t54 68q4 5 7 10q4 5 7 9q7 8 13 15q6 8 13 15q13 13 27 25t29 22q8 5 22 9q13 3 16 -11q1 -11 -9 -19q-9 -9 -17 -16q-2 -1 -4 -3q-2 -1 -3 -3q0 -3 -1 -6
t-4 -5q-17 -12 -33 -25t-29 -29q-21 -27 -37 -56q-15 -30 -27 -61q-5 -11 -9 -22q-5 -11 -7 -22q-1 -11 -1 -22q-1 -10 -2 -21q-1 -8 -1 -16q-1 -8 0 -16q1 -9 1 -18q0 -10 1 -19q1 -3 1 -6v-6l6 -20q4 -10 8 -19l8 -22q3 -11 8 -22q6 -14 12 -27l12 -28l14 -32q-7 15 -5 12
q1 -3 5 -12q3 -7 5 -14q3 -7 7 -14q7 -10 13 -21q7 -11 15 -20q9 -9 22 -16q12 -8 22 -16l14 -14q6 -8 2 -19q-4 -8 -13 -6q-8 1 -14 4q-8 3 -14 9q-7 6 -12 11q-4 3 -7 3q-3 1 -7 2q-6 3 -13 11q-6 7 -9 13q-5 11 -13 18q-9 7 -16 15q-19 22 -37 43q17 -20 14 -16
q-4 4 -14 16q-32 42 -46 92q-14 51 -14 103v0z" />
    <glyph glyph-name="parenright" unicode=")" horiz-adv-x="500" 
d="M140 540q1 6 7 9q5 3 11 1q9 -4 18 -10q9 -5 17 -11q6 -3 13 -6t13 -8q12 -11 26 -22q13 -10 25 -23q10 -11 19 -24q9 -12 17 -25q30 -45 42 -100t7 -108q-1 -12 -2 -23q0 -12 -2 -23q-2 -18 -5 -35l-8 -34q-5 -18 -9 -37q-5 -18 -11 -36q-2 -5 -3 -10t-3 -10
q-8 -22 -18 -45q-9 -23 -22 -43q-7 -11 -18 -21q-12 -10 -25 -10q-3 1 -5 3l-4 4q-2 0 -5 -4t-5 -5q-3 -4 -9 -7q-5 -3 -10 -3q-10 -1 -17 5q-6 6 -3 16q4 6 9 11t9 11q3 4 6 7q-3 -3 -2 -3q0 1 2 3l2 2l1 2q-8 -4 -15 -11q-7 -6 -17 3q-3 2 -4 6q2 -3 1 -3q0 1 -1 3
q-1 9 6 15q8 6 14 11q7 7 15 14q7 7 13 14l6 8q3 3 6 7q3 3 6 7t5 8q2 6 3 12t3 12l6 26q3 12 6 25q5 29 11 57t10 57l6 50q-3 -23 -3 -18q1 4 3 18q1 10 0 19l-2 20q-1 9 -1 19l-2 20q-2 19 -8 43t-13 42q-3 7 -7 14t-7 15q-2 5 -6 10t-8 9l-6 8q-3 5 -6 9q-17 18 -38 32
q19 -14 15 -11q-3 3 -15 11l-12 8t-12 7q-3 1 -5 2t-3 3q-2 3 -2 6v5v0zM231 -84q7 1 12 8t9 12q3 5 5 9q2 5 3 9q4 10 9 19l8 18l4 12t5 12q2 6 3 12q2 5 4 11l3 6q1 4 1 6q-1 0 -2 -2t-2 -3q-2 -5 -4 -9q2 4 2 3t-2 -3q-6 -15 -13 -30q7 14 5 11q-1 -3 -5 -11
q-5 -10 -11 -20t-11 -20l-6 -10q-3 -4 -5 -9l-6 -16q-2 -8 -6 -15v0zM292 371v0v0zM293 368v0v0zM293 366v0v0zM294 363v0v0zM295 360v0v0zM295 357v0v0zM296 354v0v0zM297 350v0v0zM297 53v0v0zM297 347v0v0zM298 343v0v0zM299 339v0v0zM299 335v0v0zM300 331v0v0z" />
    <glyph glyph-name="asterisk" unicode="*" horiz-adv-x="478" 
d="M53 420q2 7 8 10l10 6q1 0 0 2t-1 3q-1 3 0 7t3 6q6 6 14 7q9 2 17 2q16 -1 33 -3q16 -3 32 -8q7 -2 15 -5q8 -2 15 -5q3 -1 6 -3q-3 1 -2 1l2 -1q0 -1 1 -1v-1q1 1 2 4v4q2 6 3 13q0 6 1 13q2 12 3 24q0 12 1 25q1 8 3 16q1 7 2 15q0 7 2 15t8 11q7 3 13 0q-6 1 -4 1
q1 0 4 -1q2 -1 3 -3q2 -2 3 -2t2 1l2 2q3 1 7 0l6 -2q7 -6 6 -15t-3 -16v-13v-12v-22q0 -10 1 -21q0 -3 1 -12q0 -9 2 -11q1 -1 4 0q4 2 5 2q11 5 22 8q-10 -4 -8 -3t8 3q23 6 46 10q23 5 46 1q8 -1 18 -5q9 -5 10 -15q0 -3 -1 -6q0 -2 -2 -4t-4 -3l-4 -2q-6 -3 -11 -7
q-6 -4 -11 -8q-3 -2 -2 -3q1 -2 1 -5q0 -4 -2 -7q-2 -4 -5 -6q-6 -2 -13 -3q-7 0 -13 -1q-9 -1 -18 -1l-18 -2q-3 0 -5 -1l-6 -2q-3 0 -12 -1q-8 -1 -11 -2v-4q1 -2 1 -3q3 -6 5 -13q2 -6 3 -12q2 -7 4 -15q3 -7 4 -14q1 -8 2 -17q2 -8 5 -16q3 -6 8 -18q5 -11 6 -17
q1 -7 -4 -12t-12 -4q-7 2 -11 9t-7 13q-1 1 -3 2t-3 2q-4 4 -7 10q-3 5 -5 10q-12 23 -25 45q12 -21 9 -16q-2 4 -9 16q-3 6 -5 12q-3 5 -5 11q-1 1 -2 5t-2 4t-2 -3q-1 -2 -2 -3q-5 -10 -9 -20q4 9 3 7q-1 -1 -3 -7q-11 -22 -22 -43q-12 -21 -21 -43q-3 -6 -10 -9
q-8 -3 -14 1q-8 6 -6 15t5 17q0 2 2 8q1 5 -1 6q-1 0 -2 -3q-1 -2 -1 -3q-2 -6 -4 -11t-8 -8q-9 -2 -14 3q-5 6 -4 14t5 16l8 14q15 29 33 56q-17 -25 -13 -20q3 5 13 20q6 10 13 20q-6 -9 -5 -7q1 1 5 7q1 1 2 3q2 2 1 3t-4 1h-5q-10 -1 -19 0q9 0 7 0h-7q-15 2 -29 3
q-15 2 -29 2q-8 0 -18 -1q-11 0 -17 2q-5 2 -7 7q-3 5 -3 10v0z" />
    <glyph glyph-name="comma" unicode="," horiz-adv-x="458" 
d="M164 -94q3 12 5 23l4 24q3 11 6 23l6 22q1 8 3 16t5 15q4 10 6 21q2 10 6 20q3 7 5 16q2 8 4 15q1 5 2 9q2 4 6 6q6 2 12 -1t7 -9q1 -2 0 -4v-5q-1 -1 -1 -3t1 -2v1v2l4 10q-2 -5 -2 -4q1 1 2 4q1 5 3 11q1 7 5 11q5 5 12 5q8 0 11 -7q1 -3 1 -6t1 -6q1 -2 3 -2q3 1 5 0
q3 -2 6 -6q2 -4 2 -9q0 -11 -5 -27q-5 -17 -8 -29q-6 -23 -13 -46t-15 -45q-6 -13 -11 -27q-4 -14 -11 -27q-4 -7 -11 -13q-6 -6 -15 -2q-3 1 -5 4q-2 2 -5 3q-3 0 -2 0q1 -1 -3 0l-4 2q-2 2 -5 3q-8 0 -11 3q-4 3 -6 11v0z" />
    <glyph glyph-name="hyphen" unicode="-" horiz-adv-x="482" 
d="M75 206q4 14 13 13q10 -1 21 -1q4 0 7 2l6 2q8 1 15 1q-7 0 -6 0h6q37 4 75 8q-35 -4 -28 -3t28 3q6 1 13 0q6 0 12 1q9 1 18 0h18q15 2 31 1q15 0 30 -1h29q15 0 29 -2q6 0 10 -4q5 -4 5 -10q0 -4 -3 -8t-7 -5q-1 -1 -3 0q-2 0 -3 -1l2 -2l3 -3q1 -4 1 -10q-1 -5 -4 -8
q-4 -3 -9 -4h-10h-15q-8 -1 -15 0q-4 1 -9 1q-6 1 -10 0q-1 -1 -2 -3q-2 -1 -3 -2q-5 -2 -13 -1q-7 0 -12 1l-54 6q25 -3 20 -2q-5 0 -20 2l-24 2t-24 3q-8 1 -17 2q-8 1 -16 0l-18 -2q-10 -2 -18 -5l-4 -2q-2 -2 -5 -3q-6 -1 -11 2q-5 4 -6 10v3q1 2 0 3t-5 1q-5 0 -7 1
q-6 0 -8 5q-2 4 -3 9v0z" />
    <glyph glyph-name="period" unicode="." horiz-adv-x="490" 
d="M189 62q3 14 7 23t17 18q19 12 44 9t39 -21q4 -7 5 -17q1 -9 0 -18q-3 -31 -22 -57q-20 -26 -55 -20q-5 2 -9 5q-5 4 -9 7q-3 4 -6 10q-3 5 -3 11q1 4 3 7l-2 -3q1 1 2 3q0 1 1 1q1 1 1 2q-2 1 -5 2q-2 0 -4 2q-5 6 -5 17t1 19v0zM212 25q2 -1 5 -2t5 -4q2 -1 2 -4
q1 -3 2 -5q5 -5 14 -5q10 1 14 7q0 1 -2 1h-4q-4 0 -7 1l-6 2l-8 4q-4 3 -6 5q-1 1 -2 3l-3 3q-1 -1 -2 -3q-1 -1 -2 -3v0zM227 73q1 -4 1 -8q1 -4 3 -8q2 -3 3 -5q2 -3 4 -5t6 -4q5 -3 7 -2t2 3l2 4q2 5 3 11q1 5 0 12q1 2 0 7q-1 4 -4 5q-7 1 -14 -3q-8 -3 -13 -7v0z" />
    <glyph glyph-name="slash" unicode="/" horiz-adv-x="466" 
d="M92 25q9 36 24 69q14 33 29 66q22 51 46 102q23 50 45 101q8 18 16 37q-8 -18 -6 -14q1 3 6 14q3 8 5 16l6 16q3 6 6 14q3 7 5 15q1 6 4 12l4 12q3 6 4 13l4 12q6 14 13 26q7 13 15 26q5 8 13 16q9 9 19 7q11 -4 10 -14t-4 -18q-2 -5 -3 -10q1 4 1 3t-1 -3q0 -1 -1 -2v-1
q1 0 3 1q1 1 2 1q4 1 8 -1q4 -1 6 -4q4 -6 3 -14q-2 -7 -3 -13q-5 -18 -15 -36q-9 -18 -17 -35q-14 -32 -29 -64t-29 -63q-4 -11 -10 -21q-5 -11 -11 -21q-8 -17 -16 -35q-8 -17 -17 -34q-9 -15 -16 -30q-7 -16 -15 -31q-24 -44 -42 -91q18 43 14 35q-4 -9 -14 -35
q-2 -4 -4 -7q-3 -2 -6 -5q-3 -4 -5 -12q-2 -7 -7 -13q-4 -3 -9 -1q-4 1 -7 0l-2 -2l-3 -3q-6 -2 -12 1t-7 8q-1 3 -1 5q1 3 1 5v0z" />
    <glyph glyph-name="zero" unicode="0" horiz-adv-x="447" 
d="M51 279q0 19 4 43q5 24 12 42q4 10 6 19q3 10 6 19q3 5 6 11q3 5 5 11q9 18 23 32q14 15 27 30q4 4 7 9q4 5 8 9q5 4 11 7q6 4 12 7l16 8q8 5 17 8q4 2 9 4q5 1 10 3q27 10 53 11q26 2 50 -17q13 -12 23 -26q9 -15 15 -32l2 -12t3 -12q1 -7 4 -14q3 -6 6 -13q4 -12 6 -29
t3 -31q1 -11 1 -22q0 -12 -2 -23v-16t-1 -16l-2 -26l-2 -26q-2 -14 -5 -29q-3 -14 -7 -28q-5 -23 -12 -45t-16 -43q-7 -19 -17 -41q-10 -21 -25 -36q-7 -5 -14 -9q-8 -4 -16 -6q-4 -1 -7 -2q-4 0 -7 -1t-5 -3q-3 -2 -5 -4q-7 -3 -14 -5q-8 -2 -15 -2q-12 0 -23 4
q-10 4 -21 9q-32 14 -55 39q-22 26 -36 58q-5 11 -8 24t-4 26q-1 7 -1 14q-1 8 -3 15q-22 51 -22 107q5 -52 2 -42q-2 10 -2 42v0zM79 290q1 -5 0 0l1 -2l-1 2v0zM80 297v-3t0 -1q1 1 2 4v4q1 7 3 14t3 13q1 3 1 5v5v3q1 1 0 1q-1 -2 -2 -5q0 -4 -1 -6q-2 -9 -3 -17
q-1 -9 -3 -17v0zM101 190v-11l3 -9q0 -1 2 -4l1 -3q1 1 0 3q0 1 -1 2q-2 11 -5 22q2 -10 2 -8q-1 2 -2 8v0zM114 107q7 -26 28 -50q22 -23 46 -34q5 -3 10 -5t11 -4q1 0 4 -1t4 -1q0 1 -3 2t-4 1q-2 1 -4 3q-2 1 -4 3l-14 10t-13 12q-11 10 -21 21q9 -10 8 -8l-8 8
q-5 5 -8 10q-4 6 -8 11q-2 1 -4 3q-2 1 -3 3l-8 8q-4 5 -9 8v0zM124 294v-17q-1 -8 0 -16q1 -7 3 -14q3 -8 6 -14q2 -5 3 -11q2 -6 4 -11q7 -17 15 -35q-7 16 -6 13q2 -3 6 -13q4 -9 12 -23t15 -22q6 -7 13 -14l12 -14l6 -4t5 -4q10 -10 23 -17q13 -6 25 -11q2 -1 8 -3t8 -2
q0 1 3 8l4 8l12 28q-6 -13 -5 -11q1 3 5 11q2 5 3 10t3 10q5 15 11 38q5 24 7 39q1 10 4 20q3 9 4 19q1 9 3 18t3 19q2 17 4 35q2 17 4 35q2 19 1 38t-3 37q-1 8 -2 17t-4 17q-2 4 -7 9t-8 9l-8 8q-4 5 -9 8q-20 8 -38 11q-19 4 -40 -5q-4 -2 -9 -5t-9 -6q-23 -23 -43 -49
t-33 -57l-2 -8v-9q-2 -11 -4 -23q-2 -11 -3 -23q-1 -6 -1 -12t-1 -12v0zM145 135v0v0zM146 134q1 -5 5 -16q4 -10 7 -14q3 -3 7 -5q3 -3 6 -5q6 -4 13 -7q-6 3 -5 2t5 -2l1 -1l1 -1q1 1 -1 2l-2 2l-12 12q6 -6 5 -5l-5 5q-7 7 -13 16q-7 8 -12 17v0zM217 12v0v0z" />
    <glyph glyph-name="one" unicode="1" horiz-adv-x="372" 
d="M70 371q4 15 18 35q13 20 24 32q4 4 6 8q3 5 7 9q10 12 21 25q-10 -12 -8 -10q2 3 8 10q10 11 21 23t23 22q4 3 8 7q4 3 7 7q8 9 14 18q7 8 14 17q4 4 10 7q5 3 11 1q1 -1 3 -2t3 -2q2 0 5 1t5 2q8 3 16 2q9 -1 13 -10q3 -7 0 -13q-4 -6 -9 -11l-4 -6t-5 -5q-2 -3 -6 -7
q-3 -4 -1 -8q1 -1 4 -1t4 -1q2 -1 4 -3l2 -4q3 -9 0 -21t-4 -21q-2 -16 -5 -32q-3 -15 -5 -31q-1 -6 -1 -11q0 -6 -1 -11v-8q1 -4 0 -8q-1 -12 -1 -24v-25v-11q1 -6 0 -12t0 -12v-13v-29q0 -14 2 -28q2 -21 3 -42q0 -21 2 -42q1 -4 0 -8v-9q1 -9 3 -18l4 -18l2 -8q2 -4 2 -7
q1 -5 -2 -10q-2 -5 -8 -7q-5 -1 -9 2q-3 2 -6 6q-2 1 -4 -1q2 1 1 1l-1 -1q-1 -7 -1 -15q1 -9 -9 -11q-10 0 -14 5t-5 13l-2 30t0 31q0 9 -1 18q-2 10 -3 19l-2 24t-3 25q-1 12 -1 25q0 14 1 27q-1 12 -1 24t1 24q1 6 2 13v12q0 12 -1 25q-1 12 -1 25v69q0 -32 0 -26v26v15
q0 7 1 14q0 1 1 4q0 3 -1 3q-2 -1 -4 -3l-3 -3q-5 -5 -9 -10l-9 -9q-11 -8 -20 -18l-20 -18q-10 -10 -21 -18q10 8 8 6t-8 -6q-3 -3 -7 -4q-3 -2 -6 -3q-2 -2 -4 -5q-1 -3 -3 -5q-5 -6 -11 -12q-7 -7 -14 -9q-5 -1 -10 0q-6 1 -8 6q-1 2 -1 4q-1 2 -1 4v0zM220 513l3 3
q3 2 3 3t-1 0l-2 -2q-2 -3 -1 -2l-2 -2v0z" />
    <glyph glyph-name="two" unicode="2" horiz-adv-x="449" 
d="M59 38q3 11 10 22q7 10 15 18q6 6 12 14q5 7 11 13q13 13 26 27q13 13 26 27q10 10 19 20q9 11 18 21q5 5 8 10q4 6 8 11q3 2 4 5q2 4 4 6q7 8 12 16q6 9 13 16q8 9 15 22q7 14 16 23q4 4 7 9t7 9q18 19 26 44q9 26 6 52q-1 7 -1 15q0 7 -3 14q-5 11 -13 23q-9 12 -19 17
q-10 3 -24 0l-25 -5q-16 -2 -32 -6q-17 -4 -33 -8q-6 -1 -14 -3q-8 -1 -13 -3q-7 -3 -13 -6q-7 -4 -13 -7q-9 -4 -20 -9t-21 -7q-7 0 -12 4q-5 5 -5 12l2 6q2 2 4 5q1 0 3 1l3 2q0 2 -2 4q-2 3 -3 4q-2 5 0 10q1 5 4 8q5 5 11 9q7 4 13 6q8 4 15 9t14 8q6 3 11 6t11 6
q33 14 67 29q-32 -14 -25 -11q6 3 25 11q9 3 19 5l20 2q11 1 23 1q11 -1 22 -6q4 -2 9 -4q4 -3 8 -5l6 -2q3 -2 5 -4q10 -9 20 -19q10 -11 16 -24q8 -18 14 -36q5 -17 8 -38q1 -10 0 -20q0 -11 -2 -21q0 -4 -1 -7q0 -4 -1 -8q1 -9 2 -19q1 -9 0 -19q-2 -10 -3 -20q1 9 1 7
q0 -1 -1 -7q-1 -11 -6 -24q-5 -14 -16 -16q-3 -1 -6 0q-3 0 -5 2q0 1 -1 2q-1 2 -2 1q-1 0 -1 -2q-1 -1 -1 -2q-2 -4 -4 -7q-2 -4 -5 -8q-6 -9 -13 -20q-7 -10 -14 -18q-2 -2 -4 -5q-1 -3 -3 -5q-7 -7 -13 -15q-6 -7 -13 -14q-9 -9 -18 -17q-10 -8 -19 -16q-3 -4 -7 -6
q-4 -3 -7 -6l-20 -20q-10 -9 -20 -19q-5 -4 -9 -8q4 4 3 3l-3 -3l-6 -8q-2 -4 -5 -7q-4 -4 -6 -9t-6 -9q-3 -3 -6 -7q-4 -4 -5 -8q0 -2 6 -2h8q12 2 24 2h24q37 0 73 -1q37 0 74 -1q12 1 28 -1q15 -3 15 -18q-1 -7 -7 -11q-7 -3 -14 -3q-11 0 -22 -2q10 1 8 1t-8 -1h-18
q-9 1 -18 0q-13 -2 -27 -2h-27h-11h-12q-11 -1 -23 -1h-22q-13 0 -25 -1q11 1 9 1q-3 0 -9 -1q-9 -1 -18 0q-9 0 -18 1h-8h-9q-2 -1 -4 -5q-1 -3 -3 -5t-6 -3q-3 -1 -6 -1q-3 1 -6 3t-4 4q-1 1 -1 4t-1 4h-1q-1 0 -2 1q-2 0 -3 2l-2 2q-4 2 -7 4q-4 2 -6 7v4v5v0zM255 216
q6 3 11 11q6 7 10 13q11 11 20 25q9 13 17 27l18 32q-8 -15 -7 -12q2 3 7 12q1 2 3 4l2 4v2h-1q-1 0 -3 -3q-2 -4 -2 -5q-9 -10 -15 -21q6 10 5 8t-5 -8q-9 -17 -19 -33l-22 -32q-4 -5 -9 -13t-10 -11v0zM258 547q1 -1 1 -2v-1h3q2 1 3 1h6q4 0 7 -1h3q2 -1 3 0t-1 1h-1
q-3 1 -6 1q3 0 2 0h-2q-4 1 -9 2q-4 0 -9 -1v0zM285 544v0v0z" />
    <glyph glyph-name="three" unicode="3" horiz-adv-x="436" 
d="M42 41q3 10 11 10l16 2q2 1 3 3q0 1 1 3q3 4 7 6q5 2 9 0t5 -5q2 -3 5 -5q2 -1 5 -2h6q10 -1 19 -1q9 1 19 2q30 3 60 10q31 6 60 14q24 6 45 15q-20 -8 -16 -7q4 2 16 7l9 3q5 2 7 4q2 3 2 7q-1 5 -1 8q0 17 -2 34q2 -15 2 -12q-1 3 -2 12q-1 14 -3 32q-1 17 -9 29
q-1 1 -3 2t-3 1l-10 6q-4 3 -9 5q-20 9 -41 17t-43 11q-7 1 -15 2l-14 2q-4 1 -9 2q-4 1 -8 1q-3 -1 -5 -2q-3 -1 -6 -1q-4 1 -7 4q-4 3 -5 8q0 12 11 17t21 7q1 1 2 1q2 0 3 1t1 3q0 3 1 5l2 4q2 1 4 3q3 3 8 5t9 4q12 4 23 8q11 5 22 9q12 5 23 9q12 4 23 8q3 1 6 3
q3 1 5 3q3 5 6 13q2 8 3 14q4 15 7 31q4 15 4 31v13q1 7 0 12q-2 3 -8 6q-5 3 -8 4q-13 7 -27 9q-13 2 -27 3q-25 3 -50 1q-24 -2 -49 -5q-17 -2 -35 -4q16 1 13 1t-13 -1h-4h-3q-2 -1 -3 -3q0 -1 -1 -3q-3 -7 -5 -14q-3 -8 -12 -9q-8 1 -11 6q-4 6 -3 13q0 2 1 5q2 3 1 5
q-3 3 -6 5q-4 2 -3 9q2 14 16 20l27 9q2 1 5 3l4 4q7 5 14 8q8 4 15 6q26 5 51 -1q24 -6 49 -10q17 -2 37 -5q20 -4 35 -12t28 -20t21 -27q4 -12 5 -25q0 -12 -1 -25q-1 -4 0 -8v-8q-3 -16 -12 -32q-9 -15 -19 -26q-6 -5 -11 -10q-6 -4 -11 -8q-3 -3 -4 -6l-4 -6
q-6 -7 -13 -13q6 6 5 5q-1 -2 -5 -5l-8 -6q-4 -2 -8 -5q-1 0 -4 -2q-4 -1 -3 -2t3 -2q3 0 4 -1q13 -5 25 -11q-11 6 -9 5t9 -5q14 -7 26 -17t22 -21q14 -16 23 -36q8 -20 11 -42q2 -9 2 -19q-1 -9 -4 -18q-4 -10 -11 -19q-6 -9 -14 -16q-1 -2 -4 -3q-2 -1 -3 -3
q-6 -6 -12 -16q-6 -9 -12 -16q-17 -19 -35 -37q17 17 13 13l-13 -13q-2 -2 -4 -3t-4 -3q-10 -9 -23 -15q-13 -7 -26 -9q-21 -1 -48 4q-26 6 -46 14q-11 4 -22 7q-11 2 -21 6q-6 3 -13 5l-14 2h-23q-12 1 -13 17v0zM176 24q5 -3 12 -4q6 -2 12 -2l26 -4q13 -1 26 4q8 4 15 9
q-7 -5 -6 -4q2 1 6 4q1 0 3 2q2 1 3 2h-2q-1 -1 -2 -1l-8 -2l3 1q-1 0 -3 -1q-10 -2 -20 -3q9 1 7 1q-2 -1 -7 -1q-16 -2 -33 -1h-32v0zM355 161q2 -8 0 0l1 -4l-1 4v0z" />
    <glyph glyph-name="four" unicode="4" horiz-adv-x="450" 
d="M84 335q0 6 2 11t5 11t5 14q1 8 2 15q1 9 1 19q0 9 1 19q2 13 4 25q3 13 4 26q1 6 2 11q2 5 3 11q1 8 2 17q2 8 4 17t4 22q3 12 10 20q1 1 3 2q2 0 3 1q3 2 5 5t6 4q4 0 7 -1q3 -2 5 -4q6 -7 4 -16q-3 -10 -5 -18q-1 -11 -4 -21l-4 -20q-3 -20 -6 -39q-4 -19 -6 -39
q-2 -19 -3 -39q1 18 1 15q0 -4 -1 -15q-1 -2 -1 -6t2 -4q6 0 11 3q6 3 12 4l14 2q6 2 13 3q8 1 16 1q7 1 15 2h10h10q1 -1 2 -1q2 -1 3 0t1 5v4q2 14 3 27q-1 -13 -1 -10q0 2 1 10q3 21 8 43q6 21 14 41q3 8 8 18t15 12q7 0 12 -4q4 -5 5 -12q1 -4 0 -8v-8q2 -14 1 -29
q0 -15 -1 -29v-23q0 11 0 9v-9q-1 -4 -1 -9q0 4 0 3v-3v-3t1 -1q2 4 2 9q1 6 2 10q6 26 11 52q-5 -25 -4 -20l4 20l2 10q1 6 3 11q5 9 14 17q9 9 19 -4q2 -5 2 -11q-1 -7 -2 -12q-2 -18 -5 -37q-3 -18 -5 -36q-2 -17 -2 -34t-2 -34l-2 -28q0 -14 -1 -28q-1 -6 0 -12v-12
q-2 -14 -1 -29v-29v-46v-46q0 -20 -2 -39q-2 -20 -6 -39q-1 -9 -6 -17t-15 -8q-4 0 -6 2q-3 2 -5 4q-1 1 -1 3q-1 2 -2 2q-3 0 -4 -2q-1 -3 -3 -4q-4 -4 -9 -4q-6 -1 -10 3q-3 3 -5 7q-1 5 -2 9q-3 7 -5 15l-4 16q-8 35 -12 71l-6 72q-2 14 -2 29v29v10v9q-3 1 -12 1
q-9 1 -13 1q-18 2 -36 5q-19 2 -38 0q-7 -1 -16 -4t-15 -2q-9 3 -10 11q-2 9 -3 16q0 2 -2 2q-2 1 -4 1q-3 1 -5 4q-2 2 -3 5v0zM158 355q3 -2 6 -2q3 -1 7 -1q11 -2 26 0q15 3 27 4q4 1 8 1q5 1 9 3q1 0 2 1t0 3q-1 1 -2 1h-3h-10t-9 -1h-12q-5 0 -11 -1q-9 -1 -19 -3
q-10 -3 -19 -5v0zM269 292q0 -11 -1 -22q0 -11 1 -22q1 -8 1 -17q1 -9 1 -17q0 -5 1 -10v-9v-5q0 -3 1 -4v0q1 1 1 2v10q0 -5 0 -4v4l2 22q-1 -11 -1 -9q1 2 1 9v55q0 -26 0 -21v21v11t-7 6v0zM273 394v-3t1 -3t3 -2q2 0 3 1q1 4 1 8v8q2 20 3 41q-1 -19 -1 -15q0 3 1 15v8
v8v1v2q-1 0 -1 -2v-4q-1 -3 -1 -5l-2 -6q-2 -13 -3 -26t-4 -26v0z" />
    <glyph glyph-name="five" unicode="5" horiz-adv-x="452" 
d="M50 23l2 4q0 2 1 3q8 6 21 9t23 4q2 0 5 -1q2 0 4 1q4 2 7 4q4 3 8 5q7 3 17 3t18 1q19 2 38 5t38 9t39 20q19 14 35 28q9 8 17 17t14 21q3 4 6 10q2 5 3 11q-1 9 -7 15q-6 7 -11 14q-1 2 -1 5t-2 5q-5 3 -10 4q-6 1 -11 4q-2 1 -3 3q-1 3 -3 4q-6 3 -12 5l-12 4
q-22 8 -44 11q-22 4 -45 6q-9 1 -18 0q-10 -1 -18 -3q-5 -2 -12 -3q-6 -1 -11 1q-3 2 -5 6q-1 4 -1 8q0 1 1 2t1 3q-1 0 -3 -1q-2 -2 -2 -3q-4 -1 -7 -1q-4 0 -7 1q-8 5 -12 18t-5 21q-5 46 0 93q-3 -44 -3 -35t3 35q2 15 6 30q4 14 6 30q1 5 0 11v12q2 14 4 31q3 17 11 29
q3 3 7 4q3 1 6 4l5 5q2 3 5 4q5 2 11 2q6 -1 9 -6q1 -2 1 -5q0 -2 4 -2h7l8 2q17 1 35 2h35q35 2 71 2q-34 -1 -27 -1t27 1h18t17 -3q6 -3 10 -9q4 -5 3 -12q-1 -3 -3 -4q-1 -2 -3 -4q-2 -5 -1 -9q0 -4 -4 -8q-3 -2 -9 -3l-9 -3q-24 -6 -49 -8q-24 -3 -49 -3h-11h-12l-10 2
q-5 2 -10 2q-6 -1 -13 -2t-13 -2h-8q-5 1 -8 0q-2 -1 -2 -4v-4q0 -7 -1 -14t-2 -13q-4 -39 -5 -78q2 36 1 29q0 -7 -1 -29q0 -8 -2 -17q-1 -8 -1 -17q1 -4 4 -3q2 1 5 1q17 2 33 4q-15 -2 -12 -2q3 1 12 2q19 2 44 1q26 0 44 -7q14 -6 29 -12q15 -7 27 -18l12 -12
q6 -7 13 -11l24 -14q13 -7 19 -20l4 -12q3 -7 4 -13q0 -5 -1 -11q0 -6 -1 -11l-2 -22q0 -11 -4 -21q-1 -5 -4 -10q-3 -4 -4 -9l-4 -26q-2 -12 -7 -25q-1 -3 0 -6q0 -3 -1 -6q-2 -4 -5 -6q-4 -3 -7 -6q-7 -7 -16 -14q-8 -6 -16 -13q-28 -23 -62 -34t-71 -11q-5 0 -10 -1
q-5 0 -10 1q-8 1 -17 2q-8 2 -17 3q-8 0 -23 -2t-24 -3q-5 -1 -9 -1q-4 -1 -8 1q-3 1 -6 3q-2 2 -3 5q-1 1 0 2q0 2 -1 3q-2 1 -3 0q-2 -1 -3 -1q-7 1 -10 6t-3 11v0zM150 312q0 -1 1 -3t1 -3q1 -1 4 -1q3 1 4 1l10 2h9q18 -2 36 -2l36 -2l12 -2l12 -2h4q4 0 4 1t-5 3t-6 2
q-8 4 -17 6q-10 1 -18 2l-18 2q-8 1 -17 0q-5 0 -11 -1h-11q-7 -1 -15 -2q-7 -1 -15 -1v0zM392 188v-7v-7q1 0 1 2q1 2 1 4t-1 4q0 2 -1 4v0z" />
    <glyph glyph-name="six" unicode="6" horiz-adv-x="471" 
d="M53 255q2 9 2 19v18q1 9 4 17q2 8 3 16q2 15 5 31q3 15 8 29q7 16 15 33q9 16 21 30q33 36 74 57t87 36q9 3 17 6q8 4 17 7q15 4 31 6q15 2 31 4q9 1 21 1t19 -6q10 -10 3 -18q-8 -7 -17 -10l-10 -5q-5 -3 -10 -5t-13 -5q-8 -2 -13 -3q-3 0 -7 -1q-3 0 -7 -1
q-17 -8 -35 -15q17 7 13 6q-3 -2 -13 -6q-7 -3 -14 -7t-14 -7q-6 -3 -11 -8q-5 -4 -11 -7q-9 -4 -17 -10q-9 -6 -16 -13q-8 -8 -16 -17t-15 -17q-2 -3 -4 -5q-1 -3 -3 -5q-10 -11 -19 -24q-8 -12 -14 -26q-6 -13 -10 -26q-5 -14 -8 -28q-1 -2 -2 -9q-2 -6 -1 -8q1 0 1 2t3 5
q2 3 6 5q3 3 7 5q2 1 5 3l6 2l5 5q2 3 5 5q5 5 13 9q7 4 14 6q18 8 37 8t38 -3q4 -1 8 -3q4 -1 7 -2q5 0 10 -1h9q13 -2 25 -7q13 -5 24 -10l12 -4q6 -3 10 -7q10 -9 15 -23q5 -13 5 -26q0 -9 -2 -17q-3 -9 -4 -17v-14t-1 -14q-1 -11 -5 -23q-4 -11 -9 -22q-13 -32 -34 -61
q-21 -30 -51 -48q-11 -7 -20 -14q-10 -7 -24 -8q-16 -1 -31 3q-15 5 -30 11q-14 6 -28 14t-25 19q-10 10 -18 24q-9 14 -15 26q-1 3 -3 5t-3 5q-4 7 -7 14q-4 8 -7 15q-11 26 -15 54q-4 27 -4 55v0zM86 291v-10q0 5 0 4v-4v-2q0 -2 0 -1q2 3 2 8l2 8q2 9 4 17l6 16l8 16
q5 8 9 17q1 3 3 6q3 3 4 6q0 2 -2 4q-2 1 -3 3q-1 1 -2 4l-1 3q-1 0 -2 -1q0 -2 -1 -3l-4 -8q-1 -3 -4 -7l-2 -6l-2 -6q-4 -8 -8 -18q-3 -10 -5 -19q0 -6 -1 -13q0 -7 -1 -14v0zM111 233q1 -4 0 0v-2v2v0zM123 277v-7v-7q1 0 3 1t2 2t-1 1h1h-1q-1 3 -2 5t-2 5v0zM127 403
q3 2 7 6l6 6q4 5 9 8q4 4 8 9q1 1 3 4l2 4q2 3 3 5q2 3 3 6q1 0 2 1t1 2t-1 0l-2 -2q-2 -2 -2 -1q1 0 -1 -2q-3 -3 -6 -5t-5 -5l-14 -18t-13 -18v0zM128 163q0 -10 3 -16q2 -7 6 -15q6 -13 15 -26q8 -13 18 -23l6 -6q4 -2 7 -5q10 -10 21 -13t24 3q30 14 50 48q19 34 29 65
q4 11 8 24q4 14 5 25q0 2 -1 4q-2 1 -3 3q-3 7 -8 13t-10 11q-8 9 -18 16t-21 11q-4 1 -8 3q-3 2 -7 2q-6 0 -12 -2q-6 -3 -11 -4q-14 -4 -29 -11q-16 -7 -28 -15q-5 -4 -9 -11t-7 -13l-2 -4q-2 -2 -3 -4q-2 -6 -5 -12l-4 -12q-3 -8 -4 -18q0 -9 -2 -18v0z" />
    <glyph glyph-name="seven" unicode="7" 
d="M49 491q0 3 2 6t4 4h2h1q1 1 0 3l-1 1q-1 3 -1 7q1 4 3 7q7 6 16 9q9 2 18 6q3 1 7 3q3 2 6 3q4 2 8 3t7 2q13 6 28 8q15 3 29 4q35 5 71 5q37 1 71 -5q17 -3 33 -7q16 -3 32 -8q8 -2 17 -5q8 -3 12 -12q2 -4 1 -8t-4 -7l-4 -2q-3 -2 -3 -4q-5 -15 -13 -30
q-7 -14 -14 -29q-12 -28 -27 -56q-14 -27 -28 -55q-7 -16 -16 -33q-8 -16 -17 -33l-12 -26q-6 -14 -13 -27q-12 -23 -22 -46q-11 -24 -20 -47q-10 -22 -19 -45t-15 -47q-5 -21 -7 -42q2 20 2 16q-1 -4 -2 -16q-1 -7 -4 -13q-3 -5 -11 -6q-7 1 -10 6t-3 11q0 8 1 16t3 16
q1 4 3 10q1 5 1 9v0l-1 -1l-1 -2l-1 -3q0 -2 -1 -5q-1 -2 -2 -5q-2 -7 -4 -16q-3 -9 -7 -15q-7 -9 -16 -5q-8 4 -10 14q-1 13 1 26q3 14 5 27q6 32 18 61q13 29 28 58q6 10 13 20t13 20q7 16 13 32q5 16 12 32q12 28 23 56q12 27 24 55q9 18 25 43q16 24 30 38q5 6 10 13
q5 6 11 12q2 2 4 5l4 4l2 1q1 1 1 2q-2 2 -7 -1q-6 -2 -8 -3q-11 -3 -24 -4q-12 -1 -24 -1q-23 -1 -46 -3q-24 -2 -47 -2q-15 -1 -30 -1q-15 -1 -30 -3q-8 -1 -17 -3q-8 -2 -16 -3l-24 -2q11 1 9 1q-3 -1 -9 -1q-11 -3 -22 -3q-10 0 -11 16v0zM161 40v0v0z" />
    <glyph glyph-name="eight" unicode="8" horiz-adv-x="433" 
d="M51 116q2 8 3 17q1 8 4 16q2 6 4 13q2 6 5 12q5 12 13 25q8 14 18 23q12 12 24 25q-11 -12 -9 -9l9 9l5 5q3 2 5 5q1 3 2 7l2 8l6 9t4 7q-1 9 -6 20q-5 10 -9 17q-2 2 -3 6q-2 3 -4 4q-3 1 -8 1q-4 0 -7 1q-5 1 -9 5q-5 4 -7 8q-4 11 -4 22q1 11 3 21q0 4 2 8l2 8
q-1 5 -2 12q-2 7 -3 13q-2 19 4 41q5 22 18 36q22 21 43 28q21 8 50 11q13 1 25 2q13 1 25 0q5 0 10 -1l10 -2q20 -2 38 -10q19 -8 33 -22q9 -9 14 -23q4 -13 6 -26v-10q-1 -5 1 -9q4 -9 8 -20q3 -11 2 -22q-1 -15 -7 -30q-5 -15 -16 -26l-8 -8q-5 -4 -9 -8q-1 -1 -3 -2
q-1 -1 -3 -2q-3 -3 -5 -8q-2 -4 -5 -8q-11 -10 -21 -21q10 10 8 8l-8 -8q-1 -1 -3 -2t-3 -3l2 -2t2 -1q3 -3 7 -6q4 -2 9 -5q11 -7 21 -18q10 -10 16 -23l6 -14q3 -8 5 -15q1 -5 1 -10q1 -6 3 -9q0 -2 2 -3q1 -1 2 -3q4 -4 7 -10t4 -12q0 -9 -3 -16q-3 -8 -4 -16
q-1 -7 -1 -13v-13q-1 -10 -3 -21q2 10 1 8q0 -2 -1 -8q-3 -20 -22 -37t-38 -25q-1 0 -3 -2q-1 -1 -3 -1q-12 -6 -25 -8q12 3 10 2q-3 -1 -10 -2q-11 -1 -22 -3q-11 -1 -21 0q-8 1 -15 2l-14 2q-3 0 -6 1q-2 1 -5 2q-14 1 -29 1t-29 5l-14 6q-8 4 -14 9q-1 2 -4 5q-2 2 -4 3
q-14 6 -28 15t-20 23q-3 8 -4 19v20v0zM79 117q0 -8 1 -16q-1 8 -1 6q0 -1 1 -6v-10q1 -4 4 -8l2 -2q1 -2 2 -2v7q-1 6 -1 8q0 10 1 19t-2 19v5q-1 3 -1 4q-1 0 -1 -1q-1 -2 -1 -4q-1 -5 -2 -9l-2 -10v0zM121 145q1 -6 5 -13t7 -12q3 -4 6 -7q-3 3 -2 3q0 -1 2 -3q1 -1 2 -3
q0 -1 1 -1q0 3 -2 11t-3 11l-4 26q2 -12 1 -10q0 3 -1 10v6q0 4 -1 6q-1 0 -3 -3q-1 -3 -2 -4q-3 -8 -6 -17q3 8 2 6q0 -1 -2 -6v0zM129 412q0 -8 4 -14t10 -11q7 -7 14 -15q6 -8 14 -13q3 -2 7 -2q4 -1 7 -1l16 -4l16 -4q4 -1 8 -3l8 -4l4 -2q3 -2 5 -2q1 0 4 2q2 2 4 3
l10 6q5 4 9 8q4 3 8 5t8 5l24 22q13 11 15 28q1 12 -3 22q-5 11 -10 20q-13 21 -34 34q-22 13 -47 11q-6 0 -12 -2t-11 -4q-11 -4 -22 -9q-10 -5 -19 -13q-11 -9 -20 -24t-15 -27q-1 -3 -1 -6t-1 -6v0zM156 215q0 -17 3 -34l4 -32q1 -7 2 -13q2 -6 3 -12q1 -3 1 -6t1 -6
q5 -11 14 -19q10 -8 19 -16q5 -4 10 -7q6 -3 11 -5q2 -1 5 -3q2 -1 5 -1q4 1 11 3l10 5q18 6 33 14t27 22q4 6 10 14t7 15q1 15 -7 32t-20 26q-9 6 -21 13q-12 6 -21 11q-9 4 -16 9q-8 5 -16 9q-5 2 -9 6q-4 3 -7 7q-1 2 -2 5q-2 3 -3 3q-1 1 -8 1q-6 0 -7 -1q-3 0 -6 -4
q-2 -3 -4 -5q-11 -11 -21 -22q9 10 7 8q-1 -2 -7 -8q-2 -2 -4 -5q-1 -3 -4 -4v0zM171 303q4 -3 0 0l2 -1l-2 1v0zM299 343q6 3 10 6q-4 -3 -3 -2q1 0 3 2q1 1 2 3l2 2q-3 -1 -7 -5t-7 -6v0zM305 60q3 0 5 1q3 2 5 5h-1q0 -1 -1 -1t-2 -1q1 0 0 0v0q-2 -1 -3 -2q-2 -1 -3 -2
v0z" />
    <glyph glyph-name="nine" unicode="9" horiz-adv-x="475" 
d="M63 445q4 16 12 30t21 23q6 4 12 7t11 6l8 6q3 4 6 7q3 2 10 6q7 5 11 6q17 8 36 11q18 3 37 5q4 1 8 0h9l18 2q8 1 18 0q9 -1 17 -5q7 -4 15 -9q11 -5 20 -11q9 -5 17 -15q9 -12 14 -28q6 -17 8 -32q1 -6 2 -13q0 -6 2 -13q2 -6 4 -13q3 -8 5 -14q1 0 2 -2q0 -1 1 -2
q1 0 3 2t3 2q5 2 11 0t8 -8q1 -4 0 -8t-3 -7q-1 -1 -2 -1q-1 -1 -1 -3q0 -1 2 -3q1 -2 1 -4q0 -11 -1 -22t-1 -22q0 -26 -1 -51t-4 -50q-1 -10 -5 -25t-8 -25t-7 -20q-3 -11 -8 -21q-7 -17 -17 -33q-9 -16 -22 -30q-15 -17 -32 -32q-18 -16 -38 -26q-14 -8 -29 -13
q-15 -6 -31 -11q-12 -4 -29 -7q-16 -4 -29 0q-3 2 -5 5q-3 3 -4 6q0 2 1 4q0 3 -1 4t-3 1h-3q-2 0 -4 1q-1 1 -3 2q-3 1 -5 3t-4 5q-1 1 -3 1t-4 1q-6 3 -7 9q-2 6 2 11q4 7 13 7q8 -1 15 -2q10 -1 19 0q8 1 18 2q4 1 10 1t10 2t7 4q4 3 7 5l34 22q-16 -10 -13 -8t13 8
q16 11 32 21t30 23q2 2 5 4t6 5q7 8 12 24t9 27q8 19 15 40q6 20 6 41v17q0 -8 0 -6v6v3v3h-1q0 -1 -1 -1q-1 -2 -3 -4l-2 -4q-4 -5 -9 -9q-5 -5 -10 -9q-16 -14 -35 -26q-19 -13 -41 -16q-32 -3 -62 5q-31 9 -56 28q-5 4 -9 10q-4 7 -7 10l-6 2t-6 3q-3 4 -4 9q-1 6 -4 9
q-9 10 -17 20t-12 24q-2 10 -3 19q0 9 1 19q1 3 2 5q1 3 1 6q0 5 -2 14q-2 8 -3 14q-1 9 0 18v18v0zM117 389q0 -21 4 -41q4 -19 14 -37q3 -7 8 -15q6 -7 13 -11q12 -5 26 -7q15 -2 28 0l22 2q12 2 23 6q16 7 31 17t29 21q8 7 15 14l14 14q2 1 5 4q2 2 3 4q1 4 -1 8
q-1 5 -3 8q-2 6 -3 12t-3 11q-2 3 -2 7q-1 3 -2 7q-4 13 -9 27q5 -13 4 -10q-1 2 -4 10q-1 2 -1 5q-1 2 -3 4q-3 5 -9 8l-10 6q-8 5 -16 11q-8 5 -17 9q-4 1 -9 1h-9q-14 1 -26 0q-13 -1 -26 -3q-10 -1 -22 -3q-13 -2 -21 -7t-15 -13l-12 -16q-3 -2 -6 -6q-3 -3 -5 -6
q-4 -10 -4 -21q1 -10 -1 -20v0zM260 525q4 -3 11 -8t11 -6q3 -1 5 -1h5h6q4 0 5 1q-1 3 -5 4q-3 2 -6 2q-8 2 -16 5q-8 2 -16 3v0z" />
    <glyph glyph-name="colon" unicode=":" horiz-adv-x="457" 
d="M153 396q2 6 6 10q4 3 11 2q1 0 3 -1q1 0 2 -1q1 1 2 3q2 2 2 3q2 2 5 4q2 2 5 3q7 4 15 5q8 2 17 3h4q3 0 4 1l12 6t13 3q23 -4 30 -25t4 -42q-1 -14 -7 -29q-5 -14 -19 -21q-3 -2 -6 -2q-3 -1 -7 -2q-5 -2 -8 -6q-2 -3 -10 -2q-4 1 -6 4l-4 6q-4 4 -8 7t-8 7q-1 2 -3 4
l-2 4q-4 2 -9 3t-9 3q-14 7 -21 21q-8 13 -8 29v0zM183 81q3 9 11 14t16 8q25 11 49 4q24 -6 35 -32q3 -5 7 -11q3 -5 3 -12q-1 -13 -10 -19q-10 -6 -22 -9q-4 -1 -9 -3q-4 -2 -8 -2q-14 -2 -28 -1q-14 0 -27 7q-5 2 -9 7q-3 5 -3 10q0 3 2 5q1 3 1 5q0 3 -3 5q-2 3 -3 5
q-2 4 -2 9v10v0zM186 379q1 -2 4 -5q2 -3 5 -2q2 2 3 7t1 8q1 1 1 4l1 3q-1 -1 -1 -3l-1 -2q-2 -5 -5 -8q-3 -2 -8 -2v0zM211 74q1 -3 3 -6t5 -4q1 0 3 2l2 4q3 3 8 6q4 3 7 5q1 2 -4 1t-7 -2q-4 -2 -9 -3q-4 -1 -8 -3v0zM236 352l2 -6q0 -4 4 -5q3 0 7 3t5 5l2 2q1 2 0 3
h-1q0 -1 -1 -1q-2 -1 -5 -1q-2 -1 -4 0q-3 1 -5 1q-1 1 -4 -1v0zM247 54q3 -3 12 -3q8 0 10 5q0 3 -5 3t-7 -1q-3 -1 -5 -2t-5 -2v0z" />
    <glyph glyph-name="semicolon" unicode=";" horiz-adv-x="473" 
d="M164 -91q1 2 1 4l2 4q1 1 5 3q3 1 3 3q0 49 11 97t30 92q5 10 15 14q9 4 16 -7q2 -6 0 -12q-1 -6 0 -9q1 -1 2 -1h-1h1q2 2 3 5l4 4q4 5 9 7q6 3 12 0q10 -7 10 -24q1 -16 -1 -28q-3 -38 -14 -76q-11 -39 -35 -69q-12 -15 -32 -24q-20 -10 -35 3q-3 3 -4 7t-2 7v0z
M196 393q1 3 1 6v6q2 11 9 24t16 21q8 7 21 10t24 -1q5 -3 8 -6q4 -2 8 -5q1 -1 3 -1h2q5 -2 8 -6q4 -4 5 -8q6 -14 7 -28q1 -15 -1 -30q-2 -25 -18 -44q-16 -20 -44 -15q-5 1 -9 4q-4 2 -9 5q-2 1 -5 2t-6 3q-2 3 -2 6q-1 3 -3 6l-4 6q-2 2 -4 6q-4 8 -6 19q-1 10 -1 20v0z
M227 410q1 0 1 -1h1q1 2 4 7q4 5 5 8l5 5q-3 -2 -2 -2l2 2l2 2l1 1q-2 0 -6 -3l-4 -4l-4 -6q2 3 1 2l-1 -2q-2 -5 -5 -9q3 4 2 3q0 -1 -2 -3v0zM229 -42q1 -1 1 -2v-1q1 1 1 2q1 2 1 3q3 5 5 10q2 6 4 11q5 14 8 28t6 27q1 5 2 9q0 4 1 9v3v3v2v0q-2 -2 -5 -8q-3 -7 -4 -10
l-6 -12q-4 -6 -5 -13l-4 -30q-1 -16 -5 -31v0zM239 359q5 -6 13 -5q8 2 14 6q9 7 13 20q3 12 0 23q-1 3 -2 8q-2 5 -4 6q-3 1 -9 -6t-8 -10q-2 -4 -5 -8q-2 -4 -4 -9q-5 -12 -8 -25q3 12 3 10q-1 -3 -3 -10v0z" />
    <glyph glyph-name="question" unicode="?" horiz-adv-x="473" 
d="M59 483q3 7 8 10q5 4 8 7q1 2 -1 4q-3 2 -3 3q-2 4 -1 8q0 5 3 8q6 6 14 9q8 4 16 6q6 2 13 4q6 3 13 4q9 1 18 1l18 2q10 1 19 1q10 -1 19 0q7 1 14 3t14 3h11q6 -1 12 -1q19 -1 37 -6t35 -14q11 -5 18 -13l16 -16q3 -2 11 -5q8 -4 11 -5q3 -2 6 -5q2 -3 4 -5
q8 -9 13 -19t6 -22q3 -24 -3 -47q-7 -23 -22 -42q-5 -6 -12 -10q-8 -5 -13 -11q-4 -5 -7 -11t-7 -11q-21 -27 -44 -52q21 24 17 19t-17 -19l-10 -12q-4 -6 -9 -11q-3 -3 -6 -5l-4 -6q-1 -3 -1 -7v-8q-2 -20 -2 -41q0 19 0 15v-15v-12q-1 -7 -6 -10q-3 -3 -8 -3q-4 0 -8 3
l-4 4l-2 3q-1 -1 -1 -2q0 -2 -1 -3q-3 -5 -8 -8l4 3q-1 -1 -4 -3q-4 -1 -8 0q-5 1 -7 4q0 1 -2 4q-1 2 -1 3q-1 0 -6 -1q-5 0 -8 1q-5 3 -8 9q-2 7 -4 12q-7 21 4 44q11 22 25 38q5 7 11 13l12 14q5 8 11 17q5 8 12 16q15 14 33 26q-16 -11 -13 -9t13 9q4 3 8 5q5 2 8 5
q4 4 5 10q2 6 4 11q3 8 7 16q4 9 6 17q3 13 0 29q-2 16 -9 27q-2 2 -5 3q-4 1 -6 2q-9 3 -17 5q-9 2 -17 4q-28 7 -57 10t-57 1q-9 -1 -21 -1q-12 1 -21 -1q-3 -1 -6 -3l-6 -4q-12 -5 -23 -10q11 5 8 4l-8 -4q-9 -4 -17 -5q-8 -2 -13 10q-1 2 -1 4v5v0zM176 35q1 4 1 9
q-1 5 0 9q4 11 15 23q11 11 22 17q6 2 12 5q6 2 12 3q21 1 30 -15q8 -16 6 -33q-2 -20 -15 -33t-32 -16q-5 0 -9 1t-9 1h-6q-3 -1 -6 0q-4 2 -6 5l-6 6q-4 4 -6 8q-3 3 -3 10v0zM208 47q4 -4 12 -8q9 -4 13 -1q3 3 6 9q2 7 -2 10q-4 2 -9 1q-6 -2 -10 -4q-2 -1 -5 -3
q-2 -2 -5 -4v0z" />
    <glyph glyph-name="at" unicode="@" horiz-adv-x="466" 
d="M-4 226q2 7 2 15t1 15q1 17 3 33q-1 -15 -1 -12t1 12q3 30 7 60q-4 -28 -3 -23q1 6 3 23q0 4 1 8l2 8q1 11 3 24q2 12 6 23l2 4q2 2 3 4q1 0 4 2l3 1v1l-1 1q-1 1 -1 3q-1 1 -1 2q0 4 1 7q2 3 4 5q9 8 19 15q10 6 19 14q6 6 15 11q8 6 16 10q12 6 24 14q11 8 23 15l28 14
q15 7 31 9q9 1 19 1t19 1q3 0 5 1t6 1q3 0 6 -2q2 -2 6 -2q13 -2 27 -5q13 -3 26 -8q5 -2 10 -3q6 -2 11 -2q2 -1 4 0q2 0 4 -1t3 -2t3 -2q4 -1 8 -3q5 -1 9 -3q7 -4 7 -8q-1 -4 1 -9q2 -4 9 -12q7 -7 10 -12q13 -16 22 -34q8 -19 15 -38q7 -20 13 -40q5 -20 8 -41
q1 -14 0 -29q0 -14 -2 -28q-1 -9 -1 -18q0 -8 -1 -17q0 -2 -1 -4t-1 -4q-1 -14 -5 -28q3 13 3 11q-1 -3 -3 -11q-1 -3 -2 -8q-2 -4 -2 -8l2 -2q0 -1 1 -2q3 -6 7 -12q3 -5 -2 -13q-5 -5 -11 -9q-7 -3 -12 -8q-3 -3 -4 -7q-1 -5 -4 -8q-4 -4 -8 -4q-5 0 -7 -2
q-11 -10 -23 -17t-27 -4q-7 2 -15 5q-7 3 -13 7q-1 2 -3 5t-3 5q-1 1 -1 4t-1 4h-4h-3q-4 -1 -13 -5q-10 -5 -15 -7q-4 -1 -9 -2q-4 -1 -9 -2q-7 -4 -14 -7t-15 -4q-9 -1 -17 0q-9 0 -17 1q-2 0 -4 -1t-5 -1q-5 1 -9 5q-5 4 -9 7q-7 2 -14 5t-12 8q-2 3 -5 6q-2 2 -4 6v2
q-1 2 -1 3l-12 18q-5 9 -10 19q-3 10 -4 20t-3 19q-4 17 -6 36q-1 19 6 36q6 16 13 26q7 11 19 24q6 6 10 14q5 7 11 14q11 12 28 23q17 12 33 15q11 1 22 1q12 0 23 -1q9 -1 19 -4q9 -2 19 -4q4 0 8 -1q5 -1 9 -1q7 1 14 5q6 3 13 -1q5 -3 6 -9q0 -5 -1 -10q-3 -10 -5 -21
q-2 -10 -3 -21v-20q0 -11 1 -21q1 -3 3 -6q1 -3 1 -7q0 -3 -1 -5q-1 -3 -1 -5q-1 -9 0 -18t0 -18q0 -11 -2 -22t-3 -22q-1 -8 -2 -17q-1 -8 0 -16q0 -3 1 -7q0 -5 2 -7q2 0 4 1q3 0 5 1q4 1 9 2t9 3q7 4 10 11q2 6 5 13q4 9 8 20t4 21q0 6 -2 12t-3 12q0 4 1 8v8q-1 3 -1 7
q-1 3 -2 7q-2 16 -5 32t-5 33q-1 8 -1 16t-1 15l-2 16q-2 7 -3 15q-1 3 -1 6q-1 2 -2 5q-2 6 -6 11q-4 6 -9 10q-5 6 -10 13t-10 13q-2 3 -3 7t-4 6q-2 2 -5 3q-4 1 -6 2l-14 4l-14 4q-4 2 -9 4q-4 2 -8 2q-13 2 -28 2q-16 0 -28 -1q-4 -1 -7 -2q-4 -2 -7 -3l-42 -18
q20 8 16 7q-4 -2 -16 -7q-4 -2 -9 -6l-7 -7q-6 -6 -14 -10q-7 -4 -13 -10l-4 -6t-3 -7q-1 -2 -3 -4q-1 -1 -2 -4l-8 -18q4 9 3 7t-3 -7q-3 -7 -5 -13l-4 -14q-7 -16 -13 -37q-5 -21 -7 -39q-1 -7 -3 -13q-2 -7 -3 -14l-4 -36q-1 -19 1 -37q0 -5 3 -12q2 -6 2 -12
q-1 -5 -4 -8q-4 -3 -5 -6q1 -5 3 -11q2 -5 4 -9q3 -9 7 -18q3 -9 7 -18q5 -11 13 -21q8 -9 17 -18q2 -1 5 -3q3 -1 5 -3q9 -9 20 -17q10 -9 22 -14l4 -4q3 -2 6 -3q14 -5 31 -8q16 -3 31 -5t29 -4q14 -3 29 -1l16 2q7 1 15 2q4 1 8 1t7 1l14 4q7 3 15 4q6 0 11 -3q6 -3 7 -9
q0 -3 1 -7q0 -5 1 -8t3 -5q1 -3 1 -7q-1 -7 -6 -9q-5 -3 -11 -4q-9 -1 -18 -4t-19 -5q-7 -1 -13 -3q-7 -2 -14 -3q-33 -4 -71 -7q-37 -2 -69 8q-13 5 -24 12q-12 6 -23 15q-5 4 -11 8l-12 8q-4 4 -7 9q-4 5 -8 9q-12 11 -23 24q-11 12 -18 27l-6 16t-5 16l-2 10q0 5 -2 9
q-1 3 -3 5l-4 4q-4 5 -7 10q-3 6 -5 12q-10 22 -14 46q-4 23 -4 48v0zM152 490h2q1 0 2 2q1 0 2 1q2 1 1 1q-2 -1 -3 -2l-4 -2v0zM186 172q0 -4 -1 -9q0 -5 1 -8q1 -2 5 -4t7 -4q9 -6 22 -10q13 -5 25 -2q4 1 7 5q4 5 6 8q7 11 13 26t7 27q2 12 3 23q2 12 3 24q1 11 1 22
q-1 12 1 23q1 13 2 27q-1 -13 -1 -10q0 2 1 10q0 1 1 6t0 6t-8 1q-7 1 -9 1q-23 0 -45 -5q21 3 17 3t-17 -3q-3 -1 -8 -2t-7 -3q-1 -2 -1 -5q-1 -3 -1 -6q-4 -11 -6 -23q2 11 2 9q-1 -3 -2 -9q-4 -19 -8 -37q-3 -18 -5 -36q-1 -11 -2 -23t-3 -22v0z" />
    <glyph glyph-name="A" unicode="A" horiz-adv-x="483" 
d="M29 14q1 6 2 13t2 13q2 12 6 28q4 15 8 27q6 22 13 43q6 22 10 43l3 9q3 7 4 10q3 7 4 14q2 7 5 14q6 19 12 39q6 19 13 38q6 12 10 25q4 12 10 25q1 3 3 7q1 3 2 7q2 5 -2 9q-3 3 -3 9q1 4 3 7q1 4 3 7q5 12 12 23q6 12 11 23q5 12 12 23t12 23q5 13 11 26
q-5 -12 -4 -10q0 2 4 10q1 2 3 4q3 1 4 4q3 6 7 12l8 10q2 2 1 5t-1 6t3 6q2 3 6 5q11 3 19 -7q8 -11 12 -20q1 -1 2 -5q1 -3 2 -4q1 0 1 3q1 3 1 4q1 3 5 5q3 3 6 3q15 -2 18 -20q4 -19 7 -31q1 -4 4 -6t4 -6l4 -18q1 -9 2 -19q6 -29 14 -57l18 -56q4 -13 7 -26
q4 -12 9 -25q3 -9 6 -20q2 -10 6 -20l2 -6q0 -4 1 -7q7 -16 11 -32q4 -17 11 -33q7 -15 15 -31q8 -15 15 -31q4 -7 8 -16q4 -8 5 -17v-3q-1 -1 -1 -3q2 -7 8 -15t6 -17q0 -4 -2 -7t-6 -5h-4t-3 -2q0 -1 1 -3l3 -3l6 -8q2 -4 1 -10q-2 -6 -7 -9t-11 -1q-5 2 -8 6t-5 8l-3 6
q-1 3 -3 4t-3 0t-2 -1q-3 -2 -6 -1q-4 1 -6 3q-7 6 -11 15t-7 17q-9 17 -15 35q-5 18 -13 36q-2 6 -3 11q-2 6 -4 11q-1 3 -1 6l-2 4q-8 7 -23 12q-15 6 -25 7q-3 0 -6 1q-4 2 -7 2q-7 1 -15 2l-14 2q-24 2 -51 1t-51 -4h-4t-4 -1q-2 -1 -3 -5q0 -3 -1 -5q-1 -8 -3 -16
l-4 -16l-12 -40q-5 -21 -13 -40q-3 -6 -4 -14l-2 -14t-3 -13q-1 -7 -3 -14q-1 -8 -1 -16v-16q0 -5 -1 -10q-2 -5 -7 -8q-7 -2 -13 1q-5 3 -7 10q-2 9 -1 19t1 19q-1 3 -2 5q-2 2 -2 4q-1 5 0 11q0 6 1 11q1 10 3 20q-2 -10 -1 -8q0 2 1 8q1 2 1 4t1 4v2q0 2 0 1q-2 -4 -3 -9
q-1 -6 -1 -10q-1 -6 -3 -11q-1 -6 -1 -11v-6t-2 -5q-3 -6 -10 -7q-7 0 -12 4q-3 3 -3 8q-1 4 -1 8v0zM65 57v0v0zM153 234q10 0 21 2q10 1 21 2q17 1 35 2t35 3q7 1 14 1t14 1q2 0 7 -1q4 0 6 1q1 1 0 2q-1 2 -1 3l-8 18q4 -9 3 -7t-3 7q-8 18 -14 37t-14 38l-2 6q0 3 -1 7
q-7 16 -11 35q-4 18 -8 35q-1 6 -2 11q-1 6 -2 11l-1 3l-1 2h-1v-2q-2 -4 -4 -9q2 4 2 3q-1 0 -2 -3q-4 -10 -9 -19l-8 -20q-6 -12 -12 -25q-6 -12 -11 -25q-7 -15 -12 -31t-11 -32q-4 -9 -7 -19t-7 -19q-2 -5 -3 -9q-1 -5 -3 -9v0zM225 511q0 -1 3 -3l2 -3q0 1 -1 5
q-1 5 -2 5t-1 -1q-1 -2 -1 -3v0zM231 490q2 -6 2 0t-2 3v-3q0 2 0 1v-1v0zM312 217q6 -1 7 0q1 0 -7 0v0zM316 189q2 -1 7 -3t6 0q0 1 -1 5t-2 4t-2 -1q0 -1 -1 -2q-1 -2 -3 -2q-2 -1 -4 -1v0z" />
    <glyph glyph-name="B" unicode="B" horiz-adv-x="471" 
d="M34 364q2 6 1 13q0 6 1 12q1 17 3 33q-2 -15 -1 -12q0 3 1 12q2 21 6 41q5 21 8 41q3 22 12 41q-7 -19 -6 -15t6 15q1 4 2 7q2 3 5 6q5 4 12 4q6 0 11 -6q1 -1 1 -3q1 -2 2 -3t3 -1h3q2 0 3 -2q2 -1 3 -1q5 -1 10 -1q6 0 10 1q16 -1 31 -2q-14 1 -11 1t11 -1l20 -2
q10 0 21 -1l30 -4q15 -3 30 -5h10h9q12 -1 30 -5q17 -3 28 -7q4 -2 9 -4q4 -3 9 -5t10 -5l10 -8q3 -3 6 -5q4 -2 7 -5q9 -9 16 -20q6 -12 7 -25q2 -18 1 -35q-2 -17 -9 -33q-3 -6 -7 -10l-6 -10q-2 -4 -2 -7q0 -4 -4 -8t-10 -7q-7 -3 -12 -6q-6 -3 -12 -5t-12 -5
q-3 -1 -6 -4l-6 -4q-12 -8 -25 -14q12 6 10 5q-3 -1 -10 -5l-10 -4q-5 -1 -10 -3h-3t-2 -1h1l1 -1h9q-4 0 -3 0h3q9 -1 17 -3q-8 2 -6 1q2 0 6 -1q15 -2 30 -8q15 -7 29 -13q20 -8 37 -22q16 -13 26 -33q2 -5 5 -11q2 -5 3 -11q1 -11 1 -22l-2 -22q-1 -12 -6 -25
q-5 -14 -12 -24q-2 -3 -7 -8q-4 -4 -6 -7q-2 -4 -1 -8q0 -3 -3 -7q-5 -4 -12 -5q-6 -2 -12 -5q-3 -2 -5 -4l-4 -6q-5 -5 -11 -9l-12 -8q-4 -2 -7 -3q-4 -2 -8 -2q-2 0 -4 1h-5q-3 -1 -6 -3q-4 -3 -7 -4q-7 -5 -15 -8q-9 -4 -17 -6q-6 -2 -12 -2t-12 -1q-12 -1 -24 -4l-24 -4
q-13 -1 -27 -2t-28 1q-3 0 -10 2q-7 1 -9 1q-4 -1 -7 -3q-3 -3 -9 -1q-3 1 -6 5q-4 4 -8 2l-1 -3v-5q-3 -6 -10 -8q-6 -2 -12 2q-5 5 -7 14q-1 9 -2 16q-1 3 -1 7t-2 7q-1 3 -4 5t-3 7q0 4 1 6q2 3 3 6q1 2 0 5v4q-1 15 -2 29q1 -14 1 -11t-1 11v25t-2 26q-1 14 -4 28
q-2 15 -4 29q-3 28 -7 56l-6 56q-2 15 -2 29v29v0zM70 447v0v0zM71 451v0v0zM71 455v0v0zM72 459v0v0zM73 463v0v0zM73 466v0v0zM74 470v0v0zM75 474q1 -6 0 0v-3v3v0zM75 477v0v0zM76 481q1 -5 0 0v-3v3v0zM76 484q2 -4 2 1t-2 -1v0zM111 188q0 -19 1 -38q0 -19 2 -38
q1 -7 2 -13q1 -7 2 -13q1 -10 3 -21q-2 10 -1 8q0 -2 1 -8v-3q1 -3 3 -4q3 -1 7 0q5 1 8 1h20q10 1 19 1h28t27 1q11 1 23 5q11 3 21 7q8 2 15 3q7 2 14 5q7 2 15 4q7 3 15 6h3q3 1 4 2q2 4 5 9l4 8q3 7 8 14q5 6 8 13q1 2 2 5q2 3 2 5t-3 5q-2 3 -3 5q-7 15 -18 25t-23 20
q-25 22 -58 34q-32 11 -65 15q-7 1 -14 1t-14 1q-10 1 -21 1q-10 -1 -20 -1h-9q-5 1 -8 0q-1 -2 -2 -8v-10q-1 -7 -1 -14t-1 -14v-9t-1 -10v0zM120 316q5 0 11 3q6 2 11 4q9 3 22 6t23 5q13 2 27 5q14 2 27 4q8 1 17 3q8 2 16 3l16 2t16 3q3 1 8 7q4 5 7 8q8 9 16 19l14 20
q3 6 5 13t-1 13q-2 6 -7 11l-8 10q-8 7 -15 15q7 -7 6 -6l-6 6q-9 9 -22 15t-25 11q-16 6 -40 6t-42 -1q-24 0 -47 -2q22 1 18 1q-5 0 -18 -1h-6t-6 -2q-1 -2 -1 -7v-8q-2 -16 -3 -33q1 16 1 13q0 -4 -1 -13q-4 -33 -8 -65q4 30 3 24t-3 -24q-1 -17 -1 -34t-4 -34v0zM215 25
q8 -2 22 -1q13 0 21 4l12 4q-6 -2 -5 -2q2 1 5 2q1 0 4 2l3 2q-3 1 -7 0q-5 -1 -8 -1q-11 -2 -24 -6q-12 -3 -23 -4v0z" />
    <glyph glyph-name="C" unicode="C" horiz-adv-x="492" 
d="M43 211q2 9 1 19q0 10 1 19q2 22 2 45t2 45q2 19 8 36q6 18 14 35q1 4 4 7q2 4 3 8q4 7 10 14q5 6 9 14q1 2 1 4q-1 2 0 4q3 6 10 17q7 10 11 15l14 12t14 13q5 5 13 9q7 5 13 7q2 1 3 2q2 2 3 2q8 4 17 7q9 4 18 5q29 3 56 2q28 0 57 -4h16h16q12 -2 24 -3q-11 1 -9 1
t9 -1t15 0q7 0 14 -1q5 0 10 -2q5 -1 9 -6q3 -6 0 -13t-8 -12q-1 -1 -4 -2q2 1 2 0h-2q0 -1 -1 0q-1 0 -1 -1t4 -1h5q5 -1 8 -6q2 -5 2 -10q-3 -11 -17 -11q-14 -1 -23 1q-8 1 -15 4q-7 2 -14 3q-11 2 -21 3q10 -1 8 -1t-8 1q-21 2 -42 0l-42 -4q-11 -1 -21 -4
q-11 -3 -21 -6q-5 -1 -11 -2q-6 -2 -10 -4q-2 -2 -4 -6l-3 -6q-4 -9 -9 -16q-6 -7 -10 -15q-1 -3 -2 -4q-2 -2 -3 -4q-4 -9 -9 -18q-5 -8 -9 -17q-4 -10 -7 -21l-8 -20q-1 -3 -1 -5q-1 -3 -1 -6q-7 -15 -10 -32q-3 -18 -1 -34q2 -11 7 -25t9 -24l4 -10q2 -4 4 -9
q5 -13 14 -28t19 -25l4 -6q1 -3 4 -6q3 -4 7 -8l6 -8l20 -20q10 -11 23 -17q10 -4 20 -9q-9 5 -8 4l8 -4q7 -3 15 -4q8 -2 15 -5q6 -2 12 -1q7 1 13 2q17 0 34 4t34 7q8 1 17 3q8 3 17 2q5 -1 9 -5q3 -4 4 -9q-1 -1 -1 -5q-1 -3 -1 -4q1 -1 3 -1h3q6 -3 9 -8t2 -12
q-1 -6 -6 -9l-10 -4t-9 -5l-8 -4q-17 -8 -35 -17q-17 -8 -36 -11q-15 -2 -30 -1h-29q-21 0 -41 3q-19 2 -38 10q-10 5 -19 12q-9 6 -18 11q-26 11 -43 26t-35 34q-6 6 -12 14q-6 7 -9 15l-4 6q-2 2 -4 6q-6 15 -13 30q6 -14 5 -11q-1 2 -5 11q-5 13 -6 29v30v0zM78 156v0v0z
M78 155q4 -15 13 -29t19 -25q7 -8 15 -16q-7 7 -6 6q2 -1 6 -6q1 -1 4 -3l3 -3q0 2 -2 3q-1 2 -2 3q-8 9 -15 18q7 -9 5 -7q-1 2 -5 7q-10 12 -18 26q-8 13 -17 26v0zM84 325q0 -4 -1 -8q0 -5 1 -8q1 -1 2 -3q2 -2 2 0q1 2 0 4v5q-1 5 -1 10q1 5 1 10v10q0 -5 0 -4v4v2l-1 1
q-2 -5 -2 -12q0 -6 -1 -11v0zM88 304v0v0zM100 175v0v0zM100 174v0v0zM102 172v0v0zM102 170v0v0zM103 169q2 -4 0 0l1 -2l-1 2v0zM104 167v0v0zM105 166q2 -4 0 0l1 -2l-1 2v0zM106 164v0v0zM107 163q2 -4 0 0l1 -2l-1 2v0zM108 161v0v0zM109 159q2 -4 0 0l1 -2l-1 2v0z
M155 99q2 -6 7 -10q6 -4 11 -8q2 -3 5 -5l-2 2l2 -2t3 -2t2 0l-4 4q-3 2 -5 3q-5 5 -9 10q-5 5 -10 8v0zM185 72v0v0zM227 44v0v0z" />
    <glyph glyph-name="D" unicode="D" horiz-adv-x="468" 
d="M21 316q1 5 1 11v12v22t1 22q1 12 1 24q1 12 2 23q2 24 4 47q1 24 4 48q1 16 3 33q-2 -16 -1 -13q0 3 1 13q0 4 2 8q1 4 1 8q1 7 3 14q2 8 7 13t13 4q7 -2 10 -9q3 -8 4 -18q0 -10 -1 -18v-7v-6q1 -1 1 0h2q4 1 9 0q-5 0 -4 1q1 0 4 -1q4 0 5 -3q2 -3 4 -4q1 0 2 1
q2 1 3 1q4 1 12 0q8 0 10 1q1 1 2 5q0 4 1 6q1 6 6 9q4 4 11 3q5 -1 9 -4q3 -4 4 -9q0 -2 -1 -5v-4q1 -1 1 0l1 1q2 1 3 2q2 1 4 1q5 1 10 -1l10 -2q23 -2 44 -7t43 -12q11 -3 20 -8q10 -6 21 -10q20 -7 44 -18q24 -12 34 -32q4 -9 7 -19t4 -20q1 -5 1 -11q1 -7 3 -12t5 -10
q4 -6 6 -11q9 -16 16 -39t9 -41q2 -12 3 -23q2 -11 0 -23q-3 -14 -10 -26q6 12 5 9q-1 -2 -5 -9q-2 -4 -4 -7q-3 -3 -5 -7q-3 -7 -4 -14l-4 -14q-4 -12 -9 -22q-6 -11 -9 -23q-3 -7 -4 -14q-2 -7 -5 -13q-6 -15 -12 -31t-19 -27q-5 -3 -10 -4q-6 -1 -11 2q-1 1 -3 4
q-1 3 -2 4q-1 0 -4 -3q-3 -2 -3 -3q-6 -5 -12 -9q-7 -5 -14 -9q-17 -8 -34 -14q-18 -5 -37 -10q-4 -1 -8 -3l-8 -4q-13 -6 -30 -11t-31 -7q-6 -2 -14 -4t-14 1q-6 2 -7 5q-1 4 -2 9q0 1 -2 3q-2 1 -3 2q0 2 -1 4t-2 3t-3 1q-3 1 -4 1q-2 1 -3 -2l-2 -4q-5 -4 -11 -4t-10 5
q-4 4 -6 9q-2 6 -4 11q-5 15 -9 34q-3 18 -5 35q0 4 -2 8q-2 5 -3 9q-4 10 -8 26t-6 27q-1 15 -4 30q-2 15 -4 31q-2 23 -2 46q-1 23 -1 46v0zM106 508q1 -3 4 -5q2 -1 4 -4q1 -2 2 -6v-6v-6q0 3 0 2v-2v-1h1q1 4 1 8v8q1 4 2 9q1 4 1 8q-1 3 -5 3q-5 0 -7 -1q-1 -1 -1 -3
q-1 -3 -2 -4v0zM110 168q4 -15 7 -30q4 -15 6 -30q0 -7 -1 -10q-2 -3 -3 -7q0 -4 3 -11q2 -8 4 -12q2 -5 3 -10q2 -5 3 -10q0 -1 1 -5v-4q1 0 3 1q1 1 2 1q6 3 12 5q-6 -2 -5 -2q1 1 5 2l24 10q12 6 24 11q20 8 41 19q21 10 38 24q5 4 11 8q5 3 10 8q5 4 9 8q5 5 10 9
q20 15 34 33q14 19 17 45q4 29 7 65t-4 65q-2 8 -5 16t-7 15q-3 7 -12 14q-9 6 -15 11q-18 17 -40 32t-43 27q-19 12 -40 23q-21 10 -43 13q-3 0 -6 1q-2 0 -5 2v1h-1q-1 0 -2 -1v-3q0 -8 -1 -15q1 7 0 5v-5q-2 -16 -4 -31q-3 -15 -4 -30q-2 -13 -5 -26q-3 -12 -4 -25
q-4 -28 -9 -55q-6 -28 -9 -56q-2 -15 -2 -31q-1 -15 -3 -30v-18q1 -9 -1 -17v0zM270 486v0v0zM272 486v0v0zM273 485q25 -17 49 -34q-23 16 -18 13q4 -3 18 -13q3 -2 5 -5l6 -4l2 -1t2 -2q0 1 -1 2l-2 2l-10 10q4 -5 3 -4t-3 4q-11 9 -24 19q-14 9 -27 13v0z" />
    <glyph glyph-name="E" unicode="E" horiz-adv-x="506" 
d="M57 371q0 23 3 47q-2 -22 -2 -18q1 5 2 18q1 11 1 23l2 24q0 10 1 24q0 13 4 23q3 6 6 7q4 1 6 4q2 1 2 5q1 3 1 5q2 10 6 23q3 13 14 17q6 1 11 -2q6 -4 7 -10v-3q0 -1 1 -2q0 -1 1 0v0q1 3 1 5q-1 2 0 4q2 5 7 7t10 1q4 -1 7 -5t3 -8v-6q0 -3 2 -4q6 0 15 1t15 2
q12 1 24 1h25q29 0 58 -2q28 -1 57 -4q9 -2 18 -3l18 -4q8 -1 15 -3q8 -2 15 -3q11 -1 19 -3q8 -1 13 -11q2 -3 3 -5t1 -5q-2 -15 -18 -15q-17 0 -29 1h-9h-7v-1q1 -1 2 -1q3 -2 4 -5q-2 3 -1 2l1 -2q2 -4 1 -9t-5 -8q-5 -3 -11 -3l-12 2q-10 2 -20 3q-11 2 -21 3t-20 1
l-20 2h-6h-7q-5 1 -11 1h-11q-7 -1 -15 -2q-9 -1 -15 -1q-3 0 -5 1q-3 1 -5 3l-2 4t-4 3q-7 2 -17 3t-17 -3q-2 -2 -4 -5t-5 -5q-2 -1 -4 -1t-4 -1q-1 -2 -1 -10v-11q0 -9 -1 -17q0 -9 -1 -17v-12q0 -5 -1 -11q-1 -15 -1 -30t-1 -30q-1 -9 -1 -19q0 9 0 7v-7q0 -2 -1 -3v-3
q2 -1 5 0h4q8 1 16 1q8 1 15 1q4 1 7 0h7q15 2 30 2q15 1 30 0q11 1 23 1q11 1 22 -1l44 -4q21 -2 43 -7q10 -2 18 -8t4 -17q-4 -9 -13 -8q-8 1 -15 0q-1 0 -3 -1q-1 -2 -3 -2h-5q-3 1 -4 1q-1 -1 -1 -4q1 -2 1 -4q-1 -8 -9 -11q6 4 5 3t-5 -3q-5 -1 -18 -1q-12 1 -18 2h-2
q0 1 -1 0q-1 0 -3 -3q-3 -3 -6 -4q-6 -1 -14 1q-7 1 -13 2h-12q-6 -1 -11 0q-12 1 -25 1h-24h-28q-13 0 -27 -2h-7h-6q-1 -2 0 -9t1 -10q0 -17 1 -34q2 -17 4 -33q5 -43 11 -85q-5 40 -4 32l4 -32q1 -5 2 -11q0 -6 2 -12v-4t1 -4q2 -1 7 0q6 1 8 1l18 2q9 0 18 1q4 1 8 1h8
q9 1 17 3q9 2 17 3q24 3 50 4q25 1 50 -3q7 -2 14 -6q6 -5 4 -14l-2 -4l-2 -2l-1 -1q-1 0 -1 -1h1q0 -1 1 -1q2 0 5 -1t5 -2q6 -5 7 -13q0 -8 -7 -12q-6 -3 -13 -3q-7 -1 -13 -1q-14 -1 -27 -3q-14 -1 -27 -2q-25 -3 -50 -5t-49 -5l-32 -4q-16 -3 -32 -5q-13 -1 -25 -3
t-25 -3q-6 -1 -13 -1q-6 0 -11 5t-4 11q1 7 5 12q2 0 3 2q2 1 3 2q0 1 -1 4q-2 2 -2 3q0 5 2 9t5 7q3 2 10 5l8 4q0 1 -1 4q-1 2 -2 3l-4 8q-1 4 -3 8q-5 16 -9 33q-5 16 -7 33q-1 12 -3 23t-4 23q-5 52 -11 104q5 -49 4 -39t-4 39q-2 25 -3 50v50v0z" />
    <glyph glyph-name="F" unicode="F" horiz-adv-x="517" 
d="M72 269q1 5 1 11v11q-1 11 0 23q0 11 1 22l2 28q0 14 2 27q5 47 10 93q-5 -44 -4 -35t4 35q0 2 1 9v8h-1h-2q-6 3 -7 9q-2 5 0 11q3 4 8 6q6 1 7 2q1 2 1 6t1 6q0 8 4 20q3 12 10 16q17 5 19 -11t2 -28q1 -2 4 -3t5 1q0 1 -1 2q-1 0 -2 1q-1 2 -2 5l1 -2q0 1 -1 2
q-1 4 0 8t4 7q6 5 13 5t14 1q11 1 22 1q12 0 23 -1q10 -1 20 -1q11 0 21 -1q34 -3 69 -6q34 -3 68 -8q9 -2 19 -4q11 -3 17 -10q2 -3 2 -7t1 -6q1 -1 4 -1q2 -1 4 -1q5 -3 7 -8q2 -4 1 -10q-2 -4 -5 -7q-4 -2 -8 -3q-6 0 -13 2q-6 1 -12 3q-8 1 -16 1q-7 1 -15 1
q-10 2 -21 2t-22 1l-22 2q-10 0 -21 1l-14 2t-14 0q-21 -2 -41 -8q19 5 15 4t-15 -4q-11 -2 -21 -6q-11 -3 -20 -9q-2 -1 -5 -3q-4 -1 -5 -3t-1 -5v-4q-1 -8 -1 -16t-1 -15q-3 -30 -4 -60q-1 -31 -4 -60q-1 -9 -1 -18q-1 -8 -1 -17q-1 -2 -1 -6t3 -5h4q2 1 4 1q1 1 3 1t1 1
q-1 0 -2 1q-2 0 -2 1q-6 5 -5 12q1 8 8 11q6 3 13 3t13 1q14 1 29 1q14 1 29 1q22 0 44 -1q23 0 45 -3l14 -2l14 -2q12 -1 24 -5q12 -5 9 -20q-1 -4 -5 -6q-4 -3 -8 -3q-10 -1 -19 -1q-10 0 -19 -1h-7h-6q-1 -1 1 -1q2 -1 4 -1q6 -1 12 -1q-6 0 -5 0h5q7 -1 18 -4
q10 -3 13 -11q2 -5 0 -10t-6 -8q-3 -1 -6 0q-4 0 -6 -1q-1 -1 -1 -2v-3q-3 -8 -12 -9q7 3 6 2t-6 -2h-9t-10 1q-2 0 -3 1l-4 2q-15 1 -30 3q14 -2 12 -1q-3 0 -12 1q-24 3 -48 4q-25 1 -49 1h-36q17 0 13 0h-13h-7t-6 -1v-8q1 -6 1 -8q0 -13 2 -26q1 -13 3 -26q2 -16 5 -32
l6 -32q1 -9 4 -17q2 -9 1 -18q0 -3 -3 -6q-2 -4 -5 -6q-2 0 -5 -1q-3 0 -3 -3q2 -11 6 -26q5 -16 1 -26q-3 -7 -10 -9q-7 -1 -13 4q-5 5 -7 11q-3 7 -4 14q-1 1 -2 7q-1 5 -2 6l-2 -1l-1 -2q-2 -1 -5 -2q3 1 2 1q0 -1 -2 -1q-9 -2 -13 5q-5 6 -8 13q-5 13 -9 29q-3 15 -5 29
l-2 10q-2 5 -2 9q-2 12 -3 24q-2 11 -3 23q-3 28 -4 56v56v0zM100 269q0 -9 0 -7q1 2 0 7v0zM111 103q3 -9 4 -18q2 -9 4 -17q0 -3 1 -5q1 -3 2 -5q0 -2 1 -4q1 -3 1 -2q0 4 -1 8q0 4 -1 7q-2 17 -6 34q3 -16 3 -13q-1 3 -3 13q-1 2 -1 5t-1 6v1t-1 1t-1 -2q1 -2 1 -4
q-1 -2 -2 -5q1 3 1 2l-1 -2v0zM124 50v0v0zM133 507v-3q0 2 0 1v-1v-4v2v-2v-4v0q1 2 1 4q0 3 1 5v1q1 1 0 2h-1t-1 -1v0z" />
    <glyph glyph-name="G" unicode="G" horiz-adv-x="461" 
d="M30 244q1 5 1 9q0 5 1 9q1 6 4 11t4 11l2 16l2 16q1 6 1 12q-1 7 0 13q1 9 3 18t3 18q2 8 5 19q4 12 7 19l2 6q1 4 2 7q16 37 45 66t66 44q20 7 42 11t43 7q30 4 61 2q32 -1 58 -18q13 -9 15 -22q3 -13 1 -27q0 -8 -4 -16q-4 -7 -12 -10q-7 -3 -13 -2q-7 2 -13 4
q-13 4 -25 7q-13 3 -26 5q-10 2 -21 1q-10 0 -20 -2q-15 -1 -31 -5q-16 -3 -30 -10q-7 -4 -17 -15q-11 -10 -16 -17l-28 -32q13 15 10 12q-2 -3 -10 -12q-4 -3 -8 -7t-6 -8q-1 -3 -3 -10q-1 -7 -1 -10q0 -1 1 -3l2 -4q1 -12 0 -24v-25q-1 -23 0 -45t3 -44q1 -10 3 -20
q2 -11 3 -21t3 -22q2 -11 6 -21q3 -7 10 -16q6 -10 12 -15q4 -5 7 -10t7 -9q7 -7 21 -15q14 -7 23 -10l8 -2q3 -1 8 -1q4 1 8 3t7 4q17 7 33 14q-15 -6 -12 -5t12 5q3 1 5 3q3 2 5 3q8 3 16 7t15 8l6 3q3 2 4 4q1 3 0 11q-2 8 -2 13q-2 12 -1 25q0 13 1 25q1 10 3 21
q1 10 3 20q1 1 2 6q2 5 1 6q-2 1 -3 0q-2 0 -3 -1h-8h-9h-20q-10 -1 -19 0l-10 2l-10 2h-3h-4q-6 2 -10 9t-4 13q1 5 5 7q3 2 6 5q0 1 -1 3t-1 4q-1 3 0 7t4 7q5 4 13 6q8 1 14 3q22 5 46 7q23 1 45 -1q15 0 32 -5q17 -4 23 -19q2 -8 -1 -16q-3 -7 -6 -15q0 -1 -2 -5
q-1 -3 -1 -5l2 -1q2 0 3 -1l3 -3t2 -4q2 -9 0 -24q-1 -16 -3 -25q-2 -18 -3 -35t-3 -35l-4 -22q-2 -12 -4 -23q-1 -5 -2 -9q-2 -5 -2 -10q-1 -7 -2 -13l-4 -14q-1 -4 -3 -8q-1 -4 -5 -6q-6 -3 -12 -2q-5 2 -8 7q-1 2 -3 5q-1 3 -2 3q-2 0 -5 -2q-3 -1 -4 -2q-10 -4 -19 -8
q9 4 7 3t-7 -3q-2 0 -5 -1t-4 -2q-2 -4 -2 -7q1 -4 -3 -8q-6 -5 -16 -6t-18 -1q-17 3 -34 8q-16 5 -32 12q-7 3 -14 5q-8 3 -15 6q-25 12 -54 29q-29 16 -49 35q-12 11 -23 24q-12 13 -19 27q-5 11 -10 23q5 -11 3 -9q-1 2 -3 9q-9 20 -12 45q-3 24 -2 46v0zM72 314v-3v1v-1
q0 -5 2 0q1 6 1 8v2v1q-1 0 -2 -4q-1 -3 -1 -4v0zM84 194v0v0zM85 192q4 -15 8 -27q5 -12 11 -26q3 -6 6 -11q-3 5 -2 4q0 -1 2 -4q1 -2 3 -4l-1 2q0 -1 1 -2v-1l1 -1q1 1 0 3l-2 2q-2 3 -3 6q-2 4 -4 7q-1 5 -3 10q-1 5 -3 10q-5 10 -9 20q4 -9 3 -7t-3 7l-2 6q-1 4 -3 6v0
zM102 434q1 1 6 5l6 6l-1 2l-2 2q-1 -1 -4 -7q-4 -6 -5 -8v0zM114 122v0v0zM115 121v0v0zM138 482q5 0 11 3q5 3 10 5q20 10 42 18q-20 -8 -16 -6q4 1 16 6l26 10q-12 -5 -10 -4q3 1 10 4q1 1 3 2q3 1 3 2t-2 1q-2 -1 -3 -1l-10 -2q-4 -1 -9 -2q-12 -3 -23 -8
q-12 -4 -22 -10q-7 -4 -13 -9t-13 -9v0zM357 46q4 0 0 0h2h-2v0z" />
    <glyph glyph-name="H" unicode="H" horiz-adv-x="477" 
d="M38 246q1 7 1 14q-1 8 0 15q2 17 3 35q0 18 2 35q3 22 5 44q3 22 6 45q1 12 4 25l4 26q1 15 4 31l4 30v13q1 7 5 12q3 2 6 3q-3 -1 -2 -1l2 1q17 3 18 -11t3 -23q1 -3 3 -4t3 -3q1 -1 2 -3l2 -3v1v2l2 8q-1 -4 -1 -3t1 3q1 4 2 10t4 10q5 4 12 4q7 -1 10 -7q2 -4 2 -10
q0 -5 -1 -10q-1 -9 -1 -18l-2 -18l-4 -44t-4 -43l-2 -20q0 -11 -1 -21q-1 -11 -2 -23q0 -11 -1 -23q-1 -2 -1 -7q-1 -5 1 -6q1 -1 7 0q5 1 7 2q16 1 33 3q-16 -1 -13 -1t13 1q19 3 39 6l40 8q7 1 15 3q7 2 15 3q9 1 20 2t20 4h6t5 2q1 1 1 4q-1 3 -1 5q-1 6 -1 12q0 7 -1 13
v16t-1 16q-2 18 -3 37q0 19 -1 38q-1 11 0 27t12 22q7 2 11 -1q5 -3 8 -9q4 -10 6 -23t3 -24q0 -3 1 -7q1 -3 1 -7v-3q0 -3 1 -2q1 0 1 1v1q0 4 1 7q1 4 1 7q1 4 2 7t1 7q2 11 6 23q5 12 20 8q7 -5 9 -15q1 -10 1 -18q3 -27 5 -56q2 -28 -1 -56q-1 -9 -1 -19q0 9 0 7v-7v-4
t1 -4q2 -2 6 -2t7 -1q6 -3 9 -8t2 -11t-6 -9t-10 -5q-2 0 -6 -1q-3 0 -5 -2q-1 -2 0 -6v-7v-22q0 -12 -1 -23q-1 -12 -1 -24q0 -11 -1 -23v-12q1 -6 0 -11q-1 -12 -1 -23v-23v-24q0 -13 1 -25q1 -10 1 -20l2 -20q1 -5 1 -10q1 -6 -1 -11q-1 -4 -5 -7q-4 -2 -8 -3q-2 1 -3 1
q-1 1 -2 1q-2 -1 -2 -3v-4q-2 -5 -7 -7t-11 -1q-6 3 -8 9q-3 5 -5 11q-1 2 -1 4t-1 4q0 1 -1 2v-1v1l-1 1v1q-1 -6 1 -11q3 -6 0 -11q-5 -7 -13 -8q-8 0 -12 8q-4 11 -5 22q-1 12 -2 23q-1 14 -1 31q1 17 2 31q2 16 2 33q-1 17 1 33l2 26q1 14 2 27q0 3 1 7t0 8l-1 1l1 -1
l-1 1q-6 0 -12 -1q-7 -1 -13 -1q-19 0 -39 -2q-19 -1 -38 -3q-20 -2 -41 -5t-40 -10q-7 -3 -11 1q-4 3 -7 9q-1 1 -6 1q-4 1 -6 0q-1 -1 0 -5v-5q-1 -8 -1 -16v-16q0 -24 3 -48q2 -23 5 -47q1 -8 4 -21q2 -12 0 -19q-2 -6 -8 -9q-5 -3 -11 -1q-3 2 -5 5l-5 5q-1 0 -1 -2v-3
l2 -18q-1 9 -1 7t1 -7q1 -10 1 -21q0 10 0 8v-8q0 -2 2 -5t2 -7q0 -6 -5 -10t-11 -3q-4 1 -7 3q-2 3 -5 6q-5 5 -8 11q-4 6 -7 13q-1 2 -3 4l-3 3q-1 3 -1 6v5q-1 3 -2 7q-2 4 -3 7q-4 10 -7 24q-3 15 -4 25q-3 28 -6 57q3 -27 2 -21q0 5 -2 21q-2 19 -1 39q0 20 1 39v0z
M97 314v-3v1v-1v-4v2v-2q0 -6 1 4v11v0v-2q-1 -5 0 -3q0 2 -1 -3v0zM98 327v0v0z" />
    <glyph glyph-name="I" unicode="I" horiz-adv-x="474" 
d="M79 520q0 6 4 11q4 6 10 8q3 1 6 1q3 -1 7 0q3 0 6 1t7 2q15 2 30 3l30 2q5 1 10 1q4 0 9 1h3h3q1 1 1 2v4q1 7 3 15q1 9 9 12q11 4 16 -4t6 -17q1 -2 1 -6q0 -3 3 -4h8q4 1 8 1h3h3q1 1 1 2q0 2 1 3q2 6 7 9q4 4 10 3q4 -1 7 -3q3 -3 4 -6q1 -1 1 -4q1 -3 2 -3
q1 -1 9 -1h10q13 0 27 -1t27 -4q6 -1 11 -3q6 -2 8 -8q5 -11 1 -19q-3 -8 -15 -10h-8t-8 1q-10 1 -20 1q-10 -1 -19 -1q-4 1 -14 1q-9 0 -11 -2q-2 -4 -2 -12v-13q-4 -31 -7 -62q3 29 3 24q-1 -6 -3 -24q-5 -41 -11 -81q-6 -41 -11 -82q-3 -29 -7 -59q4 28 3 22
q-1 -5 -3 -22q0 -4 -1 -9q0 -5 -1 -9q1 -20 2 -42t3 -42q1 -6 4 -12q3 -5 3 -11q0 -2 -1 -5q-1 -2 -3 -4q-1 -1 -2 -1q-2 -1 -1 -2q0 -1 4 0h4q6 1 13 1h13q12 0 25 1t26 0q6 -1 12 -3q6 -3 9 -9q1 -3 1 -7l-2 -6l-2 -2t-1 -2t3 -2q3 -2 5 -3q3 -3 3 -8q1 -4 -1 -9
q-2 -4 -6 -6q-4 -1 -9 -1q-11 0 -21 1q-11 2 -22 1q-41 -4 -84 -2q-42 3 -83 -1q-4 -1 -8 -1q-4 -1 -7 0t-5 2t-5 2h-19t-15 8q-6 12 3 17q9 4 19 4q2 -1 5 -1q4 0 5 1l-1 4q-2 4 -2 5q0 6 4 11q4 4 10 5q15 1 31 0t31 -1h17q-8 0 -7 0h7q1 0 3 -1q2 0 3 1q1 0 0 1v1l-2 6
q-2 3 -3 6l-8 26q-3 14 -5 27q-4 32 -7 64t-3 64q-1 47 -1 95t5 95q1 11 2 23l2 22q0 3 1 10t1 8h-3h-3h-20q9 0 7 0h-7h-15h-15l-12 2h-13q-7 -1 -14 -3q-7 -1 -14 -1q-5 1 -8 5q-2 3 -3 8v0zM216 363v-7v3v-3v-4q0 -2 1 -2q1 2 0 7q0 4 -1 6v0zM217 382v-7q0 4 0 3v-3v-5
q-1 -2 0 -4v0q1 1 1 4v7v-3v3q0 4 1 9q0 6 -1 10v-1v-4t-1 -9v4q1 -1 0 -4v0zM218 408v-5v-5q1 0 1 1v3v4l-1 2v0zM219 420q1 -6 0 0l1 -3l-1 3v0zM246 510v-7v3v-3v-5t1 -5v1v1l2 6q-1 -3 -1 -2l1 2q1 4 2 6q1 3 -5 3v0z" />
    <glyph glyph-name="J" unicode="J" horiz-adv-x="426" 
d="M45 36q1 3 2 5q2 3 4 5q3 4 5 9q1 4 8 8q7 3 16 3t17 -1q11 -1 23 -2q12 0 23 -1q9 -1 19 -2q9 -1 18 0q5 1 11 1q5 -1 10 1q6 3 12 8q7 4 11 9q3 3 7 4q4 2 7 5l14 12q8 6 14 12q3 4 4 8q2 5 3 9l2 8q0 4 2 8q4 9 6 20l6 20q2 3 5 11t3 11q-1 1 -2 1h1h-1q-2 0 -5 1
q-2 0 -4 2q-3 3 -4 7l-2 8q-2 25 2 50q4 24 7 49q4 39 7 78l8 78q1 11 3 22t3 22q0 6 2 12q2 7 6 12l6 4q3 1 6 1l6 -2q-3 1 -2 1l2 -1l1 -1h1v3v3q1 2 2 5q0 2 2 4q5 5 10 5q6 0 11 -5q0 -1 1 -2q0 -1 1 -2q2 -1 4 -1t4 -1q8 -4 7 -15t-3 -19q-1 -6 -2 -13q-1 -6 -1 -13
q-1 -10 -3 -20t-3 -20q-1 -9 -1 -18v-18v-28l-2 -28q-1 -7 -1 -13q1 -7 0 -13q-2 -16 -2 -32q-1 -17 -3 -33q0 -4 3 -8q2 -4 3 -9q1 -6 1 -11q-1 -6 -1 -12q1 -16 -1 -32q1 15 1 12t-1 -12q-1 -4 -2 -9q-2 -5 -2 -10q0 -21 -2 -41q-2 -21 -7 -41q-2 -9 -5 -18
q-3 -10 -10 -16q-9 -9 -27 -20q-17 -11 -29 -16q-9 -4 -18 -7t-18 -7q-4 -2 -9 -3q-5 0 -9 -2q-8 -4 -17 -7t-18 -4q-17 -2 -33 -4q15 2 12 2q-3 -1 -12 -2h-11h-11q-9 -1 -17 -1q-9 0 -17 1q-6 1 -12 1t-10 4q-3 3 -4 7q0 3 -1 5q-1 1 -4 1h-4q-9 1 -16 5q-6 3 -6 13v0z
" />
    <glyph glyph-name="K" unicode="K" horiz-adv-x="545" 
d="M69 432q1 3 1 6v6q1 10 2 19q0 10 3 19q1 6 3 11q2 6 7 8q7 3 13 0q5 -3 7 -9l2 -6v-6v-4v-1q1 2 2 8q1 7 1 9q1 7 2 15q-1 -7 -1 -6q1 2 1 6q0 10 2 24t16 14q2 0 5 -2q2 -1 3 -3q1 -1 2 -3t2 -3q1 0 1 1l1 1q4 1 8 0q4 -2 7 -4q6 -8 6 -23t-1 -25q0 -35 -4 -70l-8 -70
q-1 -13 -3 -26t-2 -26v-14q0 7 0 5v-5v-2q0 -2 1 -2t2 2q2 2 2 3l6 8q3 3 6 7q12 15 24 29q12 15 21 31q7 13 16 28q10 16 19 27q7 8 13 18t13 18q14 17 28 33q14 17 29 32q18 17 37 33q-18 -15 -14 -12q3 3 14 12q4 4 9 8t11 5q6 0 8 -2t5 -2q1 0 6 5q6 5 8 7q9 8 19 17
q9 9 19 17q5 3 11 5q5 2 11 -2t6 -11q-1 -6 -5 -11l-3 -3q-3 -2 -2 -4q1 -3 3 -4q3 -2 3 -6q1 -6 -3 -10q-3 -5 -7 -9q-6 -7 -11 -14l-10 -14q-9 -13 -18 -25q-9 -13 -19 -24q-5 -6 -9 -12q-4 -7 -9 -13q-8 -8 -15 -18q-6 -10 -14 -19t-14 -19t-14 -19q-3 -2 -4 -6l-4 -6
q-8 -8 -14 -17t-14 -18q-2 -2 -3 -4q-2 -3 -4 -5q-3 -4 -9 -11q-6 -8 -8 -12q0 -1 1 -1q-1 0 0 0v0q6 -6 11 -12q-5 6 -4 4l4 -4q2 -2 3 -4l2 -4q8 -8 15 -17t13 -18q28 -42 55 -85t56 -84q14 -20 27 -39q-13 18 -10 14q3 -3 10 -14q4 -5 6 -10q3 -5 2 -11q-2 -5 -6 -8
q-5 -3 -11 -1q-7 2 -15 10q-8 7 -14 13q-1 2 -4 6l-5 5q-1 0 0 -1q0 -2 -2 -5t-5 -5q-2 -2 -5 -2q-3 -1 -7 0q-3 1 -6 3l-2 2l-3 2q0 -1 2 -3l4 -4l8 -8q6 -5 8 -9q3 -10 -3 -16q-7 -6 -17 -2q-4 2 -9 7q-4 5 -7 9q-14 16 -26 34q12 -17 9 -13q-2 3 -9 13q-22 34 -40 68
q-17 35 -36 70l-12 26t-11 27q-2 3 -3 6q-2 4 -4 7v1h-1q-1 -1 -6 -7q-4 -6 -6 -8q-7 -10 -16 -21q-9 -12 -18 -20q-5 -4 -10 -6q-6 -1 -12 0q-4 1 -6 3q-1 3 -2 3q-1 -2 0 -6t1 -6q2 -11 3 -22q2 -11 3 -21q1 -6 3 -11q1 -6 2 -11q1 -11 4 -22q2 -12 4 -23q2 -6 3 -13
q2 -6 -4 -11q-11 -7 -18 0q-8 8 -11 17l-6 14q3 -7 2 -5q-1 1 -2 5q-1 1 -2 4l-1 3v-6q0 -4 1 -6q0 -11 -5 -19q-4 -8 -17 -3q-2 1 -5 4q-2 2 -3 4v2t-1 1v-1v-1q-1 -3 0 -7v-6q1 -8 1 -17q1 -8 -8 -13q-4 -2 -8 -1q4 0 3 0h-3q-8 2 -10 9q-2 8 -3 15q-2 8 -2 16q-1 8 -1 17
q-3 23 -3 46q1 -22 0 -17v17q0 16 -1 31t1 31v13q-1 7 0 13q1 9 2 22q1 14 0 22q-2 15 -1 31q0 15 -1 30q-1 12 -1 24v25v85q0 -40 0 -32v32v1zM184 223q3 2 5 6q2 3 5 6l8 10l8 10l4 4q1 3 0 6v1t-1 1t-1 -1v-1q-4 -5 -7 -10l3 4q-1 -1 -3 -4l-10 -16q-6 -8 -11 -16v0z
M232 294q1 -1 2 -3t2 -2q3 2 5 6q3 4 5 7q5 5 9 11t9 11q4 5 7 11l8 10q14 17 27 35q12 18 26 34q5 6 8 12q4 6 9 11q6 7 11 14q5 8 10 14q2 2 4 5q1 3 3 5q3 3 5 7q2 3 5 6q1 2 2 3q2 1 3 3l1 1t0 1q-4 -2 -7 -6q-3 -5 -6 -8q-8 -9 -16 -19t-17 -20q-11 -13 -22 -27
q-11 -15 -22 -28q-5 -7 -9 -14q-5 -7 -10 -13l-10 -12q-4 -6 -9 -12q-3 -2 -4 -6q-2 -3 -5 -6q-6 -7 -12 -15q-7 -8 -12 -16v0z" />
    <glyph glyph-name="L" unicode="L" horiz-adv-x="483" 
d="M70 449q0 18 1 36q1 17 5 34q1 6 4 13t9 10q7 3 12 1q6 -2 9 -9q1 -2 2 -11t2 -8q2 4 3 8l2 10l4 14q3 7 4 15q0 7 3 15q3 7 12 9q11 0 16 -8q6 -9 7 -19q1 -14 1 -29q0 -14 -2 -29q-1 -9 0 -18v-18v-38q0 -20 -2 -39q-2 -11 -1 -23q0 -12 -1 -24q-2 -15 -1 -31
q0 -15 -1 -30q-1 -10 -1 -21t1 -21q1 -5 0 -10v-10q2 -14 3 -29l2 -28q2 -18 6 -36q3 -18 10 -35q1 -4 2 -13q2 -8 4 -11q1 -1 5 0h6q16 0 32 2q-15 -1 -12 -1t12 1q13 1 27 1q13 0 26 1q17 2 34 3q17 0 33 -1l8 -2q4 -2 8 -2q3 -1 5 0q3 0 6 1q9 1 22 0t15 -13q1 -6 -2 -11
q-4 -5 -10 -6q-7 -1 -15 -1q-7 1 -15 1q-2 -1 -4 -1q-1 -1 -3 -1l-16 -2q8 1 6 1q-1 0 -6 -1h-12l-12 -2q-1 0 1 0h3h6q-3 0 -2 0h2h8h8q5 0 11 1q6 0 11 -2q7 -4 7 -11q1 -8 -4 -13q-4 -2 -9 -3q-4 0 -8 1q-12 0 -23 -1t-22 -1h-29l-28 -2q-5 -1 -10 0h-10q-16 -2 -34 -1
q-17 0 -33 1q-6 1 -13 1q-6 1 -12 1q-2 -1 -4 -3q-2 -1 -5 -2q-7 -1 -9 2q-2 2 -7 5q-2 1 -3 2q-1 0 -3 2t-3 6q-1 3 -1 6q0 1 1 3q1 1 1 2q0 2 -1 5l-2 6q-5 21 -8 43q-4 22 -6 44q-4 33 -5 65t-1 65v34t1 34q2 14 3 29q0 14 2 29q1 5 2 12t-1 11q-1 2 -4 2q-4 1 -6 1
q-3 1 -5 4q-2 2 -3 5q-3 8 -4 16q0 9 -2 17v0zM124 134v0v0zM125 130q1 -6 0 0v-3v3v0zM125 126q1 -10 4 -26t7 -26q1 -1 1 -5q1 -4 2 -5h5t4 2q0 1 -1 2l-2 2q-1 4 -3 8l-4 8q-4 10 -7 20l-6 20v0zM317 33q8 -2 0 0l4 -1l-4 1v0z" />
    <glyph glyph-name="M" unicode="M" horiz-adv-x="477" 
d="M36 257q1 4 1 8v8q2 18 1 35q0 18 2 35q1 15 2 29t3 29q2 20 5 40q4 20 6 41q1 6 1 12v13q2 15 1 30t0 30q1 6 5 11q5 4 12 3q7 -3 9 -9q2 -7 7 -11q2 -1 4 -1t5 -1t6 -3q2 -3 5 -5q5 -6 7 -16q3 -9 6 -14q2 -1 7 0q6 0 10 -3q8 -9 12 -26q3 -17 6 -29q9 -39 15 -78
q5 -39 9 -79l4 -24q1 -13 3 -25l2 -20q1 -11 4 -20q2 -8 3 -16q1 -7 3 -15q0 -2 1 -5q1 -2 2 -5q0 -1 1 -2v-2q2 6 3 12q0 6 1 11q0 3 1 6q1 2 1 5q2 12 5 25l6 24q2 8 4 17q1 9 4 17q2 5 3 10q1 6 3 11q3 6 5 13q1 8 4 14q5 12 9 25q3 12 8 24q1 2 1 4t1 4q8 18 15 36
t15 36q3 8 7 15q3 7 7 15q0 1 2 2q1 2 2 3q3 8 9 20q7 11 13 17q2 2 6 5q3 2 5 4q4 7 5 18q0 12 3 20q3 5 8 6q6 1 11 -1q7 -3 7 -11q-1 -7 -1 -14q1 -1 6 -4t7 -6q2 -6 4 -15t2 -15q2 -14 3 -29q0 -14 2 -29v-20q-1 -13 1 -19v1v1v3q0 -2 0 -1v1q1 3 1 6q0 -3 0 -2v2l2 24
q-1 -12 0 -9v9q2 17 3 35q0 18 2 36q1 5 6 9t11 3q9 -3 11 -11t1 -16q0 -12 -2 -23l-2 -22q-2 -12 -2 -23q-1 -11 -2 -23q-4 -35 -6 -70t-6 -70q-1 -13 -1 -25q-1 -12 -2 -25v-6v-7q-2 -24 -2 -48q1 -24 -1 -47q-1 -10 -1 -20q1 -10 1 -20q0 -7 -1 -14q-1 -8 0 -15t2 -19
q0 -12 -3 -17t-8 -5t-10 1q-2 0 -2 -2q-1 -2 -2 -3q-3 -3 -8 -3q-4 -1 -8 1q-5 2 -7 8t-3 11q-3 15 -4 29q-2 15 -3 30q-2 22 -1 48q0 25 3 48q2 22 2 45t-1 46q1 20 1 41q1 20 -1 40q-1 7 -1 13q1 7 1 14q0 9 -1 18v17v11v9v-1q-1 -2 -1 -4l-2 -8q1 4 0 3v-3l-2 -10t-2 -9
q-1 -2 -1 -4q-1 -2 -1 -3l4 -4q2 -1 2 -4q2 -7 -2 -12t-8 -11q-5 -13 -6 -29q0 -16 -3 -30l-8 -30q-3 -15 -9 -29q-3 -7 -4 -14l-4 -14q-5 -12 -7 -25q-3 -12 -7 -24q-3 -7 -4 -14q-2 -8 -4 -14l-4 -12t-3 -11q-2 -18 -6 -35q-5 -17 -7 -35q-1 -5 -1 -10q-1 -6 0 -11
q0 -4 1 -7q0 -4 -1 -7q-3 -5 -8 -6q-6 -1 -11 0q-2 2 -4 3q-3 2 -6 1q-1 -1 -1 -2q0 -2 -1 -3l-3 -3q-3 -2 -5 -2q-11 -2 -13 4q-3 7 -4 15l-3 -1h-3q-3 0 -7 2t-5 5q-3 8 -3 18t1 18q0 4 1 9t0 8q-6 15 -13 30q-7 14 -14 29q-4 10 -7 20q-4 11 -8 21q-2 5 -3 10t-3 10
q-5 12 -8 24q-3 13 -6 25q-6 24 -10 47q-5 24 -8 47q-1 14 -2 27q-1 14 -3 28q-1 9 -1 19q1 9 0 19q-1 4 0 7v8l-2 8q-2 3 -3 7q0 2 -1 5t-2 5q-48 144 -7 147q40 3 5 -144q-1 -4 -1 -10q1 -5 1 -10q-2 -17 -1 -35t-1 -35t-2 -34q-1 -17 -3 -34v-13v-13q-2 -12 -2 -25v-26
q0 -26 1 -51t4 -50q1 -11 3 -21l4 -22q1 -7 3 -14q2 -6 2 -14q0 -2 -1 -5q0 -3 -1 -6q-1 -2 -3 -4l-3 -3v-3q1 -1 1 -2q0 -3 -1 -5q-2 -2 -1 -5q1 -9 5 -22q3 -13 0 -22q-4 -8 -12 -9q-8 0 -14 5q-3 4 -5 8q-1 4 -3 8q-7 16 -12 34q5 -17 4 -13q-1 3 -4 13q-4 18 -8 37
q-5 18 -7 37l-2 28q-2 15 -3 29q-2 19 -1 39v39v0z" />
    <glyph glyph-name="N" unicode="N" horiz-adv-x="454" 
d="M42 132q1 4 1 9q-1 4 0 9q1 11 1 22v22q-1 30 0 59q0 30 3 59q4 29 7 59q4 30 4 59q0 20 3 40q-2 -18 -2 -15q0 4 2 15v15q0 7 1 14l2 14t1 15q-2 9 -1 21q1 13 10 18q8 3 16 -1q7 -3 14 -9q10 -7 19 -15t17 -17q4 -4 7 -8q2 -5 6 -9q3 -3 5 -7q2 -3 5 -6q11 -12 21 -30
q10 -17 16 -32q4 -10 9 -20l10 -20q6 -15 11 -30l12 -30q2 -5 4 -11q1 -6 3 -11q8 -20 15 -40q6 -20 14 -40q9 -20 17 -40q9 -19 21 -38l12 -18q-6 9 -5 7t5 -7q0 -1 2 -3q1 -2 2 -2q1 -1 1 3v4v26q0 -12 0 -10v10q0 17 1 34v34q0 13 1 27q0 14 1 27q2 16 1 32q-1 17 1 33
q1 10 0 21q0 10 1 20q1 11 1 23q-1 11 0 22q1 10 1 21q1 10 1 21v19q1 9 1 19q0 6 -1 13v13q1 5 6 8q4 3 9 3q11 -2 13 -11q1 -10 3 -16q1 -1 2 1t1 3q2 2 3 4l4 2q6 3 15 2q8 -1 11 -8q4 -9 1 -21q-2 -13 -3 -23l-4 -30q-3 -15 -5 -30q0 -7 -1 -14q0 -7 -1 -14q0 -4 -1 -7
q-1 -4 -1 -8q0 -9 2 -19q2 -9 3 -19l2 -24t2 -25q1 -8 0 -16q0 -8 1 -16v-16q-1 -8 0 -16q2 -19 2 -38q-1 -19 -1 -37v-54q-1 -28 -1 -55q1 -7 1 -19q-1 -13 -7 -17q-4 -1 -7 -1q-3 -1 -7 1q-1 0 -2 2q-2 2 -3 2t-2 -1l-1 -2q-3 -2 -7 -2q-4 -1 -7 1q-8 3 -13 10
q-5 6 -11 12q-12 13 -22 28t-19 29q-13 20 -25 41q-11 21 -20 43q-4 8 -10 15q-5 7 -9 15q-4 9 -9 18q-6 8 -10 17q-8 18 -17 35q-9 18 -17 36l-32 74q15 -35 12 -28l-12 28q-5 13 -10 25q5 -12 4 -9q-1 2 -4 9q-1 3 -2 7q-1 3 -3 5v0v-1q-1 -2 -1 -3v-3v-5q-1 -2 -1 -4v-14
l-2 -14q-2 -16 -3 -33q-2 -16 -3 -33q-1 -6 -1 -12q0 -7 -1 -13q-1 -16 -1 -32q1 -16 -1 -32q-1 -10 -1 -21q1 -11 1 -21v-55q0 -27 -3 -54q-1 -13 0 -27q1 -13 -1 -26v-12q-1 -7 -4 -13q-11 -13 -25 -2q-15 10 -21 21q-18 27 -21 57t-2 62v0zM92 531v-10q0 5 0 4v-4t1 -3
q0 -2 1 -1q3 5 3 8q1 3 -5 6v0zM363 102q-1 -7 1 -13q1 -6 5 -11l4 -4l3 -3q2 3 1 11q0 8 -1 12q1 1 1 5q0 3 -1 4h-1q-1 -1 -2 -1q-3 -1 -5 -1t-5 1v0z" />
    <glyph glyph-name="O" unicode="O" horiz-adv-x="475" 
d="M34 372q1 7 1 15q1 8 1 16q1 9 4 21q3 13 6 21q2 5 5 10l6 10q1 3 3 6l4 6l10 10q4 5 9 10t10 9l10 8q2 2 5 3q3 2 5 4q5 5 13 10q7 5 14 8q6 3 11 6q5 4 10 7q16 7 33 13q16 6 34 8q5 1 11 1t11 -2q3 -1 6 -4q3 -2 6 -3t5 0t5 0q7 0 15 -2q8 -1 15 -4q19 -8 36 -21
q16 -13 31 -27l8 -10q5 -5 7 -11q4 -9 7 -18q3 -10 5 -19q1 -4 1 -9q1 -5 3 -8q1 -2 3 -1t4 1q3 -1 6 -3t4 -5q3 -7 4 -16q2 -8 3 -16l2 -10q1 -4 2 -9l2 -18q2 -8 3 -17q2 -16 5 -34q4 -18 2 -34q-1 -14 -4 -29t-8 -28q-1 -2 -1 -5q-1 -3 -2 -5q-2 -7 -6 -16q-4 -10 -5 -16
q-2 -24 -7 -48t-14 -46q-1 -4 0 -8t-1 -9q-1 -3 -4 -5q-4 -2 -6 -5q-3 -4 -5 -10q-3 -6 -7 -10q-3 -3 -7 -4q-3 -2 -7 -2q-1 0 -2 1t-3 1q-2 -1 -7 -5t-8 -6q-19 -7 -37 -15q17 7 14 6q-4 -2 -14 -6q-5 -2 -9 -3l-10 -2h-3q-1 0 -2 -1q-1 -3 -1 -8q0 -6 -6 -9q-4 -2 -8 0
q-3 1 -7 2q-2 0 -5 -2q-3 -1 -7 0q-4 0 -7 3q-4 3 -7 6q-4 4 -10 7q-5 3 -11 5q-6 3 -13 6l-14 6l-10 6q-5 4 -10 7q-7 3 -14 7q-7 5 -12 10q-11 10 -22 21q11 -10 9 -8q-3 2 -9 8q-2 2 -4 6q-2 3 -4 5t-5 4q-2 1 -4 3l-8 10q-3 5 -7 9q-6 6 -13 15t-11 17q-5 13 -8 26
q-4 13 -5 26q-1 7 0 14t1 13q-1 11 -3 21l-2 20q-1 8 -1 16t-1 16q-2 21 -2 43q-1 22 0 43v0zM75 441q5 3 9 9q5 6 9 11q10 10 21 20q12 9 23 18t23 17q-11 -8 -9 -6q2 1 9 6q3 3 7 6q-3 -3 -3 -2q1 0 3 2q2 1 4 3q-2 -2 -1 -2q0 1 1 2v0q1 1 0 1q-4 -2 -11 -6q-7 -5 -11 -8
q-17 -10 -32 -22q-15 -13 -29 -27q-4 -5 -7 -11t-6 -11v0zM93 262q0 -8 3 -16q2 -8 6 -15q3 -8 5 -17t6 -18q3 -8 9 -16q5 -7 11 -14q19 -23 42 -36q24 -12 54 -12h34q16 1 32 5q6 1 12 3q6 1 10 5q4 3 6 8q2 4 4 9q2 3 4 8q2 4 3 8q6 55 7 108q1 54 -5 108l-8 52
q4 -24 3 -19q0 5 -3 19q0 6 -1 13t-3 13q-3 6 -9 11q-6 4 -11 8q-14 11 -32 16q-18 4 -36 3l-10 -2l-10 -2q-10 -1 -23 -5t-20 -11q-8 -8 -16 -19t-13 -21q-4 -9 -9 -16q-5 -8 -8 -16q-9 -19 -15 -39q-7 -20 -12 -41q-2 -10 -3 -20q-2 -10 -3 -20v-11t-1 -11v0zM208 91
q5 -3 10 -8q5 -4 11 -7q5 -1 10 1q6 2 10 4l14 6q-6 -2 -5 -2q1 1 5 2q1 1 3 1q1 1 1 2q-1 1 -7 0h-8h-16q-8 -1 -16 0q-3 0 -6 1h-6v0zM222 46v0v0zM224 45q7 -2 0 0l3 -1l-3 1v0zM251 524q8 -2 17 -3l16 -4q2 0 7 -2q5 -1 6 -2v2l-2 2q-3 2 -7 5l-6 4q-4 3 -10 6
q-6 2 -10 1q-2 -1 -5 -4t-6 -5v0zM318 43q4 0 0 0h2h-2v0zM322 44q4 1 9 5q5 3 9 6q0 1 3 2q2 1 3 2h-1h-1l-4 -2l-2 -2q-8 -5 -16 -11q7 5 6 5q-2 -1 -6 -5v0z" />
    <glyph glyph-name="P" unicode="P" horiz-adv-x="479" 
d="M63 242q1 6 1 13q-1 6 0 12q2 19 2 37q1 18 1 37q0 15 1 31q1 15 3 31v11v11q1 11 2 23q1 11 2 23q1 21 0 45t15 41q7 6 19 7q11 2 20 1q9 1 18 1t18 -1q12 -1 23 -3q12 -1 23 -3q30 -5 59 -11q-28 6 -22 5q5 -1 22 -5l16 -4l16 -4q22 -3 43 -12t37 -26q10 -12 17 -26
q6 -14 11 -29q1 -5 2 -11q1 -5 2 -11q3 -12 3 -27q0 -16 -2 -28q-3 -27 -19 -50t-40 -36l-20 -10q10 5 8 4l-8 -4q-3 -1 -7 -2t-7 -3q-26 -17 -53 -29q-28 -11 -58 -15q-17 -1 -33 -2q-17 0 -33 -2h-11t-11 -1q-1 -2 -1 -6t1 -6v-18t1 -17q2 -20 2 -40q-1 -20 1 -40
q1 -8 3 -23q1 -16 0 -23q-1 -3 -3 -6t-4 -4q-2 0 -4 -1q-2 0 -4 -1q-1 -2 0 -6q1 -3 2 -5q0 -4 -1 -8q-2 -4 -5 -6q-4 -4 -11 -3q-6 2 -9 6q-3 5 -3 9q-1 4 -3 9q-3 6 -5 13q-2 6 -4 14q-11 45 -12 91q-2 47 -1 93v0zM104 523q3 -5 6 1t10 8q7 1 13 -4q-6 3 -5 3t5 -3
q0 -1 1 -3q2 -3 3 -3t5 1t6 1q1 0 1 1v0v0v3q-1 1 -1 2v4v3q-2 2 -8 1h-8h-13t-11 -3q-2 -2 -3 -6t-1 -6v0zM122 285q0 -3 -1 -8q0 -5 1 -8q1 -1 3 0t3 1q10 4 21 9q-10 -4 -8 -4l8 4q11 4 26 7q16 4 28 5q15 2 31 2q-15 0 -12 0h12h14q8 -1 14 1q4 1 7 3q4 2 7 3q5 3 11 5
q6 3 11 7q13 11 24 32q10 22 12 40q3 18 4 37q0 20 -8 37q-7 11 -17 16q-11 4 -23 8q-16 5 -33 8q-16 3 -33 4q-16 2 -33 2q-17 1 -33 -2q-3 -1 -9 -2q-6 0 -8 -2q-1 -2 0 -9v-10v-23q1 -12 -1 -23q-1 -16 -3 -33q-1 -16 -3 -33q-1 -10 -3 -20l-4 -20q-1 -8 -2 -17
q-1 -8 -3 -17v0z" />
    <glyph glyph-name="Q" unicode="Q" horiz-adv-x="452" 
d="M28 255q1 8 2 15q0 8 1 15l2 8q2 4 3 7q0 3 -1 6q0 4 -1 6q-1 12 -1 26q1 14 2 26q3 25 10 47t18 44q2 4 5 8l6 8q5 5 10 11q4 6 10 12q7 6 15 12t16 13q13 11 29 20q15 8 31 15q19 8 39 14q20 7 41 5q17 -2 32 -8q16 -5 30 -13q7 -4 13 -10q7 -6 12 -11q14 -14 26 -30
q12 -15 20 -33q7 -17 13 -35t8 -36l2 -20l2 -20q1 -13 1 -26q1 -14 -1 -27v-12v-13q-2 -15 -7 -29q-4 -14 -6 -28q-2 -20 -6 -40l-10 -40q-2 -8 -3 -17q-2 -9 -5 -17q-4 -9 -9 -18l-8 -18q-2 -6 -6 -10q-4 -5 -7 -10q-1 -4 -1 -3q1 1 0 -3q-3 -4 -10 -8q-7 -3 -9 -6
q0 -2 2 -4q2 -3 3 -5q2 -4 5 -8q2 -5 4 -9q9 -19 21 -38q12 -18 25 -35q5 -6 12 -16q8 -9 8 -16q-1 -6 -3 -8q-3 -3 -7 -5q-6 -4 -10 -6q-3 -2 -11 1q-3 2 -7 6q-3 3 -6 4q-1 0 -3 -1q-2 -2 -3 -2q-2 -1 -4 -1h-5q-7 2 -14 9q-6 6 -12 11q-17 18 -32 38q-15 21 -25 44
q-2 4 -6 14t-6 14q-2 2 -10 2q-9 1 -12 1q-15 2 -28 5q-14 3 -27 10q-10 5 -18 11q-8 7 -17 13l-8 4q-4 1 -8 3q-9 5 -17 11t-15 13q-12 11 -20 24q-9 13 -15 27q-4 8 -10 15q-5 8 -9 16q-7 17 -15 34q7 -16 6 -13q-2 3 -6 13q-4 11 -5 23q-1 13 0 24v0zM63 370v-2t1 -1t1 1
q-1 1 0 2q2 5 6 10q-4 -5 -3 -4t3 4q4 7 8 15q4 7 9 14q16 19 33 37q18 17 35 34q13 12 28 20q16 9 31 17q6 3 11 6l10 6q7 3 15 5q7 2 15 4q6 2 12 2q-6 0 -5 0h5q1 0 2 1q2 0 2 1q-3 2 -12 2q-8 1 -12 1q-16 0 -31 -5q-14 -4 -29 -11q-19 -8 -37 -18q-18 -11 -32 -25
l-6 -4l-6 -4q-9 -9 -17 -18q-8 -10 -14 -20q-9 -17 -14 -35q-4 -17 -9 -35v0zM93 247q0 -20 4 -41q5 -20 12 -38l8 -16q-4 7 -3 6l3 -6q0 -1 1 -4t2 -3q0 1 -2 7q-3 6 -3 8q-3 11 -7 22q-3 10 -6 21l-4 22q-1 11 -2 21q-1 6 0 16q1 9 0 13v0q-1 -2 -1 -4q0 -3 -1 -6l1 3
q-1 -1 -1 -3v-9t-1 -9v0zM96 281v0v0zM120 145v0v0zM121 144v0v0zM121 143v0v0zM123 268q0 -26 5 -54q5 -27 15 -51q3 -8 7 -15t7 -15q4 -8 9 -16q6 -9 12 -15q1 -2 3 -4q1 -2 3 -3q2 -2 5 -2q3 -1 6 -1q7 -2 15 -4q7 -2 15 -2h6q5 -1 6 1q1 1 0 2q-1 2 -1 3q0 5 3 8
q2 4 6 6q5 1 9 0q5 -2 7 -6q1 -2 3 -4q1 -3 3 -3t3 1l3 3q10 4 18 11q-8 -6 -6 -5t6 5q5 3 11 8q6 4 9 9q4 6 6 14q3 7 5 15q5 16 10 33t8 34q1 10 2 19q2 10 3 19q2 19 3 38q2 19 4 37q1 9 3 21q1 11 0 20q-2 6 -5 12q-4 7 -7 12q-20 35 -48 64q25 -28 20 -22q-4 6 -20 22
l-12 12t-13 9q-6 1 -16 -4q-10 -4 -16 -7q-8 -3 -15 -7l-16 -8q-3 -1 -7 -3t-6 -4q-10 -9 -20 -19q-10 -11 -16 -24q-10 -19 -18 -41q-7 -21 -10 -43q-1 -9 -2 -17q-2 -9 -3 -18v-10q-1 -6 -2 -11v0zM337 74q3 1 4 5q2 3 3 6q8 14 14 29q-6 -14 -5 -11t5 11q1 4 2 7l2 6
q0 1 1 3q0 1 1 2v1q0 1 -1 1q-1 -2 -3 -8q-2 -7 -3 -10q-4 -10 -9 -22q-5 -11 -11 -20v0zM364 136v0v0zM383 246q0 -6 2 0l3 9q0 6 1 12q0 6 1 12q1 1 1 4q1 3 0 5l-1 1h-1q-1 -1 -2 -5q0 -4 -1 -5q0 -9 -1 -17q0 -8 -2 -16v0zM394 373q1 -8 0 0v-4v4v0zM394 362v-7q0 4 0 3
v-3v-5q0 -1 1 -1v6q0 6 -1 7v0z" />
    <glyph glyph-name="R" unicode="R" horiz-adv-x="497" 
d="M69 209q1 6 1 12q-1 7 -1 13v49q0 -23 0 -18v18v82q1 41 5 81q2 17 3 33q-1 -15 -1 -12t1 12q1 6 2 13q2 6 3 12q0 6 1 14q1 7 6 12q1 2 4 3l4 2q4 2 7 7q4 6 12 8q6 1 14 0q8 0 15 -1l24 -2q13 0 25 -1q30 -3 59 -9t57 -17q5 -2 9 -5q4 -2 7 -5q2 -2 4 -5q2 -2 5 -4
q2 -1 5 -1t5 -1q8 -3 16 -7q-7 3 -6 2q2 0 6 -2q11 -7 24 -17q13 -11 20 -22q4 -10 7 -21q2 -12 3 -22q2 -20 -4 -44t-18 -41q-8 -10 -18 -17q-10 -8 -20 -15q-9 -9 -21 -15q-12 -7 -23 -13q-2 -1 -9 -4q-6 -3 -7 -4q0 -1 1 -1h1q4 -3 6 -8q-2 4 -2 3q1 0 2 -3q5 -11 11 -22
q7 -10 12 -21q6 -16 14 -30q8 -15 15 -30q5 -11 11 -20q7 -10 12 -20q1 -3 4 -6l4 -6q2 -5 5 -10q2 -4 5 -9l4 -4t4 -5q2 -5 0 -11q1 5 1 4t-1 -4l-3 -3t-2 -4q2 -6 10 -18q9 -12 13 -18q3 -4 5 -8q2 -5 1 -9t-3 -7q-3 -3 -6 -4h-3h-3v-3q-1 -3 -1 -4q-2 -4 -5 -7
q-4 -3 -8 -3q-8 1 -16 9q-9 8 -14 14q-15 16 -30 33q14 -16 11 -13t-11 13q-7 7 -12 16q-5 8 -12 16q-4 4 -8 12q-4 7 -7 12q-6 11 -14 22q-7 10 -12 22q-7 16 -13 32q-6 15 -12 32l-6 20q-4 10 -6 20q-1 2 -2 7q0 5 -2 6q-1 1 -3 0q-1 -1 -3 -1q-9 0 -18 -1q8 1 7 1
q-2 0 -7 -1q-11 -1 -24 0t-24 1h-10q4 0 3 0h-3q-2 1 -3 1q-1 1 -3 1q-1 -2 -1 -6v-7v-39q0 18 0 15v-15q1 -32 3 -64t5 -64q1 -10 2 -24t-4 -22q-5 -4 -8 -3t-7 0q-1 0 -2 -2t-2 -3q-3 -3 -6 -4q-4 -2 -8 -1q-4 2 -6 4q-3 2 -5 6q-2 2 -1 2q0 -1 -1 2v2q-1 1 -1 0
q-1 -1 -1 -2q1 -2 0 -3q-1 -6 -4 -9q-4 -4 -10 -4q-9 0 -12 8t-3 16q-1 9 -2 19l-2 20v12q1 6 0 11q0 7 -1 13q0 7 1 13v16v16v66q0 -31 0 -25v25v0zM122 521q0 -6 3 -3q3 2 10 3q4 -1 6 -3q2 -1 5 -3q0 -1 1 -1h-1h1q2 1 4 3l4 2q12 5 1 0q-10 -5 5 1h-1q-2 0 -4 1h-9
q4 0 3 0h-3q-6 1 -13 1q-7 1 -12 -1v0zM146 294q0 -2 -1 -4q0 -1 1 -3q0 -1 2 0h3q7 1 15 2q-7 -1 -6 -1q1 1 6 1q12 2 25 12q14 10 25 16q10 5 19 11q9 7 18 13q15 9 29 19q15 11 28 22q8 6 15 14q7 9 9 19q-1 5 -6 12l-9 12q-6 8 -15 13q-8 5 -16 9q-16 9 -33 15
q-16 6 -34 8l-16 2q-7 2 -16 2h-14q-8 0 -15 1q-2 0 -5 1q-2 1 -5 2h-1q1 0 0 0v0q-1 -3 -1 -8q1 -5 2 -8q1 -2 3 -3q3 -1 5 -2q3 -3 4 -7q1 -5 0 -9l-2 -32t-3 -32t-5 -33q-2 -17 -4 -33q-1 -8 -1 -16t-1 -15v0zM250 306q4 0 8 1t7 2q22 5 42 14q-19 -7 -15 -6t15 6
q3 2 5 3q3 2 6 3l14 7q9 4 12 7q4 6 6 14t2 14v7q1 4 -1 6q0 1 -1 1h1h-1q-1 -1 -3 -4q-1 -3 -2 -4q-10 -10 -21 -20q10 9 8 7t-8 -7q-17 -14 -36 -27l-38 -24v0zM365 454q2 -7 5 -12q4 -6 8 -11q2 -2 3 -5q1 -2 3 -3v0v0v0q0 3 -1 6q-1 2 -1 5q-2 7 -6 11q-5 5 -11 9v0z
" />
    <glyph glyph-name="S" unicode="S" 
d="M44 23q1 5 4 8q3 4 8 6q1 1 4 1q3 1 3 2t-2 2q-3 1 -4 2q-1 2 -1 5t-1 6q0 3 -1 5q-2 2 -2 5q0 4 2 8q3 5 7 6q7 3 15 1t15 -4l22 -6t21 -7q9 -4 19 -6q9 -2 18 -6q10 -4 27 -6q16 -1 26 1q4 1 8 3l8 4q6 3 12 5l12 4q8 4 17 6q9 3 17 6l10 6q6 3 10 7q6 4 13 7l12 8l4 2
q3 2 4 3q1 4 1 14q-1 10 -1 14q-2 13 -5 26t-8 25q-1 3 -1 6q-1 4 -3 6q-2 3 -6 4q-3 2 -6 3q-6 3 -11 7q-6 4 -12 7q-13 6 -25 15q-12 8 -25 14q-10 4 -21 7t-21 7q-3 1 -6 4t-4 6v4l-3 3q-6 2 -13 4q-6 1 -12 3l-12 6q-6 4 -13 6q-7 4 -15 12t-14 15q-3 3 -5 7t-5 7
q-10 10 -20 23q-9 13 -15 27q-2 5 -4 14q-3 10 -5 13t-4 4t-2 6q-1 7 3 11t7 9q4 10 10 18q6 7 13 14q4 4 9 7q5 2 8 6q10 10 22 21q12 12 25 18q13 5 25 11q-11 -5 -9 -4t9 4q7 2 21 4t22 3q5 1 10 3t11 3q6 0 13 2q6 1 12 1q13 2 25 0t24 -3q11 -2 22 -6q11 -3 21 -8
q3 -1 5 -3q3 -1 6 -3q4 -1 11 -5t10 -6q6 -7 13 -15q6 -8 8 -17q0 -15 -13 -22q-13 -6 -26 -5q-12 1 -24 4t-24 8t-28 7q-16 3 -30 4q-6 1 -13 2t-14 1q-13 -2 -28 -7q-16 -5 -28 -10q-6 -2 -12 -5q-6 -2 -11 -4q-3 -1 -5 -2q-3 0 -5 -1q-2 -2 -3 -4q-2 -2 -3 -4
q-3 -2 -5 -4q-3 -3 -4 -6q-4 -10 -6 -20q-2 -11 -3 -21q0 -3 -1 -6t0 -6q1 -4 8 -13q7 -8 10 -11l6 -8q2 -4 5 -8q6 -6 18 -16q11 -10 18 -14q11 -5 23 -10q-11 5 -9 4t9 -4q6 -2 12 -3q7 -1 13 -1q5 -1 11 -3q5 -2 10 -3q9 -1 17 -3q9 -3 17 -6q7 -3 14 -8q7 -6 15 -9
t17 -8q10 -5 16 -11q3 -3 8 -9q4 -6 6 -8q7 -3 19 -5t17 -11q5 -13 6 -27t-1 -28q-1 -7 -1 -15q0 7 0 6v-6q0 -1 -1 -3v-3q1 -1 5 -3q3 -2 6 -6q1 -5 -1 -8q-1 -4 -1 -5t1 -1l1 -1q1 -2 2 -5v-6q-1 -3 -2 -4l-4 -4l-2 -4q-1 -3 -2 -5q-2 -5 -6 -10t-8 -9q-4 -3 -9 -7
q-6 -4 -11 -6h-2q-1 0 -2 -2q-3 -3 -5 -7q-2 -3 -5 -7q-8 -7 -18 -10q-11 -3 -21 -7q-3 -1 -7 -2l-8 -2q-10 -5 -22 -9t-23 -5q-5 -1 -11 -1l-10 -2q-8 -2 -15 -5q-8 -4 -15 -7q-16 -7 -34 -8q-19 -2 -36 -2q-18 0 -37 4q-18 3 -35 10q-6 3 -15 6t-11 11v3q-1 1 -1 3v0z
M377 492q3 1 3 2q-1 1 -3 -2v0z" />
    <glyph glyph-name="T" unicode="T" horiz-adv-x="454" 
d="M21 523q3 8 9 10t14 3l36 2t35 2q20 2 39 3t39 3h15t16 1h6q4 -1 7 -1h21h21h19l18 2q11 1 23 1q11 0 22 1q10 1 21 0h21q5 0 9 -1t7 -6q1 -3 1 -6t-1 -5q0 -1 -1 -2t-1 -2q0 -2 4 -3q3 -1 4 -2q4 -2 6 -7q2 -4 2 -9q-3 -12 -17 -12t-24 1q-6 -1 -9 -6t-10 -5q-7 1 -13 4
q-6 2 -13 3q-12 2 -23 3t-23 1h-11q-9 1 -11 0q-1 -2 -1 -5v-4l-2 -10l-2 -10l-2 -12q-2 -7 -2 -13q-1 -6 0 -14l2 -14q1 -9 1 -19q-1 -10 -1 -20q0 -18 1 -37q0 -19 -2 -37q-1 -11 -1 -22q1 -12 0 -23q-1 -10 -1 -21q1 -11 0 -21t-1 -21q1 -10 0 -21l-2 -20v-21v-37
q-1 -19 1 -37q1 -7 2 -16t-2 -16q-2 -5 -7 -7q-4 -2 -9 -1q-1 1 -4 3q-2 2 -4 1t-4 -4q-2 -2 -6 -2q-8 0 -12 6q-3 5 -5 12q-8 18 -13 36q-4 19 -7 37q-2 28 -4 55q-3 27 -5 54q-2 13 -1 26q0 12 -1 25q-2 15 -2 32q-1 17 1 32v10v10q1 12 2 25q0 12 1 24l6 48
q-3 -23 -2 -18q0 4 2 18q0 7 2 14q1 7 1 15l2 8q2 5 1 9q-1 2 -4 1h-6q-9 -1 -19 -2h-18l-28 -2q13 1 10 1q-2 -1 -10 -1q-12 -2 -23 -2q-12 0 -24 -1q-8 -1 -17 -2t-16 2q-3 1 -5 4t-3 5q0 2 1 5q0 3 -1 4t-2 1h-3q-5 2 -8 7q-2 4 -2 10v0z" />
    <glyph glyph-name="U" unicode="U" 
d="M37 314q0 20 2 40q2 19 4 39q1 12 1 24t1 24v14v15q2 16 2 32q1 17 2 33q1 8 1 16t5 14q6 5 13 3t10 -8q1 -2 1 -6q0 -3 1 -5v0q1 0 1 1l2 4q1 3 2 5q0 1 1 2l-1 -1q0 1 1 1q2 7 7 14q4 7 11 11q5 2 10 0q6 -3 8 -7q1 -3 1 -7q-1 -3 0 -5t4 -2q2 0 4 -1q3 -1 5 -5
q2 -3 2 -7q0 -3 -2 -7q-1 -4 -5 -5q-3 -1 -5 -1q-3 -1 -3 -4q-1 -8 -1 -16q1 -8 0 -16q-2 -17 -2 -33q0 -17 -1 -33q-1 -10 -1 -21q0 -10 -1 -20q-3 -22 -2 -48q0 -26 2 -48q1 -8 3 -17l2 -18q1 -11 3 -21q2 -11 3 -22q0 -3 2 -7q1 -3 1 -6q1 -7 3 -14q1 -7 4 -13q1 -2 1 -5
t1 -5q3 -6 6 -11t6 -11q9 -23 21 -46q13 -23 30 -41q4 -4 8 -7t9 -6l4 -2q2 -2 5 -2t6 1q4 1 7 2q8 2 17 4l16 6q6 2 16 4t15 5q3 3 6 11l3 12q5 13 8 28q3 14 7 26q4 10 9 26q4 16 5 26q1 4 0 8v8q-1 10 -1 25t1 25q1 15 0 30q0 16 1 31q1 10 1 21q0 10 1 20q2 21 3 41
q1 21 3 42l4 42q-2 -20 -1 -16q0 4 1 16q2 9 4 19t4 19q1 8 3 15q3 7 5 14q2 12 11 19q9 8 20 -2q5 -6 3 -13q-1 -8 1 -15q2 -3 7 -4t7 -5q2 -5 2 -10v-11q1 -10 1 -20q0 -11 1 -21q2 -21 2 -43t-2 -43q-1 -7 0 -13q0 -7 -1 -13q-2 -18 -2 -35q-1 -18 -3 -36q-3 -26 -6 -53
q3 25 2 20q0 -5 -2 -20q-1 -7 -2 -15q-1 -7 -1 -15q0 -22 1 -44t-1 -44q-1 -10 -4 -21q-3 -10 -10 -18q-7 -6 -16 -11q-9 -4 -16 -10q-6 -7 -14 -13q-7 -5 -15 -11q-4 -3 -11 -6q-6 -3 -10 -6q-3 -3 -5 -8q-2 -4 -5 -7q-9 -9 -18 -17q-10 -9 -21 -14q-5 -2 -11 -2h-10
q-12 0 -23 2q-12 2 -22 6q-2 1 -4 1t-4 1q-10 5 -21 9q10 -4 8 -3t-8 3q-8 4 -15 11q-7 6 -15 12l-10 6q-6 2 -10 6q-10 10 -22 23q-12 14 -18 27l-14 32q7 -15 5 -12q-1 3 -5 12q-3 8 -4 16q-1 9 -3 16q-1 2 -2 3q-1 2 -2 3q-1 4 -3 8q-1 4 -2 7q-1 12 -4 24t-4 24
q-6 49 -6 100q1 -47 1 -38q-1 9 -1 38v0zM106 176q0 -2 1 -6q1 -5 2 -5q1 1 -1 5q-1 4 -2 6v0zM109 165v0v0zM110 163v0v0zM111 161v0v0zM111 159v0v0zM119 141q3 -9 9 -20q7 -11 12 -19q2 -2 4 -6t5 -5l-1 3q-2 3 -2 4q-3 5 -6 11q3 -5 2 -4q0 1 -2 4q-2 4 -5 13
q-4 9 -6 11t-5 4q-3 1 -5 4v0zM206 12v0v0zM208 12q9 -6 21 -7h22q4 0 7 1q2 1 5 4h1q1 0 1 1h-7q-5 0 -7 1q-11 0 -21 -1q-11 -2 -22 1v0zM342 83q7 -2 8 7t-1 14h-1v-1q-6 -17 -1 -4q5 14 -1 0q-1 -4 -2 -9q0 -4 -2 -7v0zM377 187v-5v-5q1 0 1 1v2v3l1 2l2 14q0 7 -1 14v5
q0 3 -1 4q-1 -1 -1 -5v-4v-13q0 -7 -1 -13v0z" />
    <glyph glyph-name="V" unicode="V" horiz-adv-x="470" 
d="M10 532q2 7 9 10q7 2 13 -2q3 -1 4 -4q2 -3 4 -5q7 -8 13 -18q6 -9 12 -19q3 -4 6 -9q3 -4 5 -9q1 -1 3 -5t3 -4q0 3 2 8q1 5 1 7q-2 14 -7 28q-4 14 -7 27q-2 6 -5 16q-3 9 -1 15q3 7 10 8q8 0 13 -5q4 -4 6 -9q3 -5 6 -9l10 -16q6 -8 9 -17q2 -4 5 -8t5 -9q3 -7 7 -14
l8 -14q6 -15 13 -30q7 -14 13 -29q11 -26 22 -53q10 -27 21 -53q4 -9 7 -18q2 -9 6 -18q1 -2 1 -4t1 -4q6 -13 9 -27q4 -14 10 -27l2 -6q1 -4 2 -7v-3q0 -1 1 -2q1 0 2 3q0 4 1 4q1 8 3 15q3 7 4 14q3 9 6 19t6 18t5 16q2 7 5 15l8 24q4 13 9 24q7 17 13 33q7 17 14 33
q5 13 12 25q7 13 13 26q2 5 6 10q3 5 6 11q3 7 8 13t8 13q3 8 9 16q5 8 11 14q4 3 8 4t6 2l2 5l3 6q1 3 4 7t5 7q7 6 15 4q9 -1 11 -11q0 -7 -4 -19q-4 -13 -7 -20q0 -1 -2 -6t-2 -6h4h4q3 -1 6 -4t4 -6q2 -7 -2 -16q-3 -8 -6 -15l-14 -32q-8 -15 -15 -32q-16 -36 -32 -73
q-16 -36 -32 -73q-11 -25 -19 -50q-9 -26 -19 -51q-3 -7 -5 -15q-2 -7 -5 -14q-3 -10 -5 -20q-2 -9 -6 -19q-2 -5 -5 -14q-3 -8 -3 -14t2 -13q1 -7 -1 -13q-3 -7 -8 -7q-4 -1 -9 -2l-2 -2q-1 -2 -3 -3h-1h-2q-1 -2 1 -6q1 -3 1 -5q1 -7 -2 -12t-10 -6q-13 0 -16 13
q-2 13 -1 23v6q1 3 0 6q-3 4 -7 7t-6 6q-3 4 -3 7q-1 3 -6 3q-1 0 -3 1h-2t-1 -1v1v-1q0 -3 2 -7t4 -7q4 -8 9 -15q6 -8 9 -16q2 -5 0 -10q-1 -5 -6 -7q-11 -4 -18 4q-7 9 -11 18q-2 5 -5 10q-4 5 -6 11q-8 17 -15 35q-6 18 -14 35l-2 8l-2 8q-5 11 -9 24q-4 12 -9 24
q-1 2 -1 4t-1 4q-5 10 -8 21l-8 22q-1 2 -1 4t-1 4l-6 16q-2 8 -5 16q-9 20 -16 42q-7 21 -16 41q-1 2 -1 4t-1 4l-8 22q-3 11 -8 22q0 2 -1 4q0 2 -1 4q-6 16 -12 33t-13 33q-6 12 -13 24q-6 13 -7 26v0zM118 463v0v0zM119 462q0 -7 3 -13t5 -12q11 -24 20 -49q-9 23 -7 19
q2 -5 7 -19q8 -21 15 -43q7 -21 16 -42l8 -22q3 -11 8 -22q4 -11 8 -23q4 -11 8 -23q6 -14 11 -28q4 -13 10 -27q3 -6 5 -12q-2 6 -2 5q1 -1 2 -5l1 -2q0 -2 1 -3q1 1 1 4v4q-3 7 -5 15l-6 14q-6 17 -11 35t-12 35q-4 10 -7 21q-3 10 -7 21q-11 26 -21 52q-11 27 -22 53
l-20 46q9 -21 7 -17q-1 4 -7 17q-2 6 -4 11t-5 10v0z" />
    <glyph glyph-name="W" unicode="W" horiz-adv-x="496" 
d="M-1 567q2 9 10 13q7 3 15 -4q3 -3 5 -8q3 -5 5 -9q0 -1 2 -6l2 -5q1 -1 4 1q2 1 4 1h5q3 -1 5 -2q4 -3 5 -8t2 -9q0 -1 4 -4t6 -6q3 -7 5 -16q3 -9 4 -18t3 -18t3 -18q2 -13 2 -27q1 -14 3 -28q1 -5 3 -11q3 -5 5 -10q8 -22 15 -45q-7 21 -5 17q1 -4 5 -17q2 -6 5 -12
q2 -6 2 -12q0 -5 -4 -9t-9 -4q-4 1 -8 3q-3 3 -4 1q-1 -9 1 -20q1 -12 2 -20q2 -19 3 -37q2 -18 3 -36q1 -9 3 -18q1 -8 2 -17v-6t1 -6q1 1 1 4q1 4 1 5q1 6 2 11q2 6 3 11q2 16 6 31t9 30q7 20 15 41q7 20 17 39q4 9 9 17q6 9 10 17q4 10 12 22q8 13 15 20q3 3 7 5q4 1 8 0
q1 -1 4 -3t4 -1v1q0 1 1 2q3 6 8 13q5 6 13 4q14 -4 10 -17q-4 -12 -9 -21l-2 -4q-2 -2 -1 -5q1 -4 4 -7q3 -4 4 -7q4 -8 7 -15q4 -7 7 -15q3 -6 5 -13q1 -7 4 -14q2 -6 3 -12t3 -11q7 -16 11 -35t8 -36q4 -16 12 -31l16 -30q3 -7 6 -13q-3 6 -2 4q0 -1 2 -4q1 -2 1 -3
q0 -2 1 -2q1 1 1 2v3q1 5 2 9q0 4 1 9q4 18 4 42q-1 24 -1 44v50t2 50q3 23 6 47q3 23 6 47q1 16 4 33l6 32q1 7 3 13l2 12l2 12q2 7 3 13q2 11 4 21q2 11 6 22q2 7 8 11t13 1q6 -3 8 -9q1 -6 1 -12v-15v-14q-1 -4 -2 -9q-1 -6 0 -10q1 0 1 1q0 2 1 3q1 5 2 11q-1 -5 -1 -4
t1 4q2 7 3 17q2 10 9 14q3 1 5 1q3 0 6 -1q12 -7 8 -17q-3 -10 -2 -20v0v1q2 3 2 2q-1 -1 0 3q2 3 3 8q2 4 5 7q6 5 13 4q7 -2 10 -9q2 -5 0 -11t-4 -10q-1 -3 -1 -6q0 -2 -1 -5q-5 -10 -7 -21q-3 -12 -6 -23q-6 -24 -12 -49q-7 -26 -10 -51q-1 -11 -4 -22q-2 -11 -4 -23
q-1 -12 -4 -25t-4 -25q-3 -24 -4 -48q-2 -23 -4 -47q-1 -9 -1 -19q0 -9 -1 -18q-1 -10 -9 -16q-7 -6 -16 3q-5 6 -5 15q0 8 1 16q1 14 2 29q0 15 2 30q1 4 2 13q2 9 1 13v-1v-1q-1 -3 -2 -5l1 2q0 -1 -1 -2l-4 -16q2 7 2 6q-1 -2 -2 -6q-2 -11 -3 -23v-23v-22q-1 -12 -2 -22
q-1 -8 0 -15q1 -8 0 -15q-1 -12 -1 -25v-24q1 -10 0 -23q0 -14 -11 -17q-4 -2 -9 0t-7 7v4q-1 3 -2 3l-3 -1q-2 -1 -3 -2t-2 -3q0 -2 -1 -4q-3 -3 -8 -5q-5 -1 -9 1q-5 2 -8 7q-3 4 -5 9q-4 7 -9 15q-4 7 -8 15q-13 27 -25 54q12 -26 9 -21q-2 5 -9 21t-11 33q-5 18 -9 35
l-6 20t-4 20q-3 17 -8 35t-8 35q-1 8 -3 16q2 -7 1 -6q0 2 -1 6q0 1 -1 3q0 2 -1 3v-1l-1 -1l-2 -6q-2 -3 -2 -6q-1 -3 -3 -6q-1 -3 -3 -6l-14 -32q7 15 6 12q-2 -3 -6 -12q-13 -30 -23 -64t-14 -67q-1 -11 -2 -21q0 -11 -1 -21t-1 -20t1 -19q2 -8 2 -15q1 -7 -7 -11
q-5 -2 -9 -1q-5 1 -8 5q-1 1 -2 5q-1 3 -2 3q-2 0 -4 -2q-3 -2 -8 -3h-3q-1 0 -3 1l-1 1q0 1 -1 0v-4t-1 -5q-2 -6 -10 -8q-7 -2 -13 4q-6 9 -9 20t-6 21q-4 13 -7 26q-3 14 -5 27q-3 16 -6 33q-4 16 -6 32q-2 15 -5 31q-4 15 -6 30q-3 33 -7 66q3 -31 3 -25q-1 6 -3 25
q-1 12 -1 25q-1 12 -2 25l-2 12q-2 6 -3 12q-1 12 -4 23q-2 11 -3 23q-3 23 -9 45q-5 23 -8 46q-1 4 -2 7t-2 7q-1 11 -3 22q-1 11 -1 22v0z" />
    <glyph glyph-name="X" unicode="X" horiz-adv-x="493" 
d="M34 -4q8 32 20 63q12 30 25 60q4 10 9 19t10 19q6 13 14 25t15 25q1 2 3 5q2 2 3 5q16 24 33 47q-16 -22 -13 -18q3 5 13 18q3 4 9 11q5 6 7 11q0 4 -4 12q-5 8 -7 12q-9 18 -20 35q-10 18 -19 35q-33 61 -63 127t-15 137q2 8 6 16q4 7 10 14q2 2 6 3q4 2 5 2q2 4 1 10
q0 5 5 10q5 4 12 3q6 -1 9 -7q2 -5 3 -11v-11l4 -14l2 -14q5 -37 11 -75q-6 36 -4 28l4 -28q3 -15 7 -30q4 -16 7 -31q5 -22 13 -50q9 -27 20 -46l4 -8q1 -4 3 -8q5 -10 11 -21q5 -10 11 -19q5 -7 9 -14q-4 6 -3 5q1 -2 3 -5l2 -2q0 -2 1 -1q4 4 5 12t3 12q1 2 3 3q3 1 4 3
q3 3 5 8t4 9q4 9 9 17q5 9 9 18q4 7 9 14q6 7 9 14l6 10q3 6 7 10t6 9q3 5 6 9q8 8 14 17t14 17q10 11 19 23q10 12 23 18q9 3 16 -2q7 -4 6 -13t-6 -17t-8 -16q0 -1 1 1q2 1 3 3q3 3 7 6q-3 -3 -3 -2q1 0 3 2q5 6 12 12t15 7q5 -1 10 -4q4 -3 4 -9q0 -1 -1 -4t-1 -4h2
q0 1 1 1q2 1 5 2q2 1 5 0q11 -1 14 -10t0 -19q-6 -12 -15 -25t-19 -23q-4 -4 -7 -9l-6 -8q-34 -37 -70 -72q33 34 27 27l-27 -27q-9 -9 -17 -19l-18 -18l-8 -8t-7 -8q0 -3 4 -8q4 -4 6 -7q5 -11 11 -21q6 -9 11 -20q15 -29 29 -58q15 -30 28 -60q5 -13 11 -27q5 -13 12 -26
q5 -9 12 -18q7 -10 14 -18q4 -4 7 -9q3 -6 1 -11t-7 -8q-4 -3 -10 -2l-2 1l-2 1q-2 0 -3 -1q0 -1 -1 -2q-2 -2 -6 -3q-3 -1 -7 0q-3 0 -6 3q-4 2 -6 4q-13 8 -25 18q11 -9 9 -7q-2 1 -9 7q-30 25 -57 54t-47 63l-14 24l-14 24q-2 3 -5 10t-5 9h-2h1h-1l-4 -6l-4 -6
q-7 -9 -14 -19q-7 -9 -14 -19q-16 -25 -33 -49q16 23 12 18q-3 -4 -12 -18q-4 -5 -8 -11q-4 -5 -6 -11l-32 -74q15 35 12 28l-12 -28q-4 -11 -9 -21q4 10 4 8l-4 -8q-1 -3 -1 -5q0 -3 -1 -6q-3 -5 -9 -8q-5 -2 -11 0q-2 1 -4 3q-1 2 -3 3q0 1 -1 0q1 0 0 0v0q-2 -3 -4 -5
q-1 -2 -4 -4q-9 -5 -15 1q-5 6 -5 14v0zM236 245q3 -9 9 -17q5 -9 10 -17q3 -8 8 -15t9 -14q3 -9 11 -22t14 -19q2 -3 5 -6q3 -4 5 -7q5 -7 10 -13q6 -6 11 -12q4 -3 7 -6q-3 3 -3 2q1 -1 3 -2q0 -1 1 -2v0q1 1 -1 4t-3 4q-2 3 -4 7q-1 3 -3 6q-2 4 -5 8l-6 8q-11 15 -21 31
q10 -15 8 -12l-8 12q-3 3 -5 7q-3 3 -4 7q-5 10 -13 22t-15 20q-5 6 -10 13q-4 8 -10 13v0z" />
    <glyph glyph-name="Y" unicode="Y" horiz-adv-x="479" 
d="M22 548q2 9 9 11q8 3 14 -3q3 -2 4 -5t2 -5q1 -1 1 -3q1 -2 1 -3h1l1 1q3 2 5 4q3 1 7 1q8 -1 15 -9q8 -9 12 -16q11 -16 19 -34q8 -19 16 -36q4 -8 9 -15q5 -6 9 -14q9 -18 20 -34q11 -17 20 -34l4 -6q3 -3 4 -6q6 -13 14 -24l14 -24q1 -3 5 -9q4 -7 5 -8q1 0 2 4
q2 3 2 4q5 13 11 25q-5 -11 -4 -9t4 9q8 19 17 37q9 19 19 37l34 64q-16 -30 -13 -24t13 24q9 17 19 34q11 16 20 32q11 18 22 35q-10 -16 -8 -13t8 13q3 5 7 10q4 4 9 7q4 1 8 1q4 -1 7 -4q1 -1 2 -3t2 -2q2 1 4 4q3 3 4 5q3 3 7 6q3 4 7 6q7 3 13 0q7 -3 8 -11
q0 -7 -5 -13q-5 -7 -9 -13q-7 -15 -17 -31q-9 -15 -16 -31l-10 -18t-10 -19l-2 -4q-2 -1 -3 -3q-4 -9 -9 -18q-5 -8 -9 -17q-3 -6 -7 -13q-4 -6 -7 -13q-8 -17 -18 -34t-18 -35q-5 -12 -11 -24q-6 -11 -11 -23q-3 -5 -5 -10q-3 -6 -4 -11q-1 -4 -1 -8q1 -4 0 -8
q-1 -12 -1 -24q0 -11 -1 -23q-4 -39 -9 -77q4 36 4 29q-1 -8 -4 -29q-1 -12 -3 -25l-4 -24l-2 -24t-3 -24q0 -5 -3 -10q-3 -4 -8 -5q-6 -1 -13 2q-7 4 -8 10v7v6q-1 0 -1 -1l-1 -1t-3 -2t-3 -1q-4 -1 -7 0t-6 3q-6 7 -8 21q-1 13 -2 22q-1 15 -1 30t1 30q2 16 1 32
q0 16 1 32q2 17 3 33q-1 -15 -1 -12t1 12l2 6q0 3 -1 6q-2 3 -7 8q-6 5 -9 8q-10 10 -18 20l-18 20q-7 9 -13 20q-6 10 -14 19l-10 12q-4 7 -7 14q-3 4 -6 9q-4 4 -6 9q-7 14 -15 28t-14 28q-4 10 -7 19l-8 20l-2 10l-4 10q-4 11 -8 23q-4 11 -9 23q-2 6 -5 13q-3 8 -3 14v0
zM91 442v0v0zM92 441q1 -5 3 -9q3 -5 5 -9q6 -12 12 -23q7 -11 13 -22q2 -6 6 -10q4 -5 7 -10q3 -7 8 -14q4 -6 9 -13q1 -2 3 -5q1 -3 3 -5q1 0 0 2t-1 3q-3 5 -5 9q2 -4 2 -3q-1 1 -2 3q-7 14 -16 27q8 -12 6 -10q-1 3 -6 10q-2 4 -5 9l-4 8t-4 7q-2 2 -4 6q-7 12 -14 25
l-16 24v0zM162 321v0v0zM241 185q0 -5 1 -4q0 1 -1 4v0z" />
    <glyph glyph-name="Z" unicode="Z" horiz-adv-x="441" 
d="M10 496q1 5 3 8q1 4 5 7q2 3 6 4q4 2 6 4q4 4 3 10t3 11q4 4 11 5q6 2 12 2l50 6q-24 -3 -19 -2q5 0 19 2q24 2 48 5q24 2 48 5q14 1 28 1q15 -1 29 1q11 1 22 1q12 0 23 -1q9 -1 17 -1q9 0 18 -1q9 0 24 -2q14 -2 22 -8q2 -2 3 -5t3 -5q3 -2 6 -3q4 -1 6 -5q2 -3 2 -7
v-6q1 -1 5 -2q3 -1 5 -1q4 -2 7 -5t4 -7q2 -15 -13 -17t-25 -1h-4q-3 1 -5 1q-2 -1 -3 -2q-1 -2 -2 -3q-4 -5 -8 -9t-8 -9q-3 -4 -7 -7q-3 -4 -6 -9q-1 0 -2 -3l-2 -3h1h2q2 0 5 -1q-3 1 -2 1l2 -1q3 -1 5 -5q3 -3 3 -7q0 -8 -6 -15q-6 -8 -12 -13q-11 -12 -19 -25
q-9 -13 -20 -25l-4 -6q-1 -3 -4 -6q-7 -8 -15 -19t-14 -21l-6 -10q-4 -5 -7 -9q-5 -5 -8 -11t-8 -11q-10 -11 -22 -30q-12 -20 -19 -34q-1 -3 -3 -5t-3 -5q-3 -7 -8 -14q-4 -7 -7 -14q-2 -3 -5 -7q-3 -3 -4 -7q-5 -9 -11 -17q-6 -9 -11 -18q-4 -8 -11 -18t-13 -17
q-2 -2 -3 -5l-4 -4q-4 -6 -9 -11q-4 -6 -9 -11h4q4 1 5 1q9 0 17 2q-8 -1 -6 -1t6 1q14 3 27 5q13 1 27 1q27 0 55 -1l54 -2h22q14 -1 20 0q13 3 26 7q12 4 25 9q10 4 26 6q17 2 18 -14q-2 -11 -9 -12t-12 -3q-1 -2 1 -4l3 -3q1 -3 1 -7t-1 -7q-5 -5 -11 -6h-12q-1 0 -3 1
q-2 0 -3 -1l3 -2q2 -1 3 -1q4 -3 6 -7q-2 4 -2 3q1 -1 2 -3q2 -5 1 -10q-2 -6 -6 -9q-7 -3 -14 -1l-14 2q-11 2 -23 4l-22 4l-20 2t-20 1q-5 0 -13 -2t-15 -3q-35 -4 -71 -4q33 1 27 0h-27q-22 0 -44 2q20 -1 16 -1t-16 1q-6 1 -13 3q-8 2 -13 4q-3 1 -6 3q-4 1 -6 2
q-3 0 -6 -1q-3 0 -6 1q-3 2 -5 4q-3 3 -6 4q-9 3 -19 8q-10 4 -12 14q-1 8 2 11q4 3 5 8q0 3 -1 6t0 6q0 6 2 11q3 6 5 11q3 9 6 19q3 9 7 18q3 8 8 15q4 7 8 15q3 7 8 14q4 6 8 13q4 8 9 15q6 8 10 16q5 9 12 18q7 10 14 18q6 6 11 14q6 7 11 13q11 13 22 25t21 24
q14 17 25 35q12 18 25 34l6 8q2 4 5 8q12 14 23 30q11 15 23 29q4 4 7 8t7 8l3 3l2 2q0 1 -2 1h-3q-6 1 -12 1q6 0 4 0h-4q-14 0 -28 1t-28 3q-22 2 -45 0q-22 -1 -44 -4q-24 -3 -48 -3q-24 -1 -48 -4q-10 -1 -27 -2q-16 -1 -25 2q-3 2 -5 5q-2 4 -3 7v0zM67 42q2 -2 5 -4
q4 -2 7 -2q1 0 4 3q2 2 3 2q-1 1 -2 0h-2q-2 1 -5 4t-5 2l-2 -2q-1 -2 -3 -3v0zM372 17q5 -2 0 0l3 -1l-3 1v0z" />
    <glyph glyph-name="bracketleft" unicode="[" horiz-adv-x="544" 
d="M133 -114q1 3 2 5q0 3 2 4q2 2 6 4t5 4q0 3 -2 5q-1 3 -2 5q-3 5 -4 11q-2 6 -3 12q-2 17 -3 34q-1 18 1 35q2 13 2 26l2 26l2 14t0 14q-2 17 -1 34v34q0 10 -1 21q0 11 1 22q1 12 1 25t1 25q4 42 7 84t7 83q1 6 1 11v12v20q1 11 2 21q1 15 0 31q0 15 -1 31v26q0 15 7 23
q6 4 12 3q7 -1 10 -7q2 -3 2 -6v-6v-3v-3h1q0 -1 1 0q1 4 1 16q-1 12 0 19q0 4 2 8q1 5 5 7q9 3 15 -1q6 -5 8 -14v-7q1 -4 4 -4q14 -1 27 -2q13 0 26 -2q12 -1 24 -3q12 -3 24 -4q10 -1 20 -1t20 1h8q3 1 7 0q6 -3 9 -9t-1 -12q0 -1 -2 -3q-2 -1 -3 -2l1 -4q1 -3 1 -4
q1 -3 4 -4q3 -2 6 -3q6 -2 10 -6q4 -5 2 -12v-3t-2 -2l-2 -2q-2 -2 -3 -2q-8 -3 -20 -3q-11 0 -20 -1q-23 -2 -46 -3q-22 -2 -45 -4q-14 -1 -27 -3q12 2 10 1q-3 0 -10 -1q-3 0 -6 1q-4 0 -6 -2q-1 -3 0 -6q0 -4 1 -7v-8v-8v-30v-29q0 -6 1 -11q0 -6 -1 -12q-1 -10 0 -21
v-21q0 -12 -1 -23v-23v-15q1 -7 0 -14q-2 -18 -1 -36q0 -17 -1 -35q-1 -12 0 -24q0 -12 -1 -24q-1 -7 -1 -13q1 -6 0 -13q-1 -16 -1 -32v-32q0 -24 -1 -47v-47q0 -6 1 -13v-12q0 -2 1 -5q0 -3 1 -4q4 -4 17 -5q12 -1 18 -1q19 2 39 1q19 -2 38 -2q12 0 24 -3q13 -4 14 -18
q0 -3 -2 -7q-3 -4 -6 -5q-3 -2 -7 -2h-7q-7 -1 -15 -3t-15 -4l-34 -8q-17 -3 -35 -5l-20 -2q-10 0 -20 -1q-5 0 -10 -2t-9 -1q-3 0 -4 1t-3 2q-3 1 -6 1h-6q-13 0 -29 1q-16 2 -18 18v0zM189 -13q0 -6 1 -12t2 -11t0 -3q0 1 1 -3v-3q1 -2 1 -1q1 5 1 12t-1 13v4q1 1 0 3h-3
l-2 1v0z" />
    <glyph glyph-name="bracketright" unicode="]" horiz-adv-x="458" 
d="M97 -104q4 13 13 14q10 2 21 5l4 4t5 4q12 4 32 6q20 3 33 4q6 1 12 1t12 2h4q3 1 4 2t1 4q-1 3 -1 5q0 6 1 13v13v35t2 35q1 7 0 13q0 7 1 13q1 11 2 21q-1 -10 -1 -8t1 8q0 7 -2 14q-3 7 -4 14q-2 19 -4 39q2 -18 2 -15q0 4 -2 15q-1 13 -1 27q1 14 -1 27q-1 11 -1 23
q1 11 1 23v38t2 38q3 21 6 41l6 40q1 9 3 18q2 10 3 19t4 18q2 9 3 18q0 2 1 4q0 2 1 4l1 1v1q-1 2 -4 1h-4q-7 1 -14 1t-14 1q-24 2 -48 1q-25 -2 -49 -2q-8 0 -17 3t-9 13q1 6 4 8q2 3 6 6l4 4q1 3 4 4q7 3 14 3q8 1 15 2q21 2 43 3q21 1 42 3q5 1 10 1q5 -1 10 0
q14 2 30 2q17 1 30 -5q3 -1 4 -3l2 -4q2 -2 5 -3q3 -2 5 -4q1 -2 1 -4t1 -4t4 -2q3 -1 5 -1q8 -2 14 -8q6 -5 3 -14q-3 -7 -10 -8q-6 -2 -13 -1q-2 1 -6 1t-5 -2v-6v-7q-1 -9 -1 -19q0 -9 -1 -19q-1 -20 -1 -40q1 -20 -1 -40q-1 -4 0 -8v-8q-2 -19 -2 -38t-2 -38
q-1 -16 -1 -33t-2 -33q-1 -12 -1 -23q0 -12 -1 -24q-3 -27 -4 -54q-2 -27 -4 -53q-1 -11 -2 -21v-20q0 -3 -1 -7t0 -6q1 0 3 -1q2 0 2 -1q2 -1 4 -4t2 -6q1 -11 -2 -17q-4 -6 -6 -14q-4 -15 -6 -30t-8 -29q-6 -8 -19 -9t-22 -1q-29 -4 -59 -5q-29 -1 -58 2q-11 0 -22 3
t-12 16v0z" />
    <glyph glyph-name="a" unicode="a" horiz-adv-x="431" 
d="M26 337q4 7 13 12q8 6 15 9q3 1 6 3q3 1 5 3q0 1 -1 1h-3q-2 1 -4 3l2 -2l-2 2q-3 3 -3 8q1 4 4 7q5 5 12 8q7 4 14 6q17 8 40 17t42 7q4 -1 6 -4q3 -4 5 -5q3 0 7 1t7 1l22 4q10 2 21 3q16 2 32 3t32 0l12 -2t10 -6q3 -4 2 -8q0 4 1 3q0 -1 -1 -3q0 -1 -1 -3
q-2 -2 -1 -3q1 -3 5 -4q3 -1 6 -1l12 -4t10 -7q4 -7 5 -15l2 -14q1 -3 2 -5q2 -2 3 -4q3 -7 5 -15q2 -7 5 -14t4 -15t2 -15l4 -26l4 -26q1 -5 4 -14q3 -8 3 -12q0 -6 -5 -8q-4 -1 -5 -4q-1 -5 -2 -14v-15l2 -6l2 -6q3 -7 5 -14q1 -7 4 -14q3 -6 5 -12q2 -7 3 -13q0 -6 -4 -9
t-5 -8q-1 -3 -1 -6q-1 -3 -1 -6q0 -1 1 -3q1 -1 1 -2q-1 -4 -2 -7t-2 -7q-1 -9 -1 -19l-2 -20q-1 -6 -1 -18v-18q1 -4 1 -8q0 -5 -3 -8t-8 -3t-7 4q-3 5 -3 12q1 6 0 12q0 3 -3 4q-2 0 -3 3q-3 4 -4 10t-2 11q-1 3 -2 8q-1 4 -1 8q0 2 -1 5q0 3 -1 2q0 -1 -1 -3q0 -2 -1 -2
q0 -2 -2 -3q-1 -2 -1 -3q-1 -7 4 -17q5 -9 5 -16q0 -4 -3 -7q-2 -3 -6 -3h-3q-1 1 -2 1q-1 -1 -2 -3t-2 -3q-4 -2 -8 -1q-4 0 -6 4q-3 5 -4 13q0 8 -1 15q1 2 1 5t-2 4q-1 0 -3 -2t-3 -2q-10 -5 -20 -9q9 4 7 3q-1 -1 -7 -3q-8 -4 -17 -7q-8 -3 -16 -7q-2 0 -4 -1
q-2 0 -4 -1q-6 -2 -14 -5q-7 -2 -14 -3q-17 -3 -35 -4q-17 -2 -35 0q-13 1 -25 7q-11 6 -22 13q-29 19 -53 51q-23 33 -21 69q5 38 32 61q26 22 59 36l24 12q13 6 26 7q28 3 57 6q-27 -2 -21 -2q5 1 21 2q3 1 6 0h7q3 1 7 2l6 2q9 1 17 1q8 1 17 1h16q-7 0 -6 0h6q2 0 4 -1
q1 0 2 1v7q-1 6 -1 8q-1 9 -2 19q0 10 1 19q0 5 3 10q2 5 8 5q1 0 4 -1q2 -1 3 0t1 3q-1 1 -1 2q-2 5 -6 9t-8 7q-5 6 -11 11q-5 5 -12 9q-25 10 -51 9q-27 -2 -52 -10l-20 -6q-11 -2 -20 -6t-18 -7q-10 -3 -19 -7q-23 -9 -47 -19q22 9 18 8q-5 -2 -18 -8l-8 -4t-9 0
q-1 0 -2 1q0 1 -1 2q-6 10 2 14q8 5 15 10q1 0 -2 -1q-2 -1 -3 -1l-10 -4q5 2 4 1q-1 0 -4 -1q-8 -4 -13 -4q-6 1 -6 12v0zM51 122v-17q1 -8 4 -16q11 -26 34 -48q22 -23 48 -35q11 -4 23 -5h25q4 0 9 1q4 0 9 1h3l3 1v0h1q-6 2 -13 1q-6 -1 -13 1q-21 5 -42 13q20 -7 16 -6
q-4 2 -16 6l-10 6q-4 3 -9 5q-25 9 -43 24q-18 14 -19 43q1 29 16 50q16 20 36 38q5 5 12 9t13 8q5 3 10 7q-4 -3 -3 -3l3 3q1 0 3 1l1 2q-6 -2 -12 -5q-6 -4 -12 -7q-18 -8 -38 -21q-21 -13 -30 -30q-3 -7 -5 -14q-2 -6 -4 -13v0zM90 116v-3q0 -2 0 -1q1 0 2 4q1 3 1 4
q-1 0 -1 -1t-1 -1q-1 -1 -1 -2v0v0v0zM108 102q0 -4 1 -7q0 -3 2 -6l2 -2l1 -2l1 3t2 4q2 5 4 11q2 5 6 9q11 14 24 25q13 12 27 23q7 6 14 10l14 8q2 1 3 2q2 2 3 2q1 1 2 0q1 0 1 1q-1 1 -5 0t-6 -1q-15 -4 -30 -10q14 5 11 4t-11 -4q-9 -3 -17 -6q8 3 6 2q-1 0 -6 -2
q-4 -2 -7 -6l-7 -7q-11 -11 -21 -23q-10 -13 -14 -28v0zM133 73q1 -6 6 -9l10 -4q6 -3 13 -6q6 -3 13 -5h6h7q33 0 65 5q-31 -4 -24 -3q6 0 24 3q7 0 15 1t14 5q6 5 10 12t9 13q3 3 7 8q5 5 6 8q1 4 0 7q-1 4 -1 8q1 2 3 4q1 2 2 5q1 11 0 24q0 12 -1 24v11q-1 8 -2 10
q-3 1 -7 0q-5 -1 -8 -2l-20 -4t-19 -6q-23 -9 -44 -21q-21 -11 -40 -27q-10 -10 -22 -19q-11 -10 -18 -24q-2 -4 -3 -9q0 -4 -1 -9v0zM173 375q2 0 7 1q6 1 7 1q0 1 -1 1h-2h-6q-3 -1 -5 -3v0zM212 5v0v0zM257 387q15 -3 30 -7t26 -14q10 -9 19 -18q-9 9 -7 7q1 -2 7 -7
q0 -1 2 -3q1 -2 2 -2t0 3q-1 4 -2 5q-2 6 -5 11q-4 5 -8 9q-12 12 -30 16q-17 4 -34 0v0zM291 213h14q10 1 9 6q-1 1 -4 0q-2 -1 -3 -1l-8 -2q-4 -2 -8 -3v0zM341 223q2 -2 5 -2t1 2h-3h-3v0zM351 190v-7q0 3 0 2v-2q0 -1 1 -3q0 -2 0 -1q1 3 1 7v8q1 1 1 4q0 4 -1 4
q-1 -2 -1 -6t-1 -6v0z" />
    <glyph glyph-name="b" unicode="b" horiz-adv-x="458" 
d="M50 432q2 9 2 19q-1 10 0 19q2 15 2 31q1 15 2 31q1 6 2 11q1 6 1 12q1 12 4 27q3 16 10 25q4 3 8 4q5 1 9 -3q1 -1 2 -4t2 -3q5 3 9 5q4 1 9 -5l4 -8q1 -4 2 -9l1 -3q1 -4 2 -3v4v5q1 5 2 12t4 12q5 3 9 2q5 -1 8 -6q1 -4 0 -9q0 -5 -1 -9q0 -10 -1 -20q0 -10 -2 -20
v-16t-1 -16q-2 -24 -3 -48q0 -24 -3 -48q-1 -10 -1 -19q0 -10 -1 -19q0 -4 -1 -11t0 -11q1 -1 5 3q5 4 7 6q7 4 13 9q7 5 15 8q19 9 41 18q21 9 42 11q5 1 11 0q6 0 11 -1q16 -2 33 -12q17 -11 29 -22q3 -2 7 -5q3 -2 6 -5l14 -14q6 -8 12 -15q7 -8 11 -17l8 -18
q7 -19 10 -43q3 -25 1 -45q-5 -37 -16 -73q-12 -36 -27 -70q-4 -10 -10 -19l-10 -20q-4 -10 -11 -21t-15 -19l-9 -9q-5 -4 -13 -5q-5 -1 -10 1q-5 3 -9 5q-11 4 -21 9q9 -4 7 -4q-2 1 -7 4q-7 2 -14 3q-7 0 -14 2t-13 5q-7 3 -13 6l-8 2q-4 0 -8 2q-9 3 -20 6q10 -3 8 -2
t-8 2q-10 3 -19 7q9 -4 7 -3t-7 3q-2 0 -4 1t-3 2l-1 1v1q-2 -1 -2 -5q-1 -4 -1 -5q-4 -6 -6 -5q-2 0 -5 -1q-1 -1 0 -3q1 -3 1 -4q3 -5 3 -10q0 -6 -6 -9q-5 -2 -9 1q-4 4 -6 9q-6 13 -10 27q4 -13 3 -11q-1 3 -3 11q0 3 -1 8l-2 8q-1 0 -1 -1q1 -1 1 -2q0 -6 2 -12
q-1 6 -1 5t1 -5q1 -3 2 -7q2 -5 2 -8q-1 -6 -6 -8q-4 -2 -9 0q-6 3 -8 13q-2 9 -2 16q-3 23 -6 47q3 -22 2 -18q0 5 -2 18v13v13q-3 28 -2 56q1 29 -1 57q-1 6 0 13q0 6 -1 12q-1 15 -2 29t-3 29t-4 31l-4 30q-2 16 -2 32v32v0zM70 432q0 -13 1 -26v-25q0 -4 1 -8q0 -4 1 -8
q-1 0 -1 -1t1 -2v1v2q1 6 1 13q0 -6 0 -5v5q0 8 1 16v16q1 21 3 42t0 42v16v17v10q0 -5 0 -4v4v3q0 1 -1 1q-1 -2 -1 -5q1 -2 0 -5v-9q0 -4 -1 -9l-2 -28q0 -14 -2 -28v-12q0 -7 -1 -13v0zM92 50v0v0zM100 450v-26q0 12 0 10v-10q-1 -7 -1 -19q-1 -12 1 -18v1v1v3q0 -2 0 -1
v1q1 4 2 9l-1 -4q0 1 1 4q0 6 1 13t1 14q0 6 1 11l2 12v7q-1 3 -1 6v23q0 11 -1 22q1 13 -1 25q1 -11 1 -9t-1 9v6q1 3 0 4v0v-2q-1 -3 -1 -6q0 3 0 2v-2q-1 -5 0 -10q0 -5 -1 -9q-1 -11 -1 -22q0 -12 -1 -23v-11q1 -6 0 -11v0zM125 246v-37t2 -37v-15v-14q1 -7 1 -14
q0 -8 1 -15v-7q-1 -5 1 -8q4 -5 10 -10q6 -4 10 -9q6 -6 12 -13q7 -6 15 -10q6 -2 14 -2t14 1q25 -1 43 4t36 23q4 5 8 11q4 7 7 12q7 11 13 21q6 11 11 22q7 18 11 43t6 46q1 13 -3 23t-9 21q-9 20 -24 34q-16 15 -37 21q-5 1 -11 1q-6 -1 -11 -1q-4 -1 -7 -3q-4 -1 -8 1
q-2 1 -3 3q-2 2 -2 5v3q1 1 0 2q-1 0 -3 -2q-3 -1 -4 -1q-8 -4 -16 -7q8 3 6 2q-2 0 -6 -2q-14 -6 -28 -13t-28 -13q-3 -2 -10 -4q-6 -3 -8 -5t-1 -6v-7q-1 -10 0 -22q0 -12 -2 -22v0zM147 349q3 0 5 2q3 2 5 3q3 3 7 5q3 3 7 5q2 1 8 3q5 3 7 5h-1h-1q-1 -1 -3 -1q2 0 1 0
h-1l-4 -2q-2 -2 -4 -3q-7 -3 -13 -8q-7 -4 -13 -9v0zM222 388v0v0zM224 389q4 0 8 1t8 1q10 2 21 1q11 0 21 -4q26 -11 46 -32q21 -21 33 -47q4 -7 6 -16q3 -8 5 -16q1 -4 3 -9q1 -5 1 -9q3 -22 1 -43t-8 -41q-1 -7 -2 -15l-2 -14q0 -6 -2 -11q1 5 1 4t-1 -4v-4q-1 -1 0 -1
q1 1 1 2q1 2 1 3q2 4 3 9q1 4 3 8q6 19 10 38q5 20 5 40v14v15q-3 25 -12 47q-10 22 -27 40q-5 6 -11 11q-6 4 -11 9q-12 11 -26 19q-15 9 -31 11q-11 1 -22 -2q-11 -2 -22 -5v0zM226 37q4 -3 9 -3q5 -1 10 -1q13 -2 28 3t25 15q5 6 10 16t8 18q5 13 12 25q-6 -11 -5 -9t5 9
q2 5 4 9q-2 -4 -2 -3q1 1 2 3q0 2 1 3t0 2l-1 -1v-1q-2 -5 -5 -9q3 4 2 3q0 -1 -2 -3q-5 -9 -11 -18q-5 -10 -12 -18q-10 -12 -20 -20t-25 -14q-8 -4 -17 -4l-16 -2v0zM279 10q3 -3 8 -5q5 -3 10 -1q2 1 2 2q1 1 2 3q6 6 12 14q5 8 8 16q1 2 4 5q2 2 2 5l-2 -2t-3 -2
q-2 -2 -5 -4l-6 -4l-2 -4q-1 -3 -3 -4l-12 -12q-7 -5 -15 -7v0zM362 129v0v0z" />
    <glyph glyph-name="c" unicode="c" horiz-adv-x="464" 
d="M69 190v7q1 4 1 8q1 6 2 11q1 6 1 12q2 10 7 22t9 21q2 5 3 9l2 10q1 7 4 13q2 7 5 14q3 6 6 11q4 6 8 11q28 43 73 64t96 16q17 -2 35 -2h36q6 0 13 1q8 0 12 -6q2 -3 1 -7q-1 -5 -5 -6q-6 -3 -14 -2h-14h-32q-17 1 -32 2l-18 2q-9 0 -18 -1q-6 -1 -13 -3q-7 -1 -14 -3
q-11 -3 -21 -7q-11 -5 -20 -11l-12 -8q6 4 4 3q-1 -1 -4 -3t-2 -1t-1 -2l-2 -2t-1 0q3 0 8 4q6 3 9 5q7 4 15 7q8 2 16 5q22 6 49 9t50 1l14 -2q8 -1 15 -2h8t8 -1q3 0 2 0q0 -1 2 -2q4 -2 9 -3t9 -2q5 -1 9 -5q4 -3 4 -8q-1 -8 -9 -11q-8 -2 -14 -2q-14 -2 -27 0
q-14 2 -27 4q-5 0 -11 -1l-10 -2q-10 -2 -20 -6l-20 -6q-16 -6 -31 -11q-16 -6 -30 -14q-8 -4 -16 -9t-13 -11q-12 -15 -19 -31q-7 -17 -13 -34l-6 -18q-4 -11 -4 -18l2 -8q2 -3 3 -7q3 -11 8 -22t12 -20q13 -18 29 -36q15 -19 34 -31q5 -3 11 -5t13 -4l12 -4q7 -2 13 -3
q15 -2 31 -4q16 -1 31 0q9 1 18 3q10 2 19 0q5 -1 6 -6q0 -4 1 -6q2 0 4 1q3 1 4 2q2 2 5 4q2 2 5 3q6 2 10 -2q4 -3 4 -9q-1 -4 -4 -5l-4 -4q-1 -1 -2 -3q0 -2 -2 -4q-3 -3 -8 -5q-5 -1 -9 -4q-9 -7 -18 -13q-9 -7 -19 -12q-16 -6 -37 -5t-38 4q-24 2 -50 13t-44 28
q-14 13 -28 28q13 -14 10 -11q-2 3 -10 11q-4 4 -7 9q-3 6 -7 10q-2 2 -6 4q-3 2 -5 4l-18 16q-8 8 -13 19q-6 14 -7 32q-2 18 -1 33v0zM89 166q0 -7 2 -16q1 -10 3 -16q2 -3 3 -5q2 -3 4 -5q1 -1 2 -3q1 -1 1 0q0 3 -2 6l-2 6q-4 8 -6 16q-3 9 -5 17v0zM127 120
q2 -11 9 -21q7 -9 18 -14q1 -1 4 -3q4 -2 5 -1q0 1 -1 1l-2 2q-5 4 -9 8q4 -4 3 -3l-3 3q-4 5 -9 10q-4 4 -8 9q-2 2 -4 5q-1 2 -3 4v0zM162 362v0v0zM169 56q4 -5 9 -9q6 -4 11 -7q16 -10 32 -16t34 -8h11h10h4q1 0 2 1q0 1 -1 1h-1q-3 1 -6 1q-2 1 -5 1q-13 4 -25 8
q11 -4 9 -3t-9 3q-12 4 -23 8q-12 4 -23 9l-14 6t-15 5v0zM320 35h11q8 0 10 2h-1h-1h-4h2h-2q-4 -1 -7 -1q-4 -1 -8 -1v0z" />
    <glyph glyph-name="d" unicode="d" 
d="M51 164q2 5 2 11q1 5 1 10q1 7 3 14l2 14q2 8 4 17q3 9 5 17t3 16l2 16q0 5 2 10t3 11q1 15 6 34q4 19 14 31l10 10q5 4 11 9q2 3 5 5l6 4q21 8 49 11q27 2 51 1q4 0 8 -1q5 -1 9 -1q2 0 4 1q1 0 3 1q13 4 26 7q-12 -3 -10 -2q3 1 10 2q7 2 15 3h15q5 0 9 -1q-4 1 -3 1
t3 -1h2h1v6v7v18v18q1 7 1 14v15q1 19 2 39q0 20 2 39q1 9 5 20q3 12 12 17q4 2 7 0q2 -1 5 -1q2 0 2 3q-1 4 -1 5q1 4 2 7q1 4 5 6q5 1 9 -1q4 -3 5 -8q0 -7 -1 -18q-2 -11 0 -17q1 -2 3 -4t3 -4q1 -3 1 -6q-1 -3 0 -6v0v1q1 2 1 3v3q1 6 1 12q0 -6 0 -5v5q1 7 7 10
q5 4 11 -1q4 -6 3 -16q-2 -11 -2 -18v-34t2 -33v-15q-1 -8 0 -15q1 -16 0 -33q-1 -16 0 -32q2 -14 1 -28t0 -28t0 -27q0 -14 1 -28q2 -26 1 -55t-1 -56v-63q0 30 0 24v-24q0 -7 -1 -15q0 -7 1 -14q1 -8 1 -16t1 -15q1 -5 2 -11q1 -5 0 -10q-1 -6 -7 -7t-10 4q-3 4 -4 10
t-1 11v3t-1 3t-3 2q-1 1 -3 2q-2 3 -3 7l-2 8q-2 3 -2 8q-1 4 -1 8q-1 3 -2 5l1 -2q0 1 -1 2q-1 6 -1 5v0v0q-1 -3 -1 -11q1 -8 1 -12v-22t1 -20q0 -2 1 -3q1 -2 1 -4q0 -5 0 -3t-1 -2q-1 -3 -1 -6q1 -3 1 -6q1 -7 2 -16t-4 -14q-11 -6 -14 3t-4 16q0 2 -1 4t-3 1
q-4 -1 -8 -4q-4 -4 -8 -6q-10 -6 -23 -12q-13 -7 -24 -6q-12 1 -24 3q-11 2 -22 6q-11 5 -21 10q10 -5 8 -4l-8 4q-2 1 -5 3t-5 3q-3 0 -6 -1t-6 -1q-8 1 -15 4t-13 8q-10 10 -19 21q-8 11 -18 21q-5 5 -11 8q-6 4 -11 6t-9 5t-7 6q-16 9 -28 23q-13 14 -15 33q-2 16 -2 31
q1 -14 0 -11v11v0zM71 164q0 -18 2 -30t15 -26q2 -1 6 -6q5 -4 6 -5l1 1l-1 1q-1 2 -2 5l-2 4q0 1 -1 2q1 0 0 0v0q-2 6 -4 11q-3 6 -4 11q-2 11 -4 23q-1 11 -5 21l-2 8q1 -4 1 -3q-1 1 -1 3v2t-1 1t-1 -2v-3q-1 -4 -1 -9q-1 -4 -2 -9v0zM98 280v-3v-4q0 1 1 3q2 3 2 4
q2 6 5 11q-2 -5 -2 -4q1 1 2 4l12 20q6 9 9 20q0 3 1 7q1 3 3 6l1 2t0 2q0 1 -1 0q-2 -1 -2 -2q-6 -5 -9 -11q3 5 2 4q0 -1 -2 -4q-5 -10 -9 -19t-7 -19q-2 -4 -3 -9q-1 -4 -3 -8v0zM104 223q0 -4 1 -8q1 -5 2 -9q2 -14 5 -28q4 -15 7 -29q2 -6 3 -13q2 -6 5 -12q1 -3 1 -5
q1 -3 3 -5v-1t1 -1q0 2 -1 5q-2 4 -2 5l-6 18q-4 9 -5 18q-1 5 -2 9l-2 10l-2 18q-2 8 -3 17q-1 11 -1 22q0 -11 0 -8v8q0 1 1 3q0 2 -2 3q-1 -1 -1 -3q1 -2 1 -3q-1 -3 -1 -6q-1 -2 -2 -5v0zM128 241q0 -27 5 -57t15 -55l2 -6q0 -4 2 -7q2 -6 8 -15q6 -10 11 -15
q20 -22 47 -32q26 -10 54 7q9 6 17 14q7 8 15 16q4 5 9 10q4 5 8 9q1 2 4 4q2 1 3 3q1 3 0 8q-1 4 -2 7q-1 11 -1 22q-1 10 -2 21q-1 13 -1 26q1 13 0 25q-1 11 -1 22v21v13q-1 7 0 13q1 11 1 23v23v8q1 5 0 8q-1 1 -6 2q-6 2 -7 2v-3v-4q-2 -5 -6 -6q-4 -2 -8 0t-12 11
q-7 9 -12 11q-5 1 -11 1q-6 -1 -11 -1q-7 -1 -14 0q-8 1 -14 -1q-2 -1 -4 -3l-4 -2q-12 -6 -26 -15q-14 -10 -23 -19q-6 -5 -13 -10q-6 -5 -11 -12q-2 -3 -3 -7q0 -5 -1 -9l-4 -16t-3 -17v-9q0 -4 -1 -9v0zM132 112v0v0zM153 348q2 0 4 1q1 2 3 3q10 7 19 14q-9 -6 -7 -5
t7 5q1 1 4 2q2 1 2 2t-1 1q-2 -1 -3 -1q-5 0 -11 -2q5 1 4 1t-4 -1q-10 -3 -12 -8q-1 -4 -5 -12v0zM183 50q6 -8 13 -12q8 -3 17 -5q6 -2 11 -2q-5 0 -4 0h4q2 -1 3 -1q1 -1 3 -1l1 1v1q-2 0 -9 1t-10 3q-15 6 -29 15q13 -8 11 -7q-3 2 -11 7v0zM243 6q2 -2 5 -3t7 -2
q11 -5 24 -6t24 3q8 4 15 8q-7 -4 -5 -3q1 1 5 3l6 4q-2 -2 -2 -1q1 0 2 1t2 1q1 1 0 1q-5 0 -11 -1l-12 -2q-12 -1 -25 -1q-13 1 -26 0q-2 -1 -4 -1q-2 -1 -5 -1v0zM292 29q7 -2 17 0q11 1 18 3q3 0 6 1q3 0 5 1q2 2 0 9q-1 7 -2 10v6q0 3 -1 5q-1 1 -2 0t-1 -2l-12 -12
q6 5 5 4t-5 -4q-6 -6 -13 -11q-8 -6 -15 -10v0zM299 395q2 0 7 -2q5 -1 6 2h-1h-2q-2 1 -5 0h-5v0zM305 64v0v0zM342 465v-7q0 3 0 2v-2q0 -1 1 -1v0q1 5 2 12q0 6 1 12q0 7 2 15t3 16t1 17t1 17q0 5 -1 10l-2 10q0 1 -1 5q-1 3 -1 4q-2 -6 -2 -15t-1 -16q-1 -12 -1 -25
t-1 -25q-1 -7 0 -15q1 -7 -1 -14v0zM342 199q0 -23 3 -47q-2 23 -2 18q0 -4 2 -18v-12t2 -12q1 -2 2 1q2 2 2 3v9q-1 5 -1 10v10v10q0 2 -1 5q-2 2 -3 4l-2 10t-2 9v0zM351 91q0 -3 1 -5v-5q0 -1 1 1v3l-2 6l1 -3q0 1 -1 3v0zM377 305q0 -15 1 -29q0 13 0 11v-11q1 -5 1 -10
q0 5 0 4v-4v-5t1 -1v6q-1 5 -1 7v16t-2 16v0zM380 254v0v0z" />
    <glyph glyph-name="e" unicode="e" horiz-adv-x="502" 
d="M49 326q4 6 11 10q6 4 12 7q27 18 56 30q-27 -13 -22 -10q6 3 22 10q4 2 9 4q4 3 9 4q8 3 16 5q9 2 17 6q21 9 45 15q23 7 47 5q15 -2 29 -9q13 -7 26 -15q12 -7 22 -16q10 -8 21 -17q19 -17 32 -37q12 -20 13 -47q0 -5 -1 -10t-2 -9q-1 -10 -4 -23q-4 -13 -9 -21l-2 -2
l-3 -3l-1 -2l-2 -2q-3 -2 -6 -1h-8q-6 -1 -12 -3l-12 -2t-13 0q-6 0 -13 -1q-19 -2 -39 -3q-20 -2 -39 -4q-14 -1 -28 0q-14 0 -28 -1q-11 -1 -23 -1q-11 -1 -23 -2h-8t-7 -1q-1 -2 -1 -4q1 -2 1 -4q2 -6 2 -12q1 -7 -6 -9q-10 -3 -13 6q-2 8 -3 16v3t-1 3h-5h-4q-1 -2 0 -3
t1 -3q1 -3 2 -8q1 -4 3 -7q6 -11 15 -19q9 -9 18 -17l6 -4q4 -1 6 -4q21 -18 49 -29q29 -11 56 -14q16 -3 31 -7q16 -4 32 -3q9 1 18 1q-8 0 -7 0h7q7 1 14 4q6 3 13 6q5 3 11 6t13 1q4 -3 5 -8q0 -6 -5 -9q-1 -1 -7 -4q-7 -2 -6 -3q15 -2 29 1q15 2 29 4q7 1 13 -1t5 -10
q0 -4 -3 -6q-3 -3 -7 -3l-14 -4q-8 -2 -14 -5q-4 -2 -7 -5q-3 -4 -8 -6q-20 -6 -41 -8q-20 -3 -40 -7q-6 -1 -13 -3q-6 -1 -12 0q-3 0 -6 2t-6 0q0 -1 3 -3q4 -1 5 -1q5 -3 11 -6q-5 3 -4 2q1 0 4 -2q6 -3 7 -9q1 -7 -5 -11q-2 -1 -5 -2q-3 0 -6 -1q-11 -1 -22 -1t-23 1
q-12 2 -25 4q-12 2 -24 7q-35 16 -63 45t-46 63q-7 12 -13 24t-8 25q-1 6 -1 11q0 6 -1 12q0 2 -1 4t-1 4q-4 10 -5 21q2 -10 1 -8q0 2 -1 8q-2 21 -1 49q1 27 8 48q6 15 15 28q-8 -13 -6 -10q1 2 6 10q2 3 5 5q3 3 4 6h-1l-2 -2q-3 -1 -2 0q1 0 -2 -2q-5 -3 -11 -6q5 3 4 2
q-1 0 -4 -2q-8 -4 -15 -3q-6 0 -7 12v0zM96 238q4 -4 3 0q0 4 -1 5q-3 -7 -1 -3q3 3 -1 -2v0zM115 282q0 -9 1 -17q1 -9 2 -17q0 -2 1 -6q0 -4 1 -5q3 -1 8 0q5 0 8 1q8 0 15 1q7 0 15 2q16 4 32 5l32 4q8 0 16 1t16 0q10 -1 21 -1q10 0 20 -1l18 -2q8 -1 17 -2q6 -1 11 -2
q6 -2 11 -3q3 -1 5 -3q3 -2 6 -3q1 0 2 1l-1 -1l1 1q0 2 -1 5q-1 4 -1 6q-1 5 -1 9q0 5 -1 10v8v7q-1 4 -5 7q-3 4 -6 6q-4 5 -9 10q-4 5 -8 9q-3 3 -7 5q-3 3 -6 5q-23 21 -53 35t-61 12q-6 -1 -12 -5q-5 -4 -10 -6q-4 -2 -9 -3l-8 -4q-12 -9 -23 -20q-10 -12 -20 -23
q-5 -6 -9 -13q-3 -7 -8 -13v0zM125 207v-4q1 -3 2 -4h3q1 1 3 1q5 1 10 1h11q18 2 36 3t37 1h20q12 0 18 1v0q-1 1 -5 1h-9h4h-4q-7 1 -16 1q-8 1 -15 1q-10 0 -20 1q-9 1 -19 0q-14 -2 -28 -2q-14 -1 -28 -1v0zM129 106q5 -6 13 -14q8 -7 15 -12q17 -15 32 -25
q16 -10 39 -12q12 -2 24 -2q12 -1 24 -1h8t5 3q-1 0 -6 2q-6 1 -8 1q-8 3 -17 4l-18 4q-19 4 -37 10q-18 5 -34 15q-11 6 -20 13l-20 14v0zM150 39q10 -13 27 -24q18 -11 33 -17q2 -1 5 -1t5 -1q6 -3 13 -3q6 -1 13 -2q5 -1 11 -1q-5 0 -4 0h4h3q2 0 1 0q0 2 -2 2h-2l-12 6
q-5 3 -12 4h-7t-7 2q-2 1 -2 3q-1 2 -3 3q-2 0 -4 1h-4q-6 0 -11 2l-10 4q-10 4 -18 10t-17 12v0zM251 392q7 -2 14 -3l14 -2l8 -2q-4 1 -3 0h3l3 -1t3 0q-2 2 -6 3t-6 2q-8 2 -15 2q-7 1 -15 1v0zM294 383v0v0zM386 305v0v0zM386 303q1 -3 1 -6t3 -5v1v3q-2 3 -4 7l2 -3
q-1 1 -2 3v0z" />
    <glyph glyph-name="f" unicode="f" horiz-adv-x="492" 
d="M37 366l4 6q2 4 4 5q1 1 5 3q3 2 3 3t-2 1q-1 0 -2 1q-3 3 -4 8q0 5 4 8q9 3 18 4q10 1 19 2l50 6q-24 -3 -19 -2q5 0 19 2q6 1 12 1h13h5t4 1q2 2 2 5v6q1 5 1 9v10q1 2 2 6v6q-1 1 -5 3q-4 3 -6 6q-1 3 0 8v6t-2 0h-2q-3 1 -5 2q-2 2 -3 4q-1 8 4 14q4 7 10 11
q7 8 14 15q-7 -7 -5 -5l5 5q6 6 15 11q8 4 15 9q6 4 13 7l14 6l8 4q4 3 9 5l14 6q7 2 14 5q5 2 9 3q5 0 10 2q9 4 19 5t20 1q26 3 52 0q-24 2 -19 2t19 -2q9 0 18 -2q10 -1 18 -5q3 -1 7 -3q3 -2 6 -3q5 -2 9 -6q5 -4 5 -10q-1 -10 -11 -11q-9 -1 -17 -1q-3 -1 -5 -5
q-2 -5 -7 -6l-10 -2h-11q-11 -1 -22 0q-10 2 -21 2q-3 0 -5 -1q-2 -2 -4 -3q-4 -3 -9 -6q-5 -2 -9 -5q-14 -9 -31 -20t-28 -21q-5 -4 -14 -9q-8 -5 -12 -11q-2 -6 -3 -16q-1 -9 -1 -16q-1 -1 -1 -6q-1 -4 -1 -5q1 -1 4 -1q3 1 4 1q9 1 17 1q9 0 18 1q7 1 14 0q7 0 15 1
q11 1 22 1l22 -2q7 -1 15 -2q9 0 16 -3q2 -1 4 -3t4 -3h5h5q7 1 19 0q12 0 12 -11q0 -3 -2 -6q-1 -2 -4 -4h-3l-2 -2q-1 -2 -1 -5q0 -2 -2 -5q-4 -3 -11 -3q-6 -1 -11 -1q-5 -1 -10 0h-10q-6 -1 -12 0h-13h-32t-32 -2q-8 -1 -17 -1h-18h-6t-6 -2q0 -2 1 -8q1 -7 1 -10
q2 -14 2 -29t2 -30v-10q-1 -5 0 -10v-14v-15q2 -15 1 -31v-31q0 -27 1 -55q0 -27 -2 -54q-1 -9 -1 -18q1 -9 0 -18q-2 -18 -4 -35q2 16 2 13q-1 -3 -2 -13q0 -6 -2 -14q-1 -7 -8 -9t-11 3q-3 5 -5 10q0 3 -1 6q0 3 -4 2q-1 0 -1 -3v-5q1 -6 -2 -15q-2 -8 -11 -7q-7 2 -9 9
t-3 13q-4 17 -4 35q0 17 -2 35q-1 9 0 19v20v25t1 26q1 6 0 11q0 6 1 11q2 20 2 39q1 19 3 39q2 16 3 33q-1 -16 -1 -13t1 13q1 3 2 9q1 5 0 9q-2 2 -4 3t-3 7q-1 4 -1 8q-1 5 -2 9v5v4q-1 1 -3 1q-1 -1 -3 -1q-2 1 -5 4q-2 2 -2 5q-1 4 0 9q1 4 2 9v3q1 1 0 3h-4
q-4 -1 -5 -1q-5 -1 -10 -1q-5 -1 -11 -2q-37 -9 -75 -14q36 6 29 4q-7 -1 -29 -4q-10 -1 -17 1t-7 13v0zM222 227v-33q-1 -17 1 -33v-8q-1 -4 1 -8v1v1v3v3v20q0 -9 0 -7v7v57q0 -27 0 -21v21v8v8v3v4h-1v0q-1 -6 0 -13q0 -7 -1 -13v0zM254 530q1 -2 3 -1q1 2 -3 1v0z
M313 567q7 -1 15 0q9 1 16 2q4 0 8 1q-4 -1 -3 -1t3 1q3 0 6 1q-3 0 -2 0h2v1q1 0 0 0h-4q-3 0 -5 -1q-9 0 -18 -1t-18 -3v0zM360 573q3 -1 4 -1q1 1 -4 1v0z" />
    <glyph glyph-name="g" unicode="g" horiz-adv-x="496" 
d="M64 21q1 6 3 9q2 2 6 5q2 1 5 2q4 1 4 2q0 2 -1 5q-2 4 -1 8q3 6 9 8q6 1 12 -1q13 -3 26 -8q13 -4 26 -6q7 0 14 1l14 2q13 2 26 5q13 2 25 7q16 7 32 16q15 8 27 21q4 4 6 10q1 6 3 11q4 9 7 18l6 18q3 7 7 15q3 8 5 16q0 1 1 6l1 5l-3 -2q-2 -1 -3 -2q-6 -4 -13 -6
q6 2 5 2q-1 -1 -5 -2q-4 -2 -9 -3t-9 -3l-14 -6q-8 -3 -16 -4q-6 0 -13 1q-7 0 -14 2q-2 1 -3 2q-2 0 -4 1q-19 1 -38 4q-19 2 -37 10q-7 3 -13 6q-7 4 -13 7q-6 2 -11 5q-6 2 -11 6l-6 4q-4 3 -7 3q-2 -1 -5 -2q-2 -2 -5 -2q-6 -1 -10 3t-4 10q0 4 2 8t3 7l6 15q3 10 4 15
q0 3 -1 7q-1 3 -1 7q0 11 2 21q2 11 6 21q3 6 8 13q5 8 9 12q1 2 2 3q1 2 2 3q4 4 9 8l8 8l8 6q5 2 9 4t7 4l8 4q9 4 18 6l18 4q13 3 25 6q13 3 25 3q6 0 12 -1l12 -2q17 1 34 -1q-16 1 -13 1t13 -1q8 -1 16 -4l16 -6q2 -1 3 -2q1 -2 3 -2q2 -1 3 -2q2 0 4 -2t8 -7l7 -7
q2 0 3 4q1 3 1 4q3 7 7 14q3 7 6 13q4 9 12 12q9 4 16 -3q2 -2 3 -4t2 -5v-1v-1q2 -1 3 0h3q3 0 5 -1q2 -2 4 -3q6 -7 2 -16q-3 -9 -7 -16q-5 -12 -9 -24t-9 -23l-6 -12t-4 -11q0 -4 1 -4q1 -1 2 -3q1 -3 1 -6v-5q-1 -7 -4 -17t-6 -16q-2 -6 -3 -12t-4 -11q-14 -35 -23 -72
q9 34 7 27q-2 -6 -7 -27q-2 -8 -5 -16q-2 -8 -3 -16q-2 -20 -7 -40q-4 -21 -12 -40q-5 -9 -12 -17q-8 -9 -15 -16q-3 -2 -7 -4q-4 -1 -8 -3l-4 -4q-3 -2 -5 -4q-5 -4 -12 -8q-7 -5 -14 -6q-2 1 -5 1q-3 1 -5 3q0 1 -1 2q0 1 -1 2q-3 1 -8 -1q-4 -1 -7 -1q-14 -2 -28 -2
q13 1 11 1q-3 -1 -11 -1q-24 0 -48 3q-23 3 -46 9q-12 2 -24 5t-16 14v0zM112 275q9 -13 24 -21l28 -16q4 -3 13 -9t13 -8q7 -1 17 0t17 2l28 4t27 7q6 3 13 5t12 7q2 2 3 7q1 4 2 7q8 19 8 40q-1 20 -6 40q-1 7 -6 16q-4 9 -11 13q-28 11 -57 5q-28 -6 -52 -23q-5 -3 -9 -6
q-5 -3 -9 -6q-6 -7 -12 -12q-7 -6 -13 -12q-9 -9 -16 -19t-14 -21v0zM250 40v0v0zM252 41h6q4 1 6 3q1 0 3 2l1 2q-2 0 -8 -3q-5 -3 -8 -4v0zM349 354v0v0zM349 352q3 -6 3 -4q0 1 -3 4v0z" />
    <glyph glyph-name="h" unicode="h" horiz-adv-x="453" 
d="M47 348q1 7 1 13q0 7 -1 13q0 13 1 26q0 13 1 25l4 36q1 18 3 36q1 12 4 23q2 12 3 23q2 13 5 27q4 13 9 25q2 4 4 9q3 4 7 6q15 5 15 -10q1 -14 1 -22q1 -2 3 -2h4q2 -1 3 -3q2 -2 3 -4q3 -9 2 -24v-24v-14v-15v-6q0 3 0 2v-2q0 -8 1 -6h-1q0 -1 1 0q1 2 1 10q1 8 1 11
l8 68q-4 -32 -3 -26q1 7 3 26q1 9 8 13q7 5 12 -5q1 -5 1 -9q0 -5 -1 -9v-14q0 -8 -1 -15v-11t-1 -11q-2 -25 -3 -50q0 -25 -3 -50q0 -8 -1 -17q0 -8 -1 -17v-5q-1 -2 0 -4q0 -1 1 0l2 2q3 2 5 5t4 5q6 7 15 15q8 8 15 12q5 2 9 4q4 3 9 4q12 5 25 6q13 2 26 3q14 3 30 3
q16 1 30 -4q7 -2 13 -6l12 -6q7 -2 13 -3t13 -7q10 -9 16 -26t10 -30q7 -23 12 -46q5 -24 7 -47q1 -18 -1 -36l-4 -36l-2 -12q-2 -6 -3 -12q-1 -8 -1 -16q1 -8 0 -16q-1 -16 0 -31t2 -31q2 -10 2 -22q1 -13 -2 -22q-3 -5 -7 -6t-5 -2q-2 -4 -1 -9t-2 -9q-2 -3 -5 -4q3 1 2 1
l-2 -1q-8 -1 -11 5t-4 13v4t-1 4q-3 0 -4 -4v-6q0 -7 -3 -14t-12 -4q-5 3 -7 8l-2 10q-2 13 -3 26t-1 26v31q0 15 -2 30v17q1 8 0 16q-3 28 -3 56q1 -26 1 -21q-1 5 -1 21v21q0 10 2 20q1 3 3 6q2 2 3 4t-1 5q-1 3 -2 4q-15 36 -31 72q15 -34 12 -27t-12 27l-4 10t-6 10
q-2 5 -8 13q-6 9 -11 10q-5 0 -10 -2q-5 -3 -10 -4l-22 -8q-10 -4 -21 -9q-4 -2 -8 -5q-3 -3 -8 -5q-7 -3 -9 0l-4 6h-2h1h-1l-4 -4l-4 -4l-12 -12t-11 -12q-2 -3 -5 -5l-4 -6v-3q1 -2 0 -4q-1 -12 -1 -24v-24v-56q1 -28 3 -56l6 -40t8 -39q2 -6 4 -15q1 -9 -4 -14
q-10 -4 -16 5q-7 9 -9 17q-1 2 -2 5t-2 4q-1 0 -1 -3q1 -3 1 -4v-6v-6q2 -10 4 -25q2 -16 -11 -16q-7 2 -10 9q-3 8 -4 14l-6 24q3 -11 2 -9q0 2 -2 9q0 3 -1 7q0 3 -1 7l-6 16q-2 8 -4 17q-6 22 -8 45t-4 45q-1 8 -1 15q-1 8 -2 15v10q0 -5 0 -4v4t-1 4v0q-1 -3 -1 -9
q1 -6 2 -10v-12q0 -7 1 -13q1 -15 2 -31q0 -15 2 -31q2 -18 5 -36q2 -18 5 -36q1 -8 4 -20t6 -20q2 -4 3 -8t-2 -8q-7 -7 -12 -2t-8 12q-5 13 -9 31q-4 19 -5 33q-2 13 -4 27q-1 13 -3 26l-2 26l-2 26q-1 10 -1 19q1 10 0 19q-1 10 -1 19q0 10 -1 20q-2 23 -1 47t1 47v0z
M67 242v-6q0 3 0 2v-2v-2t1 -1q1 1 0 5q0 3 -1 4v0zM70 435q1 -7 0 0l1 -3l-1 3v0zM71 443v-5v0q1 1 1 7t1 8q0 8 1 18q1 9 3 17q1 3 1 6v7v5q0 1 -1 1q0 -2 -1 -8v-8l-4 -32q2 15 1 12q0 -3 -1 -12q0 -4 -1 -8v-8v0zM304 370q5 -9 9 -18t9 -18q1 -3 2 -7q2 -4 4 -7v3l-1 3
q-2 7 -4 13q2 -6 2 -5q-1 2 -2 5q-2 7 -5 14q-3 8 -7 13l-4 2q-1 1 -3 2v0zM328 319v0v0z" />
    <glyph glyph-name="i" unicode="i" horiz-adv-x="507" 
d="M194 532q3 12 10 26q8 14 20 20q3 2 6 1q2 -2 4 -2q1 1 2 3l3 3q8 7 18 11q-9 -4 -7 -4q2 1 7 4q6 2 13 4q8 3 14 2q9 -1 13 -9q5 -9 4 -17q-3 -21 -18 -40t-34 -28q-3 -1 -8 -2q-5 -2 -8 -1q-2 0 -4 1t-4 1q-4 0 -7 -2q-4 -1 -7 -1q-12 2 -15 11q-3 8 -2 19v0zM202 184
q0 29 1 59q1 31 5 60q1 17 3 34q1 18 5 34q2 11 3 22q2 11 6 22q2 4 7 7q4 3 10 1q4 -3 5 -7q1 -5 1 -10q2 -19 5 -38q-3 18 -2 14q0 -3 2 -14v-8q-1 -4 0 -8h1v1q1 8 0 3q-1 -4 1 3q0 3 1 7v7l2 18q0 9 2 18q1 4 4 8q3 3 8 3q7 0 8 -7q2 -7 2 -12q2 -17 4 -33q1 -17 3 -33
q5 -48 7 -97q2 -48 7 -97q2 -18 5 -36q2 -18 5 -37q0 -5 1 -12q0 -7 -2 -12q-2 -4 -7 -6q-5 -1 -9 1q-5 4 -9 15q-5 10 -6 16q-2 7 -4 13t-3 13t-3 14t-3 14q-2 22 -5 44q3 -21 2 -17q0 5 -2 17l-2 28q1 -13 1 -11q0 3 -1 11v9t-1 10q0 1 0 -1v-3l-1 -3v-3q-1 -7 -1 -15
q0 7 0 6v-6l-2 -24q-1 -13 -2 -25q-2 -14 0 -29q1 -15 3 -29q2 -16 3 -32q1 -15 3 -31q1 -7 1 -14t1 -14q1 -4 0 -8q0 -4 -4 -6q-12 -5 -14 5q-2 9 -4 14h-1q-1 0 -2 1q-2 0 -3 2q-1 1 -3 2h-4l-4 2q-3 2 -4 6q-1 3 -2 7q-4 8 -6 16q-2 9 -3 18q-1 10 -3 20t-3 20
q-2 23 -3 46v47v0zM222 188q-1 -14 -1 -28q0 -15 1 -28q2 -14 3 -29q1 -14 2 -29q1 -4 1 -10q1 -6 2 -10v0l1 1v6q0 -3 0 -2v2v20q0 -9 0 -7v7q0 13 1 26q1 12 1 25q-1 15 -2 31q-2 15 0 30q1 9 0 18v18q2 27 2 54q0 -25 0 -20v20q1 14 1 27q1 14 0 27q0 3 1 9q0 5 -2 7v0
v-1q-1 -7 0 -4q0 4 -1 -2q-1 -3 -1 -6v-6q-1 -9 -3 -18q-1 -9 -1 -18q0 -8 -1 -17q-1 -8 -2 -17v-14t-1 -14q-1 -12 0 -24q1 -13 -1 -24v0zM231 537l1 -1v-1q3 -1 3 3q-1 4 -2 4q0 -1 -1 -2q0 -2 -1 -3v0zM276 562q2 1 3 6q1 4 1 7q1 1 1 3q1 2 0 3q-2 -1 -1 -3v-3
q-1 -3 -2 -7l-2 -6v0z" />
    <glyph glyph-name="j" unicode="j" horiz-adv-x="402" 
d="M48 -151q5 12 21 16t29 3h38q21 0 38 6q8 4 16 10t14 13q31 32 45 74t19 87q1 16 3 33q-1 -16 -1 -13t1 13q0 3 1 9q2 6 1 8q0 1 -2 2q-1 0 -2 1q-4 4 -3 10q0 -5 0 -4v4q1 11 4 22q2 12 4 23v13v13v32l-2 32q-2 16 -1 37t3 37q1 10 3 20q-2 -9 -2 -8q1 2 2 8q0 1 1 4v4
q-4 4 -12 8q-9 4 -14 6q-10 4 -22 4q-11 0 -22 -2q-15 -1 -30 -1t-30 -1q-11 -1 -21 -2q9 0 8 0h-8q-4 -1 -7 -2t-7 1t-5 7q0 6 3 9q2 2 4 2t4 1q0 1 -4 2t-6 1h-2h1h-1q-5 1 -8 5q-3 3 -1 9q3 5 7 5q5 1 10 0q15 1 29 -1q-14 1 -11 1t11 -1q3 0 6 -1h6l98 10q-46 -5 -37 -4
t37 4l20 2q10 0 20 1t27 3q17 1 26 0q6 -2 6 -8q1 -6 -3 -10q-5 -3 -11 -2q-5 1 -7 -6q-1 -11 -4 -23l-4 -22q0 -3 1 -4t2 -3q1 -7 1 -17v-18q1 -7 4 -13q2 -7 3 -13q1 -12 3 -24q-2 11 -1 9q0 -3 1 -9v-12v-11q0 -21 -2 -42t-4 -41q-2 -14 -2 -29q0 -14 -1 -28l-2 -28
t-2 -27q-1 -12 -5 -24q-3 -12 -4 -23v-4v-4q0 -3 -1 -5l-2 -4q-3 -7 -4 -13q-1 -7 -4 -13q-1 -4 -2 -9t-3 -9q-2 -6 -5 -11q-3 -6 -6 -11q-1 -4 -2 -13q-2 -8 -2 -12q-1 -7 -2 -16t-6 -13q-3 -1 -7 -1q-3 0 -6 3l-1 3l-2 3q-1 0 -4 -3q-3 -4 -4 -5q-9 -10 -22 -21
q-14 -11 -26 -17q-18 -7 -36 -7q-18 1 -36 6q-6 1 -11 2q-6 1 -11 3q-6 3 -13 6l-14 6q-3 2 -5 5t-3 4q-1 0 -3 -1q-3 -1 -4 -2q-5 -4 -10 -6q-6 -3 -10 6q-1 1 -1 3v3v0zM147 -151q5 -1 0 0h3h-3v0zM154 -150h10q7 1 9 3q1 0 0 0h-2q-11 -2 -2 -1t-3 0q-4 -1 -6 -1
q-3 -1 -6 -1v0zM174 -146v0v0zM176 -145v0v0zM179 -144v0v0zM185 -164q6 0 12 3t11 6q1 1 4 3q2 2 3 4q1 1 1 2q0 2 -1 2q0 -1 -4 -4t-5 -4q-4 -4 -10 -7t-11 -5v0zM247 573q1 5 4 10t10 5q4 -1 6 -4q3 -2 3 -7q-1 -3 -3 -5l-1 -1q1 0 4 2t4 3q5 3 10 5q6 3 11 4q17 3 30 -8
q13 -12 14 -29q-1 -17 -13 -25q-12 -9 -28 -7q-5 1 -10 3q-4 2 -9 4q-4 1 -7 -1t-7 0q-4 3 -5 8l-2 8t-4 8q-3 3 -5 7q-2 5 -2 10v10v0zM289 398q8 -2 16 -1q-7 0 -6 0h6q2 -1 3 -1q2 -1 3 0t1 3q0 1 -2 2q-4 0 -10 -1q-6 -2 -11 -2v0zM294 554q1 -4 1 -2q-1 1 0 -4
q0 -5 3 -9t4 5v7q-1 4 -3 7q0 1 -1 2q-1 2 -2 2l-1 -4q-1 -3 -1 -4v0z" />
    <glyph glyph-name="k" unicode="k" horiz-adv-x="495" 
d="M52 33q3 10 11 21q7 11 13 20q3 3 6 7t4 7q0 5 -3 14q-3 10 -4 16q-4 32 -7 65q3 -31 2 -24q0 6 -2 24q-3 28 -3 56v56l-2 52q0 25 -1 51q0 12 -2 25l-2 24q-2 16 -2 32v32v23t5 22q1 2 4 3t5 0q6 0 9 -5q3 -6 4 -11q0 -1 1 -5q0 -3 1 -4q1 0 1 2v3l2 10l2 10q2 11 5 22
t8 21q2 4 5 7t8 3t8 -5q3 -4 3 -10q1 -8 1 -17q0 -8 1 -17v-7q-1 -4 0 -6t4 -3q2 -1 3 -3q2 -3 2 -7q1 -3 1 -7v-4t1 -1q1 0 0 1v1l2 12q-1 -6 0 -5v5q1 8 2 20q1 13 4 20q4 6 9 6q6 -1 9 -6q3 -6 2 -12q-2 -6 -3 -12q-1 -14 -3 -27q-3 -14 -4 -28l-6 -34t-5 -34
q-1 -11 -1 -23q1 -11 0 -23q-2 -38 -2 -77q1 36 0 29v-29v-32l2 -32q1 -2 1 -10q0 -7 1 -8q1 0 2 1l3 3q3 3 6 5l6 6q17 12 33 27q-15 -13 -12 -11q3 3 12 11q6 5 13 9q7 5 12 12q1 2 -1 6q-1 4 1 9q4 4 8 3q5 -1 8 2q6 6 12 13q5 7 11 13q14 13 27 26q13 14 26 27
q6 5 12 11q7 5 12 10l5 5q2 2 5 3q3 0 6 -1q3 -2 6 -2q4 1 7 4q4 2 9 -3q2 -2 2 -5q1 -3 0 -5q0 -1 -1 -3l1 1l-1 -1v-1q-1 0 0 0l2 1q1 1 2 1q4 3 8 4q5 2 9 0q4 -1 5 -5q2 -4 1 -8q-3 -8 -2 -2q1 7 -1 -1q-1 -2 0 -4v-5q-2 -3 -8 -8t-9 -8q-22 -21 -46 -40
q-24 -18 -46 -39q-4 -4 -11 -10q-6 -6 -10 -9q-2 -1 -5 -3q-2 -3 -2 -5l4 -8q3 -3 5 -7q3 -8 9 -16q5 -7 8 -15q2 -4 4 -6q3 -3 4 -6q7 -13 16 -25t15 -24q4 -9 10 -18t12 -16q4 -5 7 -11q4 -6 8 -10q6 -7 11 -14l10 -14q9 -12 19 -23q9 -11 20 -21q4 -4 8 -9q4 -4 2 -10
q-2 -4 -6 -6q-4 -1 -7 0q-5 2 -11 7q-7 4 -11 7q-2 1 -4 3q-3 2 -5 2l-2 -1q-2 -2 -3 -2q1 -1 2 -3t2 -3q3 -6 7 -13q3 -6 -3 -12q-4 -3 -8 -2q4 0 3 0h-3q-2 0 -5 1t-5 1q-3 1 -5 3q-3 2 -5 4l-13 13q-7 7 -13 14q-26 26 -51 61q-24 34 -42 67q-6 12 -14 24q-7 12 -13 24
q-2 2 -5 8t-4 7l-1 -1v-1q-4 -3 -7 -6q3 3 2 2l-2 -2q-7 -7 -12 -14q-6 -7 -12 -15q-4 -4 -8 -9q-3 -5 -7 -9l-5 -5q-3 -4 -3 -6q-1 -7 2 -18t4 -19q2 -15 5 -30l8 -30q5 -21 10 -43q-5 21 -4 17t4 -17q1 -4 0 -9t-5 -8q-6 -3 -11 1q-4 3 -8 7q-7 11 -13 23q-5 12 -9 24
q-2 9 -6 18q3 -8 3 -7q-1 2 -3 7q-1 2 -1 5q0 -3 0 -2v2q0 1 -1 2q0 1 -1 1q1 -7 3 -14t3 -13q4 -15 7 -29l8 -30q2 -7 3 -16q2 -9 -6 -14q-7 -3 -11 3q-4 5 -7 10q-7 11 -10 24q-4 13 -8 24q-1 3 -1 7q-1 4 -2 7q-2 1 -6 0q-5 0 -7 5q-4 8 -6 17q2 -8 1 -7q0 2 -1 7
q-1 1 -1 3t-1 2q0 1 -1 0l-1 -1q-2 -2 -3 -5t-3 -5q-5 -5 -8 -11q-4 -7 -9 -12q-4 -3 -9 -2q-6 1 -8 6v3v4v0zM100 474q-1 -2 -1 -4t1 -2q2 0 1 2v4q1 5 2 11t2 11q1 8 3 15q3 7 4 14q1 3 1 7q-1 3 0 6q0 4 1 8q0 4 -1 8q0 1 0 -1q-1 -1 -1 -2q-1 -5 0 -3q0 1 -1 -3
q0 -5 -1 -9l-2 -8q-1 -13 -3 -27q-2 -15 -5 -27v0zM129 435q0 -1 1 -5v-4q1 2 1 8v10q-1 1 -1 4v3q-1 -4 0 -8q0 -4 -1 -8v0zM135 79v0v0zM135 76v0v0zM136 74q1 -6 0 0v-3v3v0zM233 228q2 -3 5 -1t8 1q4 -1 6 -5q3 -4 5 -7q1 -1 1 -3q1 -1 2 -1v1v1q-1 3 -2 5t-2 5t-3 7
q-2 3 -3 7q0 1 -1 2q0 2 -1 2q-1 1 -2 -1l-1 -1l-6 -6l-6 -6v0zM318 136l6 -8q3 -3 6 -7q1 -3 1 -2l2 -2q0 -1 1 -2t2 -1q0 2 -2 4q-2 1 -3 2l-5 10q-4 7 -8 6v0zM336 114q2 -4 0 0l1 -2l-1 2v0z" />
    <glyph glyph-name="l" unicode="l" horiz-adv-x="493" 
d="M209 290q1 5 1 11v11v24q0 13 1 24q5 49 4 98q0 50 5 98q1 16 3 32q3 16 6 31q2 6 5 11t10 4q4 -1 6 -5q2 -3 3 -7q2 -8 2 -18q1 -9 1 -18v-12q0 5 0 4v-4v-2t1 -1q2 -1 3 3v6q1 7 2 16t8 11h5q2 0 4 -1q5 -5 5 -14v-15q-1 -21 -1 -42q-1 -20 -1 -41q0 -24 -2 -49
q-1 -25 -4 -48q-1 -15 -1 -30l-2 -30q-1 -12 -1 -24t-1 -23v-12v-11q-1 -8 -1 -15v-14v-49v-49q1 -25 3 -49t2 -49q0 -7 1 -17q0 -10 -7 -13q-8 -3 -11 2q-4 6 -6 12q-1 2 -3 4l-2 4q-5 8 -9 18t-6 20q-13 54 -18 108t-5 110v0z" />
    <glyph glyph-name="m" unicode="m" horiz-adv-x="466" 
d="M27 226q1 6 1 12q-1 5 0 11q1 9 0 19q0 10 1 19q1 8 1 16v16q2 20 2 40v40v21t3 19q2 5 8 7q5 1 9 -3q5 -5 6 -12t1 -13q2 -11 3 -22q2 -11 3 -22l2 -18q-1 9 0 7v-7v-4q0 -4 1 -5q1 0 1 1q1 2 2 3q0 2 2 3q1 2 2 3q1 7 1 15q0 9 7 13q4 1 8 -1q4 -1 5 -5q1 -1 2 -5
q1 -3 2 -4l3 3q1 2 2 2q8 9 17 16q-8 -7 -6 -6q1 2 6 6q10 9 19 13q10 3 23 5q4 1 9 4q4 3 9 4q4 0 7 -1t6 -3l2 -4q2 -2 4 -3t5 -1t6 -1q11 -2 20 -9t13 -18q2 -6 1 -13q0 -7 1 -14q1 -1 2 -4q1 -2 1 -3q1 0 1 1q1 0 1 1q2 3 3 6l4 6q9 13 19 24q-9 -11 -7 -8q1 2 7 8
q10 10 23 20q12 10 26 13q5 1 11 1t10 1q8 5 16 13q9 8 18 5q5 -2 5 -6v-7q0 -2 3 -2q2 0 3 -1q4 -1 8 -5q4 -3 6 -7q5 -10 6 -21l4 -22q2 -8 7 -16q4 -8 7 -17q2 -8 3 -17q1 -8 2 -17l2 -22t0 -22q0 -4 -1 -8q-1 -5 -4 -7q-2 -2 -5 -2t-4 -2q-1 -3 0 -7q0 -3 1 -6v-11v-11
q0 -12 1 -25q0 -12 -1 -24l-2 -14v-14q2 -21 3 -41q0 -20 2 -41q1 -5 2 -15q1 -9 -2 -14q-5 -5 -8 -3t-8 3q-4 -1 -9 -3t-9 -1q-4 2 -5 6t-3 6q-2 1 -4 1t-3 2q-4 3 -5 9q-2 5 -3 10q-3 14 -5 29q-1 14 -3 29q-2 21 -2 42t-2 42q-1 8 0 15v15q-2 13 -1 26v26v26q-1 13 1 26
q0 6 1 13q0 7 3 13q1 2 4 5t3 4q-1 6 -8 17q-7 10 -14 11q-4 -1 -8 -4l-7 -7l-33 -33q15 15 12 12l-12 -12q-11 -11 -24 -27t-18 -31v-9q1 -6 1 -10q1 -6 0 -18q0 -11 -1 -18q-1 -10 -1 -22q0 -11 1 -22q1 -12 0 -24q0 -12 1 -24q1 -14 1 -27q-1 -14 0 -28l4 -40t6 -39
q1 -6 2 -14q1 -7 -6 -10q-12 -1 -15 11q-4 13 -7 20q-1 1 -3 0q-3 0 -4 -1q-2 0 -5 2q-2 1 -3 3q-2 4 -3 12q0 7 -2 10q-1 1 -3 1q-2 1 -3 2q-3 4 -4 9q0 5 -1 10l-4 24q-1 12 -3 24q-3 13 -4 27q-1 13 -2 27q-8 67 -15 134q7 -63 6 -51q-2 13 -6 51q-1 9 -2 25t0 24
q1 4 4 5q3 2 6 2h3q1 -1 1 0q1 3 -1 9q-2 7 -3 10q0 2 -1 4q0 2 -2 3q-4 1 -9 0t-9 -2l-18 -4l-18 -6q-5 -2 -11 -2q5 1 4 0h-4h-1q-1 0 -2 -1q0 -1 -1 -8t-1 -9q-1 -12 -4 -25q-2 -12 -3 -24q-2 -14 -5 -29l-4 -28q-3 -28 -4 -56q-1 -27 2 -55q2 -20 5 -41l6 -40
q1 -9 1 -20q1 -11 -2 -19q-2 -5 -7 -6q-6 -1 -10 2q-4 5 -7 11l-4 12q0 2 -1 5t-2 5v-1q-1 0 -1 -1q0 -6 0 -3q1 3 0 -3q-1 -3 -2 -8q-1 -4 -2 -7q-3 -6 -11 -8q-9 -2 -14 2t-7 15q-3 11 -3 18l-4 22q-2 12 -3 23l-2 20l-2 20q-2 27 -3 54v54v0zM49 288v0v0zM49 304v-11
q0 5 0 4v-4q0 -1 1 -2q0 -2 0 -1q1 1 0 6q0 6 -1 8v0zM98 356q1 -7 2 -1t-1 4q-1 -2 -1 -3v1v-1v0zM218 342q1 -3 1 -7q0 -5 2 -7h1q1 1 1 2l-2 6t-3 6v0z" />
    <glyph glyph-name="n" unicode="n" horiz-adv-x="466" 
d="M56 144q1 5 1 11v11q3 22 5 45q-2 -21 -2 -17q1 4 2 17q1 11 3 23q2 11 4 23q1 19 0 39q-1 19 1 39q1 12 2 25q0 12 1 24q2 13 4 27q2 13 3 26q1 12 4 25q2 12 6 24l4 10q3 5 9 7q2 1 4 1q3 0 5 -1l3 -3q1 -2 1 -3q2 1 1 3q0 1 1 3q1 5 5 8t10 0t6 -10t-1 -13q0 -1 -1 -6
q-1 -4 0 -5q1 1 3 2q1 2 3 3q11 1 11 -7v-14q1 0 4 1q4 1 5 1q3 -1 6 -3q2 -2 3 -5t0 -6t-1 -6q-2 -12 -3 -24q1 11 1 9t-1 -9q0 -2 -1 -6q-1 -3 0 -5q2 -1 6 1q4 3 5 3q8 4 16 7t16 4q30 4 67 4t65 -11q8 -3 16 -10q9 -7 13 -14q1 -3 3 -7q2 -3 2 -7q1 -1 2 -5t2 -5
q1 1 1 2q0 2 1 3q2 2 4 3q3 1 5 1q7 -1 8 -7q1 -5 1 -10q1 -7 1 -13q-1 -7 0 -13t1 -13v-13q-2 -11 -2 -22t2 -21v-21q0 -11 1 -21t0 -20q0 -9 -1 -19v-16v-16q-1 -9 -2 -19q-1 -9 -1 -18q0 -16 2 -32q3 -15 5 -31q1 -7 3 -15q2 -9 -2 -15q-2 -3 -5 -4q-4 0 -7 1q-1 1 -3 2
q-1 2 -3 2q-1 -1 -1 -4q-1 -3 -1 -4q-2 -5 -5 -8q-4 -4 -9 -5q-8 -1 -14 5t-10 13q-9 15 -12 38q-4 22 -5 40q-2 12 -1 26q1 13 6 25q1 1 3 4q1 2 3 3q1 1 3 0q1 0 2 1q1 2 0 10v10v27q-1 14 -2 27q-1 9 0 18q0 8 -1 17q-2 14 -3 27q1 -13 1 -10t-1 10q-2 16 -11 36t-21 31
q-3 3 -8 5t-9 4t-7 3q-4 2 -8 2q-7 1 -15 1q-7 1 -14 0q-18 -2 -35 -7q-18 -5 -34 -14q-3 -1 -11 -5t-10 -6q-2 -6 -2 -12t-1 -12l-4 -38q2 18 1 14q0 -3 -1 -14q-1 -8 -4 -15q-2 -7 -3 -15q-2 -19 -4 -39q-3 -20 -3 -39q0 -15 1 -30q2 -14 3 -29l6 -38q3 -20 6 -39
q1 -7 2 -16q0 -8 -5 -14q-2 -1 -3 -2q-2 0 -4 -1q-1 -3 -1 -5q-1 -2 -3 -4q-5 -3 -9 -1t-7 6q-5 7 -7 16q-3 9 -5 18q-4 17 -6 35q-1 17 -3 35q-1 8 0 16q0 8 -1 16l-2 16q-2 8 -3 15q-1 9 -2 17q-1 9 -1 17v7v6q-1 1 -1 -1v-5l-2 -14q1 6 1 5t-1 -5q-1 -11 0 -22
q0 -11 1 -22q2 -20 3 -41t3 -42l4 -26q-2 12 -2 10q1 -3 2 -10q0 -5 2 -9q2 -5 2 -10q0 -3 -2 -5q-2 -3 -5 -4h-3q-1 0 -2 -2q1 -5 4 -12q3 -8 -4 -13q-13 -4 -17 10q-4 15 -6 25q-5 21 -9 43t-6 44q-1 9 0 18v18v0zM98 427v-3t2 -3v0h1v7t-1 6v0v-2q-1 -2 -2 -5q1 3 1 2
t-1 -2v0zM101 369q0 -6 1 1t2 10q-1 1 -1 2v-1v1v2q-1 1 -1 0q-1 -3 -1 -7q1 -5 0 -8v0zM145 399q1 -6 0 0l1 -3l-1 3v0zM146 403v0v0zM170 372q3 0 7 3q3 2 6 3q8 3 16 7q-8 -3 -6 -3l6 3l8 2l8 2h3t2 1t-1 1h-1q-3 0 -6 -1t-5 -2q-10 -2 -19 -6t-18 -10v0zM221 391v0v0z
M307 405q2 -2 4 -3t5 -1q8 -4 16 -11q7 -6 14 -13q2 -3 5 -6q2 -3 5 -7q0 -1 2 -3q1 -2 2 -3q1 0 0 4t-1 5q-1 4 -3 9q-1 5 -4 8q-8 9 -20 15q-12 5 -25 6v0zM361 358v0v0zM369 93q0 -19 2 -38q-2 18 -1 14q0 -3 1 -14v-6q0 -4 1 -7h1v0q1 3 1 8q0 4 1 8q0 8 -1 18
q-1 9 -5 17v0z" />
    <glyph glyph-name="o" unicode="o" horiz-adv-x="472" 
d="M66 207q1 4 0 7q0 3 1 6q1 14 0 30q0 16 5 29q6 16 12 31q-5 -15 -4 -12l4 12q5 8 11 15q7 7 11 16q3 6 7 12t9 11q5 6 9 13l10 12q11 12 23 23q12 10 25 21q23 20 57 32q34 11 63 -2q7 -3 13 -8l12 -10l6 -6q3 -5 5 -6t6 -1h6q10 -1 20 -7q9 -6 14 -15q6 -13 8 -27
t3 -28q3 -25 4 -50q0 -25 -2 -50q-1 -6 -3 -11q-1 -5 -2 -11q-3 -20 -9 -39q-6 -20 -14 -37q-4 -9 -9 -18q-5 -8 -9 -17q-3 -4 -6 -9q-3 -4 -5 -9q-2 -9 -4 -17q-2 -9 -6 -17q-8 -19 -18 -33q-11 -14 -27 -27q-5 -4 -9 -7q-4 -4 -10 -7q-13 -7 -28 -9q-16 -2 -30 -1
q-13 2 -25 4q-12 3 -24 8q-39 18 -62 53q-22 36 -27 78q-1 8 -4 15q-2 7 -3 15q-1 12 -3 24q-1 12 -1 24v0zM98 280q2 1 5 7l4 8q5 12 15 23q9 11 19 19q7 6 15 12q8 5 17 9q6 2 11 5q-5 -2 -4 -2q1 1 4 2q1 0 3 2t3 2q-2 0 -4 -1q-3 -1 -4 -1q-5 -1 -10 -3l-10 -4
q-12 -5 -24 -15q-12 -9 -20 -20q-5 -7 -8 -15q-4 -8 -7 -16l-2 -6t-3 -6v0zM113 172v0v0zM114 167v-6t2 -6q1 0 0 1v3l-2 8q1 -4 1 -3t-1 3v0zM123 60q4 -8 10 -15t13 -12q1 -1 4 -3t4 -1q1 0 -1 1l-2 2q-4 4 -9 8q5 -4 4 -3t-4 3q-4 5 -9 10q-4 6 -10 10v0zM138 96
q9 -13 21 -23q-10 10 -8 8l8 -8q1 -1 5 -3l3 -2l-2 3q-3 3 -3 4q-4 5 -11 11t-13 10v0zM142 197q-1 -14 0 -28q0 -14 3 -28q2 -6 5 -12q4 -6 7 -12q12 -24 35 -38q22 -14 49 -12q8 1 14 8l12 12q8 8 15 17q7 8 15 16q3 4 5 8q3 4 6 7q6 6 12 15q7 9 10 16q1 3 0 6t-1 6
q-2 19 -5 38q2 -18 2 -14q0 3 -2 14q-5 30 -14 61t-30 54q-6 6 -16 13q-9 7 -19 8q-2 0 -5 -2l-4 -2q-13 -8 -25 -18q11 9 9 7q-3 -1 -9 -7q-8 -6 -16 -13q-7 -6 -14 -14q-9 -11 -18 -26t-13 -28q-5 -18 -7 -36q2 17 2 13q-1 -3 -2 -13v-8t-1 -8v0zM158 378q2 0 4 1l4 2
q5 2 9 3l10 2q14 3 28 5q-13 -2 -10 -2q2 1 10 2h5q3 -1 5 0q4 1 7 4q4 3 7 5q11 5 21 11q11 5 22 9q14 5 28 9q-13 -4 -11 -3q3 1 11 3q2 0 6 1q3 0 5 1q1 0 -1 1q-1 1 -1 2q-7 5 -14 9q7 -4 6 -3l-6 3q-11 7 -22 7q-12 1 -24 -3q-23 -6 -44 -21t-39 -31q-4 -4 -8 -9t-8 -8
v0zM206 23q9 -5 19 -7q10 -1 20 -1h6q3 0 5 1l1 1v0v0q-1 2 -4 3t-4 2q-3 1 -5 3q-3 3 -5 4q-2 0 -4 -1q-2 0 -4 -1l-12 -2q-6 -2 -13 -2v0zM268 35q2 -2 6 -5q3 -3 6 -3q1 0 5 5t5 7l2 2q1 2 0 2h-1q0 -1 -1 -1l-2 -1l-2 -1q-5 -2 -9 -3q-5 -1 -9 -2v0zM295 366
q16 -10 27 -26q12 -16 19 -34q2 -5 4 -11l4 -10q1 -2 1 -4t1 -4v-2v-1q1 1 1 3t-1 4v10q-1 5 -2 11q-1 12 -8 26t-15 22q-3 3 -6 7q-2 3 -6 5q-5 2 -9 2l-10 2v0zM303 398q3 -2 5 -2q3 0 5 -1q8 -4 15 -9t12 -11q3 -2 5 -6q3 -3 5 -7q1 -1 2 -3t2 -3l1 1v1q0 3 -2 6
q-1 4 -2 7q-3 13 -7 25q4 -12 3 -9q-1 2 -3 9q-6 10 -19 7q-13 -2 -22 -5v0zM351 274q2 -5 0 0l1 -3l-1 3v0zM371 376v0v0zM371 375q0 -4 2 -13t3 -13v2q1 1 0 2q-1 17 0 1q1 -15 0 5q0 4 -2 8q-1 5 -3 8v0zM379 242v-3v-3v0l1 1q1 3 1 5v-2v2q1 4 2 9q1 4 1 8q0 1 -1 0
q0 -1 -1 -4q0 -2 -1 -5q1 3 1 2q-1 0 -1 -2l-2 -8q1 4 1 3l-1 -3v0zM384 263v0v0z" />
    <glyph glyph-name="p" unicode="p" horiz-adv-x="457" 
d="M55 3q1 4 0 8v8l2 20q0 10 1 20q3 22 5 44q-2 -21 -2 -16q1 4 2 16q1 9 1 18q0 8 1 17q1 12 0 26t-2 25t-1 23t1 23v46q1 24 3 46q2 16 3 31l2 30q1 6 2 13q2 6 3 12q1 7 4 17t7 15q4 3 10 2q5 -2 7 -6q1 -2 1 -5q0 -2 1 -3h1v1q1 3 1 6q0 -3 0 -2v2q1 5 2 11
q-1 -5 -1 -4t1 4q2 8 6 14q5 5 14 -1q4 -4 4 -10q0 -7 -1 -12q0 -15 -1 -30q-2 -15 -2 -29q0 -4 -1 -8v-8q-1 -1 -1 -3q-1 -1 0 -2t3 -1q3 -1 4 -2q3 -3 3 -7q-1 4 0 3v-3q1 -1 0 -1q0 -1 1 -2h1v2q5 4 9 8q-4 -4 -3 -3q0 1 3 3q1 1 1 2q1 0 2 1v1q1 1 0 0q-6 -3 -11 -1
q-5 3 -5 10q3 9 14 15t19 9q29 13 60 15t60 -10q7 -3 13 -7t12 -7q12 -5 24 -11q11 -5 22 -13q31 -28 37 -75t1 -86q-2 -17 -7 -35q-4 -18 -10 -35q-1 -4 -3 -9l-4 -10q-1 -1 -3 -4l-2 -4q0 -3 2 -6q1 -2 -1 -7q-5 -6 -13 -11t-11 -12q-5 -18 -17 -39q-12 -20 -29 -30
q-8 -4 -16 -7q-8 -4 -17 -3q-20 2 -38 11q17 -7 14 -6q-4 1 -14 6q-3 1 -5 3t-5 3q-3 2 -6 3q-3 0 -6 2q-4 1 -7 4q-4 4 -7 5q-5 0 -12 -1q-8 -1 -13 -1l-8 2l-8 2q-6 2 -12 5l-10 6q-4 3 -7 7q3 -3 2 -3q0 1 -2 3q-1 0 -1 1t-1 1v-5v-5q0 -9 1 -18q1 -8 1 -17q0 -28 3 -56
q-2 26 -2 21q0 -6 2 -21q1 -13 2 -25q0 -12 1 -25q1 -9 4 -22q2 -14 2 -22q-1 -3 -3 -6q-2 -2 -5 -3h-3q-1 0 -1 -2q-1 -4 0 -8t0 -7q-1 -2 -2 -3q-1 -2 -2 -3q-2 -1 -4 -1t-3 -3v-12q1 -9 -1 -11q-2 -1 -5 -1q-3 1 -5 1q-3 0 -7 -1q-3 0 -6 1q-4 1 -6 7q-3 6 -4 9
q-5 11 -8 23t-5 24q0 5 -2 9l-2 10l-4 38q2 -18 1 -14q0 4 -1 14q-3 23 -3 47q1 24 1 47v0zM76 -87q2 -6 0 0l1 -3l-1 3v0zM77 -91q0 -14 3 -27q3 -14 5 -28q1 -8 3 -16q-2 7 -1 6q0 -2 1 -6q1 -2 2 -6q1 -5 2 -4v9q-1 7 -1 10q0 6 -2 12l-4 12q-3 19 -8 38q4 -18 4 -14
q-1 4 -4 14v0zM84 308v0v0zM84 317v-3v-3q1 -1 1 1t1 5q1 4 1 8q-1 -4 0 -3v3l2 14q1 6 1 13v14q0 -7 0 -5v5v3q-1 1 -1 0q-1 -2 -1 -6q1 -3 0 -6q-1 -10 -1 -20t-3 -20v0zM92 -172v0v0zM115 250q0 -3 1 -6q0 -2 1 -5v-3l1 -1q1 3 1 7v6q0 7 1 17q1 11 -1 16v0v-1v-3v1v-1
l-2 -6q1 3 1 2l-1 -2q0 -5 -1 -10q0 -6 -1 -11v0zM121 61l1 -4q1 1 -1 4v0zM125 112q0 -9 8 -13q8 -3 15 -7q5 -4 11 -9q5 -5 11 -9q2 -1 6 -2q4 0 7 -1q12 -3 25 -4q13 0 25 2q13 2 26 7q12 4 24 9q6 3 13 5q6 3 12 7t9 13q3 8 5 15q8 16 15 33q6 17 10 35l2 8t1 8
q0 19 -4 38q-3 19 -8 37q-2 10 -5 21q-4 10 -11 18q-17 18 -37 28q-19 9 -44 11q-6 0 -13 1q-6 1 -12 0t-13 -1q-7 -1 -12 -4q-4 -1 -8 -3q-4 -1 -8 -1h-1h-1q-2 0 -4 -2q-2 -3 -3 -4q-6 -6 -12 -11l-12 -12q-3 -3 -3 -8q1 -5 1 -9q0 -11 -1 -23v-22q0 -24 -3 -48
q-2 -24 -5 -47l-2 -28q-1 -15 -4 -28v0zM261 12q10 -6 21 0t18 13q4 5 7 10q-3 -5 -2 -4q0 1 2 4q2 2 3 4l-1 -2l1 2l1 1t0 1q-3 -1 -6 -4q-3 -2 -5 -4q-6 -6 -19 -12q-12 -7 -20 -9v0zM316 356v0v0zM319 354q5 -4 0 0l3 -2l-3 2v0zM322 352q5 -6 5 -5t-5 5v0z" />
    <glyph glyph-name="q" unicode="q" horiz-adv-x="503" 
d="M64 207q2 9 4 19q2 9 4 19q1 6 4 13q2 7 3 13q2 22 9 49q8 27 23 44q7 7 15 13q9 6 18 10q7 3 14 5t13 7q20 18 46 29q27 11 53 8q18 -3 32 -17q15 -14 23 -30q1 -3 3 -6q1 -2 2 -5l6 -8t5 -8q1 -1 3 -5q3 -3 5 -3q1 1 1 3q1 3 1 4q1 3 3 6q1 3 3 6q1 3 2 7t3 7q3 5 9 6
q6 0 9 -5q1 -4 0 -7t-2 -7q-1 -3 1 -7l2 -8v-4t1 -5v1v1l2 8q0 -4 0 -3v3l4 12q1 5 3 11q4 15 10 29t14 27q4 6 11 7t11 -7q2 -6 1 -15t-1 -15q-2 -12 -2 -23q-1 -12 -2 -23l-4 -20t-3 -19q-3 -24 -7 -48q-5 -23 -8 -47q-9 -86 -19 -172q9 81 8 65q-2 -17 -8 -65
q-1 -14 -1 -28l-2 -28q-2 -22 -3 -45v-44q0 -6 2 -12q1 -7 3 -13q1 -3 3 -7q1 -4 0 -8q-1 -2 -4 -4q-2 -2 -2 -4q-1 -5 -4 -9t-9 -2q-2 1 -3 2q-1 2 -2 3q-2 1 -4 1q-1 0 -3 2q-1 1 -2 4l-2 2q-2 -9 -1 -18t1 -18q-1 -5 -5 -7q-4 -3 -8 -1q-4 1 -5 3q-2 3 -2 6l-2 16
q-1 7 -1 15v27t-2 27q-1 16 -1 34q1 19 1 35q0 9 -1 17q0 8 -1 17q0 2 -1 6q0 4 -2 5q-3 0 -10 -1t-11 -1q-14 0 -28 1q13 -1 10 -1q-2 0 -10 1q-2 0 -4 1h-4q-4 -1 -7 -3q-4 -2 -7 -3q-9 -4 -24 -6q-15 -3 -23 -3q-10 1 -20 3q-9 2 -19 5q-7 3 -13 7q-6 3 -13 6q-5 2 -10 1
q-5 0 -9 3q-4 4 -3 9q2 4 -1 8q-27 28 -43 69t-16 80v0zM104 211q1 -7 3 -13q-2 6 -1 5q0 -1 1 -5q1 0 1 -1t1 -1q1 1 1 2v3q2 7 3 14q-1 -7 -1 -5q0 1 1 5l8 24q5 13 10 24q10 24 27 45t35 38q5 6 11 10q7 4 12 10q1 0 -1 0q-1 -1 -2 -1q-5 -1 -3 -1q2 1 -2 -1
q-6 -3 -12 -7q5 3 4 3q-1 -1 -4 -3q-10 -7 -17 -14l-16 -16q-23 -24 -37 -53q-15 -30 -22 -62v0zM123 168l10 -16t12 -15q7 -9 15 -17l16 -18q4 -5 9 -10q6 -5 11 -9l3 -3q2 -1 3 -2q2 1 8 6t8 7q13 11 19 22q7 10 13 26q7 15 12 31q6 17 9 34q3 21 0 50t-9 51q-2 11 -5 21
q-3 11 -9 20q-1 3 -4 6q-2 4 -5 4q-4 0 -8 -4t-7 -6q-13 -9 -24 -20t-20 -23q-9 -11 -18 -24q-8 -12 -14 -26q-8 -19 -14 -39q6 18 5 15q-2 -4 -5 -15q-1 -3 -2 -7q0 -3 -1 -6t-2 -5t-2 -5q-1 -11 -4 -23q3 11 2 9q0 -2 -2 -9v0zM131 122q2 -9 6 -15t12 -10q1 -1 4 -3
q3 -3 5 -2l-1 1l-1 1q-4 4 -8 9q4 -4 3 -4q-1 1 -3 4q-4 4 -8 10q-4 5 -9 9v0zM210 398q9 -2 18 -1t18 0q6 -1 11 -3q5 -3 10 -3q4 1 7 2q4 1 7 1h2q1 -1 2 0q0 1 -1 2l-2 2q-1 4 -5 8t-8 5q-16 2 -31 -1q-15 -4 -28 -12v0zM243 87q4 1 9 4q4 3 7 6t7 6t7 6q4 4 7 8q3 5 6 9
q16 18 21 35q5 16 7 40q1 10 1 22q1 11 0 22q-2 18 -4 35q-3 18 -10 34q-5 12 -10 23q-6 12 -15 21l-6 6q-3 4 -7 5q-1 0 -2 -1q-2 0 -3 -1q0 -1 2 -4l3 -3q3 -4 6 -10q3 -5 4 -10q5 -16 9 -32q3 -16 5 -33q2 -14 4 -30q2 -17 1 -31q-3 -28 -13 -54q-9 -27 -21 -51
q-2 -6 -7 -11q-4 -6 -8 -11v0zM295 71q2 0 5 2q2 2 4 3l11 11t9 12q1 1 1 5t-1 4q-2 -1 -5 -5l-3 -6q-4 -7 -10 -14q-5 -8 -11 -12v0zM300 360q3 -5 7 -10q-3 4 -3 3q1 0 3 -3q0 -1 1 -3q0 -2 1 -1t0 2q-1 2 -2 2q-1 4 -2 6q-1 3 -5 4v0zM301 49q5 -1 10 -1q6 1 11 2h3h3
q1 3 0 8t-1 8v2q0 2 -1 2t-3 -3l-3 -3q-9 -8 -19 -15q9 7 7 5q-2 -1 -7 -5v0zM309 346v0v0zM310 345v0v0zM311 343v0v0zM376 122q0 -5 0 -4v4v0zM376 137v-7v3v-3q0 -3 1 -5q0 -2 0 -1q1 1 1 3q-1 1 -1 3l2 8v8l-1 -1t-1 -2v-3v1v-1q0 -2 -1 -3l1 1l-1 -1v0zM409 374l2 -3
q1 -2 2 -1q2 2 2 7v7v6q0 -3 0 -2v2q1 1 1 3q0 1 -1 1q0 -1 -1 -3q-1 -3 -1 -4l-2 -6q1 3 1 2l-1 -2q0 -2 -1 -3q-1 -2 -1 -4v0z" />
    <glyph glyph-name="r" unicode="r" horiz-adv-x="487" 
d="M98 214q0 52 6 103q6 52 16 103q2 12 5 24q2 12 6 24q2 6 6 9t10 0q6 -5 6 -14q-1 -9 -2 -16l-2 -28q0 -14 -1 -28q-1 -4 -2 -11t0 -10q0 -2 2 -2h2q1 -1 3 -4q3 -2 3 -3q3 2 7 6q3 3 9 -2q4 -5 3 -12t-2 -12v-3q-1 -2 0 -3t2 0l2 2q4 4 8 9q-4 -4 -3 -3l3 3q8 9 17 17
q8 9 18 16q18 12 37 20q-18 -8 -14 -6q3 2 14 6q4 2 8 3q5 1 9 3q15 6 31 9q15 3 31 2q10 -1 21 -4t18 -11q2 -2 3 -6q1 -3 0 -6q-1 -1 -3 -4q-3 -2 -3 -3q1 -1 2 -1q2 0 3 -1q4 -3 8 -7q4 -5 4 -10t-2 -9t-8 -5q-5 0 -11 2q-6 1 -11 2q-25 3 -50 3q24 -1 19 -1q-5 1 -19 1
h-16q-8 -1 -14 -3q-17 -6 -32 -14q-16 -8 -31 -15q-7 -4 -14 -7q-8 -4 -13 -9q-4 -4 -6 -10t-4 -10q-4 -8 -9 -19q-5 -12 -6 -19q-2 -12 -2 -27t1 -27v-13q-1 -7 0 -13q2 -21 3 -42t3 -41q2 -19 6 -38t8 -37q2 -6 1 -13t-9 -7q-3 0 -5 2q-2 1 -3 3q-1 1 -2 4q-1 2 -2 3
q-1 -1 -1 -2q0 -2 -1 -3q-2 -2 -5 -3t-7 0q-3 1 -4 4l-4 4q-3 1 -5 1q-2 1 -4 3q-6 8 -8 21q-3 13 -5 23q-1 6 -3 13q-2 6 -3 13l-4 24q-2 13 -3 25q-6 43 -6 87q2 -41 1 -33t-1 33v0zM135 239q-1 -1 -1 -3t1 -1q3 3 3 10q-1 7 -1 11v3v-1v1v5q0 2 -1 1q-1 -2 -1 -4
q1 -1 1 -3v-10t-1 -9v0zM247 367q14 1 33 8q19 8 35 12q5 1 10 1q5 1 11 1h5h4q1 1 0 1v1q-2 1 -6 1q-3 1 -5 1q-12 0 -23 -1q11 0 8 1q-2 0 -8 -1q-19 -2 -34 -8q-15 -7 -30 -17v0z" />
    <glyph glyph-name="s" unicode="s" horiz-adv-x="447" 
d="M63 0q1 3 2 5q0 3 2 5q3 2 7 3q5 1 8 1q8 1 15 2l14 2h7t6 1h6q-3 0 -2 0h2l1 1v0q-3 2 -11 4q-9 1 -13 5q-3 3 -4 6t1 8q0 1 1 1q2 1 2 2l-1 1h-1q-4 3 -8 5q4 -2 3 -2q-1 1 -3 2q-7 5 -15 11q-7 6 -11 13q-1 4 0 9q1 4 6 6q8 1 17 -5q9 -5 14 -11q5 -4 13 -9
q7 -4 14 -7q8 -4 15 -9q7 -6 16 -9q1 -1 3 -2h4q3 0 5 1q2 2 4 3q10 7 20 13q-10 -6 -8 -5q2 2 8 5q19 13 40 23q21 11 43 20q5 2 11 5q5 3 11 6l4 2q3 1 4 2q2 4 1 12t-4 10q-4 2 -9 3l-10 2q-26 6 -52 13q24 -6 19 -5q-4 1 -19 5l-12 2q-7 2 -12 4q-4 2 -9 3q-4 1 -8 3
q-8 3 -14 8q-7 6 -13 12q-4 5 -8 11t-9 11q-2 3 -3 6q-2 4 -5 6t-7 1q-5 -1 -8 0q-10 1 -19 4q9 -3 7 -2q-2 0 -7 2q-6 3 -9 10q-4 6 -5 13v7q0 5 -2 7q-1 2 -3 3t-4 3q-6 6 -10 15t-5 17q0 8 4 17q4 8 10 14q2 3 6 6q3 3 5 6q3 7 7 13t11 9q3 1 7 3q4 1 6 4q4 4 7 8
q4 5 8 9t9 6q5 3 10 5t10 5q6 3 11 3q11 2 21 2q11 1 21 2q5 1 9 0h8q11 2 21 5q11 4 22 5q16 2 32 2q15 0 32 -2q5 0 11 -1q6 0 10 -4q5 -6 4 -12q-2 -6 -9 -8q-9 -2 -17 -3l-18 -2h-10q-5 1 -9 0q-124 -30 -121 4t124 -6q1 0 2 -1h3l14 -6q-7 3 -5 2q1 -1 5 -2
q9 -4 17 -11q8 -6 15 -13q4 -5 3 -11t-6 -9q-12 -4 -28 -1q-16 2 -28 4q-33 3 -65 7q30 -3 24 -3q-6 1 -24 3q-9 1 -18 1q-8 0 -17 1q-8 1 -17 1q-8 0 -17 1q-3 1 -5 3q-3 1 -4 2q0 -1 -1 -3q-2 -2 -2 -3q-3 -7 -6 -15t-5 -16q-3 -12 -5 -24t3 -24q2 -4 7 -5q4 -1 8 -3
q12 -5 27 -13q14 -7 27 -9q11 -1 22 0q12 1 23 -3q3 -1 5 -3q3 -2 3 -5q0 -2 -1 -4v-4q1 -2 5 -4q3 -2 5 -3q3 0 5 1q3 1 6 1l6 -2l6 -2q9 -5 15 -13q7 -9 13 -16l16 -16q-7 8 -6 6l6 -6t5 -9t5 -8q3 -4 7 -6t7 -7v-5q-1 -3 0 -5l2 -6q2 -2 3 -5q3 -7 5 -16q1 -8 0 -16
q-1 -6 -3 -12q-3 -6 -7 -10l-6 -4t-6 -5q-2 -3 -5 -6q-2 -4 -5 -7q-4 -5 -11 -9q-6 -4 -12 -7q-4 -1 -7 -3l-6 -4l-16 -6q7 3 6 2q-2 -1 -6 -2q-3 -1 -8 -3q-6 -1 -7 -2t0 -3v-2q0 -2 -1 -5q-1 -2 -3 -3q-9 -3 -19 -2t-19 1h-42q-21 -1 -42 -1q-16 1 -34 1q-17 0 -34 -2
q-8 -2 -16 -2t-11 9v0zM96 303q1 -4 2 -7q-1 3 -1 2l1 -2q1 -1 2 -5q1 -3 2 -3q3 3 3 11q0 7 -1 11v3t-1 2t-3 -3t-2 -4q-2 -4 -2 -2q1 1 0 -3v0zM121 250q1 -5 2 -6q2 -2 6 -3h4q3 -1 3 0q-1 3 -7 5q-5 3 -8 4v0zM127 308v-3l1 -2v-1t1 0t1 4v4q1 6 3 12t3 11q1 2 3 5
q1 4 1 5q-1 1 -1 -1q-1 -1 -1 -2q-1 -2 -2 -5l-2 -4l-4 -12q-2 -5 -3 -11v0zM140 346v0v0zM184 205q15 -20 40 -27q26 -7 50 -12l10 -2q6 -1 11 -3q1 0 4 -1l4 -1q1 1 0 3l-2 2q-6 4 -12 7l-12 8q-3 2 -7 5q-3 3 -7 4q-4 2 -10 3q-5 0 -10 1q-8 1 -17 2q-8 2 -17 3
q-7 1 -13 3q-6 3 -12 5v0zM195 222q4 -3 9 -4q4 0 9 -1q1 -1 3 -1q2 -1 2 1q0 1 -2 1q-1 0 -2 1q-5 3 -9 3h-10v0zM202 372q6 -1 13 -1q6 0 12 -1l26 -2l26 -2q16 -2 33 -4q-16 2 -13 1q3 0 13 -1q1 -1 2 -1h-1h1q2 0 6 -1h4q0 1 -2 2q-3 2 -4 2q-4 2 -8 5q-5 2 -9 4
q-24 9 -49 7q-26 -1 -50 -8v0zM243 58q10 0 28 6q17 5 28 10q3 1 8 6q5 4 4 8h-1h-1q-4 -1 -7 -3q-4 -2 -7 -4q-8 -4 -17 -8q-9 -3 -17 -7q-5 -2 -9 -4q-5 -3 -9 -4v0zM318 54q2 -1 3 0l2 2q6 2 10 6q4 3 5 9v7q0 4 -2 5q-1 -1 -2 -3l-2 -3q-1 -2 -3 -3l-2 -2q-3 -5 -5 -9
q-1 -5 -4 -9v0z" />
    <glyph glyph-name="t" unicode="t" horiz-adv-x="452" 
d="M42 387l1 2q0 3 1 3q2 3 5 4q3 0 6 1q9 0 17 1q9 0 17 1h3h4q1 1 -5 3t-7 3q-4 2 -5 7t3 8q3 3 8 4l10 2q22 2 44 2q-21 -1 -17 -1q4 1 17 1q3 0 10 -1h9q1 1 2 3q0 3 1 4q2 12 5 24q-2 -11 -2 -9q1 2 2 9q2 6 4 13q1 7 4 13q1 3 5 7t5 6l4 20q2 11 4 21q1 7 5 13
q3 7 12 4q6 -4 7 -13v-16q2 -17 3 -34l2 -34q-1 -12 0 -23q0 11 0 9v-9v-5q-1 -3 0 -5q1 -1 4 -1h5h9h10q10 -1 19 -1q10 0 19 -1q13 -1 26 -1q12 -1 25 -1q7 1 18 1q10 0 13 -8q0 -3 -1 -7q-2 -3 -5 -4q-1 -1 -2 -1h-3v-1l1 -1q1 -2 1 -4q1 -3 0 -5q-2 -5 -7 -6q-5 0 -7 -2
q-1 -3 -1 -5q0 -3 -2 -5q-4 -3 -10 -3q-5 0 -10 1h-30q-16 1 -31 1q-7 0 -15 -1q-8 0 -15 1q-2 0 -6 1q-4 0 -5 -2q-1 -4 0 -11v-12q0 -13 1 -28q0 -15 -1 -28q-2 -14 -2 -28v-30q-1 -51 10 -99q10 -48 43 -89q3 -4 9 -9q5 -5 10 -7t10 0l10 2q15 3 30 7q16 4 31 8q9 2 21 4
t12 -11q-1 -7 -8 -9t-12 -4q-7 -3 -15 -7q-7 -3 -14 -7q-3 -1 -7 -1q-3 -1 -6 -3q0 -1 2 -2l3 -1q8 -3 15 -5q-7 2 -6 2q2 -1 6 -2q6 -3 7 -10q2 -6 -3 -11q-2 -3 -6 -3h-6h-18t-18 1q-33 4 -63 17q-30 14 -53 38q-5 7 -11 14t-10 14l-6 10q-3 4 -5 9q-4 11 -7 21
q-3 11 -7 21q-9 19 -13 39t-7 41l-2 20t0 21q3 21 4 43l4 44q1 6 2 13q1 6 3 12q1 4 2 9q2 4 1 8q0 3 -3 2q-2 0 -4 -1h-11h-11q-8 0 -17 -1h-16q-4 0 -6 2q-1 3 -4 4h-7h-6q-10 -1 -18 -1q-8 1 -11 11v0zM154 408l5 -1q1 1 -5 1v0zM164 200v0v0zM175 358q0 -13 -1 -26
q-1 -14 1 -27q0 -2 2 -4t2 -4q1 -4 -1 -7t-3 -6q0 -6 1 -12l2 -12q1 -9 1 -18q1 -10 2 -19l2 -12q-1 6 -1 5t1 -5v-3t1 -2v4q-1 4 -1 5q1 16 -1 32q1 -15 1 -12t-1 12q-1 10 -1 20q1 10 1 20v28t1 28q1 10 2 21q-1 -10 -1 -8t1 8v4q1 3 -1 4q-6 3 -8 -3q-1 -6 -1 -11v0z
M218 115q0 -12 3 -24q3 -11 5 -23v-5q-1 -2 -1 -4t2 -3t3 -2q4 -2 12 -7q7 -5 11 -6q1 1 -1 5q-3 3 -3 4l-12 18q5 -8 4 -7q-1 2 -4 7q-6 9 -9 18q-3 10 -7 19q-1 3 -2 5q0 3 -1 5v0zM282 7q3 -2 10 -5q7 -2 12 -2q2 -1 3 -1q2 -1 3 0q0 1 -4 2q-5 1 -6 1q-5 2 -9 4
q-4 1 -9 1v0zM311 -1v0v0z" />
    <glyph glyph-name="u" unicode="u" horiz-adv-x="482" 
d="M61 220q1 7 1 15q1 8 1 15l4 20q2 9 4 19q0 8 1 15q0 8 1 16t3 17q1 9 2 17q1 13 1 26t4 25q2 3 4 5l4 4q3 7 5 15q3 9 14 9q5 0 9 -4t4 -9q0 -1 -1 -8q-1 -6 -1 -7l4 2t4 1q5 0 9 -3q5 -3 6 -8q0 -9 -4 -18q-3 -9 -3 -21q2 -20 3 -40q0 -21 1 -41v-17q0 -8 1 -16
q1 -16 1 -33q-1 -17 1 -34q1 -14 2 -29q1 -14 3 -28q1 -7 2 -15q0 -7 3 -13q2 -3 8 -5t10 -4q12 -7 31 -13q18 -6 33 -5q4 0 7 5q4 4 6 8q10 13 18 27q9 13 16 28q4 9 9 17q5 9 9 18q4 10 7 20q4 11 8 21q1 3 4 11t3 11q-1 3 -3 5q-3 2 -3 5q-3 21 -1 42q2 20 4 41q1 6 3 13
t3 14q1 8 4 17q2 9 5 17q4 12 9 28t20 16q3 -1 5 -3q3 -2 4 -5l1 -2q0 -2 1 -2t3 1l3 3h5q2 -1 4 -1t3 5q1 4 2 6q5 7 13 5q8 -1 11 -9q3 -7 1 -16q-1 -9 -3 -17l-6 -50q3 24 3 19q-1 -5 -3 -19q-1 -9 -3 -18l-4 -18q-2 -16 -6 -32q-4 -17 -8 -33l-4 -16q-3 -8 -4 -16
q-3 -35 -12 -70q-9 -34 -26 -66q-4 -8 -9 -16q-4 -8 -10 -15l-9 -9t-8 -10q-1 -1 -1 -2v-3q-2 -4 -6 -7l-8 -6q-7 -6 -17 -10l-18 -8q-19 -8 -41 -14q-21 -6 -43 -1q-7 1 -15 5q-9 3 -14 8q-3 2 -6 6q-3 3 -6 5t-7 3t-7 3q-10 4 -20 11q-11 6 -18 13q-6 7 -10 19
q-3 12 -4 20q-2 14 -2 29v29v11q1 5 0 11t-2 13q-1 6 -2 13q-1 10 -1 21q1 10 1 21v0zM109 269q0 -16 -1 -31q0 -16 2 -31q1 -10 3 -20q-1 9 -1 7t1 -7l2 -8q-1 4 0 3v-3q1 -1 1 -2v0q1 1 0 3q0 1 -1 3v8v8q-1 4 0 10v9q-1 11 -1 21q-1 11 -1 21v17q0 -8 0 -6v6q1 2 1 4
q0 1 -1 3l-1 -1q0 -2 -1 -4l-2 -10q1 5 1 4t-1 -4v0zM307 125q5 3 10 12t9 14q1 2 4 5q2 3 2 5t-2 3t-3 0q-2 -1 -2 -4q-1 -3 -2 -5q-3 -7 -7 -15t-9 -15v0z" />
    <glyph glyph-name="v" unicode="v" horiz-adv-x="482" 
d="M45 352l2 6q0 4 2 7q1 2 3 4q2 1 3 3v5q-1 2 -1 4q1 7 4 13q3 5 10 7q7 0 11 -3q5 -3 8 -8l4 -6q-2 3 -1 2l1 -2q1 -1 1 -3q1 -1 2 -1v1q-1 1 -1 2l-2 14q1 -6 1 -5q-1 1 -1 5q-2 12 -3 27q-2 15 6 23q6 6 13 2q6 -4 10 -10q6 -10 12 -28t9 -30l6 -24q3 -13 8 -25
q4 -12 6 -24q3 -13 7 -25q4 -11 6 -23l6 -24q6 -20 13 -39q7 -20 15 -39q5 -12 11 -25q6 -12 12 -25q3 -6 7 -12q-4 5 -3 4t3 -4v-2t1 -1v1q1 1 1 2l2 6l2 6q8 25 17 49q-8 -23 -7 -18q2 4 7 18q11 32 26 62q16 31 33 60q3 6 5 11q3 6 5 12q4 10 9 20l10 20q4 8 11 19
q8 12 14 16q2 2 4 2q3 1 5 2q9 11 15 23q7 12 16 22q6 6 13 5q8 -1 11 -9q2 -9 -3 -17q-5 -7 -7 -15q0 -2 1 -3q2 -1 3 -2q2 -6 2 -11q-1 5 0 4v-4q-1 -7 -4 -14l-6 -14q-4 -9 -7 -19q-3 -9 -7 -19q-2 -5 -3 -10l-4 -10q-9 -21 -16 -43t-15 -44q-3 -6 -4 -12q-2 -7 -4 -13
q-7 -15 -11 -32q-5 -16 -11 -32l-6 -14q-2 -8 -4 -15q-2 -8 -5 -15q-3 -8 -5 -15q-5 -22 -12 -43t-15 -42q-2 -8 -8 -16q-5 -8 -13 -9q-13 -1 -14 8q-2 9 -3 18q-1 3 -4 5q-4 2 -5 6q0 5 2 11q2 5 1 9q-1 1 -4 3t-4 2q-1 -1 -1 -6v-6q0 -7 -4 -11t-11 -3q-9 1 -11 7
q-1 5 -3 12l-4 10t-7 9q0 1 -2 3l-2 2q-1 -1 1 -4q1 -3 2 -4l6 -14q-3 7 -2 5q0 -1 2 -5q3 -6 7 -11q4 -6 6 -12q1 -9 -4 -14t-13 -4q-6 2 -10 8q-3 7 -6 12q-10 15 -17 34q-8 20 -15 37q-6 14 -11 29t-12 30q-2 6 -3 11q-2 6 -4 11t-6 9q-3 5 -6 9q-5 11 -11 21t-11 20
q-17 39 -29 79q-13 40 -14 83v0zM255 60v-4q1 -3 2 -3t1 1v2q2 7 2 14q-1 -7 0 -6v6l2 8l-1 -3q0 1 1 3v3v-1v1v2v0q-2 -3 -4 -11q-1 -8 -3 -12v0zM286 41v0v0zM287 44v0v0zM287 46h1v-1q1 2 2 6q2 4 2 7q1 5 3 11q1 6 4 12q3 8 5 16t5 16q4 8 7 17t5 17q1 5 3 10l4 10
q0 2 1 4q1 1 1 3q1 1 1 3v1q-4 -13 -9 -26l-10 -24q-3 -8 -5 -16q-1 -7 -4 -15q-5 -12 -9 -25q-3 -13 -7 -26v0zM332 180v0v0z" />
    <glyph glyph-name="w" unicode="w" horiz-adv-x="485" 
d="M7 338q1 4 1 9t1 9q1 10 3 19q2 10 6 18q2 4 5 7q4 3 8 3h4q3 -1 4 1v4q-1 3 -1 5q-1 11 -2 28q0 18 15 18q9 -1 11 -8q2 -6 3 -14q1 -11 1 -22t1 -22q2 -12 2 -24l2 -24q2 -13 6 -24q4 -12 6 -24q3 -23 8 -46q6 -23 9 -46q0 -5 2 -10q1 -4 2 -9q2 -17 8 -35
q5 -19 11 -35q4 -9 8 -19q-4 9 -3 7q0 -2 3 -7v-2q1 -2 2 -2l1 3v4q1 10 3 20q-2 -9 -1 -7q0 2 1 7q1 15 4 30t5 30q1 8 3 15q2 8 3 15q2 11 5 21q3 11 7 21q2 7 4 15t5 15l18 46q8 24 17 47l10 22q5 12 12 22q3 5 8 8q5 4 11 3q4 -1 6 -3l4 -6q2 -2 6 -2q3 -1 6 -3
q6 -7 7 -20q2 -13 4 -22q3 -13 5 -26q2 -14 4 -27q13 -62 29 -123q-14 58 -12 46q3 -12 12 -46q3 -15 7 -29q3 -15 7 -30q1 -4 2 -9t2 -9q1 -3 1 -6t1 -5q1 -1 2 -1h-1h1q1 3 3 12q2 8 2 12q5 16 9 32t7 32q2 12 6 24l6 24l12 82t19 81q2 9 5 17l8 16q2 4 4 9q3 4 7 7
q2 1 6 1t7 -1q1 0 3 -3q3 -2 4 -2l1 3q1 2 2 3q6 5 13 4q7 -2 11 -9q1 -5 1 -11t-1 -11q0 -32 -4 -62q3 28 3 23q-1 -6 -3 -23q-4 -40 -11 -81q-8 -40 -21 -78q-4 -12 -9 -24t-10 -23t-10 -21t-7 -21q-5 -25 -12 -48q6 22 5 18q-1 -5 -5 -18q-2 -8 -4 -15q-2 -8 -5 -15
q-2 -6 -4 -14q-2 -7 -9 -10q-2 -1 -5 -2q-3 0 -6 1q-1 1 -3 2q-1 2 -2 2q-2 0 -2 -4q-1 -4 -1 -6q-2 -3 -5 -5t-7 -3q-3 0 -6 1t-5 4l-2 2q0 1 -1 2h-5q-3 0 -6 1q-8 6 -13 18l-7 21q-16 47 -25 97t-14 98l-4 32t-2 31q0 5 -2 10l-2 10q0 1 -1 6t-2 5q-3 -3 -6 -9t-4 -10
q-4 -10 -8 -19l-6 -20l-2 -8l-2 -8q-5 -14 -8 -28q-3 -15 -8 -29q-4 -11 -8 -24q-3 -13 -4 -26q-2 -11 -5 -21q-3 -11 -5 -22l-6 -56q3 26 2 21q0 -6 -2 -21q-1 -8 -2 -17q-1 -10 0 -18q1 -6 5 -11t4 -12q0 -3 -2 -5q-1 -2 -3 -4q-1 -1 -2 -1t-2 -2q0 -1 1 -2t1 -2
q1 -4 0 -9q-1 -4 -4 -7q-7 -6 -15 -3t-14 8q-17 12 -29 30q-12 17 -23 34q-10 17 -19 35l-16 36q-22 53 -33 110q-11 58 -11 116v0zM35 318q0 -46 10 -92t26 -89q8 -24 20 -47q-10 22 -8 17q2 -4 8 -17q2 -4 4 -9t5 -8q0 -1 0 1v2l-4 6q2 -3 2 -2l-2 2l-8 18q4 -8 3 -6
q-1 1 -3 6q-6 13 -11 27q-4 13 -8 27q-9 28 -14 57q-6 30 -9 59q-1 5 -2 11q-2 5 -3 10q-2 7 -3 14q-1 6 -3 13v0zM101 72v0v0zM102 71v0v0zM102 70v0v0zM103 68q2 -4 0 0l1 -2l-1 2v0zM104 66v0v0zM105 65v0v0zM105 64v0v0zM107 62v0v0zM107 60v0v0zM109 58v0v0zM109 57v0
v0zM111 55v0v0zM111 54v0v0zM113 52v0v0zM115 48v0v0z" />
    <glyph glyph-name="x" unicode="x" horiz-adv-x="492" 
d="M36 548q1 5 1 9q0 5 1 9q2 8 9 13t14 -2q5 -5 9 -18q4 -12 6 -20q0 -3 1 -8t3 -7q4 -1 8 -1q5 1 10 -4q11 -12 17 -28t12 -31q7 -17 12 -34q5 -18 12 -35q7 -16 15 -31q-7 14 -6 12q2 -3 6 -12l2 -4q2 -2 3 -4q2 -6 6 -12l8 -10q3 -3 4 -6l4 -6q6 -6 11 -14q5 -7 11 -14
q2 -2 7 -8q4 -6 7 -7q2 0 3 3l3 6q4 9 10 17q7 9 12 17q14 21 30 42q15 22 32 41q10 11 19 22q9 12 20 22q5 5 13 6q7 1 13 -4l2 -4q0 -2 1 -3q1 0 3 1q3 1 4 1q6 1 11 -3q5 -3 6 -10q0 -7 -5 -12t-10 -9q-3 -4 -5 -8q-3 -4 -6 -7q-2 -3 -4 -5q-1 -2 -3 -5h-2v-1q0 -1 2 0
q1 0 2 1q5 2 8 4t6 5q9 9 19 18t20 16q6 3 13 1q6 -3 8 -10q2 -5 -1 -9t-7 -8q-9 -8 -17 -18q-9 -10 -18 -19q-27 -28 -52 -58q-25 -31 -50 -61q-13 -15 -25 -30q11 14 9 11q-3 -3 -9 -11q-2 -2 -5 -6l-5 -5q0 -2 3 -5q2 -3 4 -5q5 -7 11 -13t11 -14q15 -28 36 -51l42 -46
q5 -7 12 -13l12 -12q6 -8 13 -15t14 -15q4 -3 7 -7q3 -3 2 -9q-3 -11 -12 -12q-9 0 -17 5l-5 5q-4 3 -6 2q-3 -2 -2 -4l2 -4q1 -5 -2 -10t-8 -6q-10 -2 -18 7t-14 16q-12 11 -23 24q-10 12 -21 25q-9 11 -19 21q-10 11 -19 23q-9 11 -18 21l-18 22l-4 6l-4 6q-1 1 -1 2
q-1 1 -2 0q-2 -1 -4 -5t-4 -6q-7 -8 -12 -17q-6 -9 -13 -18q-7 -8 -13 -17q-7 -10 -13 -19q-3 -4 -5 -8l-6 -8q-7 -8 -12 -17q-5 -10 -12 -18q-7 -7 -12 -16q-6 -8 -11 -17q-4 -4 -7 -9q-4 -5 -7 -10q-2 -4 -5 -9t-7 -8q-6 -4 -12 -4q-7 0 -11 7q-4 6 -1 14q2 8 5 14
q0 1 2 3q1 2 1 4q-1 1 -4 1h-6q-3 2 -5 5q-3 3 -3 7q-1 4 2 8l4 8q6 9 11 19q-5 -9 -4 -7t4 7l4 6l4 6q5 11 13 22q7 10 13 21q8 17 21 34q13 18 24 33q7 10 14 21q7 10 16 19q2 2 3 5q1 2 3 5q3 3 5 6q2 4 5 8q0 1 2 2q1 2 1 4q0 1 -3 3q-2 2 -4 2q-5 4 -9 7q-5 4 -9 8
l-13 13q-6 7 -13 14q-4 4 -7 9t-7 9q-6 7 -11 15q-4 8 -10 14q-6 7 -12 17q-5 9 -10 17q-17 24 -28 48q-11 23 -18 52q-2 6 -3 13q-2 7 -3 14q-2 17 -2 35v35v0zM74 446v0v0zM75 445v0v0zM75 443q3 -10 6 -19l8 -18q1 -3 3 -6q2 -4 4 -7l-1 2q0 3 -1 3q-3 6 -5 12q2 -6 2 -5
q-1 2 -2 5q-3 8 -6 17q-4 9 -8 16v0zM97 393v0v0zM98 391v0v0zM98 390v0v0zM100 388v0v0zM100 387v0v0zM101 385v0v0zM191 264q5 -4 0 0l3 -2l-3 2v0zM195 261q2 -3 3 -2l-3 2v0zM250 174q1 -5 6 -9q5 -3 8 -7q3 -2 5 -5q-2 3 -2 2q1 0 2 -2l2 -2l1 -1q1 2 -1 4t-2 3l-10 16
q5 -8 4 -6q-2 1 -4 6q-1 1 -2 3l-2 3q-1 0 -3 -2q-1 -3 -2 -3v0z" />
    <glyph glyph-name="y" unicode="y" horiz-adv-x="457" 
d="M31 410q2 7 7 12q5 4 13 1q3 -2 7 -7q5 -5 6 -4q0 3 -1 9q-2 6 -2 11q3 11 13 12t16 -8q5 -11 10 -23t9 -24l4 -12q-2 6 -1 5q0 -1 1 -5q1 0 1 -2q1 -2 1 -3q1 0 3 3q3 2 4 3q3 1 7 1q4 -1 7 -2q8 -7 12 -22q5 -16 6 -26q1 -5 2 -9q2 -5 2 -10l2 -16q1 -9 2 -17
q2 -17 8 -33l12 -32q7 -19 12 -37l12 -38q3 -8 6 -17q2 -9 7 -16l16 -24q-8 11 -6 9q1 -2 6 -9l3 -3q3 -2 4 -2q2 2 4 7q1 6 3 9q3 8 7 16t7 16q2 4 3 8q1 5 3 9q4 9 7 18t7 17l16 38q8 18 14 38q5 15 7 31q2 15 7 31q8 20 16 39q-8 -18 -6 -14q2 3 6 14q6 12 11 24
q6 12 11 24l4 10q3 5 8 8q5 2 10 0q6 -1 8 -6q0 -1 1 -4q0 -4 1 -4l1 2t3 4q3 2 7 3t8 0q6 -2 8 -8q2 -5 0 -11q-4 -9 -9 -18q-6 -10 -10 -19l-6 -12l-6 -12q-3 -7 -5 -15q-3 -7 -5 -14q-2 -5 -4 -11q-1 -5 -3 -10q-2 -4 -5 -8q-3 -3 -5 -8t-3 -10t-3 -10q-6 -14 -10 -29
l-10 -30q-2 -3 -3 -7l-2 -8q-6 -15 -11 -30q-5 -16 -11 -31q-1 -1 -1 -4q0 -2 -1 -4q-9 -21 -16 -44q-8 -23 -17 -45q-3 -7 -4 -15q-2 -8 -5 -15q-3 -5 -6 -11l-6 -10q-8 -20 -17 -43q-9 -22 -23 -39l-10 -10q-4 -5 -9 -10q-6 -4 -12 -7q-7 -2 -11 -6t-8 -9q-3 -5 -7 -10
q-12 -13 -29 -24t-36 -10q-7 1 -13 5q-6 5 -9 12v5q-1 3 -1 4q-1 1 -5 1q-3 -1 -5 -1q-7 0 -15 1t-12 8q-4 11 3 16q6 4 15 7q10 4 21 9q-10 -5 -8 -4l8 4q24 11 48 33t39 44q4 6 7 11q3 6 7 11q1 2 3 5q1 2 1 4q0 1 -1 3q-2 2 -2 3q-4 9 -7 17q3 -8 3 -6q-1 1 -3 6
q-4 15 -7 31t-6 31q-6 29 -9 58q-3 30 -7 59q-3 24 -14 50q-10 25 -20 48l-10 20q-6 11 -11 21q-4 8 -10 15q-5 7 -9 15q-3 6 -7 11q-5 5 -8 11q-5 12 -11 22q-5 10 -9 24v0zM64 410v0v0zM196 33v0v0zM196 31l2 -10t2 -9v-3v-3q1 -1 4 4q2 4 2 5t-4 8q-4 6 -6 8v0z" />
    <glyph glyph-name="z" unicode="z" horiz-adv-x="444" 
d="M45 368q2 5 7 7q5 3 9 6q1 2 3 3q1 2 2 3q2 1 5 2q2 0 5 1q9 4 21 7q11 2 21 4q7 1 13 3q7 2 13 3q11 2 22 3q11 2 22 3q10 1 21 1h21q3 0 6 1h6q9 -1 19 -2q9 -1 18 -1q10 1 19 2q10 1 20 3q4 0 9 1q4 1 8 0q7 -4 7 -10q1 -6 5 -11q10 -7 16 0t12 12q6 3 13 1q7 -1 9 -8
t-2 -11q-3 -4 -7 -8t-7 -9l-6 -8q-2 -3 -5 -5q-3 -3 -4 -6q-1 -4 0 -8q2 -4 1 -9q-2 -4 -6 -7q-3 -4 -6 -7q-2 -2 -3 -4t-2 -5q-6 -8 -13 -16q-7 -9 -13 -17q-2 -2 -4 -5q-1 -3 -3 -5q-3 -5 -7 -10q-5 -5 -8 -10l-8 -14t-9 -13q-8 -9 -14 -19t-14 -19q-10 -13 -19 -26
q-9 -14 -16 -28q-2 -5 -6 -9q-3 -4 -6 -9q-12 -21 -24 -41q11 19 9 15t-9 -15l-6 -10q-3 -4 -5 -9l-2 -2t0 -2q1 -2 7 -1t8 2l48 12q-22 -6 -18 -5q5 2 18 5l16 2q9 0 17 1q20 2 40 2q20 1 40 1q10 0 18 -2q8 -3 11 -13q0 -2 1 -4q0 -2 -1 -5q-1 -2 -3 -3q-3 -1 -4 -2
q-2 -3 -4 -5q-1 -3 -3 -5q-7 -6 -18 -9q-12 -3 -20 -6q-27 -11 -58 -17q-30 -5 -59 -8h-9t-9 2l-3 3q-2 2 -5 2q-8 1 -16 0l-16 -4q-9 -2 -18 -5q-8 -3 -18 -5q-5 -2 -11 -4q-6 -3 -12 -3q-2 0 -5 2l-4 2q-4 1 -11 4q-6 2 -8 7q-2 12 4 20t12 17q0 1 2 3q1 2 1 3v3v3
q3 7 12 18q8 12 13 19l14 20q-7 -9 -5 -8q1 2 5 8q2 2 5 4q3 3 4 6t0 5v5q3 6 7 11q5 6 8 11q12 18 23 37q-10 -18 -8 -14q2 3 8 14q3 5 7 10q5 5 8 11q9 17 22 37q12 20 25 35q5 6 9 14q4 7 9 13q12 15 23 30q11 16 21 32q6 8 12 14q-6 -6 -5 -5l5 5l2 2l2 2q-1 1 -7 2
q-6 2 -8 2q-12 1 -24 -1t-23 -5q-11 -2 -23 -4q-11 -2 -23 -3l-14 -2l-14 -2q-21 -3 -41 -5q-21 -3 -42 -5q-15 -2 -31 -2q15 0 12 0h-12h-5q-3 1 -5 2q-3 3 -3 7q-1 3 -1 7v0z" />
    <glyph glyph-name="section" unicode="&#xa7;" horiz-adv-x="461" 
d="M92 39q0 2 1 4q2 2 3 4q1 1 3 1q1 0 2 1q1 2 1 6q0 3 3 7q4 4 10 3q5 0 10 -1l20 -6q11 -2 21 -4q8 -1 17 -3q8 -2 17 -2q20 0 43 5t42 12q7 3 13 5q6 3 13 6q1 0 3 1t3 2q3 5 2 12q-2 8 -3 13q-2 8 -7 21q-6 14 -11 20l-4 2q-2 0 -3 1q-4 1 -8 4q-3 2 -7 4q-6 4 -13 9
q-7 6 -13 8q-2 1 -5 2q-2 0 -4 2t-3 4t-3 4l-4 4q-3 2 -5 3q-7 4 -19 6t-20 4q-27 10 -45 30q-19 19 -29 45l-4 12q-1 6 -2 11l-2 16v16q2 11 8 25q7 14 14 23l10 10q5 4 11 8l6 4q4 2 6 4l1 1v0v0q-1 2 -6 5t-7 5l-26 22q-13 10 -16 29q0 5 -1 10v9l2 6t0 5q0 1 -1 2l-1 2
q-1 6 0 13t3 12q9 19 25 30q17 12 35 19q8 4 17 6q8 2 17 3q31 7 59 4t55 -19q3 -1 7 -1q4 1 8 -1q3 -1 5 -5t2 -7q-1 -2 -1 -3q-1 -2 -1 -3h1q1 -1 2 -1q2 0 4 -1q3 -1 4 -3q6 -6 4 -13q-1 -8 -9 -10q-4 -1 -8 0q-3 1 -7 2l-16 4q-8 3 -15 5l-16 4q-9 3 -17 3q-12 0 -23 -2
q-12 -2 -24 -3l-14 -2t-13 -4q-6 -2 -11 -4t-10 -5q-6 -7 -8 -18t0 -20q0 -6 4 -9t9 -7q8 -5 16 -11l14 -12q4 -4 9 -4h10q7 -1 15 -2q7 -2 14 -5q3 -1 5 -3q3 -2 6 -3q10 -4 20 -9q10 -4 18 -12q4 -4 7 -8q3 -5 6 -9l6 -4q3 -1 6 -4t7 -6t7 -6q3 -4 5 -8q2 -5 4 -9
q5 -12 9 -24q3 -12 6 -25q1 -5 3 -12q2 -6 2 -12q-1 -9 -6 -10q-4 -1 -7 -4q-1 -2 -1 -5q-1 -3 -1 -5q-3 -8 -7 -15q-3 -7 -8 -14q-4 -5 -9 -10t-12 -8q-4 -2 -9 -4q4 2 3 1q-1 0 -3 -1h-2t-1 -1q1 -1 4 -3t4 -3q5 -3 10 -7q6 -4 10 -9l8 -10q4 -6 6 -12l2 -8t2 -7
q7 -12 13 -21q5 -10 5 -24v-8q0 -3 -2 -7q-3 -7 -9 -12q-5 -5 -11 -10q-2 -2 -1 -2q0 -1 -1 -3q-4 -5 -10 -10t-11 -8q-7 -4 -14 -6q-8 -2 -15 -5q-33 -13 -61 -16q-27 -4 -63 0l-14 2q-7 2 -15 3q-4 1 -9 2q-4 2 -9 2q-6 1 -14 1q-7 0 -12 3q-4 2 -5 6q-1 3 -1 8v0z
M133 331v-9v-8l1 1v2q0 6 2 12q-1 -6 -1 -5q0 2 1 5l2 8q0 4 2 8q1 3 3 6q3 4 3 7q0 1 -1 -1q-1 -1 -2 -3q-1 -3 -3 -6q-2 -2 -3 -5l-4 -12q2 6 1 4q0 -1 -1 -4v0zM162 317q-1 -10 0 -20q1 -9 4 -18q10 -19 35 -27q25 -9 45 -13q4 -1 7 -3t7 -2q22 -3 38 2q16 6 20 30
q1 9 2 20q0 10 -2 20q-1 3 -5 6t-7 5q-6 5 -13 10q-8 6 -15 9q-3 1 -7 3q-4 1 -6 4q-2 1 -3 4l-2 4q0 2 1 4q0 3 -1 4q-6 3 -13 6q-6 3 -12 5q-2 2 -5 3q-2 2 -4 2q-14 0 -30 -7q-17 -6 -24 -19l-6 -16l-4 -16v0z" />
    <glyph glyph-name="uni2010" unicode="&#x2010;" horiz-adv-x="209" 
d="M16 244q3 11 13 13t21 2q33 0 66 -4q-31 3 -25 3q7 -1 25 -3q10 0 19 -1q10 -1 19 -3q10 -2 24 -6q13 -3 15 -15q0 -4 -2 -8q-2 -3 -5 -5q-2 -2 -6 -2q-3 1 -5 0q-1 -1 -1 -3q0 -1 -1 -3q-1 -4 -5 -6q-3 -3 -8 -4q-2 1 -4 1q-1 1 -3 2q-3 1 -8 2t-9 1q-33 4 -67 8
q31 -3 25 -3q-6 1 -25 3q-10 1 -23 1q-13 -1 -21 2q-3 1 -5 5t-2 7q0 2 1 3v3t-1 5q-2 2 -2 5v0z" />
    <glyph glyph-name="endash" unicode="&#x2013;" horiz-adv-x="493" 
d="M44 181q2 6 7 9q4 2 10 4q4 0 8 1h-3h3q1 1 2 1h1q-2 1 -3 1q-2 -1 -4 -1q-7 0 -12 5q6 -4 4 -3q-1 0 -4 3q-5 6 -3 13q1 7 8 11q12 5 31 7q19 3 33 5q13 2 26 3q14 2 27 3q36 4 73 5q36 0 73 -4l24 -4q13 -2 24 -7q4 -2 9 -3l8 -4l4 -2q2 -2 5 -2q6 -1 13 -2q6 0 13 -1
q9 -1 19 -5q9 -3 8 -14q-1 -9 -8 -11q-7 -1 -15 0q-4 0 -9 1h-10q-3 -1 -6 -3q-2 -1 -6 -2q-7 -1 -15 0q-9 0 -16 -2q-4 -2 -8 0q-4 1 -8 1q-17 -2 -34 -2h-34q-29 0 -59 1q-29 0 -58 -3q-4 0 -8 -1q-4 -2 -8 -3q-8 -1 -16 -3q-9 -1 -16 -4q-4 -1 -9 -3q-4 -2 -9 -3
q-3 0 -6 1q-4 1 -6 3l-1 1v1q-2 0 -4 -1q-3 0 -4 -1q-8 -1 -17 -2q-8 -1 -13 7q-1 5 -1 9q0 -4 0 -3v3v0z" />
    <glyph glyph-name="emdash" unicode="&#x2014;" horiz-adv-x="544" 
d="M-38 194q0 2 2 5t4 4t6 2h6q0 1 -1 3q-1 1 -1 2q-1 3 0 7q1 3 4 6q6 5 14 4h17h16q8 0 15 1h10q5 -1 10 0q24 2 48 2t47 2q17 1 33 2q16 0 33 2q11 1 23 1t24 1q27 3 54 3q27 1 55 1q15 0 31 -1q15 -2 31 -3q9 -1 17 -2q9 -1 18 -3t18 -6q10 -4 10 -15q-1 -8 -6 -10
q-6 -3 -13 -4q-8 -1 -17 -1q-8 0 -17 -1q-8 -1 -17 -2h-17q-5 -1 -11 -1q-5 -1 -10 -1q-2 0 -4 1q-2 0 -2 -2h1h1q7 -2 14 -3q-6 1 -5 1t5 -1l12 -2q6 -2 11 -4t9 -3q5 0 9 -3q3 -1 6 -5q2 -3 2 -7q0 -5 -4 -9q-3 -4 -9 -5q-11 1 -25 4q-13 2 -25 5l-62 8l-62 6q-14 2 -28 3
q-14 2 -27 2q-7 0 -14 -2q-6 -1 -13 -1q-16 -1 -31 -3q15 2 12 2q-3 -1 -12 -2q-17 -1 -34 -1q-18 0 -35 -2q-38 -4 -75 -4q35 1 28 1q-7 -1 -28 -1h-11q-5 1 -9 3q-2 2 -4 5q-1 4 -3 5h-7q-3 -1 -7 0q-5 1 -8 6q-2 4 -2 10v0zM195 207q4 -1 8 -1t7 1h12q6 -1 11 0q5 0 9 1
q5 1 9 1h8q4 1 7 1h2q1 -1 2 0q0 1 -2 1h-4q-2 -1 -3 -1h1h-1q-4 0 -8 -1h-8q-12 0 -25 -1q-12 -1 -25 -1v0zM274 211q7 -1 0 0h4h-4v0z" />
    <glyph glyph-name="quoteleft" unicode="&#x2018;" horiz-adv-x="482" 
d="M180 395q2 9 5 18q2 10 4 19q0 5 1 10t3 9q1 5 2 9q2 4 3 9q7 16 18 34q10 18 23 31q12 13 27 22q-13 -10 -11 -7q3 2 11 7q3 3 6 5t7 2q4 1 7 -1t6 -5l8 -6q3 -3 3 -10q-1 -7 -4 -12q-3 -6 -5 -12q-1 -5 -1 -9q0 -5 -1 -9q-1 -5 -2 -9q-2 -5 -3 -9v-14q1 -8 -1 -14
q-2 -3 -4 -5q-3 -1 -5 -3q-2 -3 -4 -11q-3 -7 -4 -11q-3 -8 -7 -16q-3 -8 -7 -16q-1 -3 3 -4q4 0 7 -2q4 -4 5 -9q0 -5 -3 -10q-5 -6 -15 -6t-18 1q-4 0 -7 -1q-4 -2 -8 -2t-6 2q-3 2 -6 2q-3 1 -6 0q-4 0 -6 1q-12 3 -14 12t-1 20v0z" />
    <glyph glyph-name="quoteright" unicode="&#x2019;" horiz-adv-x="474" 
d="M166 381q4 16 9 32q5 15 10 31q2 11 3 22t3 22q1 10 2 21q0 11 2 21q0 5 1 11q2 5 5 9q5 6 12 8q6 2 14 3q15 2 31 2q16 1 31 0q9 -1 14 -7q6 -5 5 -14q-1 -5 -3 -10q-2 -6 -4 -10q-3 -9 -5 -19t-6 -19l-2 -8l-2 -8l-8 -24q-3 -12 -8 -23q-6 -14 -15 -27q-10 -13 -19 -24
q-4 -5 -10 -9q-5 -4 -10 -9q-3 -4 -6 -10q-2 -5 -9 -7h-5q-2 1 -5 1q-5 0 -10 1t-7 6q-2 3 -2 6v6q0 1 1 2t1 3l-2 1l-2 1q-1 1 -2 3t-2 3q-1 3 -1 6q0 4 1 7v0zM220 509q-1 -1 0 -3q0 2 -1 1l1 -1l1 4q1 3 2 4q2 6 5 11q-2 -5 -2 -4q1 1 2 4q1 2 4 4q2 3 2 4v1h-1
q-3 0 -6 -1q-3 0 -5 -2q-2 -5 -2 -11v-11v0zM253 536q3 -3 4 -2t-4 2v0z" />
    <glyph glyph-name="quotedblleft" unicode="&#x201c;" horiz-adv-x="486" 
d="M104 384q2 7 2 15q0 -7 0 -6v6q1 7 3 15q2 7 3 15q3 19 11 37q7 18 17 35q5 9 12 21q6 11 14 19q6 8 18 17q11 9 22 6q2 -1 4 -4t4 -4q1 -1 2 -1q2 1 3 1q6 -2 8 -6q3 -5 2 -11t-4 -13t-5 -13q-4 -10 -6 -21t-6 -21q-5 -14 -9 -30q-5 -17 -8 -31l-6 -24q-4 -11 -8 -23
q-1 -5 -3 -11q-2 -5 -5 -10q-4 -5 -11 -5q-6 -1 -11 4q-2 2 -3 5t-3 6q-1 1 -3 0h-3q-2 1 -4 3t-4 3q-1 0 -3 -1q-2 -2 -4 -2q-7 -1 -11 4t-5 12v6v7v0zM155 472l2 -2q0 -2 2 -2q0 1 1 7q2 5 2 7q0 1 -1 0q0 -1 -1 -2q0 -1 -1 -2v1v-1q-1 -1 -1 -2v1v-1q-2 -2 -3 -4q1 2 1 1
l-1 -1v0zM263 395q2 8 3 16t2 15q2 12 7 24q4 13 9 23q5 12 11 24q6 11 13 22q10 15 22 27q-11 -12 -9 -9l9 9q5 5 10 9q5 3 10 8t11 8t13 -3q6 -6 4 -12t-6 -13q0 -1 -1 -4q-2 -2 -2 -3q1 0 3 -1q2 0 2 -1q3 -1 5 -4q1 -3 2 -5q1 -9 -2 -21q-3 -13 -5 -22l-10 -48t-13 -48
q-3 -7 -5 -15q-3 -8 -8 -14q-3 -3 -6 -4t-6 -1h-3q-1 1 -3 0q-1 -2 -1 -5q-1 -4 -1 -6q-1 -2 -4 -4q-2 -3 -5 -4q-7 -2 -12 2q-6 4 -7 11q-1 13 2 28t5 28q1 4 3 11t2 10l-2 2t-1 2q-1 0 -1 1h-1q-1 -1 -1 -5q-1 -4 -1 -6q-1 -6 -3 -13q-1 -6 -1 -12v-12q0 -5 -5 -9
q-4 -3 -10 -2q5 0 4 0h-4q-9 2 -11 10t-2 16v0z" />
    <glyph glyph-name="quotedblright" unicode="&#x201d;" horiz-adv-x="470" 
d="M96 390q2 7 5 13q2 7 5 13l4 12q1 5 3 11q6 14 9 33q2 18 4 34t3 33q-1 -16 -1 -13t1 13q1 4 2 9t4 8t7 4t8 -1q1 0 3 -2q3 -2 4 -2q3 4 4 7q1 4 6 6q9 1 10 -1q2 -3 6 -6q1 0 2 1q-1 -1 0 -1v1q3 2 6 3q2 2 6 2q6 -1 8 -4t6 -6q4 -2 8 -5q3 -3 3 -9q0 -5 -3 -10
q-2 -5 -4 -9q-3 -9 -6 -17q-4 -9 -7 -17q-4 -14 -9 -27q-4 -14 -10 -27q-4 -9 -7 -19q-2 -10 -6 -20q-5 -11 -10 -26q-5 -14 -14 -23q-8 -7 -16 -3t-9 14q-1 5 0 9t2 9q0 1 -2 -1l-2 -2q-3 -2 -6 -2q-3 -1 -5 0q-7 1 -10 6q-2 6 -2 12v0zM229 372q1 6 4 10q2 3 4 8q4 9 9 18
q5 8 9 17q23 48 40 99q-17 -47 -14 -38q4 10 14 38q2 10 6 21q5 12 16 13q5 0 9 -4q-4 3 -3 3t3 -3q5 -5 4 -10q-1 -6 -4 -11q-4 -13 -7 -26q3 12 3 10q-1 -3 -3 -10q-1 -1 -2 -5q-2 -3 -2 -4q1 -1 2 1l2 3q3 4 5 8q-2 -4 -2 -3q1 1 2 3q5 7 9 15q4 7 9 13q4 4 9 5
q6 0 10 -3q3 -2 4 -6l2 -8q1 -2 3 -3q2 -2 3 -4q1 -6 -2 -10l-4 -8q-6 -15 -12 -31q6 15 4 12l-4 -12q-8 -20 -16 -41q-9 -21 -17 -41q-3 -8 -6 -19t-7 -18q-4 -5 -8 -5h-9l-3 -3t-4 -3q-6 -2 -12 1q-7 4 -8 11q-1 6 1 13q1 7 3 12q1 3 2 5q1 3 1 5q0 1 -1 -1l-2 -2
q-1 -2 -2 -3l-3 -3q-2 -4 -6 -9l-6 -8q-8 -7 -14 -2q-7 5 -9 13v0z" />
    <glyph glyph-name="dagger" unicode="&#x2020;" horiz-adv-x="446" 
d="M55 369v7q1 3 4 5q1 1 3 2q3 1 3 2q1 1 0 4l-2 4q0 3 1 6l4 6q4 3 10 2q6 0 11 2q11 4 29 8l30 5l16 2l16 2h6q4 1 5 2q1 2 1 5q-1 3 -1 5v27q0 -13 0 -10v10q0 25 -1 51t0 52q0 9 2 18q3 9 13 12q4 1 7 0t5 -3q5 -4 5 -8q0 -5 2 -8q0 -1 2 2l1 2q2 3 4 5q2 3 4 4
q6 3 12 1q6 -1 9 -7q3 -9 3 -19q1 -10 1 -19q2 -18 3 -36q1 -19 1 -37v-33q0 16 0 13v-13q0 -1 -1 -5q0 -3 1 -5h3h3h10q5 1 10 0q19 -2 39 -3q19 -1 38 -5q8 -2 15 -4q8 -3 9 -12q0 -7 -2 -8q-3 -2 -5 -5q-1 -3 -1 -6q0 -4 -3 -7q-5 -5 -13 -5h-15q-16 1 -32 1
q-17 0 -32 -2q-5 0 -10 -1h-9h-3q-2 1 -4 0v-3v-3q-1 -8 -1 -16q0 8 0 6v-6v-22l-2 -22v-8v-9q-2 -20 -2 -42q1 -21 1 -42v-53q0 -27 2 -53q2 -15 5 -30t5 -30q1 -6 1 -14q1 -7 -2 -13q-9 -11 -18 -5q-9 7 -13 18q0 1 -1 5t-2 5h-6q-4 -1 -9 3q-4 4 -6 10t-3 11q-5 15 -8 30
t-5 30q-2 22 -5 43q-2 22 -3 44q-1 29 -1 59v58q0 8 1 16v16v5q1 4 0 5t-4 1q-3 -1 -5 -1q-6 0 -11 -1q-6 -1 -12 -1l-38 -4l-38 -4q-8 -1 -16 0t-11 11v0z" />
    <glyph glyph-name="daggerdbl" unicode="&#x2021;" horiz-adv-x="460" 
d="M45 412q4 12 17 15q14 2 25 3q21 2 41 5q21 2 41 4q14 2 27 3q-12 -1 -10 -1q3 0 10 1h4q2 -1 3 0t1 4v5l4 26q-2 -12 -2 -10q1 3 2 10q2 21 5 45q4 25 11 44q2 5 7 8q4 2 10 2q1 0 2 -1t2 -1t4 3q3 2 7 3h4l4 -2q1 -1 2 -1h3q8 -4 8 -11q1 -8 0 -15v-18q-1 -9 -1 -18
v-22q0 -12 -1 -23q-1 -4 -1 -11q-1 -7 0 -11q1 -2 4 -1h4h23q-11 0 -8 0h8h42q20 -1 41 -3q8 0 17 -3q8 -3 10 -13q0 -5 -3 -9q-3 -5 -8 -6q-11 -2 -23 -1t-23 0h-2h-1q0 -1 1 -1h2q2 -1 3 -3q2 -3 2 -5q1 -5 -1 -10q-3 -5 -8 -7q-5 -1 -11 -1h-11h-40q19 0 15 0h-15
q-3 1 -10 1q-7 1 -8 -1t-1 -7v-8v-18t-1 -17q-2 -18 -3 -36q0 -18 -2 -36q-1 -6 0 -12q0 -7 -1 -13v-14q0 -8 -1 -15q0 -3 -1 -7t0 -8q0 -2 3 -2h5h26q-12 0 -10 0h10h26t25 -1t24 -3q-11 1 -9 1q3 0 9 -1q3 0 5 -1q3 -1 6 -1q9 -1 17 -6q9 -4 8 -15q-1 -9 -10 -12
q-8 -4 -16 -4q-4 -1 -9 -1t-9 -1l-2 -2t-2 -1q-5 -1 -11 -1q-6 1 -12 1h-21q-10 -1 -21 -1q-6 0 -13 1q-7 0 -13 -1h-5q-2 0 -3 -2q-1 -1 -1 -4q1 -3 1 -5q0 -6 -1 -12v-11v-26q1 -13 -1 -26q0 -8 1 -16q0 -9 -1 -16q-1 -3 -4 -6t-6 -4h-5q-3 1 -4 0q-2 0 -2 -2q-1 -2 -3 -3
q-6 -2 -12 0t-8 9q-1 3 -1 8q1 4 1 8v20v19q0 6 -3 19q-4 12 -5 19l-2 10q0 5 -2 10v4t-2 3q-3 1 -11 0q-8 -2 -12 -2q-31 -4 -62 -7q29 3 23 2q-6 0 -23 -2q-7 -1 -18 0t-15 8q-2 4 -2 7t-1 7q0 1 -1 1h1h-1q-4 3 -6 6q-3 3 -2 9q1 8 8 11q7 2 14 3q11 1 22 1q10 1 21 2
q2 0 4 1q1 1 3 2q3 0 5 -1t4 -1q3 0 6 1q3 0 6 1q6 0 12 1h13h4t4 2q1 3 0 7q-1 5 -2 8q0 8 -1 16v16q0 26 1 53v54v15t1 16q0 2 1 5v4q-1 2 -4 2h-5q-14 1 -28 1q13 0 11 0h-11q-16 0 -31 1q-16 1 -31 3q-6 1 -11 2l-12 2q-10 0 -20 2t-11 14v0zM223 326v-5q0 -1 1 -1v7
q1 7 1 8v18q1 8 2 17q0 3 1 8t0 7q0 1 -1 1h-1q-1 -1 -1 -7v-9q0 -11 -1 -21q0 10 0 8v-8q-1 -6 0 -12q0 -5 -1 -11v0z" />
    <glyph glyph-name="ellipsis" unicode="&#x2026;" horiz-adv-x="480" 
d="M38 54l2 12l4 12q8 16 23 25q15 10 33 11q7 1 15 0t14 -6q7 -7 10 -15q3 -9 5 -18q3 -8 4 -16q1 -7 0 -16q-2 -19 -16 -33q-14 -13 -34 -15q-4 -1 -9 -1l-8 2l-4 2t-4 1h-5q-3 -1 -6 1q-3 1 -6 5q-3 3 -5 6q-7 11 -10 21t-3 22v0zM75 50v-2v-2q2 -1 7 -2q5 0 8 1
q8 0 14 4t9 12q4 10 -2 11q-5 2 -13 -2q-8 -3 -13 -8t-10 -12v0zM168 50q7 23 32 39t48 14q8 -1 13 -5t11 -7q3 -2 8 -3q4 0 8 -1q10 -4 16 -15q5 -10 5 -21q-2 -14 -12 -22q-10 -9 -22 -14q-27 -14 -58 -13q-32 0 -47 31q-2 4 -2 8v9v0zM196 47q0 -7 4 -12q-3 5 -3 4
q1 -1 3 -4l2 -2q2 -1 2 0q1 1 1 3q-1 2 -1 3q1 3 1 6q1 3 2 5q2 4 7 10q6 6 7 9h-1q-1 -1 -2 -1q-2 -2 -4 -3l2 1q-1 0 -2 -1q-3 -2 -5 -4l-5 -5l-4 -4q-3 -3 -4 -5v0zM232 37v-3q-1 -2 0 -3q0 -1 1 -1l1 1h6t5 2l-3 1q-2 1 -3 1q-2 2 -4 3q-1 2 -3 -1v0zM318 38q3 10 9 17
t13 13q4 3 9 5q5 3 8 5q1 2 1 4q1 1 2 3q4 7 9 13q6 7 12 12q7 6 14 9q-7 -4 -5 -3q1 1 5 3l6 2q3 0 5 1q24 0 30 -24q6 -25 4 -44l-2 -18q1 9 1 7q-1 -2 -1 -7q-2 -9 -8 -15q-7 -7 -14 -12q-7 -6 -18 -10q-10 -4 -20 -5q-5 -1 -10 0h-9h-4h-5q-2 1 -4 3q-2 1 -4 3
q-11 6 -17 15q-7 10 -7 23v0zM369 26q1 -5 6 -5q5 1 6 2q0 1 -1 1q-2 1 -3 2q-1 0 -3 2t-3 2t-1 -2l-1 -2v0zM384 61q1 -6 5 -10q5 -4 10 -6q2 -1 5 -2q3 -2 5 0q4 4 0 11q-4 6 -8 8t-8 1q-5 -1 -9 -2v0zM402 91q8 -4 7 0q0 3 -7 0v0z" />
    <glyph glyph-name="minute" unicode="&#x2032;" horiz-adv-x="476" 
d="M195 523q0 12 1 24q1 11 6 22q2 6 3 11q2 5 6 10q9 10 22 16q12 7 25 -4q3 -3 5 -6q2 -4 5 -7q3 -2 5 -4q3 -2 5 -6q3 -10 3 -26q-1 -16 -1 -27v-29q0 -15 -2 -29q-1 -8 -3 -16q-2 -9 -3 -17q-3 -25 -7 -49q3 23 3 18q-1 -4 -3 -18q-1 -13 -7 -28t-21 -17q-5 1 -8 5
q-3 3 -6 4t-6 1t-6 3t-4 8t-1 9q-2 16 -2 31q0 -14 0 -11v11q-1 17 -2 35q-1 17 1 34q1 6 0 11q0 6 1 11q0 4 1 8q1 5 -1 8q0 1 -1 2q-2 0 -3 1q-2 2 -3 5l-2 6v0zM239 455q-1 -6 -1 -15q-1 -9 1 -14q29 -122 -4 -119q-34 3 6 122q0 2 1 4q0 2 1 4q2 5 2 10q0 4 1 10
q1 9 2 19q0 10 1 20q1 4 2 9q1 6 0 10q-1 0 -1 -1v-1q-1 -2 -1 -5q0 3 0 2v-2q-2 -7 -4 -13q2 6 2 5q-1 -1 -2 -5q-1 -6 -3 -12q-1 -6 -2 -13v-7t-1 -8v0zM239 571q2 0 4 3t0 4q-1 0 -2 -3t-2 -4v0z" />
    <glyph glyph-name="second" unicode="&#x2033;" horiz-adv-x="476" 
d="M119 437v6v6q1 5 2 9q0 4 1 9q1 9 1 19t2 20q3 18 10 38q6 19 22 29q4 2 8 3q4 0 8 -1l3 -3q1 -1 2 -1q4 2 7 4t7 3q7 0 12 -5q5 -4 4 -11q-3 -29 -6 -57q3 27 2 21q0 -5 -2 -21l-2 -8l-2 -8v-11v-12q-2 -18 -6 -36q-4 -19 -11 -36l-10 -20q5 10 4 8l-4 -8
q-7 -11 -20 -17q-12 -5 -20 9q-6 15 -9 35q-3 19 -3 36v0zM152 434q0 -2 1 -4q0 -2 1 -4q0 -1 -1 -2q0 -1 1 -2v1l1 1q2 5 3 10q-1 -4 -1 -3q1 0 1 3l6 22q-3 -10 -2 -8q0 2 2 8q0 1 1 5t1 5h-2q0 -1 -1 -1h-1q-1 1 -2 1q-1 -2 -3 -8q-2 -7 -2 -10q-1 -3 -1 -7q-1 -3 -2 -7
v0zM272 419q2 8 2 18l2 18q2 16 8 34q7 17 15 32q5 10 15 18q9 9 21 8q4 -1 6 -3l4 -4q10 -6 11 -14q1 -7 0 -18q0 -20 -2 -40q-2 -19 -5 -39l-2 -24q0 -12 -3 -24q-1 -6 -2 -13q-2 -7 -5 -13q-4 -7 -7 -7l-8 -4q-4 -4 -7 -8q-4 -4 -9 -6q-9 -4 -18 -1q-9 2 -13 12
q-3 4 -3 10t4 10q1 1 3 2t3 2q0 1 -1 2q-2 2 -3 2q-1 2 -2 5t-2 5q-2 10 -2 20v20v0zM293 364q0 -1 3 -3q2 -2 2 -3q3 1 2 4t-2 4q-1 0 -3 -1q-1 -1 -2 -1v0zM317 432q0 -9 1 -16q-1 7 0 6v-6v-2q-1 -1 0 -2q1 0 1 1q-1 1 -1 2l2 8q-1 -3 0 -3v3q3 16 3 31q0 -15 0 -12v12
q0 3 1 6v7v1t-1 1q0 -1 -1 -4q0 -3 -1 -4q-1 -8 -1 -15q-1 -7 -3 -14v0z" />
  </font>
</defs>
</svg>
