<svg width="768" height="2152" viewBox="0 0 768 2152" fill="none" xmlns="http://www.w3.org/2000/svg">
<rect width="768" height="2435" fill="#2C2542"/>
<path opacity="0.2" d="M88.8454 374.954C20.4475 351.372 -15.8824 276.807 7.70031 208.409L434.052 -1028.15C457.634 -1096.55 532.199 -1132.88 600.597 -1109.3C668.995 -1085.72 705.325 -1011.15 681.742 -942.754L255.391 293.809C231.808 362.207 157.243 398.537 88.8454 374.954Z" fill="url(#paint0_linear)"/>
<path opacity="0.2" d="M602.845 2186.95C534.447 2163.37 498.118 2088.81 521.7 2020.41L948.052 783.846C971.634 715.448 1046.2 679.118 1114.6 702.7C1183 726.283 1219.33 800.848 1195.74 869.246L769.391 2105.81C745.808 2174.21 671.243 2210.54 602.845 2186.95Z" fill="url(#paint1_linear)"/>
<rect opacity="0.2" x="462" y="468.254" width="1570" height="262" rx="131" transform="rotate(-70.9765 462 468.254)" fill="url(#paint2_linear)"/>
<rect opacity="0.2" x="552" y="1062.25" width="1570" height="262" rx="131" transform="rotate(-70.9765 552 1062.25)" fill="url(#paint3_linear)"/>
<rect opacity="0.2" x="-430" y="2577.25" width="1570" height="262" rx="131" transform="rotate(-70.9765 -430 2577.25)" fill="url(#paint4_linear)"/>
<defs>
<linearGradient id="paint0_linear" x1="349.501" y1="-141.246" x2="251.501" y2="810.754" gradientUnits="userSpaceOnUse">
<stop stop-color="#F39DBF"/>
<stop offset="1" stop-color="#E75C91"/>
</linearGradient>
<linearGradient id="paint1_linear" x1="863.501" y1="1670.75" x2="765.501" y2="2622.75" gradientUnits="userSpaceOnUse">
<stop stop-color="#F39DBF"/>
<stop offset="1" stop-color="#E75C91"/>
</linearGradient>
<linearGradient id="paint2_linear" x1="1247" y1="468.254" x2="1247" y2="730.254" gradientUnits="userSpaceOnUse">
<stop stop-color="#F7BE64"/>
<stop offset="1" stop-color="#F7BE64"/>
</linearGradient>
<linearGradient id="paint3_linear" x1="937.56" y1="1105.97" x2="1713.74" y2="1301.65" gradientUnits="userSpaceOnUse">
<stop stop-color="#00B3FF"/>
<stop offset="1" stop-color="#0097FF"/>
</linearGradient>
<linearGradient id="paint4_linear" x1="-44.4405" y1="2620.97" x2="731.736" y2="2816.65" gradientUnits="userSpaceOnUse">
<stop stop-color="#00B3FF"/>
<stop offset="1" stop-color="#0097FF"/>
</linearGradient>
</defs>
</svg>
