<svg width="1920" height="1264" viewBox="0 0 1920 1264" fill="none" xmlns="http://www.w3.org/2000/svg">
<g filter="url(#filter0_d)">
<rect y="0.00012207" width="1920" height="1264" fill="#2C2542"/>
</g>
<rect opacity="0.2" x="1408" y="533.254" width="1570" height="262" rx="131" transform="rotate(-70.9765 1408 533.254)" fill="url(#paint0_linear)"/>
<path opacity="0.2" d="M97.3454 479.2C28.9475 455.618 -7.38242 381.053 16.2003 312.655L442.552 -923.909C466.134 -992.307 540.699 -1028.64 609.097 -1005.05C677.495 -981.471 713.825 -906.906 690.242 -838.508L263.891 398.055C240.308 466.453 165.743 502.783 97.3454 479.2Z" fill="url(#paint1_linear)"/>
<rect opacity="0.2" x="42" y="2459.25" width="1570" height="262" rx="131" transform="rotate(-70.9765 42 2459.25)" fill="url(#paint2_linear)"/>
<rect opacity="0.2" x="1498" y="1127.25" width="1570" height="262" rx="131" transform="rotate(-70.9765 1498 1127.25)" fill="url(#paint3_linear)"/>
<rect y="-41.9999" width="1920" height="210" fill="#1A142A" fill-opacity="0.8"/>
<defs>
<filter id="filter0_d" x="-24" y="-19.9999" width="1980" height="1324" filterUnits="userSpaceOnUse" color-interpolation-filters="sRGB">
<feFlood flood-opacity="0" result="BackgroundImageFix"/>
<feColorMatrix in="SourceAlpha" type="matrix" values="0 0 0 0 0 0 0 0 0 0 0 0 0 0 0 0 0 0 127 0"/>
<feOffset dx="6" dy="10"/>
<feGaussianBlur stdDeviation="15"/>
<feColorMatrix type="matrix" values="0 0 0 0 0 0 0 0 0 0 0 0 0 0 0 0 0 0 0.1 0"/>
<feBlend mode="normal" in2="BackgroundImageFix" result="effect1_dropShadow"/>
<feBlend mode="normal" in="SourceGraphic" in2="effect1_dropShadow" result="shape"/>
</filter>
<linearGradient id="paint0_linear" x1="2193" y1="533.254" x2="2193" y2="795.254" gradientUnits="userSpaceOnUse">
<stop stop-color="#F7BE64"/>
<stop offset="1" stop-color="#F7BE64"/>
</linearGradient>
<linearGradient id="paint1_linear" x1="358.001" y1="-36.9998" x2="260.001" y2="915" gradientUnits="userSpaceOnUse">
<stop stop-color="#F39DBF"/>
<stop offset="1" stop-color="#E75C91"/>
</linearGradient>
<linearGradient id="paint2_linear" x1="427.56" y1="2502.97" x2="1203.74" y2="2698.65" gradientUnits="userSpaceOnUse">
<stop stop-color="#00B3FF"/>
<stop offset="1" stop-color="#0097FF"/>
</linearGradient>
<linearGradient id="paint3_linear" x1="1883.56" y1="1170.97" x2="2659.74" y2="1366.65" gradientUnits="userSpaceOnUse">
<stop stop-color="#00B3FF"/>
<stop offset="1" stop-color="#0097FF"/>
</linearGradient>
</defs>
</svg>
