<svg width="54" height="54" viewBox="0 0 54 54" fill="none" xmlns="http://www.w3.org/2000/svg">
<g clip-path="url(#clip0)">
<path d="M44.1836 27.849C48.4363 27.849 51.8838 24.3991 51.8838 20.1435C51.8838 15.8879 48.4363 12.438 44.1836 12.438C39.9309 12.438 36.4834 15.8879 36.4834 20.1435C36.4834 24.3991 39.9309 27.849 44.1836 27.849Z" fill="#6165A8"/>
<path d="M44.1842 12.438C43.5761 12.438 42.9854 12.5107 42.418 12.6441C45.8189 13.4433 48.352 16.4965 48.352 20.1436C48.352 23.7908 45.819 26.844 42.418 27.643C42.9854 27.7763 43.5761 27.8491 44.1842 27.8491C48.4369 27.8491 51.8844 24.3992 51.8844 20.1436C51.8844 15.8879 48.4369 12.438 44.1842 12.438Z" fill="#4E5291"/>
<path d="M48.6338 32.3279H53.1971V36.1533H48.6338V32.3279Z" fill="#6165A8"/>
<path d="M7.14453 34.4252H16.755V44.4347H7.14453V34.4252Z" fill="#6165A8"/>
<path d="M6.31562 32.5893L1.05694 31.1757C0.522907 31.0322 -0.00160196 31.4354 3.677e-06 31.9884L0.0405728 46.6522C0.0420714 47.2032 0.565403 47.6032 1.09751 47.4602L6.31552 46.0575C7.46205 45.7494 8.25887 44.71 8.25887 43.5228V35.1241C8.25887 33.9369 7.46205 32.8975 6.31562 32.5893Z" fill="#D63BE7"/>
<path d="M11.7657 46.298C11.3223 46.298 10.9629 45.9386 10.9629 45.4951V33.3646C10.9629 32.9212 11.3223 32.5618 11.7657 32.5618C12.2091 32.5618 12.5685 32.9212 12.5685 33.3646V45.4951C12.5685 45.9386 12.2092 46.298 11.7657 46.298Z" fill="#4E5291"/>
<path d="M48.2507 50.743H17.2689C16.3896 50.743 15.6768 50.0301 15.6768 49.1509V29.4835C15.6768 28.6042 16.3897 27.8914 17.2689 27.8914H48.2507C49.13 27.8914 49.8428 28.6043 49.8428 29.4835V49.1508C49.8429 50.0301 49.13 50.743 48.2507 50.743Z" fill="#D63BE7"/>
<path d="M48.2502 27.8914H44.7178C45.5971 27.8914 46.31 28.6043 46.31 29.4835V49.1508C46.31 50.0301 45.5971 50.743 44.7178 50.743H48.2502C49.1295 50.743 49.8424 50.0301 49.8424 49.1508V29.4835C49.8424 28.6042 49.1295 27.8914 48.2502 27.8914Z" fill="#B01BBB"/>
<path d="M53.1973 38.6504C52.7539 38.6504 52.3945 38.2911 52.3945 37.8476V30.6339C52.3945 30.1904 52.7539 29.8311 53.1973 29.8311C53.6408 29.8311 54.0002 30.1904 54.0002 30.6339V37.8476C54.0002 38.291 53.6407 38.6504 53.1973 38.6504Z" fill="#4E5291"/>
<path d="M34.3018 32.2186H45.6609V40.0881H34.3018V32.2186Z" fill="#FEF5E4"/>
<path d="M39.1349 47.5035C40.1681 47.5035 40.1698 45.8978 39.1349 45.8978C38.1017 45.8978 38.1 47.5035 39.1349 47.5035Z" fill="#C6EC31"/>
<path d="M42.4113 47.5035C43.4444 47.5035 43.4462 45.8978 42.4113 45.8978C41.3781 45.8978 41.3764 47.5035 42.4113 47.5035Z" fill="#C6EC31"/>
<path d="M45.6886 47.5035C46.7218 47.5035 46.7235 45.8978 45.6886 45.8978C44.6554 45.8978 44.6537 47.5035 45.6886 47.5035Z" fill="#C6EC31"/>
<path d="M24.6332 27.849C31.4194 27.849 36.9208 22.3439 36.9208 15.553C36.9208 8.76212 31.4194 3.25702 24.6332 3.25702C17.847 3.25702 12.3457 8.76212 12.3457 15.553C12.3457 22.3439 17.847 27.849 24.6332 27.849Z" fill="#6165A8"/>
<path d="M24.6334 3.25702C24.0335 3.25702 23.444 3.30091 22.8672 3.38397C28.8165 4.24106 33.3885 9.36241 33.3885 15.553C33.3885 21.7437 28.8165 26.8649 22.8672 27.722C23.444 27.8051 24.0335 27.849 24.6334 27.849C31.4196 27.849 36.9209 22.3439 36.9209 15.553C36.9209 8.76211 31.4196 3.25702 24.6334 3.25702Z" fill="#4E5291"/>
<path d="M24.6329 20.4031C27.3097 20.4031 29.4797 18.2316 29.4797 15.553C29.4797 12.8743 27.3097 10.7029 24.6329 10.7029C21.9561 10.7029 19.7861 12.8743 19.7861 15.553C19.7861 18.2316 21.9561 20.4031 24.6329 20.4031Z" fill="#373E7A"/>
<path d="M44.1841 22.5344C45.5036 22.5344 46.5733 21.4639 46.5733 20.1435C46.5733 18.823 45.5036 17.7526 44.1841 17.7526C42.8646 17.7526 41.7949 18.823 41.7949 20.1435C41.7949 21.4639 42.8646 22.5344 44.1841 22.5344Z" fill="#373E7A"/>
</g>
<defs>
<clipPath id="clip0">
<rect width="54" height="54" fill="white"/>
</clipPath>
</defs>
</svg>
