<svg width="55" height="55" viewBox="0 0 55 55" fill="none" xmlns="http://www.w3.org/2000/svg">
<path d="M27.5 55C42.6878 55 55 42.6878 55 27.5C55 12.3122 42.6878 0 27.5 0C12.3122 0 0 12.3122 0 27.5C0 42.6878 12.3122 55 27.5 55Z" fill="#1A6FB0"/>
<path d="M27.5001 0C26.2844 0 25.0873 0.0799219 23.9132 0.232783C37.4061 1.99053 47.8262 13.528 47.8262 27.5C47.8262 41.472 37.406 53.0095 23.9131 54.7672C25.0873 54.9201 26.2844 55 27.5001 55C42.688 55 55.0001 42.6877 55.0001 27.5C55.0001 12.3123 42.688 0 27.5001 0Z" fill="#155C91"/>
<path d="M38.8806 21.2715C33.8163 21.2715 29.6963 25.4464 29.6963 30.5782C29.6963 35.7099 33.8163 39.8849 38.8806 39.8849C42.0103 39.8849 45.0163 38.1648 46.7256 35.3957L47.2319 34.5754C47.4041 34.2964 47.2035 33.9367 46.8756 33.9367H42.8385C42.7139 33.9367 42.5958 33.9922 42.5162 34.0881L42.355 34.2826C41.6347 35.1511 40.0759 35.4592 38.9599 35.4592C38.9303 35.4592 38.8726 35.4585 38.8726 35.4585C37.3842 35.4561 36.2654 34.7843 35.637 33.5155C35.3802 32.9968 35.2529 32.4833 35.1897 32.1131C35.1462 31.8578 35.3439 31.6256 35.6029 31.6256H47.1062L47.6371 31.6228C47.8648 31.6216 48.0497 31.4387 48.0536 31.2112C48.0536 31.2112 48.065 30.606 48.065 30.578C48.0651 25.4464 43.9449 21.2715 38.8806 21.2715ZM42.4808 28.3813H35.2051C35.0034 28.3813 34.8583 28.1873 34.9155 27.9938L35.1637 27.1538C35.315 26.6421 35.579 26.2077 35.9485 25.8625C36.8558 25.0145 38.1603 24.923 38.679 24.923C38.7594 24.923 38.8367 24.9253 38.886 24.9291C38.886 24.9291 38.8868 24.9291 38.887 24.9291C40.4024 24.9291 41.501 25.4769 42.1476 26.5571C42.2429 26.7167 42.328 26.8886 42.4002 27.0683L42.7612 27.9669C42.8406 28.1652 42.6947 28.3813 42.4808 28.3813Z" fill="white"/>
<path d="M23.195 26.1147C25.35 25.4043 26.9035 23.3576 26.8693 20.9603C26.8274 18.0228 24.3643 15.694 21.4265 15.694H8.94273C8.60542 15.694 8.33203 15.9675 8.33203 16.3047V38.0999C8.33203 38.4372 8.60553 38.7106 8.94273 38.7106H21.9075C25.1762 38.7106 27.8262 36.0607 27.8262 32.7918V32.1751C27.8262 29.3587 25.8472 26.9959 23.2066 26.4043C23.0571 26.3711 23.0495 26.1627 23.195 26.1147ZM18.7412 34.8658H13.8126C13.6498 34.8658 13.5179 34.7339 13.5179 34.5712V29.2762C13.5179 29.1135 13.6498 28.9816 13.8126 28.9816H18.8173C20.3704 28.9816 21.6462 30.1913 21.7521 31.7178C21.8721 33.4468 20.4741 34.8658 18.7412 34.8658ZM21.7592 21.7306C21.7592 22.9154 20.7988 23.8759 19.6139 23.8759H13.8126C13.6498 23.8759 13.5179 23.744 13.5179 23.5813V19.4563C13.5179 19.2935 13.6498 19.1616 13.8126 19.1616H19.614C20.7988 19.1616 21.7592 20.1221 21.7592 21.3068V21.7306Z" fill="white"/>
<path d="M34.7656 18.7149V15.9888C34.7656 15.8259 34.8976 15.694 35.0604 15.694H42.7009C42.8637 15.694 42.9956 15.8261 42.9956 15.9888V18.7149C42.9956 18.8778 42.8636 19.0097 42.7009 19.0097H35.0604C34.8975 19.0098 34.7656 18.8778 34.7656 18.7149Z" fill="white"/>
</svg>
