<svg width="55" height="55" viewBox="0 0 55 55" fill="none" xmlns="http://www.w3.org/2000/svg">
<g clip-path="url(#clip0)">
<path d="M27.5 55C42.6878 55 55 42.6878 55 27.5C55 12.3122 42.6878 0 27.5 0C12.3122 0 0 12.3122 0 27.5C0 42.6878 12.3122 55 27.5 55Z" fill="#126DB1"/>
<path d="M27.5001 0C26.2844 0 25.0873 0.0799219 23.9132 0.232783C37.4061 1.99053 47.8262 13.528 47.8262 27.5C47.8262 41.472 37.406 53.0095 23.9131 54.7672C25.0873 54.9201 26.2844 55 27.5001 55C42.688 55 55.0001 42.6877 55.0001 27.5C55.0001 12.3123 42.688 0 27.5001 0Z" fill="#125D95"/>
<path d="M13.0918 40.4718V22.8976C13.0918 22.7651 13.1993 22.6575 13.3319 22.6575H18.9495C19.0821 22.6575 19.1896 22.7651 19.1896 22.8976V40.4718C19.1896 40.6044 19.0821 40.7119 18.9495 40.7119H13.3319C13.1993 40.7119 13.0918 40.6045 13.0918 40.4718Z" fill="white"/>
<path d="M15.5432 19.1902C13.5324 19.1902 11.8965 17.5542 11.8965 15.5434C11.8965 13.5327 13.5324 11.8967 15.5432 11.8967C17.5541 11.8967 19.19 13.5327 19.19 15.5434C19.19 17.5542 17.5541 19.1902 15.5432 19.1902Z" fill="white"/>
<path d="M38.4861 40.7119C38.3286 40.7119 38.201 40.5842 38.201 40.4269V34.2142C38.201 32.1755 37.7428 28.7555 34.6738 28.7555C31.6049 28.7555 31.1466 32.1755 31.1466 34.2142V40.4269C31.1466 40.5844 31.0189 40.7119 30.8615 40.7119H25.3339C25.1764 40.7119 25.0488 40.5842 25.0488 40.4269V22.9426C25.0488 22.7851 25.1766 22.6575 25.3339 22.6575H29.6659C29.8234 22.6575 29.951 22.7853 29.951 22.9426V24.1304C29.951 24.359 30.2082 24.4967 30.396 24.3663C32.0071 23.2462 33.8859 22.6575 35.8695 22.6575C38.5579 22.6575 40.7838 23.7288 42.3065 25.7557C43.5914 27.4658 44.2989 29.7838 44.2989 32.2825V40.4268C44.2989 40.5843 44.1712 40.7118 44.0138 40.7118H38.4861V40.7119Z" fill="white"/>
</g>
<defs>
<clipPath id="clip0">
<rect width="55" height="55" fill="white"/>
</clipPath>
</defs>
</svg>
