<svg width="50" height="50" viewBox="0 0 50 50" fill="none" xmlns="http://www.w3.org/2000/svg">
<g clip-path="url(#clip0)">
<path d="M41.084 42.6758C41.084 43.4844 40.4277 44.1406 39.6191 44.1406H27.9004C27.0928 44.1406 26.4355 44.7979 26.4355 45.6055C26.4355 48.0283 24.4639 50 22.041 50C20.917 50 19.8887 49.5752 19.1113 48.877C18.2129 48.0723 17.6465 46.9043 17.6465 45.6055V39.7461C17.6465 38.9375 18.3027 38.2812 19.1113 38.2812C19.9199 38.2812 20.5762 38.9375 20.5762 39.7461V45.6055C20.5762 46.4131 21.2334 47.0703 22.041 47.0703C22.8486 47.0703 23.5059 46.4131 23.5059 45.6055C23.5059 43.1826 25.4775 41.2109 27.9004 41.2109H39.6191C40.4277 41.2109 41.084 41.8672 41.084 42.6758Z" fill="#C6E2E7"/>
<path d="M41.084 42.6758C41.084 43.4844 40.4277 44.1406 39.6191 44.1406H27.9004C27.0928 44.1406 26.4355 44.7979 26.4355 45.6055C26.4355 48.0283 24.4639 50 22.041 50C20.917 50 19.8887 49.5752 19.1113 48.877V38.2812C19.9199 38.2812 20.5762 38.9375 20.5762 39.7461V45.6055C20.5762 46.4131 21.2334 47.0703 22.041 47.0703C22.8486 47.0703 23.5059 46.4131 23.5059 45.6055C23.5059 43.1826 25.4775 41.2109 27.9004 41.2109H39.6191C40.4277 41.2109 41.084 41.8672 41.084 42.6758Z" fill="#A8D3D8"/>
<path d="M22.041 20.5078H16.1816C15.373 20.5078 14.7168 21.1641 14.7168 21.9727V36.8164C14.7168 39.2393 16.6885 41.2109 19.1113 41.2109C21.5342 41.2109 23.5059 39.2393 23.5059 36.8164V21.9727C23.5059 21.1641 22.8496 20.5078 22.041 20.5078Z" fill="#FF7CB8"/>
<path d="M23.5059 21.9727V36.8164C23.5059 39.2393 21.5342 41.2109 19.1113 41.2109V20.5078H22.041C22.8496 20.5078 23.5059 21.1641 23.5059 21.9727Z" fill="#C331C8"/>
<path d="M26.4355 16.7822V21.9727C26.4355 22.7813 25.7793 23.4375 24.9707 23.4375H13.252C12.4434 23.4375 11.7871 22.7813 11.7871 21.9727V16.7822C11.8721 16.8838 18.7178 15.0947 19.1113 15.1084C19.1201 15.1084 19.126 15.1094 19.1279 15.1123L26.4355 16.7822Z" fill="#C6E2E7"/>
<path d="M26.4355 16.7822V21.9727C26.4355 22.7812 25.7793 23.4375 24.9707 23.4375H19.1113V15.1084C19.1201 15.1084 19.126 15.1094 19.1279 15.1123L26.4355 16.7822Z" fill="#A8D3D8"/>
<path d="M26.4352 16.7822H11.7867C8.91662 13.4023 8.1549 9.50977 9.70275 6.0498C11.319 2.43359 15.1647 0 19.111 0C23.068 0 26.9518 2.50781 28.5563 6.09766C30.2223 9.82324 29.0924 13.6563 26.4352 16.7822Z" fill="#453D83"/>
<path d="M26.4355 16.7822H19.1113V0C23.0684 0 26.9521 2.50781 28.5566 6.09766C30.2226 9.82324 29.0928 13.6563 26.4355 16.7822Z" fill="#2D2755"/>
</g>
<defs>
<clipPath id="clip0">
<rect width="50" height="50" fill="white"/>
</clipPath>
</defs>
</svg>
