<svg width="55" height="55" viewBox="0 0 55 55" fill="none" xmlns="http://www.w3.org/2000/svg">
<g clip-path="url(#clip0)">
<path d="M27.5 55C42.6878 55 55 42.6878 55 27.5C55 12.3122 42.6878 0 27.5 0C12.3122 0 0 12.3122 0 27.5C0 42.6878 12.3122 55 27.5 55Z" fill="#1D81CE"/>
<path d="M27.5001 0C26.2844 0 25.0873 0.0799219 23.9132 0.232783C37.4061 1.99053 47.8262 13.528 47.8262 27.5C47.8262 41.472 37.406 53.0095 23.9131 54.7672C25.0873 54.9201 26.2844 55 27.5001 55C42.688 55 55.0001 42.6877 55.0001 27.5C55.0001 12.3123 42.688 0 27.5001 0Z" fill="#126DB1"/>
<path d="M17.9351 27.5099V28.5343C17.9351 28.6293 17.8581 28.7063 17.7631 28.7063H10.278C9.88447 28.7063 9.56543 29.0254 9.56543 29.4189V36.3687C9.56543 36.7622 9.88447 37.0813 10.278 37.0813H17.7631C17.8581 37.0813 17.9351 37.1583 17.9351 37.2532V53.1952C17.9351 53.2676 17.9803 53.3327 18.0482 53.3576C20.5858 54.287 23.2987 54.8522 26.1235 54.9916C26.2218 54.9965 26.3047 54.9174 26.3047 54.8189V37.2531C26.3047 37.1582 26.3817 37.0812 26.4766 37.0812H38.7444C39.1379 37.0812 39.457 36.7621 39.457 36.3686V29.4188C39.457 29.0253 39.1379 28.7062 38.7444 28.7062H26.4765C26.3816 28.7062 26.3046 28.6292 26.3046 28.5342V27.5098C26.3046 22.8844 30.0518 20.3313 34.6741 20.3313H38.7442C39.1377 20.3313 39.4567 20.0122 39.4567 19.6188V12.6689C39.4567 12.2754 39.1377 11.9564 38.7442 11.9564H34.6741C26.0897 11.9565 17.9351 18.92 17.9351 27.5099Z" fill="#FCFCFC"/>
</g>
<defs>
<clipPath id="clip0">
<rect width="55" height="55" fill="white"/>
</clipPath>
</defs>
</svg>
