<svg width="55" height="55" viewBox="0 0 55 55" fill="none" xmlns="http://www.w3.org/2000/svg">
<path d="M27.5 55C42.6878 55 55 42.6878 55 27.5C55 12.3122 42.6878 0 27.5 0C12.3122 0 0 12.3122 0 27.5C0 42.6878 12.3122 55 27.5 55Z" fill="#ECE5DD"/>
<path d="M27.5001 0C26.2844 0 25.0873 0.0799219 23.9132 0.232783C37.4061 1.99053 47.8262 13.528 47.8262 27.5C47.8262 41.472 37.406 53.0095 23.9131 54.7672C25.0873 54.9201 26.2844 55 27.5001 55C42.688 55 55.0001 42.6877 55.0001 27.5C55.0001 12.3123 42.688 0 27.5001 0Z" fill="#D9CBBD"/>
<path d="M27.4996 46.6305C38.065 46.6305 46.63 38.0655 46.63 27.5C46.63 16.9346 38.065 8.36957 27.4996 8.36957C16.9341 8.36957 8.36914 16.9346 8.36914 27.5C8.36914 38.0655 16.9341 46.6305 27.4996 46.6305Z" fill="#EE539E"/>
<path d="M27.4999 8.36951C26.483 8.36951 25.4847 8.44964 24.5107 8.6024C33.6563 10.0376 40.6521 17.9514 40.6521 27.5C40.6521 37.0485 33.6563 44.9623 24.5107 46.3975C25.4847 46.5503 26.483 46.6304 27.4999 46.6304C38.0653 46.6304 46.6303 38.0653 46.6303 27.5C46.6303 16.9345 38.0653 8.36951 27.4999 8.36951Z" fill="#EA358B"/>
<path d="M27.4999 7.47278C16.4568 7.47278 7.47266 16.4569 7.47266 27.5C7.47266 38.5431 16.4568 47.5272 27.4999 47.5272C38.5429 47.5272 47.5271 38.5431 47.5271 27.5C47.5271 16.4569 38.5429 7.47278 27.4999 7.47278ZM45.6131 25.4103C45.5537 25.4099 45.4939 25.4075 45.4346 25.4075C41.3573 25.4075 37.5613 26.6334 34.394 28.7343C33.1877 27.1935 31.8368 25.7504 30.3494 24.4206C29.5434 23.7 28.7087 23.0236 27.848 22.3913C29.712 19.3505 30.7878 15.7768 30.7878 11.9564C30.7878 11.1477 30.7382 10.3385 30.6418 9.53786C38.5304 10.914 44.6923 17.3768 45.6131 25.4103ZM27.4999 9.26629C27.938 9.26629 28.3725 9.28284 28.8031 9.31345C28.9295 10.1851 28.9944 11.0712 28.9944 11.9566C28.9944 15.3979 28.0358 18.6193 26.372 21.3687C22.3633 18.7462 17.8534 17.045 13.0709 16.3657C16.4088 12.0505 21.6349 9.26629 27.4999 9.26629ZM11.9257 18.0265C16.8499 18.5836 21.4284 20.2669 25.3872 22.8317C22.0603 27.2946 16.7424 30.1901 10.7606 30.1901C10.3269 30.1901 9.89126 30.1732 9.45824 30.1428C9.33245 29.2796 9.26606 28.3974 9.26606 27.4999C9.26617 24.033 10.2391 20.7892 11.9257 18.0265ZM9.81886 31.9603C10.1329 31.975 10.4473 31.9837 10.7606 31.9837C17.3535 31.9837 23.2119 28.7808 26.8634 23.85C29.1571 25.5321 31.2114 27.5247 32.9666 29.774C28.363 33.4464 25.4073 39.1016 25.4073 45.4348C25.4073 45.4941 25.4094 45.5537 25.4099 45.6132C17.8298 44.7443 11.6484 39.2093 9.81886 31.9603ZM27.2054 45.73C27.2039 45.6315 27.201 45.5329 27.201 45.4348C27.201 39.6936 29.8689 34.5647 34.0293 31.2199C36.2048 34.3677 37.8223 37.9535 38.7369 41.85C35.6381 44.2818 31.7354 45.7337 27.5 45.7337C27.4015 45.7337 27.3034 45.7315 27.2054 45.73ZM40.2518 40.5191C39.2632 36.7904 37.6452 33.3057 35.4615 30.178C38.3294 28.297 41.7561 27.201 45.4346 27.201C45.5327 27.201 45.6313 27.204 45.7298 27.2055C45.7313 27.3036 45.7335 27.4015 45.7335 27.4999C45.7335 32.5948 43.6323 37.2074 40.2518 40.5191Z" fill="#EA358B"/>
</svg>
