<svg width="55" height="55" viewBox="0 0 55 55" fill="none" xmlns="http://www.w3.org/2000/svg">
<path d="M27.5 55C42.6878 55 55 42.6878 55 27.5C55 12.3122 42.6878 0 27.5 0C12.3122 0 0 12.3122 0 27.5C0 42.6878 12.3122 55 27.5 55Z" fill="#EF72AD"/>
<path d="M27.5001 0C26.2844 0 25.0873 0.0799219 23.9132 0.232783C37.4061 1.99053 47.8262 13.528 47.8262 27.5C47.8262 41.472 37.406 53.0095 23.9131 54.7672C25.0873 54.9201 26.2844 55 27.5001 55C42.688 55 55.0001 42.6877 55.0001 27.5C55.0001 12.3123 42.688 0 27.5001 0Z" fill="#EE539E"/>
<path d="M37.688 9.86414H17.3122C13.2054 9.86414 9.86426 13.2053 9.86426 17.3121V37.6881C9.86426 41.795 13.2054 45.1361 17.3122 45.1361H37.6882C41.7951 45.1361 45.1362 41.795 45.1362 37.6881V17.3121C45.136 13.2053 41.7949 9.86414 37.688 9.86414ZM43.3425 37.6879C43.3425 40.8058 40.806 43.3424 37.688 43.3424H17.3122C14.1943 43.3424 11.6578 40.8058 11.6578 37.6879V17.3121C11.6578 14.1942 14.1943 11.6577 17.3122 11.6577H37.6882C40.8062 11.6577 43.3427 14.1942 43.3427 17.3121V37.6879H43.3425Z" fill="white"/>
<path d="M27.4997 18.2337C22.3902 18.2337 18.2334 22.3905 18.2334 27.5C18.2334 32.6095 22.3902 36.7663 27.4997 36.7663C32.6092 36.7663 36.766 32.6095 36.766 27.5C36.766 22.3905 32.6092 18.2337 27.4997 18.2337ZM27.4997 34.9728C23.3792 34.9728 20.0269 31.6204 20.0269 27.5C20.0269 23.3796 23.3793 20.0272 27.4997 20.0272C31.6201 20.0272 34.9725 23.3796 34.9725 27.5C34.9725 31.6204 31.6202 34.9728 27.4997 34.9728Z" fill="white"/>
<path d="M37.0651 19.1305C38.3858 19.1305 39.4565 18.0598 39.4565 16.7392C39.4565 15.4185 38.3858 14.3478 37.0651 14.3478C35.7445 14.3478 34.6738 15.4185 34.6738 16.7392C34.6738 18.0598 35.7445 19.1305 37.0651 19.1305Z" fill="white"/>
</svg>
