<svg width="768" height="2443" viewBox="0 0 768 2443" fill="none" xmlns="http://www.w3.org/2000/svg">
<path d="M769 0H0V2442.95H769V0Z" fill="white"/>
<rect width="769" height="2443" fill="url(#paint0_linear)"/>
<g style="mix-blend-mode:overlay" opacity="0.75">
<g style="mix-blend-mode:overlay" opacity="0.75">
<path d="M499.159 131.754L439.382 165.809L330.229 102.829L283.026 129.675L244.007 107.172L206.837 128.335L95.1411 63.8762L27.5506 -53.1199L-46.7898 -96V-89.1152L25.0541 -47.6675L86.6346 58.9782L-59.2724 -25.2109V-18.3261L153.254 104.307L95.7422 137.114L13.9123 89.8907L-20.3916 109.39L-51.0431 91.739V98.6238L-17.9413 117.754L16.3625 98.2079L98.1924 145.431L161.622 109.344L209.287 136.652L246.457 115.489L370.127 186.833L419.733 272.824L335.129 321.018L299.716 259.655L188.575 195.52L143.638 221.165L72.5339 180.133V187.018L146.135 229.482L191.025 203.837L297.219 265.108L330.83 323.421L271.885 357.06L168.233 297.221L110.213 330.306L-62 230.914V237.845L112.663 338.623L170.684 305.631L274.335 365.423L296.434 352.808L349.091 443.929L415.896 482.511L469.386 575.156L576.181 636.75V629.865L471.929 569.658L418.392 477.059L351.588 438.476L300.687 350.359L423.986 280.125L463.931 349.251L569.292 410.059L569.339 403.174L466.427 343.798L372.623 181.381L291.533 134.619L332.679 111.146L441.832 174.126L501.609 140.071L569.94 179.532L569.986 172.647L499.159 131.754Z" fill="white" fill-opacity="0.2"/>
</g>
</g>
<g opacity="0.2">
<g style="mix-blend-mode:overlay" opacity="0.75">
<g style="mix-blend-mode:overlay" opacity="0.75">
<path d="M719.978 1058.75L660.201 1092.81L551.048 1029.83L503.846 1056.67L464.826 1034.17L427.656 1055.33L315.96 990.876L248.37 873.88L174.029 831V837.885L245.873 879.333L307.454 985.978L161.547 901.789V908.674L374.074 1031.31L316.562 1064.11L234.732 1016.89L200.428 1036.39L169.776 1018.74V1025.62L202.878 1044.75L237.182 1025.21L319.012 1072.43L382.442 1036.34L430.106 1063.65L467.277 1042.49L590.946 1113.83L640.553 1199.82L555.949 1248.02L520.535 1186.66L409.395 1122.52L364.457 1148.16L293.353 1107.13V1114.02L366.954 1156.48L411.845 1130.84L518.039 1192.11L551.649 1250.42L492.704 1284.06L389.053 1224.22L331.032 1257.31L158.819 1157.91V1164.85L333.482 1265.62L391.503 1232.63L495.154 1292.42L517.253 1279.81L569.911 1370.93L636.715 1409.51L690.205 1502.16L797 1563.75V1556.87L692.748 1496.66L639.212 1404.06L572.407 1365.48L521.506 1277.36L644.806 1207.12L684.75 1276.25L790.112 1337.06L790.158 1330.17L687.246 1270.8L593.443 1108.38L512.352 1061.62L553.498 1038.15L662.651 1101.13L722.429 1067.07L790.759 1106.53L790.805 1099.65L719.978 1058.75Z" fill="white"/>
</g>
</g>
<g style="mix-blend-mode:overlay">
<g style="mix-blend-mode:overlay">
<path d="M581.699 978.262V983.945C581.696 984.706 581.493 985.453 581.11 986.11C580.727 986.768 580.179 987.314 579.518 987.693C578.858 988.072 578.11 988.271 577.349 988.27C576.588 988.269 575.84 988.068 575.181 987.688L548.32 972.255C547.674 971.851 547.137 971.294 546.758 970.633C546.379 969.972 546.169 969.227 546.147 968.466V962.782C546.151 962.021 546.354 961.275 546.737 960.617C547.119 959.959 547.668 959.414 548.328 959.035C548.989 958.656 549.737 958.457 550.498 958.458C551.259 958.458 552.007 958.659 552.666 959.04L579.573 974.473C580.211 974.882 580.739 975.441 581.109 976.102C581.48 976.763 581.683 977.504 581.699 978.262Z" fill="white"/>
</g>
<g style="mix-blend-mode:overlay">
<path d="M666.673 1055.15V1060.83C666.679 1061.59 666.484 1062.34 666.107 1063C665.73 1063.66 665.185 1064.21 664.527 1064.59C663.869 1064.97 663.122 1065.17 662.362 1065.17C661.603 1065.16 660.857 1064.96 660.201 1064.58L548.32 1000.53C547.674 1000.13 547.137 999.573 546.758 998.912C546.379 998.251 546.169 997.506 546.148 996.744V991.061C546.143 990.296 546.34 989.544 546.719 988.88C547.099 988.215 547.647 987.663 548.308 987.279C548.97 986.894 549.721 986.691 550.486 986.69C551.252 986.689 552.003 986.89 552.666 987.272L664.5 1051.36C665.147 1051.76 665.684 1052.32 666.063 1052.98C666.442 1053.64 666.652 1054.39 666.673 1055.15Z" fill="white"/>
</g>
</g>
<g style="mix-blend-mode:overlay">
<g style="mix-blend-mode:overlay">
<path d="M354.748 948.966V954.65C354.753 955.415 354.556 956.167 354.177 956.831C353.797 957.495 353.249 958.048 352.588 958.432C351.926 958.817 351.175 959.02 350.41 959.021C349.644 959.022 348.893 958.821 348.23 958.439L321.416 942.96C320.739 942.597 320.175 942.057 319.784 941.397C319.393 940.738 319.19 939.984 319.196 939.217V933.533C319.263 932.798 319.505 932.09 319.902 931.468C320.298 930.845 320.838 930.327 321.477 929.956C322.115 929.585 322.833 929.372 323.57 929.335C324.308 929.299 325.043 929.439 325.715 929.744L352.576 945.224C353.233 945.603 353.78 946.149 354.162 946.805C354.543 947.462 354.745 948.207 354.748 948.966Z" fill="white"/>
</g>
<g style="mix-blend-mode:overlay">
<path d="M439.768 1025.85V1031.54C439.773 1032.3 439.576 1033.06 439.196 1033.72C438.817 1034.38 438.268 1034.94 437.607 1035.32C436.946 1035.7 436.194 1035.91 435.429 1035.91C434.664 1035.91 433.912 1035.71 433.249 1035.33L321.415 971.238C320.757 970.859 320.211 970.313 319.829 969.657C319.448 969 319.246 968.255 319.242 967.495V961.766C319.236 961.006 319.432 960.259 319.809 959.599C320.186 958.94 320.731 958.392 321.389 958.011C322.046 957.631 322.793 957.432 323.553 957.434C324.313 957.436 325.059 957.639 325.715 958.023L437.595 1022.11C438.256 1022.49 438.806 1023.03 439.187 1023.69C439.569 1024.35 439.769 1025.09 439.768 1025.85Z" fill="white"/>
</g>
</g>
<path style="mix-blend-mode:color-dodge" d="M719.978 1545.45C737.8 1545.45 752.247 1531.01 752.247 1513.2C752.247 1495.39 737.8 1480.95 719.978 1480.95C702.156 1480.95 687.708 1495.39 687.708 1513.2C687.708 1531.01 702.156 1545.45 719.978 1545.45Z" fill="url(#paint1_radial)"/>
<path style="mix-blend-mode:color-dodge" d="M668.707 1675.48C678.461 1675.48 686.368 1667.58 686.368 1657.83C686.368 1648.08 678.461 1640.18 668.707 1640.18C658.954 1640.18 651.047 1648.08 651.047 1657.83C651.047 1667.58 658.954 1675.48 668.707 1675.48Z" fill="url(#paint2_radial)"/>
</g>
<defs>
<linearGradient id="paint0_linear" x1="-22.4292" y1="-2.36519e-05" x2="758.443" y2="137.942" gradientUnits="userSpaceOnUse">
<stop stop-color="#1D0553"/>
<stop offset="1" stop-color="#3C065D"/>
</linearGradient>
<radialGradient id="paint1_radial" cx="0" cy="0" r="1" gradientUnits="userSpaceOnUse" gradientTransform="translate(719.978 1513.2) scale(32.2697 32.2525)">
<stop stop-color="white"/>
<stop offset="0.19" stop-color="#BEBEBE"/>
<stop offset="0.41" stop-color="#7B7B7B"/>
<stop offset="0.61" stop-color="#464646"/>
<stop offset="0.78" stop-color="#202020"/>
<stop offset="0.91" stop-color="#090909"/>
<stop offset="1"/>
</radialGradient>
<radialGradient id="paint2_radial" cx="0" cy="0" r="1" gradientUnits="userSpaceOnUse" gradientTransform="translate(9526.46 7957.13) scale(134.925 134.854)">
<stop stop-color="white"/>
<stop offset="0.19" stop-color="#BEBEBE"/>
<stop offset="0.41" stop-color="#7B7B7B"/>
<stop offset="0.61" stop-color="#464646"/>
<stop offset="0.78" stop-color="#202020"/>
<stop offset="0.91" stop-color="#090909"/>
<stop offset="1"/>
</radialGradient>
</defs>
</svg>
