<svg width="1920" height="1452" viewBox="0 0 1920 1452" fill="none" xmlns="http://www.w3.org/2000/svg">
<g style="mix-blend-mode:overlay" opacity="0.75">
<g style="mix-blend-mode:overlay" opacity="0.75">
<path d="M446.159 91.7542L386.382 125.809L277.229 62.8286L230.026 89.6749L191.007 67.1721L153.837 88.3349L42.1411 23.8762L-25.4494 -93.1199L-99.7898 -136V-129.115L-27.9459 -87.6675L33.6346 18.9782L-112.272 -65.2109V-58.3261L100.254 64.3073L42.7422 97.1142L-39.0877 49.8907L-73.3916 69.39L-104.043 51.739V58.6238L-70.9413 77.7535L-36.6375 58.2079L45.1924 105.431L108.622 69.3438L156.287 96.6522L193.457 75.4894L317.127 146.833L366.733 232.824L282.129 281.018L246.716 219.655L135.575 155.52L90.6381 181.165L19.5339 140.133V147.018L93.1346 189.482L138.025 163.837L244.219 225.108L277.83 283.421L218.885 317.06L115.233 257.221L57.2127 290.306L-115 190.914V197.845L59.663 298.623L117.684 265.631L221.335 325.423L243.434 312.808L296.091 403.929L362.896 442.511L416.386 535.156L523.181 596.75V589.865L418.929 529.658L365.392 437.059L298.588 398.476L247.687 310.359L370.986 240.125L410.931 309.251L516.292 370.059L516.339 363.174L413.427 303.798L319.623 141.381L238.533 94.6191L279.679 71.1459L388.832 134.126L448.609 100.071L516.94 139.532L516.986 132.647L446.159 91.7542Z" fill="white" fill-opacity="0.2"/>
</g>
</g>
<g opacity="0.2">
<g style="mix-blend-mode:overlay" opacity="0.75">
<g style="mix-blend-mode:overlay" opacity="0.75">
<path d="M1870.98 582.754L1811.2 616.809L1702.05 553.829L1654.84 580.675L1615.83 558.172L1578.66 579.335L1466.96 514.876L1399.37 397.88L1325.03 355V361.885L1396.87 403.333L1458.45 509.978L1312.55 425.789V432.674L1525.07 555.307L1467.56 588.114L1385.73 540.891L1351.43 560.39L1320.78 542.739V549.624L1353.88 568.754L1388.18 549.208L1470.01 596.431L1533.44 560.344L1581.11 587.652L1618.28 566.489L1741.95 637.833L1791.55 723.824L1706.95 772.018L1671.53 710.655L1560.39 646.52L1515.46 672.165L1444.35 631.133V638.018L1517.95 680.482L1562.84 654.837L1669.04 716.108L1702.65 774.421L1643.7 808.06L1540.05 748.221L1482.03 781.306L1309.82 681.914V688.845L1484.48 789.623L1542.5 756.631L1646.15 816.423L1668.25 803.808L1720.91 894.929L1787.71 933.511L1841.2 1026.16L1948 1087.75V1080.87L1843.75 1020.66L1790.21 928.059L1723.41 889.476L1672.51 801.359L1795.8 731.125L1835.75 800.251L1941.11 861.059L1941.16 854.174L1838.25 794.798L1744.44 632.381L1663.35 585.619L1704.5 562.146L1813.65 625.126L1873.43 591.071L1941.76 630.532L1941.8 623.647L1870.98 582.754Z" fill="white"/>
</g>
</g>
<g style="mix-blend-mode:overlay">
<g style="mix-blend-mode:overlay">
<path d="M1732.7 502.262V507.945C1732.7 508.706 1732.49 509.453 1732.11 510.11C1731.73 510.768 1731.18 511.314 1730.52 511.693C1729.86 512.072 1729.11 512.271 1728.35 512.27C1727.59 512.269 1726.84 512.068 1726.18 511.688L1699.32 496.255C1698.67 495.851 1698.14 495.294 1697.76 494.633C1697.38 493.972 1697.17 493.227 1697.15 492.466V486.782C1697.15 486.022 1697.35 485.275 1697.74 484.617C1698.12 483.96 1698.67 483.414 1699.33 483.035C1699.99 482.656 1700.74 482.457 1701.5 482.458C1702.26 482.458 1703.01 482.659 1703.67 483.04L1730.57 498.473C1731.21 498.882 1731.74 499.441 1732.11 500.102C1732.48 500.763 1732.68 501.504 1732.7 502.262Z" fill="white"/>
</g>
<g style="mix-blend-mode:overlay">
<path d="M1817.67 579.15V584.834C1817.68 585.593 1817.48 586.341 1817.11 587C1816.73 587.66 1816.18 588.207 1815.53 588.588C1814.87 588.968 1814.12 589.168 1813.36 589.166C1812.6 589.164 1811.86 588.96 1811.2 588.576L1699.32 524.533C1698.67 524.13 1698.14 523.573 1697.76 522.912C1697.38 522.251 1697.17 521.506 1697.15 520.744V515.061C1697.14 514.296 1697.34 513.544 1697.72 512.88C1698.1 512.216 1698.65 511.663 1699.31 511.279C1699.97 510.894 1700.72 510.691 1701.49 510.69C1702.25 510.689 1703 510.89 1703.67 511.272L1815.5 575.361C1816.15 575.765 1816.68 576.322 1817.06 576.983C1817.44 577.644 1817.65 578.388 1817.67 579.15Z" fill="white"/>
</g>
</g>
<g style="mix-blend-mode:overlay">
<g style="mix-blend-mode:overlay">
<path d="M1505.75 472.966V478.65C1505.75 479.415 1505.56 480.167 1505.18 480.831C1504.8 481.495 1504.25 482.048 1503.59 482.432C1502.93 482.817 1502.17 483.02 1501.41 483.021C1500.64 483.022 1499.89 482.821 1499.23 482.439L1472.42 466.96C1471.74 466.597 1471.18 466.057 1470.78 465.397C1470.39 464.738 1470.19 463.984 1470.2 463.217V457.533C1470.26 456.798 1470.5 456.09 1470.9 455.468C1471.3 454.845 1471.84 454.327 1472.48 453.956C1473.11 453.585 1473.83 453.372 1474.57 453.335C1475.31 453.299 1476.04 453.439 1476.72 453.744L1503.58 469.224C1504.23 469.603 1504.78 470.149 1505.16 470.805C1505.54 471.462 1505.75 472.207 1505.75 472.966Z" fill="white"/>
</g>
<g style="mix-blend-mode:overlay">
<path d="M1590.77 549.855V555.538C1590.77 556.303 1590.58 557.056 1590.2 557.72C1589.82 558.384 1589.27 558.936 1588.61 559.32C1587.95 559.705 1587.19 559.908 1586.43 559.909C1585.66 559.91 1584.91 559.71 1584.25 559.327L1472.42 495.238C1471.76 494.859 1471.21 494.313 1470.83 493.657C1470.45 493 1470.25 492.255 1470.24 491.495V485.766C1470.24 485.006 1470.43 484.259 1470.81 483.599C1471.19 482.94 1471.73 482.392 1472.39 482.011C1473.05 481.631 1473.79 481.432 1474.55 481.434C1475.31 481.436 1476.06 481.639 1476.71 482.023L1588.6 546.112C1589.26 546.488 1589.81 547.033 1590.19 547.69C1590.57 548.348 1590.77 549.095 1590.77 549.855Z" fill="white"/>
</g>
</g>
<path style="mix-blend-mode:overlay" opacity="0.57" d="M799.977 1269.57C799.999 1269.34 799.999 1269.11 799.977 1268.88C799.999 1268.67 799.999 1268.45 799.977 1268.23V1223.97H774.318V1269.57C774.919 1272.9 780.421 1275.54 787.171 1275.49C793.921 1275.44 799.283 1272.86 799.931 1269.57H799.977Z" fill="url(#paint0_linear)"/>
<path style="mix-blend-mode:overlay" opacity="0.57" d="M860.17 1170.37C860.231 1169.94 860.231 1169.5 860.17 1169.07V1124.81H834.512V1170.37C835.113 1173.74 840.614 1176.33 847.364 1176.33C854.114 1176.33 859.477 1173.7 860.124 1170.37H860.17Z" fill="url(#paint1_linear)"/>
<path style="mix-blend-mode:color-dodge" d="M1870.98 1069.45C1888.8 1069.45 1903.25 1055.01 1903.25 1037.2C1903.25 1019.39 1888.8 1004.95 1870.98 1004.95C1853.16 1004.95 1838.71 1019.39 1838.71 1037.2C1838.71 1055.01 1853.16 1069.45 1870.98 1069.45Z" fill="url(#paint2_radial)"/>
<path style="mix-blend-mode:color-dodge" d="M1819.71 1199.48C1829.46 1199.48 1837.37 1191.58 1837.37 1181.83C1837.37 1172.08 1829.46 1164.18 1819.71 1164.18C1809.95 1164.18 1802.05 1172.08 1802.05 1181.83C1802.05 1191.58 1809.95 1199.48 1819.71 1199.48Z" fill="url(#paint3_radial)"/>
<path style="mix-blend-mode:color-dodge" d="M1077.18 1281.82C1077.18 1285.31 1076.15 1288.72 1074.2 1291.63C1072.26 1294.53 1069.51 1296.79 1066.28 1298.13C1063.05 1299.46 1059.5 1299.81 1056.08 1299.13C1052.65 1298.45 1049.5 1296.77 1047.03 1294.3C1044.56 1291.83 1042.88 1288.69 1042.2 1285.26C1041.52 1281.84 1041.87 1278.29 1043.2 1275.06C1044.54 1271.84 1046.8 1269.08 1049.71 1267.14C1052.61 1265.2 1056.03 1264.17 1059.52 1264.17C1064.2 1264.17 1068.7 1266.03 1072.01 1269.34C1075.32 1272.65 1077.18 1277.14 1077.18 1281.82Z" fill="url(#paint4_radial)"/>
<path style="mix-blend-mode:color-dodge" d="M1129.56 1237.92C1129.56 1239.67 1129.04 1241.37 1128.07 1242.83C1127.1 1244.28 1125.72 1245.41 1124.11 1246.08C1122.5 1246.74 1120.72 1246.92 1119.01 1246.58C1117.3 1246.24 1115.72 1245.4 1114.49 1244.16C1113.25 1242.93 1112.41 1241.36 1112.07 1239.64C1111.73 1237.93 1111.91 1236.16 1112.57 1234.55C1113.24 1232.93 1114.37 1231.55 1115.83 1230.58C1117.28 1229.62 1118.99 1229.1 1120.73 1229.1C1121.89 1229.09 1123.04 1229.32 1124.12 1229.76C1125.19 1230.2 1126.17 1230.85 1126.99 1231.67C1127.81 1232.49 1128.46 1233.46 1128.9 1234.54C1129.34 1235.61 1129.57 1236.76 1129.56 1237.92Z" fill="url(#paint5_radial)"/>
</g>
<defs>
<linearGradient id="paint0_linear" x1="1491.69" y1="10942.4" x2="1491.69" y2="11277.3" gradientUnits="userSpaceOnUse">
<stop stop-color="#282A57" stop-opacity="0"/>
<stop offset="0.03" stop-color="#353761" stop-opacity="0.06"/>
<stop offset="0.14" stop-color="#646686" stop-opacity="0.28"/>
<stop offset="0.26" stop-color="#8D8FA6" stop-opacity="0.47"/>
<stop offset="0.37" stop-color="#B0B1C2" stop-opacity="0.63"/>
<stop offset="0.49" stop-color="#CDCDD8" stop-opacity="0.77"/>
<stop offset="0.61" stop-color="#E3E3E9" stop-opacity="0.87"/>
<stop offset="0.73" stop-color="#F3F3F5" stop-opacity="0.94"/>
<stop offset="0.86" stop-color="#FCFCFD" stop-opacity="0.99"/>
<stop offset="1" stop-color="white"/>
</linearGradient>
<linearGradient id="paint1_linear" x1="1887.35" y1="9737.53" x2="1887.35" y2="10071.9" gradientUnits="userSpaceOnUse">
<stop stop-color="#282A57" stop-opacity="0"/>
<stop offset="0.03" stop-color="#353761" stop-opacity="0.06"/>
<stop offset="0.14" stop-color="#646686" stop-opacity="0.28"/>
<stop offset="0.26" stop-color="#8D8FA6" stop-opacity="0.47"/>
<stop offset="0.37" stop-color="#B0B1C2" stop-opacity="0.63"/>
<stop offset="0.49" stop-color="#CDCDD8" stop-opacity="0.77"/>
<stop offset="0.61" stop-color="#E3E3E9" stop-opacity="0.87"/>
<stop offset="0.73" stop-color="#F3F3F5" stop-opacity="0.94"/>
<stop offset="0.86" stop-color="#FCFCFD" stop-opacity="0.99"/>
<stop offset="1" stop-color="white"/>
</linearGradient>
<radialGradient id="paint2_radial" cx="0" cy="0" r="1" gradientUnits="userSpaceOnUse" gradientTransform="translate(1870.98 1037.2) scale(32.2697 32.2525)">
<stop stop-color="white"/>
<stop offset="0.19" stop-color="#BEBEBE"/>
<stop offset="0.41" stop-color="#7B7B7B"/>
<stop offset="0.61" stop-color="#464646"/>
<stop offset="0.78" stop-color="#202020"/>
<stop offset="0.91" stop-color="#090909"/>
<stop offset="1"/>
</radialGradient>
<radialGradient id="paint3_radial" cx="0" cy="0" r="1" gradientUnits="userSpaceOnUse" gradientTransform="translate(10677.5 7481.13) scale(134.925 134.854)">
<stop stop-color="white"/>
<stop offset="0.19" stop-color="#BEBEBE"/>
<stop offset="0.41" stop-color="#7B7B7B"/>
<stop offset="0.61" stop-color="#464646"/>
<stop offset="0.78" stop-color="#202020"/>
<stop offset="0.91" stop-color="#090909"/>
<stop offset="1"/>
</radialGradient>
<radialGradient id="paint4_radial" cx="0" cy="0" r="1" gradientUnits="userSpaceOnUse" gradientTransform="translate(4109.48 8345.08) scale(134.926 134.854)">
<stop stop-color="white"/>
<stop offset="0.19" stop-color="#BEBEBE"/>
<stop offset="0.41" stop-color="#7B7B7B"/>
<stop offset="0.61" stop-color="#464646"/>
<stop offset="0.78" stop-color="#202020"/>
<stop offset="0.91" stop-color="#090909"/>
<stop offset="1"/>
</radialGradient>
<radialGradient id="paint5_radial" cx="0" cy="0" r="1" gradientUnits="userSpaceOnUse" gradientTransform="translate(2878.66 4601.87) scale(33.7317 33.7136)">
<stop stop-color="white"/>
<stop offset="0.19" stop-color="#BEBEBE"/>
<stop offset="0.41" stop-color="#7B7B7B"/>
<stop offset="0.61" stop-color="#464646"/>
<stop offset="0.78" stop-color="#202020"/>
<stop offset="0.91" stop-color="#090909"/>
<stop offset="1"/>
</radialGradient>
</defs>
</svg>
