<svg width="52" height="52" viewBox="0 0 52 52" fill="none" xmlns="http://www.w3.org/2000/svg">
<g filter="url(#filter0_d)">
<path d="M47.2467 7.87C46.8462 4.11761 43.8827 1.15344 40.13 0.753296C30.7192 -0.251099 21.2808 -0.251099 11.8703 0.753296C8.11761 1.15378 5.15378 4.11761 4.7533 7.87C3.7489 17.2805 3.7489 26.7192 4.7533 36.1297C5.15378 39.8824 8.11761 42.8462 11.87 43.2467C21.2805 44.2511 30.7192 44.2511 40.13 43.2467C43.8827 42.8462 46.8462 39.8824 47.2467 36.1297C48.2511 26.7192 48.2511 17.2808 47.2467 7.87Z" fill="url(#paint0_radial)"/>
<path d="M45.0098 9.35741C44.6517 6 42.0001 3.348 38.6423 2.98954C30.2222 2.09121 21.7771 2.09121 13.357 2.98954C9.99964 3.348 7.34763 6 6.98918 9.35741C6.09085 17.7775 6.09085 26.2226 6.98918 34.6423C7.34763 38.0001 9.99964 40.6521 13.357 41.0102C21.7771 41.9089 30.2222 41.9089 38.642 41.0102C41.9997 40.6521 44.6517 38.0001 45.0098 34.6423C45.9085 26.2226 45.9085 17.7775 45.0098 9.35741Z" fill="url(#paint1_linear)"/>
<path d="M5.1582 34.7368C5.18771 35.0576 5.2182 35.3784 5.25 35.6992C5.64112 39.657 8.53569 42.783 12.2007 43.2054C21.3913 44.2648 30.6094 44.2648 39.7999 43.2054C43.4649 42.783 46.3592 39.657 46.7503 35.6992C46.7821 35.3784 46.8126 35.0576 46.8424 34.7368H5.1582Z" fill="url(#paint2_linear)"/>
<path d="M47.246 36.0728C47.7868 30.9796 48.0364 25.8784 47.996 20.7778L37.9198 10.6476C36.661 9.20277 34.8223 8.301 32.6618 8.22289C28.2186 8.06194 23.7614 8.07006 19.3175 8.22357C15.6268 8.35138 13.0458 10.8454 12.3839 14.511C12.2672 15.1581 12.1973 15.8138 12.1055 16.4657V27.2119C12.1563 27.5602 12.2309 27.9068 12.2541 28.2571C12.4021 30.4867 13.3135 32.3964 14.7728 33.6883L25.0266 43.9967C30.0586 44.0322 35.091 43.7807 40.116 43.2414C43.8757 42.838 46.8448 39.8527 47.246 36.0728Z" fill="url(#paint3_linear)"/>
<path d="M47.2371 36.0177C46.8318 39.8233 43.8289 42.8302 40.0283 43.2361C34.9484 43.7788 29.8594 44.0325 24.7724 43.9967L14.4209 33.6315C15.6209 34.6833 17.1851 35.3238 19.0002 35.3922C23.4921 35.5611 27.9997 35.5567 32.4916 35.3946C36.5544 35.2475 39.4944 32.2366 39.6212 28.1684C39.7566 23.849 39.7566 19.5183 39.6212 15.1988C39.5634 13.322 38.9054 11.6707 37.8146 10.4211L47.9957 20.6157C48.0358 25.7513 47.7835 30.8889 47.2371 36.0177Z" fill="url(#paint4_linear)"/>
<path d="M31.4646 17.3678C30.1581 15.9452 28.2834 15.0526 26.1996 15.0526C22.2527 15.0526 19.0527 18.2526 19.0527 22.1995C19.0527 24.2832 19.9453 26.158 21.368 27.4645L37.9034 44C38.7787 43.9237 39.6539 43.839 40.5285 43.7457C44.3341 43.3396 47.3397 40.3339 47.7458 36.5283C47.8391 35.6538 47.9238 34.7785 48.0001 33.9033L31.4646 17.3678Z" fill="url(#paint5_linear)"/>
<path d="M47.9996 26.7347L34.8131 13.4097C34.5055 13.0017 34.0208 12.7368 33.474 12.7368C32.5436 12.7368 31.7891 13.499 31.7891 14.4395C31.7891 14.992 32.0512 15.4818 32.4549 15.7927L47.7638 31.2631C47.8677 29.7541 47.9463 28.2444 47.9996 26.7347Z" fill="url(#paint6_linear)"/>
<path d="M12.1055 16.5626C12.1976 15.9032 12.2677 15.2399 12.3848 14.5853C13.0482 10.8772 15.6371 8.35423 19.3387 8.22494C23.7956 8.06965 28.266 8.06144 32.7221 8.22425C36.751 8.37133 39.6687 11.3964 39.7945 15.4831C39.9284 19.8226 39.9284 24.1728 39.7945 28.5123C39.6687 32.599 36.752 35.6237 32.7225 35.7712C28.2663 35.9343 23.7949 35.9384 19.3391 35.7688C15.3096 35.6152 12.5241 32.5833 12.2546 28.4904C12.2313 28.1364 12.1564 27.7854 12.1055 27.4331C12.1055 23.8095 12.1055 20.1859 12.1055 16.5626ZM26.004 33.3491C28.0433 33.3491 30.0847 33.411 32.1214 33.3348C35.3147 33.2147 37.2789 31.2822 37.3534 28.0471C37.4458 24.0161 37.4458 19.9796 37.3534 15.9483C37.2789 12.7139 35.3134 10.7362 32.1214 10.6675C28.07 10.5806 24.0142 10.5813 19.9627 10.6675C16.7951 10.7349 14.8252 12.6725 14.7392 15.8713C14.6299 19.9533 14.6299 24.0424 14.7392 28.1244C14.8252 31.3229 16.7951 33.2157 19.9631 33.3348C21.9741 33.4107 23.9902 33.3491 26.004 33.3491Z" fill="url(#paint7_linear)"/>
<path d="M12.1719 16.6635C12.2635 16.0163 12.3333 15.3654 12.4498 14.7229C13.1101 11.0836 15.6866 8.60754 19.3705 8.48065C23.806 8.32825 28.2549 8.32019 32.6898 8.47998C36.6993 8.62433 39.6031 11.5932 39.7283 15.6041C39.8615 19.863 39.8615 24.1324 39.7283 28.3913C39.6031 32.4022 36.7003 35.3707 32.6901 35.5154C28.2553 35.6755 23.8053 35.6795 19.3708 35.513C15.3606 35.3623 12.5885 32.3867 12.3203 28.3698C12.2971 28.0224 12.2226 27.6779 12.1719 27.3322C12.1719 23.7758 12.1719 20.2195 12.1719 16.6635ZM26.0038 33.1383C28.0334 33.1383 30.065 33.1991 32.0919 33.1242C35.2699 33.0064 37.2247 31.1097 37.2989 27.9348C37.3908 23.9786 37.3908 20.0171 37.2989 16.0606C37.2247 12.8863 35.2686 10.9453 32.0919 10.8778C28.0599 10.7926 24.0235 10.7932 19.9915 10.8778C16.839 10.944 14.8786 12.8457 14.793 15.9851C14.6842 19.9912 14.6842 24.0045 14.793 28.0106C14.8786 31.1497 16.839 33.0074 19.9919 33.1242C21.9933 33.1988 23.9997 33.1383 26.0038 33.1383Z" fill="white"/>
<path d="M26.0007 14.9528C22.1086 14.9528 18.9531 18.108 18.9531 22C18.9531 25.8924 22.1086 29.0476 26.0007 29.0476C29.893 29.0476 33.0482 25.8924 33.0482 22C33.0482 18.108 29.893 14.9528 26.0007 14.9528ZM26.0007 26.6212C23.4484 26.6212 21.3795 24.5523 21.3795 22C21.3795 19.4478 23.4484 17.3789 26.0007 17.3789C28.5529 17.3789 30.6218 19.4478 30.6218 22C30.6218 24.5523 28.5529 26.6212 26.0007 26.6212Z" fill="white"/>
<path d="M35.1355 14.6313C35.1355 15.5571 34.3849 16.3077 33.459 16.3077C32.5332 16.3077 31.7822 15.5571 31.7822 14.6313C31.7822 13.7051 32.5332 12.9545 33.459 12.9545C34.3849 12.9545 35.1355 13.7051 35.1355 14.6313Z" fill="white"/>
</g>
<defs>
<filter id="filter0_d" x="0" y="0" width="52.0002" height="52" filterUnits="userSpaceOnUse" color-interpolation-filters="sRGB">
<feFlood flood-opacity="0" result="BackgroundImageFix"/>
<feColorMatrix in="SourceAlpha" type="matrix" values="0 0 0 0 0 0 0 0 0 0 0 0 0 0 0 0 0 0 127 0"/>
<feOffset dy="4"/>
<feGaussianBlur stdDeviation="2"/>
<feColorMatrix type="matrix" values="0 0 0 0 0 0 0 0 0 0 0 0 0 0 0 0 0 0 0.15 0"/>
<feBlend mode="normal" in2="BackgroundImageFix" result="effect1_dropShadow"/>
<feBlend mode="normal" in="SourceGraphic" in2="effect1_dropShadow" result="shape"/>
</filter>
<radialGradient id="paint0_radial" cx="0" cy="0" r="1" gradientUnits="userSpaceOnUse" gradientTransform="translate(13.0198 38.4525) scale(48.5243)">
<stop stop-color="#FAE100"/>
<stop offset="0.0544" stop-color="#FADC04"/>
<stop offset="0.1167" stop-color="#FBCE0E"/>
<stop offset="0.1829" stop-color="#FCB720"/>
<stop offset="0.2514" stop-color="#FE9838"/>
<stop offset="0.3054" stop-color="#FF7950"/>
<stop offset="0.4922" stop-color="#FF1C74"/>
<stop offset="1" stop-color="#6C1CD1"/>
</radialGradient>
<linearGradient id="paint1_linear" x1="20.8329" y1="19.0937" x2="-54.3275" y2="-23.184" gradientUnits="userSpaceOnUse">
<stop stop-color="#A1B5D8" stop-opacity="0"/>
<stop offset="0.3094" stop-color="#90A2BD" stop-opacity="0.309804"/>
<stop offset="0.7554" stop-color="#7C8B9C" stop-opacity="0.756863"/>
<stop offset="1" stop-color="#748290"/>
</linearGradient>
<linearGradient id="paint2_linear" x1="26.0002" y1="38.5584" x2="26.0002" y2="45.7923" gradientUnits="userSpaceOnUse">
<stop stop-color="#FAE100" stop-opacity="0"/>
<stop offset="0.3068" stop-color="#FCA800" stop-opacity="0.305882"/>
<stop offset="0.6275" stop-color="#FE7300" stop-opacity="0.627451"/>
<stop offset="0.8685" stop-color="#FF5200" stop-opacity="0.866667"/>
<stop offset="1" stop-color="#FF4500"/>
</linearGradient>
<linearGradient id="paint3_linear" x1="23.4517" y1="19.2568" x2="12.4837" y2="8.34734" gradientUnits="userSpaceOnUse">
<stop stop-color="#833AB4" stop-opacity="0"/>
<stop offset="1" stop-color="#833AB4"/>
</linearGradient>
<linearGradient id="paint4_linear" x1="33.9763" y1="40.1899" x2="28.457" y2="14.2046" gradientUnits="userSpaceOnUse">
<stop stop-color="#833AB4" stop-opacity="0"/>
<stop offset="1" stop-color="#833AB4"/>
</linearGradient>
<linearGradient id="paint5_linear" x1="36.5673" y1="32.5672" x2="14.4294" y2="10.4293" gradientUnits="userSpaceOnUse">
<stop stop-color="#833AB4" stop-opacity="0"/>
<stop offset="1" stop-color="#833AB4"/>
</linearGradient>
<linearGradient id="paint6_linear" x1="37.8788" y1="18.8907" x2="30.5491" y2="11.6373" gradientUnits="userSpaceOnUse">
<stop stop-color="#833AB4" stop-opacity="0"/>
<stop offset="1" stop-color="#833AB4"/>
</linearGradient>
<linearGradient id="paint7_linear" x1="34.7786" y1="13.1605" x2="16.6446" y2="31.0435" gradientUnits="userSpaceOnUse">
<stop stop-color="#833AB4"/>
<stop offset="0.0922" stop-color="#9C3495"/>
<stop offset="0.2927" stop-color="#DC2546"/>
<stop offset="0.392" stop-color="#FD1D1D"/>
<stop offset="0.5589" stop-color="#FC6831"/>
<stop offset="0.6887" stop-color="#FC9B40"/>
<stop offset="0.7521" stop-color="#FCAF45"/>
<stop offset="0.7806" stop-color="#FDB750"/>
<stop offset="0.8656" stop-color="#FECB6A"/>
<stop offset="0.9415" stop-color="#FFD87A"/>
<stop offset="1" stop-color="#FFDC80"/>
</linearGradient>
</defs>
</svg>
