<svg width="36" height="32" viewBox="0 0 36 32" fill="none" xmlns="http://www.w3.org/2000/svg">
<g filter="url(#filter0_d)">
<path d="M17.9958 0.5C15.7173 0.510244 13.4804 1.09836 11.5034 2.20697C9.52634 3.31558 7.87671 4.90682 6.71543 6.82543C5.55415 8.74405 4.92088 10.9245 4.8774 13.1541C4.83392 15.3836 5.38172 17.5862 6.46736 19.5467V16.1367C6.47262 15.5128 6.69441 14.9092 7.09633 14.425C7.06296 14.0848 7.04628 13.7428 7.04628 13.399C7.05191 10.5533 8.20546 7.8249 10.256 5.80729C12.3065 3.78968 15.0882 2.64611 17.9958 2.62535C19.5353 2.63109 21.0565 2.95305 22.4609 3.57042C23.8652 4.18779 25.1216 5.0868 26.1485 6.20931C27.1755 7.33182 27.9503 8.65282 28.4227 10.0868C28.8952 11.5209 29.0548 13.036 28.8912 14.5342C29.2418 14.9984 29.4326 15.5595 29.4363 16.1367V19.7202C30.5607 17.7607 31.1427 15.5478 31.1246 13.3005C31.1065 11.0532 30.4889 8.84954 29.333 6.90767C28.1772 4.96579 26.5231 3.35307 24.5346 2.22919C22.546 1.1053 20.2921 0.509233 17.9958 0.5Z" fill="white"/>
<path d="M7.27662 15.5867C7.22043 15.7651 7.19171 15.9507 7.19141 16.1374V20.9541C7.19141 22.4407 9.00054 23.646 11.2324 23.646H12.9333V13.4462H11.2324C9.28392 13.4462 7.65806 14.3642 7.27662 15.5867Z" fill="white"/>
<path d="M28.7123 20.9541V16.1374C28.7119 16.0226 28.7006 15.9081 28.6785 15.7952C28.4256 14.4715 26.7287 13.4462 24.6713 13.4462H22.9697V23.6467H24.6713C26.9039 23.646 28.7123 22.4407 28.7123 20.9541Z" fill="white"/>
</g>
<defs>
<filter id="filter0_d" x="0.875" y="0.5" width="34.25" height="31.1467" filterUnits="userSpaceOnUse" color-interpolation-filters="sRGB">
<feFlood flood-opacity="0" result="BackgroundImageFix"/>
<feColorMatrix in="SourceAlpha" type="matrix" values="0 0 0 0 0 0 0 0 0 0 0 0 0 0 0 0 0 0 127 0"/>
<feOffset dy="4"/>
<feGaussianBlur stdDeviation="2"/>
<feColorMatrix type="matrix" values="0 0 0 0 0 0 0 0 0 0 0 0 0 0 0 0 0 0 0.15 0"/>
<feBlend mode="normal" in2="BackgroundImageFix" result="effect1_dropShadow"/>
<feBlend mode="normal" in="SourceGraphic" in2="effect1_dropShadow" result="shape"/>
</filter>
</defs>
</svg>
