<svg width="38" height="32" viewBox="0 0 38 32" fill="none" xmlns="http://www.w3.org/2000/svg">
<g filter="url(#filter0_d)">
<path d="M33.4827 0H4.51732C4.38012 0 4.24853 0.0549824 4.15152 0.152852C4.0545 0.250721 4 0.383459 4 0.521867V23.4781C4 23.6165 4.0545 23.7493 4.15152 23.8471C4.24853 23.945 4.38012 24 4.51732 24H33.4827C33.6195 24 33.7508 23.9453 33.8477 23.8479C33.9447 23.7505 33.9994 23.6184 34 23.4803V0.521867C34 0.383459 33.9455 0.250721 33.8485 0.152852C33.7515 0.0549824 33.6199 0 33.4827 0ZM9.17244 22.9563H5.03463V18.2624H9.17244V22.9563ZM9.17244 17.2165H5.03463V12.5233H9.17244V17.2165ZM9.17244 11.4767H5.03463V6.78354H9.17244V11.4767ZM9.17244 5.73685H5.03463V1.04374H9.17244V5.73685ZM22.8985 12.4385L17.2088 16.0915C17.1304 16.1417 17.0401 16.1698 16.9472 16.1726C16.8544 16.1755 16.7626 16.1531 16.6813 16.1078C16.6 16.0625 16.5323 15.9959 16.4853 15.9152C16.4383 15.8344 16.4137 15.7423 16.4141 15.6486V8.34102C16.4136 8.24724 16.4382 8.15505 16.4852 8.07415C16.5323 7.99326 16.6001 7.92664 16.6815 7.88132C16.7629 7.836 16.8549 7.81364 16.9478 7.8166C17.0407 7.81956 17.1311 7.84773 17.2095 7.89814L22.8993 11.5505C22.9725 11.5977 23.0328 11.6628 23.0746 11.7398C23.1164 11.8167 23.1383 11.903 23.1383 11.9908C23.1383 12.0785 23.1164 12.1648 23.0746 12.2418C23.0328 12.3187 22.9725 12.3838 22.8993 12.4311L22.8985 12.4385ZM32.9654 22.9563H28.8276V18.2624H32.9654V22.9563ZM32.9654 17.2165H28.8276V12.5233H32.9654V17.2165ZM32.9654 11.4767H28.8276V6.78354H32.9654V11.4767ZM32.9654 5.73685H28.8276V1.04374H32.9654V5.73685Z" fill="white"/>
</g>
<defs>
<filter id="filter0_d" x="0" y="0" width="38" height="32" filterUnits="userSpaceOnUse" color-interpolation-filters="sRGB">
<feFlood flood-opacity="0" result="BackgroundImageFix"/>
<feColorMatrix in="SourceAlpha" type="matrix" values="0 0 0 0 0 0 0 0 0 0 0 0 0 0 0 0 0 0 127 0"/>
<feOffset dy="4"/>
<feGaussianBlur stdDeviation="2"/>
<feColorMatrix type="matrix" values="0 0 0 0 0 0 0 0 0 0 0 0 0 0 0 0 0 0 0.15 0"/>
<feBlend mode="normal" in2="BackgroundImageFix" result="effect1_dropShadow"/>
<feBlend mode="normal" in="SourceGraphic" in2="effect1_dropShadow" result="shape"/>
</filter>
</defs>
</svg>
