<svg width="53" height="52" viewBox="0 0 53 52" fill="none" xmlns="http://www.w3.org/2000/svg">
<g filter="url(#filter0_d)">
<path d="M40.3937 43.2467C30.9832 44.2511 21.5442 44.2511 12.1337 43.2467C8.38129 42.8462 5.41745 39.8824 5.01697 36.1297C4.01257 26.7192 4.01257 17.2805 5.01697 7.87C5.41745 4.11761 8.38129 1.15378 12.1337 0.753296C21.5442 -0.251099 30.9828 -0.251099 40.3933 0.753296C44.1461 1.15378 47.1099 4.11761 47.5104 7.87C48.5148 17.2805 48.5148 26.7192 47.5104 36.1297C47.1099 39.8824 44.1464 42.8462 40.3937 43.2467Z" fill="url(#paint0_linear)"/>
<path d="M45.2735 9.35741C44.9154 6 42.2637 3.348 38.906 2.98954C30.4859 2.09121 22.0408 2.09121 13.6207 2.98954C10.2633 3.348 7.6113 6 7.25285 9.35741C6.35452 17.7775 6.35452 26.2226 7.25285 34.6423C7.6113 38.0001 10.2633 40.6521 13.6207 41.0102C22.0408 41.9089 30.4859 41.9089 38.9057 41.0102C42.2634 40.6521 44.9154 38.0001 45.2735 34.6423C46.1722 26.2226 46.1722 17.7775 45.2735 9.35741Z" fill="url(#paint1_linear)"/>
<path d="M4.26367 34.7368C4.294 35.0576 4.32533 35.3784 4.35802 35.6992C4.76001 39.657 7.73498 42.783 11.5018 43.2054C20.9476 44.2648 30.4218 44.2648 39.8677 43.2054C43.6345 42.783 46.6091 39.657 47.0111 35.6992C47.0438 35.3784 47.0751 35.0576 47.1058 34.7368H4.26367Z" fill="url(#paint2_linear)"/>
<g filter="url(#filter1_d)">
<path d="M24.0238 21.1512C24.0238 21.1512 27.1004 20.9073 27.1004 17.2966C27.1004 13.6903 24.5804 11.5789 21.3928 11.5789H11.2109V32.4741H20.7706C20.7706 32.4741 27.7987 32.3041 27.7987 26.1502C27.7987 26.1502 28.0784 21.1512 24.0238 21.1512ZM21.3928 15.7577C21.3928 15.7577 22.7024 15.6907 22.7024 17.7889C22.7024 19.8859 21.98 19.9371 21.0293 19.9371H15.3904V15.7577H21.3928ZM21.1235 28.2954C19.3859 28.2954 15.3904 28.2954 15.3904 28.2954V23.0715H21.3928C21.3928 23.0715 23.5168 23.1089 23.5168 25.9047C23.5168 28.2373 22.0054 28.2954 21.1235 28.2954Z" fill="white"/>
<path d="M36.3422 17.1257C28.5887 17.1257 28.5949 24.847 28.5949 24.847C28.5949 24.847 28.0595 32.5846 36.3422 32.5846C36.3422 32.5846 43.2413 32.4742 43.2413 27.2503H39.6946C39.6946 27.2503 39.6861 29.3013 36.338 29.3727C35.1825 29.3975 33.1536 29.144 33.1536 26.2057H43.6025C43.6025 26.2057 44.5045 17.1257 36.3422 17.1257ZM39.4886 23.0715H32.8641C32.8641 23.0715 33.3047 20.074 36.4215 20.074C39.5351 20.074 39.4886 23.0715 39.4886 23.0715Z" fill="white"/>
<path d="M40.4681 12.624H32.1094V15.7578H40.4681V12.624Z" fill="white"/>
</g>
</g>
<defs>
<filter id="filter0_d" x="0.263672" y="0" width="52" height="52" filterUnits="userSpaceOnUse" color-interpolation-filters="sRGB">
<feFlood flood-opacity="0" result="BackgroundImageFix"/>
<feColorMatrix in="SourceAlpha" type="matrix" values="0 0 0 0 0 0 0 0 0 0 0 0 0 0 0 0 0 0 127 0"/>
<feOffset dy="4"/>
<feGaussianBlur stdDeviation="2"/>
<feColorMatrix type="matrix" values="0 0 0 0 0 0 0 0 0 0 0 0 0 0 0 0 0 0 0.15 0"/>
<feBlend mode="normal" in2="BackgroundImageFix" result="effect1_dropShadow"/>
<feBlend mode="normal" in="SourceGraphic" in2="effect1_dropShadow" result="shape"/>
</filter>
<filter id="filter1_d" x="7.21094" y="11.5789" width="40.4211" height="29.0057" filterUnits="userSpaceOnUse" color-interpolation-filters="sRGB">
<feFlood flood-opacity="0" result="BackgroundImageFix"/>
<feColorMatrix in="SourceAlpha" type="matrix" values="0 0 0 0 0 0 0 0 0 0 0 0 0 0 0 0 0 0 127 0"/>
<feOffset dy="4"/>
<feGaussianBlur stdDeviation="2"/>
<feColorMatrix type="matrix" values="0 0 0 0 0 0 0 0 0 0 0 0 0 0 0 0 0 0 0.15 0"/>
<feBlend mode="normal" in2="BackgroundImageFix" result="effect1_dropShadow"/>
<feBlend mode="normal" in="SourceGraphic" in2="effect1_dropShadow" result="shape"/>
</filter>
<linearGradient id="paint0_linear" x1="18.8725" y1="6.18632" x2="30.0014" y2="29.9969" gradientUnits="userSpaceOnUse">
<stop stop-color="#0044D2"/>
<stop offset="1" stop-color="#3B5998"/>
</linearGradient>
<linearGradient id="paint1_linear" x1="34.6792" y1="27.7826" x2="-4.10345" y2="1.13511" gradientUnits="userSpaceOnUse">
<stop stop-color="#0047DC" stop-opacity="0"/>
<stop offset="1" stop-color="#1F3F77"/>
</linearGradient>
<linearGradient id="paint2_linear" x1="25.6846" y1="36.3746" x2="25.6846" y2="42.6545" gradientUnits="userSpaceOnUse">
<stop stop-color="#3457A0" stop-opacity="0"/>
<stop offset="1" stop-color="#1F3F77"/>
</linearGradient>
</defs>
</svg>
