<svg width="36" height="36" viewBox="0 0 36 36" fill="none" xmlns="http://www.w3.org/2000/svg">
<path d="M25.5816 0.583984H9.60523C7.10566 0.587337 4.70944 1.58188 2.94213 3.3495C1.17481 5.11711 0.180667 7.51349 0.177734 10.0131L0.177734 25.9895C0.180667 28.489 1.17481 30.8854 2.94213 32.653C4.70944 34.4206 7.10566 35.4152 9.60523 35.4185H25.5816C28.0817 35.416 30.4788 34.4218 32.2468 32.6541C34.0148 30.8864 35.0093 28.4896 35.0123 25.9895V10.0131C35.0093 7.51294 34.0148 5.11608 32.2468 3.34838C30.4788 1.58067 28.0817 0.586499 25.5816 0.583984V0.583984ZM17.595 27.5269C15.7109 27.5272 13.8691 26.9688 12.3024 25.9223C10.7357 24.8758 9.51453 23.3882 8.79331 21.6477C8.07209 19.9071 7.88323 17.9918 8.2506 16.1439C8.61797 14.296 9.52508 12.5985 10.8572 11.2662C12.1893 9.93381 13.8866 9.02642 15.7345 8.65874C17.5823 8.29106 19.4977 8.47961 21.2384 9.20054C22.9791 9.92147 24.4669 11.1424 25.5136 12.7089C26.5604 14.2754 27.1191 16.1172 27.1191 18.0013C27.1166 20.5266 26.1124 22.9478 24.3269 24.7336C22.5413 26.5194 20.1203 27.524 17.595 27.5269ZM27.3471 10.7177C26.7903 10.7177 26.246 10.5526 25.783 10.2432C25.3201 9.93387 24.9592 9.49418 24.7461 8.97976C24.5331 8.46534 24.4773 7.89928 24.5859 7.35318C24.6946 6.80707 24.9627 6.30544 25.3564 5.91171C25.7501 5.51799 26.2518 5.24986 26.7979 5.14124C27.344 5.03261 27.91 5.08836 28.4245 5.30144C28.9389 5.51452 29.3786 5.87536 29.6879 6.33833C29.9973 6.8013 30.1624 7.3456 30.1624 7.90241C30.1619 8.64893 29.8652 9.36476 29.3373 9.89264C28.8095 10.4205 28.0936 10.7173 27.3471 10.7177Z" fill="white"/>
<path d="M17.5935 10.5173C16.1134 10.5173 14.6667 10.9561 13.4361 11.7784C12.2055 12.6006 11.2463 13.7693 10.68 15.1367C10.1136 16.5041 9.9654 18.0087 10.2541 19.4602C10.5429 20.9118 11.2556 22.2452 12.3021 23.2917C13.3486 24.3382 14.682 25.0509 16.1336 25.3397C17.5852 25.6284 19.0898 25.4802 20.4571 24.9138C21.8245 24.3475 22.9932 23.3883 23.8154 22.1577C24.6377 20.9272 25.0765 19.4804 25.0765 18.0004C25.0744 16.0164 24.2854 14.1142 22.8825 12.7113C21.4796 11.3084 19.5774 10.5194 17.5935 10.5173Z" fill="white"/>
<path d="M27.3469 7.13403C27.1941 7.13403 27.0447 7.17934 26.9176 7.26425C26.7906 7.34915 26.6915 7.46983 26.633 7.61102C26.5746 7.75221 26.5593 7.90758 26.5891 8.05746C26.6189 8.20735 26.6925 8.34504 26.8005 8.4531C26.9086 8.56117 27.0463 8.63476 27.1962 8.66457C27.3461 8.69439 27.5014 8.67908 27.6426 8.6206C27.7838 8.56211 27.9045 8.46308 27.9894 8.33601C28.0743 8.20894 28.1196 8.05955 28.1196 7.90673C28.1196 7.70179 28.0382 7.50525 27.8933 7.36035C27.7484 7.21544 27.5519 7.13403 27.3469 7.13403Z" fill="white"/>
</svg>
