<svg width="38" height="33" viewBox="0 0 38 33" fill="none" xmlns="http://www.w3.org/2000/svg">
<path d="M15.8018 2.72169L8.8905 7.89227H2.57953C2.07694 7.89379 1.59546 8.09451 1.24062 8.45043C0.885779 8.80635 0.686521 9.28843 0.686523 9.79102L0.686523 22.9817C0.688039 23.4833 0.887966 23.9639 1.24265 24.3186C1.59733 24.6733 2.07794 24.8732 2.57953 24.8747H8.89194L15.8033 30.0453C16.0837 30.2598 16.4187 30.3912 16.7702 30.4245C17.1216 30.4578 17.4754 30.3918 17.7911 30.2338C18.1069 30.0759 18.3719 29.8324 18.556 29.5312C18.7401 29.23 18.8358 28.8831 18.8324 28.53V4.24127C18.8352 3.88831 18.7391 3.54163 18.5549 3.24053C18.3707 2.93943 18.1058 2.69597 17.7903 2.53776C17.4748 2.37955 17.1212 2.31292 16.7698 2.34543C16.4183 2.37794 16.083 2.50829 15.8018 2.72169Z" fill="#104EFB"/>
<path d="M25.0858 5.81163C24.8808 5.60614 24.6373 5.44304 24.3692 5.33165C24.1012 5.22025 23.8138 5.16275 23.5235 5.16242C23.2333 5.16208 22.9457 5.21893 22.6774 5.3297C22.4091 5.44048 22.1653 5.60302 21.9598 5.80805C21.7543 6.01307 21.5912 6.25656 21.4798 6.52461C21.3684 6.79267 21.3109 7.08004 21.3105 7.37032C21.3102 7.6606 21.3671 7.94811 21.4778 8.21642C21.5886 8.48473 21.7512 8.7286 21.9562 8.93409C23.9265 10.9056 25.0333 13.5788 25.0333 16.3661C25.0333 19.1534 23.9265 21.8266 21.9562 23.7981C21.5465 24.2147 21.3168 24.7757 21.3168 25.36C21.3168 25.9444 21.5465 26.5053 21.9562 26.9219C22.1603 27.1247 22.4027 27.2849 22.6692 27.3933C22.9358 27.5016 23.2212 27.5558 23.5089 27.5529C23.7966 27.55 24.0809 27.4899 24.3452 27.3761C24.6095 27.2624 24.8485 27.0973 25.0485 26.8904C26.4419 25.5127 27.5489 23.8728 28.3055 22.0653C29.0621 20.2577 29.4535 18.3183 29.457 16.3588C29.4604 14.3993 29.076 12.4584 28.3257 10.6482C27.5755 8.83802 26.4744 7.19423 25.0858 5.81163Z" fill="#104EFB"/>
<path d="M27.5414 0.858267C27.132 1.27509 26.9027 1.83597 26.9027 2.42021C26.9027 3.00445 27.132 3.56533 27.5414 3.98216C29.1721 5.60971 30.4658 7.54287 31.3485 9.671C32.2312 11.7991 32.6856 14.0804 32.6856 16.3844C32.6856 18.6883 32.2312 20.9696 31.3485 23.0977C30.4658 25.2258 29.1721 27.159 27.5414 28.7866C27.2357 29.0969 27.0277 29.4901 26.9434 29.9175C26.8591 30.3449 26.9022 30.7877 27.0672 31.1909C27.2322 31.594 27.512 31.9399 27.8718 32.1855C28.2316 32.4311 28.6556 32.5657 29.0912 32.5726C29.6697 32.5742 30.2255 32.3476 30.638 31.942C32.6788 29.9042 34.2977 27.4839 35.4023 24.8198C36.5069 22.1557 37.0755 19.3 37.0755 16.416C37.0755 13.5319 36.5069 10.6762 35.4023 8.01208C34.2977 5.34797 32.6788 2.92776 30.638 0.889865C30.4387 0.681067 30.1997 0.514296 29.9349 0.399387C29.6701 0.284479 29.385 0.223761 29.0964 0.220816C28.8078 0.217871 28.5215 0.272758 28.2544 0.38224C27.9874 0.491721 27.7449 0.65358 27.5414 0.858267Z" fill="#104EFB"/>
</svg>
