<svg width="39" height="34" viewBox="0 0 39 34" fill="none" xmlns="http://www.w3.org/2000/svg">
<path d="M38.4112 17.1891C38.3082 17.0113 38.1708 16.8559 38.007 16.732C37.8432 16.608 37.6563 16.518 37.4573 16.4671C37.2582 16.4163 37.051 16.4057 36.8479 16.436C36.6447 16.4662 36.4496 16.5367 36.274 16.6433L31.0919 19.6437L29.7734 20.4164V27.5977L31.0015 28.3245C31.0474 28.3245 31.0474 28.3704 31.0919 28.3704L36.1835 31.3249C36.4327 31.5087 36.7357 31.6047 37.0453 31.5977C37.2487 31.5995 37.4504 31.5607 37.6387 31.4836C37.827 31.4066 37.9981 31.2928 38.1419 31.1489C38.2858 31.0051 38.3995 30.834 38.4766 30.6457C38.5537 30.4575 38.5924 30.2557 38.5907 30.0523V23.9668L38.6367 17.9661C38.6546 17.6887 38.5748 17.4138 38.4112 17.1891Z" fill="#104EFB"/>
<path d="M8.14139 14.8692C9.59057 14.8692 11.0072 14.4393 12.212 13.634C13.4168 12.8287 14.3556 11.6841 14.9098 10.345C15.4639 9.006 15.6083 7.53267 15.3249 6.11149C15.0414 4.69031 14.3428 3.38514 13.3174 2.36112C12.292 1.33711 10.9858 0.640265 9.56426 0.358765C8.14269 0.0772658 6.66956 0.22376 5.33127 0.779712C3.99298 1.33566 2.84967 2.27609 2.046 3.482C1.24234 4.68791 0.814424 6.10511 0.816413 7.55428C0.816223 8.51579 1.00563 9.4679 1.3738 10.3561C1.74198 11.2444 2.28168 12.0513 2.96204 12.7307C3.64239 13.4101 4.45005 13.9487 5.33878 14.3157C6.22752 14.6826 7.17989 14.8707 8.14139 14.8692ZM8.14139 4.5496C8.73438 4.55074 9.31374 4.72756 9.8063 5.05774C10.2989 5.38793 10.6825 5.85666 10.9089 6.40476C11.1352 6.95285 11.194 7.55573 11.078 8.13725C10.9619 8.71876 10.6761 9.25285 10.2567 9.67205C9.83732 10.0913 9.30309 10.3768 8.72152 10.4926C8.13995 10.6084 7.5371 10.5492 6.98912 10.3226C6.44113 10.096 5.97258 9.71214 5.64263 9.21942C5.31268 8.72671 5.13613 8.14727 5.13528 7.55428C5.12685 7.15733 5.19886 6.76279 5.34698 6.39441C5.4951 6.02604 5.71627 5.69147 5.99715 5.41086C6.27803 5.13024 6.61282 4.9094 6.98133 4.76163C7.34984 4.61386 7.74446 4.54222 8.14139 4.55104V4.5496Z" fill="#104EFB"/>
<path d="M26.684 15.2793C25.4732 15.8984 24.1343 16.2255 22.7745 16.2344C21.0938 16.2425 19.4484 15.7522 18.0463 14.8254H12.8642C11.4621 15.7522 9.8167 16.2425 8.13599 16.2344C6.77349 16.2475 5.4294 15.9192 4.22646 15.2793C3.6916 15.589 3.2468 16.033 2.93598 16.5672C2.62516 17.1014 2.45906 17.7075 2.4541 18.3256V29.4179C2.45751 30.3935 2.84659 31.3283 3.53647 32.0181C4.22636 32.708 5.16106 33.0971 6.1367 33.1005H24.8197C25.7954 33.0971 26.7301 32.708 27.4199 32.0181C28.1098 31.3283 28.4989 30.3935 28.5023 29.4179V18.3256C28.479 17.7061 28.3002 17.1024 27.9824 16.57C27.6647 16.0377 27.2182 15.5938 26.684 15.2793Z" fill="#104EFB"/>
<path d="M22.7742 14.8687C24.2229 14.8687 25.6392 14.4391 26.8438 13.6342C28.0483 12.8294 28.9872 11.6854 29.5416 10.3469C30.096 9.00842 30.2411 7.53561 29.9584 6.1147C29.6758 4.69379 28.9782 3.38861 27.9537 2.36419C26.9293 1.33977 25.6241 0.642137 24.2032 0.3595C22.7823 0.0768643 21.3095 0.221925 19.9711 0.776335C18.6326 1.33075 17.4886 2.26961 16.6837 3.47419C15.8788 4.67878 15.4492 6.09499 15.4492 7.54374C15.4477 8.50609 15.6361 9.45928 16.0037 10.3487C16.3713 11.2381 16.9108 12.0462 17.5913 12.7267C18.2718 13.4071 19.0799 13.9466 19.9693 14.3142C20.8587 14.6818 21.8118 14.8702 22.7742 14.8687ZM22.7742 4.54911C23.3676 4.54911 23.9477 4.72508 24.4411 5.05477C24.9345 5.38445 25.3191 5.85304 25.5462 6.40129C25.7733 6.94953 25.8327 7.55281 25.7169 8.13483C25.6012 8.71684 25.3154 9.25145 24.8958 9.67106C24.4762 10.0907 23.9416 10.3764 23.3595 10.4922C22.7775 10.608 22.1743 10.5486 21.626 10.3215C21.0778 10.0944 20.6092 9.70981 20.2795 9.2164C19.9498 8.72299 19.7738 8.1429 19.7738 7.54948C19.7737 7.15548 19.8511 6.76531 20.0019 6.40128C20.1526 6.03726 20.3736 5.70652 20.6523 5.42799C20.931 5.14945 21.2618 4.92859 21.6259 4.77803C21.99 4.62747 22.3802 4.55017 22.7742 4.55055V4.54911Z" fill="#104EFB"/>
</svg>
