<svg width="33" height="33" viewBox="0 0 33 33" fill="none" xmlns="http://www.w3.org/2000/svg">
<path d="M8.0082 10.6064H1.47197C1.33255 10.6064 1.19884 10.6618 1.10026 10.7604C1.00167 10.859 0.946289 10.9927 0.946289 11.1321V32.131C0.946289 32.2704 1.00167 32.4042 1.10026 32.5027C1.19884 32.6013 1.33255 32.6567 1.47197 32.6567H8.0082C8.14762 32.6567 8.28133 32.6013 8.37992 32.5027C8.4785 32.4042 8.53389 32.2704 8.53389 32.131V11.1321C8.53389 10.9927 8.4785 10.859 8.37992 10.7604C8.28133 10.6618 8.14762 10.6064 8.0082 10.6064Z" fill="white"/>
<path d="M4.74163 0.166016C3.88912 0.166016 3.05577 0.418832 2.34696 0.892489C1.63816 1.36615 1.08573 2.03937 0.759569 2.82701C0.433403 3.61464 0.348144 4.48132 0.514574 5.31742C0.681004 6.15352 1.09165 6.92148 1.69457 7.52418C2.29749 8.12688 3.0656 8.53724 3.90176 8.70336C4.73792 8.86948 5.60456 8.78391 6.39208 8.45745C7.1796 8.13099 7.85262 7.57833 8.32602 6.86935C8.79941 6.16036 9.05192 5.32692 9.05161 4.47442C9.04952 3.33213 8.59471 2.23724 7.78684 1.42967C6.97897 0.622097 5.88392 0.16769 4.74163 0.166016Z" fill="white"/>
<path d="M24.6335 10.0823C23.5609 10.0606 22.4956 10.264 21.5065 10.6794C20.5173 11.0948 19.6262 11.7128 18.8906 12.4938V11.1305C18.8906 10.9911 18.8352 10.8574 18.7366 10.7588C18.638 10.6602 18.5043 10.6048 18.3649 10.6048H12.1058C11.9663 10.6048 11.8326 10.6602 11.734 10.7588C11.6355 10.8574 11.5801 10.9911 11.5801 11.1305V32.1294C11.5801 32.2688 11.6355 32.4025 11.734 32.5011C11.8326 32.5997 11.9663 32.6551 12.1058 32.6551H18.6277C18.7672 32.6551 18.9009 32.5997 18.9995 32.5011C19.098 32.4025 19.1534 32.2688 19.1534 32.1294V21.7408C19.1534 18.2399 20.1035 16.8766 22.545 16.8766C25.2035 16.8766 25.4141 19.0633 25.4141 21.9213V32.131C25.4141 32.2704 25.4695 32.4041 25.5681 32.5027C25.6667 32.6013 25.8004 32.6567 25.9398 32.6567H32.465C32.6044 32.6567 32.7381 32.6013 32.8367 32.5027C32.9353 32.4041 32.9907 32.2704 32.9907 32.131V20.6103C32.9938 15.4041 31.9947 10.0823 24.6335 10.0823Z" fill="white"/>
</svg>
