<svg width="39" height="38" viewBox="0 0 39 38" fill="none" xmlns="http://www.w3.org/2000/svg">
<path d="M29.3762 8.53419C30.4415 7.41265 31.1629 6.00923 31.4551 4.49022C28.8946 2.29362 25.7857 0.833517 22.4602 0.265745C19.1348 -0.302028 15.7175 0.0438428 12.5732 1.26644C16.1108 4.85538 19.0676 8.97354 21.3373 13.4728C24.3746 12.4959 27.1319 10.802 29.3762 8.53419Z" fill="white"/>
<path d="M31.0368 10.0197C28.6113 12.5119 25.6256 14.3885 22.3281 15.4934C22.7794 16.4815 23.1927 17.4917 23.5838 18.513C25.4766 18.0987 27.4081 17.8864 29.3457 17.8796C32.3708 17.8773 35.375 18.382 38.2333 19.3727C38.2333 19.2461 38.2523 19.121 38.2523 18.9927C38.2506 14.2806 36.4822 9.74046 33.2963 6.26862C32.7994 7.65531 32.0301 8.92855 31.0336 10.0133L31.0368 10.0197Z" fill="white"/>
<path d="M0.6875 14.9979C3.16636 15.4317 5.67781 15.6526 8.19434 15.6581C11.9122 15.664 15.6131 15.1573 19.1926 14.1523C16.9206 9.73495 13.9493 5.71403 10.3937 2.24524C7.95744 3.55248 5.8302 5.36745 4.15571 7.5675C2.48123 9.76755 1.29851 12.3014 0.6875 14.9979Z" fill="white"/>
<path d="M38.0387 21.6721C35.257 20.6351 32.3114 20.1073 29.3427 20.1141C27.6585 20.1158 25.9786 20.2855 24.3281 20.6208C26.0048 25.6907 26.935 30.9776 27.0895 36.3153C29.995 34.987 32.5203 32.95 34.4334 30.3915C36.3466 27.8329 37.5863 24.8347 38.0387 21.6721Z" fill="white"/>
<path d="M0.253906 18.9983C0.280409 21.8035 0.921986 24.5688 2.1334 27.0992C3.34481 29.6295 5.09657 31.8633 7.26515 33.643C7.74769 30.5563 9.11816 27.6767 11.2094 25.3556C13.9768 22.3676 17.5075 20.1919 21.4206 19.0632C21.0438 18.0894 20.629 17.1362 20.1967 16.1957C16.298 17.3305 12.2566 17.9 8.19618 17.8868C5.56461 17.881 2.9383 17.6511 0.345743 17.1996C0.288741 17.7933 0.253906 18.3918 0.253906 18.9999L0.253906 18.9983Z" fill="white"/>
<path d="M12.8721 26.8358C10.7787 29.1097 9.53238 32.0352 9.34277 35.1201C11.632 36.5576 14.2044 37.4846 16.8844 37.8379C19.5644 38.1912 22.289 37.9625 24.8726 37.1674C24.8 31.7228 23.8867 26.322 22.165 21.1562C18.6053 22.1606 15.3908 24.1256 12.8737 26.8358H12.8721Z" fill="white"/>
</svg>
