<svg width="41" height="27" viewBox="0 0 41 27" fill="none" xmlns="http://www.w3.org/2000/svg">
<path d="M16.0286 12.3171C17.1738 12.1776 18.2185 11.5944 18.9383 10.6928C19.658 9.79125 19.9954 8.64333 19.8779 7.49571C19.9301 6.54383 19.7813 5.59163 19.4412 4.70106C19.1011 3.8105 18.5772 3.00155 17.9037 2.32686C17.2302 1.65217 16.4222 1.12688 15.5322 0.785162C14.6423 0.443448 13.6903 0.292977 12.7384 0.343543H0V26.4821H11.9593C11.9593 26.4821 20.7519 26.2699 20.7519 18.5652C20.7503 18.5699 21.1002 12.3171 16.0286 12.3171ZM12.7368 5.5703C12.7368 5.5703 14.3756 5.48639 14.3756 8.10373C14.3756 10.7211 13.4715 10.7955 12.2823 10.7955H5.22518V5.5703H12.7368ZM12.3995 21.2554H5.22518V14.7191H12.7368C12.7368 14.7191 15.3937 14.7666 15.3937 18.2628C15.3937 21.1809 13.5031 21.2538 12.4011 21.2538L12.3995 21.2554Z" fill="white"/>
<path d="M31.4404 7.27991C21.7405 7.27991 21.7484 16.9386 21.7484 16.9386C21.6407 18.238 21.8176 19.5453 22.2667 20.7694C22.7159 21.9935 23.4265 23.105 24.3491 24.0264C25.2717 24.9478 26.3841 25.657 27.6088 26.1045C28.8335 26.5521 30.1411 26.7272 31.4404 26.6178C31.4404 26.6178 40.0714 26.4801 40.0714 19.9454H35.6379C35.6379 19.9454 35.6268 22.5105 31.4388 22.6008C30.8985 22.6854 30.346 22.6416 29.8258 22.473C29.3056 22.3044 28.8324 22.0157 28.4445 21.6303C28.0567 21.2449 27.7649 20.7735 27.593 20.2544C27.4211 19.7353 27.3738 19.1831 27.455 18.6423H40.5195C40.5195 18.6423 41.6516 7.27991 31.4404 7.27991ZM35.3767 14.7218H27.0892C27.2559 13.6662 27.7975 12.7061 28.6147 12.0175C29.4319 11.3288 30.4699 10.9578 31.5385 10.9724C32.0415 10.9466 32.5444 11.0252 33.0156 11.2032C33.4868 11.3811 33.9162 11.6546 34.2766 12.0064C34.6371 12.3582 34.9209 12.7808 35.1102 13.2476C35.2995 13.7143 35.3902 14.2152 35.3767 14.7187V14.7218Z" fill="white"/>
<path d="M36.5993 1.64832H26.1426V5.56879H36.5993V1.64832Z" fill="white"/>
</svg>
