<svg width="30" height="37" viewBox="0 0 30 37" fill="none" xmlns="http://www.w3.org/2000/svg">
<path d="M25.5837 3.74322C22.9339 1.2812 19.4322 -0.0566944 15.8158 0.0111736C13.7305 -0.0684084 11.6509 0.277776 9.70391 1.0286C7.75689 1.77942 5.9833 2.91913 4.49138 4.37816C2.10134 6.74726 0.731441 9.95638 0.673828 13.3211C0.673828 17.3746 2.36964 20.486 5.20866 21.6434C5.3892 21.7193 5.58284 21.7591 5.77867 21.7606C6.07126 21.7596 6.35446 21.6573 6.58017 21.4711C6.80589 21.2849 6.9602 21.0264 7.01688 20.7393C7.11347 20.3783 7.33356 19.4884 7.43173 19.1021C7.53562 18.8156 7.55195 18.5047 7.47864 18.209C7.40533 17.9132 7.2457 17.6459 7.02005 17.4411C6.18378 16.4269 5.75482 15.1377 5.81668 13.8247C5.80794 12.5957 6.04815 11.3777 6.52284 10.244C6.99753 9.11041 7.69686 8.08464 8.57867 7.22857C9.46049 6.3725 10.5065 5.70386 11.6537 5.26296C12.8009 4.82206 14.0255 4.61803 15.2537 4.66317C20.1178 4.66317 23.1389 7.42777 23.1389 11.8787C23.2023 14.4248 22.616 16.9451 21.4352 19.2018C21.0617 20.014 20.4789 20.7121 19.7466 21.2247C19.0142 21.7372 18.1587 22.0457 17.2677 22.1184C16.8493 22.1285 16.434 22.0434 16.0533 21.8695C15.6726 21.6956 15.3364 21.4374 15.07 21.1146C14.8343 20.8062 14.6726 20.4478 14.5973 20.067C14.5221 19.6862 14.5354 19.2933 14.6361 18.9184C14.8531 18.0001 15.1492 17.0437 15.4278 16.1174C15.9704 14.6501 16.3118 13.1161 16.4428 11.5572C16.4893 11.0943 16.4377 10.6267 16.2914 10.185C16.1451 9.74328 15.9073 9.33738 15.5935 8.99376C15.2798 8.65013 14.8972 8.3765 14.4706 8.1907C14.0439 8.0049 13.583 7.91111 13.1177 7.91545C10.5843 7.91545 8.60027 10.4885 8.60027 13.774C8.59433 14.897 8.80564 16.0105 9.22255 17.0532C8.90587 18.4054 7.0058 26.4443 6.64637 27.9596C6.43894 28.8447 5.1849 35.8338 7.25914 36.3911C9.58989 37.0245 11.672 30.2159 11.8842 29.4416C12.0568 28.8083 12.6569 26.4506 13.0258 24.997C14.315 26.1609 15.9885 26.8077 17.7253 26.8132C19.3589 26.8157 20.9705 26.4363 22.4314 25.7053C23.8923 24.9743 25.1621 23.9119 26.1395 22.603C28.2976 19.598 29.4101 15.9679 29.3062 12.2698C29.2893 10.6715 28.951 9.09302 28.3115 7.6282C27.672 6.16337 26.7443 4.84217 25.5837 3.74322Z" fill="white"/>
</svg>
